<svg id="svg" version="1.1" xmlns="http://www.w3.org/2000/svg" xmlns:xlink="http://www.w3.org/1999/xlink" width="400" height="370.1492537313433" viewBox="0, 0, 400,370.1492537313433"><g id="svgg"><path id="path0" d="M47.059 95.278 C 45.983 97.973,45.234 260.559,46.290 262.222 C 46.805 263.033,84.328 263.003,84.842 262.191 C 85.034 261.887,85.176 234.487,85.180 197.105 C 85.183 153.320,85.309 132.313,85.569 131.828 C 86.456 130.170,111.666 131.006,113.752 132.762 C 114.335 133.252,115.156 133.762,115.579 133.896 C 116.654 134.237,118.813 136.659,119.076 137.819 C 119.197 138.352,119.681 139.122,120.151 139.531 C 121.750 140.921,121.904 152.130,120.345 153.542 C 119.975 153.877,119.562 154.651,119.427 155.263 C 119.272 155.972,118.778 156.595,118.063 156.983 C 117.448 157.318,116.433 158.009,115.808 158.519 L 114.673 159.444 104.466 159.576 C 98.852 159.648,94.007 159.841,93.699 160.005 C 93.025 160.363,93.030 166.141,93.705 166.815 C 93.997 167.108,114.141 167.222,165.497 167.222 C 230.858 167.222,236.961 167.273,237.805 167.826 C 238.312 168.158,239.639 169.308,240.752 170.382 L 242.778 172.334 242.773 177.185 C 242.766 183.383,242.454 183.973,236.984 188.148 L 235.770 189.074 164.274 189.259 C 124.951 189.361,92.569 189.579,92.315 189.744 C 91.702 190.141,91.643 206.494,92.253 206.871 C 92.473 207.007,92.976 207.809,93.370 208.652 C 94.192 210.413,95.355 212.068,97.439 214.442 C 98.244 215.360,99.192 216.549,99.544 217.083 C 100.933 219.189,101.718 220.268,103.326 222.279 C 105.294 224.740,108.439 228.936,109.331 230.291 C 109.677 230.815,110.218 231.389,110.535 231.566 C 110.852 231.744,111.111 232.046,111.111 232.237 C 111.111 232.654,113.153 235.423,115.278 237.889 C 116.121 238.867,117.070 240.054,117.387 240.528 C 118.958 242.875,119.638 243.773,122.214 246.895 C 123.746 248.752,125.541 251.169,126.203 252.266 C 126.864 253.362,128.145 255.059,129.049 256.037 C 129.954 257.014,130.996 258.278,131.365 258.846 C 131.735 259.413,132.426 260.483,132.900 261.224 C 134.121 263.128,133.808 263.108,158.297 262.854 C 181.570 262.613,181.585 262.611,179.779 260.815 C 178.322 259.364,177.037 257.777,177.037 257.427 C 177.037 257.148,175.671 255.241,174.104 253.333 C 172.115 250.910,171.119 249.498,170.889 248.773 C 170.751 248.338,169.828 247.201,168.838 246.247 C 167.847 245.292,167.037 244.393,167.037 244.249 C 167.037 244.105,166.537 243.417,165.926 242.721 C 165.315 242.025,164.815 241.275,164.815 241.055 C 164.815 240.834,164.305 240.048,163.681 239.308 C 162.638 238.071,162.125 237.449,159.978 234.815 C 158.838 233.416,157.468 231.390,157.080 230.528 C 156.890 230.105,156.302 229.476,155.775 229.130 C 155.247 228.784,154.815 228.250,154.815 227.943 C 154.815 227.636,154.558 227.286,154.243 227.165 C 153.929 227.044,153.364 226.341,152.987 225.602 C 152.610 224.864,151.950 223.942,151.521 223.554 C 151.092 223.166,150.741 222.643,150.741 222.393 C 150.741 222.142,150.324 221.664,149.815 221.330 C 149.306 220.997,148.889 220.483,148.889 220.190 C 148.889 219.896,148.541 219.470,148.117 219.242 C 147.692 219.015,147.123 218.298,146.851 217.648 C 146.580 216.998,146.010 216.152,145.586 215.768 C 145.162 215.384,144.815 214.894,144.815 214.678 C 144.815 214.462,144.486 213.946,144.084 213.532 C 142.802 212.209,141.290 210.240,140.094 208.333 C 138.974 206.548,137.778 205.040,136.019 203.196 C 135.560 202.716,135.185 202.156,135.185 201.953 C 135.185 201.750,134.685 200.954,134.074 200.185 C 131.519 196.971,131.632 196.946,148.539 197.016 C 165.638 197.086,164.984 196.961,164.665 200.100 C 164.182 204.842,165.078 222.505,165.888 224.207 C 166.289 225.051,166.791 226.710,167.004 227.894 C 167.217 229.079,167.728 230.476,168.140 231.000 C 168.552 231.523,168.889 232.323,168.889 232.777 C 168.889 233.231,169.389 234.231,170.000 235.000 C 170.611 235.769,171.111 236.766,171.111 237.216 C 171.111 237.665,171.433 238.324,171.826 238.680 C 172.218 239.035,173.093 240.245,173.770 241.369 C 175.420 244.108,178.248 247.461,181.302 250.299 C 183.595 252.429,184.530 253.077,187.869 254.844 C 188.477 255.166,189.126 255.701,189.312 256.033 C 189.498 256.365,190.214 256.743,190.905 256.872 C 191.595 257.002,192.536 257.508,192.996 257.998 C 193.527 258.563,194.249 258.889,194.972 258.890 C 195.598 258.891,196.694 259.256,197.407 259.700 C 198.173 260.178,199.665 260.614,201.053 260.766 C 202.653 260.941,203.775 261.302,204.571 261.900 L 205.741 262.778 226.585 262.721 C 238.049 262.689,247.674 262.569,247.974 262.455 C 248.586 262.220,248.807 228.436,248.203 227.483 C 247.962 227.104,244.848 227.009,233.206 227.028 C 219.221 227.052,218.434 227.017,216.869 226.304 C 215.965 225.892,214.742 225.556,214.150 225.556 C 212.790 225.556,210.741 224.854,210.741 224.389 C 210.741 224.195,210.194 223.808,209.525 223.529 C 208.242 222.992,204.444 219.235,204.444 218.502 C 204.444 218.264,204.054 217.605,203.576 217.038 C 202.952 216.297,202.640 215.340,202.471 213.651 C 202.341 212.356,201.989 210.630,201.689 209.815 C 200.781 207.350,200.887 197.924,201.828 197.420 C 202.299 197.168,210.256 197.037,225.087 197.037 C 242.126 197.037,247.738 196.929,248.074 196.593 C 248.732 195.934,248.714 160.047,248.056 159.810 C 247.801 159.719,227.493 159.599,202.927 159.544 C 166.728 159.463,158.151 159.352,157.676 158.959 C 157.010 158.406,157.090 157.256,158.079 153.148 C 158.969 149.455,158.932 139.036,158.022 136.678 C 157.670 135.767,157.215 133.390,157.010 131.395 C 156.726 128.620,156.435 127.469,155.771 126.490 C 155.293 125.787,154.792 124.470,154.656 123.565 C 154.520 122.659,154.171 121.826,153.880 121.715 C 153.590 121.603,153.160 120.749,152.925 119.818 C 152.690 118.886,152.192 117.960,151.818 117.760 C 151.444 117.559,150.938 116.731,150.695 115.920 C 150.452 115.108,150.109 114.444,149.933 114.444 C 149.758 114.444,149.410 113.986,149.160 113.426 C 148.679 112.346,142.067 105.556,141.497 105.556 C 141.312 105.556,141.055 105.222,140.926 104.815 C 140.797 104.407,140.465 104.074,140.189 104.074 C 139.912 104.074,139.215 103.680,138.640 103.199 C 138.064 102.717,137.236 102.212,136.801 102.076 C 136.365 101.940,135.565 101.417,135.022 100.914 C 134.480 100.411,133.620 100.000,133.111 100.000 C 132.603 100.000,131.820 99.608,131.371 99.129 C 130.923 98.649,129.889 98.135,129.074 97.986 C 128.259 97.837,127.058 97.387,126.404 96.985 C 125.628 96.508,124.048 96.134,121.851 95.906 C 120.001 95.715,118.002 95.308,117.410 95.001 C 116.474 94.517,111.817 94.444,81.862 94.444 L 47.392 94.444 47.059 95.278 M210.926 95.912 C 204.793 96.106,203.699 96.233,202.407 96.903 C 201.593 97.326,200.131 97.777,199.160 97.904 C 198.189 98.032,196.939 98.462,196.382 98.860 C 195.826 99.258,194.620 99.778,193.704 100.014 C 192.787 100.251,191.787 100.689,191.481 100.987 C 191.176 101.285,190.343 101.840,189.630 102.221 C 188.917 102.601,187.764 103.215,187.069 103.586 C 186.374 103.956,185.365 104.676,184.827 105.185 C 184.290 105.694,183.362 106.444,182.766 106.852 C 179.326 109.203,171.481 118.284,171.481 119.914 C 171.481 120.151,170.981 120.914,170.370 121.610 C 169.759 122.306,169.259 123.148,169.259 123.482 C 169.259 123.815,168.759 125.025,168.148 126.170 C 167.537 127.315,167.037 128.706,167.037 129.261 C 167.037 129.816,166.697 130.703,166.281 131.231 C 165.750 131.907,165.418 133.142,165.161 135.400 C 164.961 137.165,164.462 139.900,164.053 141.478 C 163.467 143.736,163.331 145.285,163.414 148.748 L 163.519 153.148 177.222 153.238 C 184.759 153.287,193.093 153.204,195.741 153.053 L 200.556 152.778 200.741 149.074 C 200.890 146.089,201.088 145.110,201.759 144.030 C 202.218 143.293,202.593 142.196,202.593 141.591 C 202.593 140.406,204.541 137.570,206.478 135.935 C 207.088 135.421,207.940 134.625,208.373 134.167 C 208.805 133.708,209.308 133.333,209.490 133.333 C 209.672 133.333,210.653 132.884,211.670 132.335 L 213.519 131.337 230.556 131.224 C 239.926 131.161,247.810 131.029,248.076 130.929 C 248.628 130.723,248.587 96.874,248.034 96.019 C 247.713 95.523,225.338 95.459,210.926 95.912 M256.244 96.166 C 255.718 96.312,255.592 97.379,255.318 104.001 C 254.916 113.697,254.897 249.814,255.297 251.253 L 255.594 252.320 256.330 251.531 C 256.735 251.096,257.296 250.741,257.576 250.741 C 257.857 250.741,258.146 250.563,258.218 250.345 C 258.291 250.128,261.930 246.286,266.305 241.808 C 281.391 226.367,286.114 221.485,287.133 220.282 C 287.695 219.617,288.667 218.491,289.292 217.778 C 291.354 215.427,291.481 214.736,291.481 205.894 C 291.481 195.974,290.080 197.037,303.160 197.037 L 313.407 197.037 314.388 198.086 C 314.929 198.663,315.864 199.258,316.467 199.409 C 317.070 199.560,317.903 200.003,318.319 200.394 C 321.054 202.971,322.214 204.360,322.218 205.064 C 322.220 205.507,322.639 206.364,323.148 206.969 C 324.000 207.981,324.074 208.366,324.074 211.741 C 324.074 215.075,323.989 215.527,323.148 216.667 C 322.639 217.357,322.222 218.321,322.222 218.810 C 322.222 220.559,318.319 224.670,316.296 225.050 C 315.583 225.184,314.333 225.558,313.519 225.880 C 312.297 226.365,310.284 226.469,302.037 226.475 C 293.257 226.481,291.929 226.558,291.154 227.107 C 288.401 229.056,278.503 238.892,270.725 247.407 C 268.214 250.157,265.815 252.752,265.394 253.173 C 262.695 255.875,257.593 261.643,257.593 261.991 C 257.593 262.638,277.567 263.020,300.802 262.815 L 321.048 262.637 322.919 261.689 C 323.948 261.167,325.354 260.741,326.044 260.741 C 326.733 260.741,328.079 260.325,329.035 259.817 C 329.991 259.308,331.439 258.786,332.252 258.656 C 333.109 258.519,333.879 258.141,334.085 257.758 C 334.279 257.394,335.065 256.894,335.830 256.647 C 336.596 256.400,338.056 255.494,339.074 254.635 C 340.093 253.775,341.426 252.810,342.037 252.490 C 342.648 252.170,344.042 251.062,345.135 250.028 C 346.227 248.994,347.269 248.148,347.450 248.148 C 347.630 248.148,347.778 247.924,347.778 247.650 C 347.778 247.376,348.128 246.835,348.556 246.447 C 348.985 246.060,349.593 245.242,349.908 244.631 C 350.223 244.019,350.789 243.301,351.166 243.035 C 351.543 242.768,351.852 242.302,351.852 241.998 C 351.852 241.695,352.244 241.079,352.723 240.630 C 353.203 240.182,353.710 239.192,353.850 238.430 C 353.994 237.655,354.410 236.883,354.797 236.676 C 355.224 236.448,355.586 235.701,355.743 234.727 C 355.883 233.859,356.374 232.481,356.836 231.667 C 357.297 230.852,357.766 229.254,357.878 228.116 C 357.990 226.978,358.430 225.397,358.856 224.603 C 360.034 222.405,360.028 204.791,358.848 202.222 C 358.427 201.306,357.931 199.515,357.747 198.242 C 357.532 196.766,357.142 195.661,356.668 195.187 C 356.260 194.779,355.926 193.969,355.926 193.388 C 355.926 192.720,355.518 191.905,354.815 191.169 C 354.204 190.530,353.704 189.671,353.704 189.260 C 353.704 188.850,353.287 188.151,352.778 187.709 C 352.269 187.266,351.852 186.748,351.852 186.557 C 351.852 186.186,351.535 185.833,347.134 181.303 C 345.554 179.677,344.311 178.131,344.372 177.866 C 344.555 177.068,349.055 170.746,350.833 168.789 C 351.394 168.172,351.852 167.276,351.852 166.797 C 351.852 166.318,352.212 165.566,352.651 165.126 C 353.091 164.687,353.592 163.571,353.765 162.648 C 353.937 161.725,354.425 160.600,354.848 160.150 C 355.455 159.503,355.681 158.597,355.915 155.865 C 356.079 153.959,356.481 151.756,356.810 150.969 C 357.617 149.037,357.667 139.230,356.879 137.344 C 356.588 136.648,356.162 134.336,355.931 132.206 C 355.600 129.142,355.363 128.217,354.798 127.778 C 354.395 127.464,353.940 126.450,353.754 125.450 C 353.573 124.475,353.177 123.391,352.876 123.042 C 352.574 122.693,352.160 121.907,351.956 121.296 C 351.751 120.685,351.144 119.536,350.607 118.744 C 350.069 117.952,349.630 117.138,349.630 116.935 C 349.630 116.732,349.255 116.179,348.796 115.704 C 348.338 115.230,347.546 114.299,347.037 113.634 C 345.010 110.988,337.560 104.074,336.737 104.074 C 336.526 104.074,335.871 103.668,335.281 103.172 C 334.692 102.676,333.758 102.157,333.207 102.019 C 332.656 101.880,331.995 101.467,331.738 101.101 C 331.481 100.734,330.646 100.317,329.882 100.173 C 329.118 100.030,327.935 99.534,327.253 99.071 C 326.571 98.608,325.119 98.108,324.025 97.960 C 322.932 97.811,321.370 97.335,320.556 96.900 C 319.155 96.154,258.759 95.464,256.244 96.166 M311.931 132.493 C 312.414 132.947,313.358 133.509,314.027 133.743 C 315.368 134.210,316.411 135.057,318.701 137.541 C 319.958 138.905,321.662 145.344,321.354 147.572 C 320.692 152.368,318.822 156.122,316.513 157.287 C 315.885 157.605,314.982 158.220,314.507 158.654 C 313.402 159.666,294.533 160.438,292.673 159.547 C 290.324 158.421,290.327 132.712,292.677 131.720 C 294.343 131.017,311.076 131.688,311.931 132.493 M93.505 174.909 C 91.885 175.796,91.563 179.992,93.055 180.790 C 94.159 181.381,232.546 181.360,233.651 180.769 C 235.581 179.736,235.186 176.341,233.038 175.504 C 230.984 174.705,94.940 174.125,93.505 174.909 " stroke="none" fill="#080808" fill-rule="evenodd"></path><path id="path1" d="M0.000 185.185 L 0.000 370.370 200.000 370.370 L 400.000 370.370 400.000 185.185 L 400.000 0.000 200.000 0.000 L 0.000 0.000 0.000 185.185 M112.100 92.906 C 120.706 93.139,121.086 93.180,121.939 93.981 C 122.657 94.656,123.252 94.815,125.065 94.815 C 126.782 94.815,127.597 95.012,128.559 95.660 C 129.250 96.124,130.496 96.706,131.329 96.953 C 132.161 97.199,133.145 97.736,133.516 98.145 C 133.886 98.554,134.587 98.889,135.074 98.889 C 135.561 98.889,136.375 99.304,136.882 99.811 C 137.389 100.318,138.236 100.842,138.765 100.974 C 139.294 101.107,139.807 101.525,139.906 101.904 C 140.005 102.283,140.311 102.593,140.586 102.593 C 140.861 102.593,141.583 103.079,142.191 103.673 C 142.798 104.267,143.596 104.849,143.963 104.967 C 144.812 105.240,150.000 111.234,150.000 111.942 C 150.000 112.234,150.417 112.664,150.926 112.896 C 151.452 113.135,151.852 113.629,151.852 114.038 C 151.852 114.434,152.269 115.254,152.780 115.861 C 153.290 116.467,153.811 117.480,153.937 118.111 C 154.063 118.743,154.399 119.259,154.684 119.259 C 155.332 119.259,155.815 120.417,156.111 122.685 C 156.467 125.401,157.307 125.072,159.976 121.176 C 162.187 117.948,171.521 108.024,174.074 106.186 C 177.639 103.621,188.920 98.519,191.028 98.519 C 191.463 98.519,192.433 98.102,193.183 97.593 C 194.176 96.919,195.039 96.667,196.348 96.667 C 197.682 96.667,198.148 96.526,198.148 96.124 C 198.148 95.194,199.288 94.918,204.259 94.643 C 207.470 94.466,209.506 94.174,210.370 93.768 C 211.507 93.234,213.921 93.144,229.999 93.041 L 248.332 92.924 248.981 93.725 C 249.459 94.315,249.630 95.199,249.630 97.078 L 249.630 99.630 250.370 98.889 C 250.819 98.440,251.605 98.148,252.365 98.148 C 253.578 98.148,253.628 98.089,253.883 96.389 C 254.404 92.918,253.023 93.186,268.825 93.489 C 276.484 93.636,284.589 93.910,286.838 94.098 C 289.086 94.287,297.509 94.533,305.556 94.645 C 321.845 94.872,323.106 94.958,324.042 95.894 C 324.403 96.255,325.516 96.659,326.516 96.792 C 327.649 96.943,328.561 97.309,328.939 97.765 C 329.272 98.167,330.264 98.657,331.142 98.855 C 332.021 99.052,332.999 99.541,333.315 99.941 C 333.630 100.340,334.408 100.775,335.042 100.908 C 335.676 101.040,336.550 101.556,336.984 102.055 C 337.418 102.555,337.960 102.963,338.189 102.963 C 338.418 102.963,339.175 103.463,339.871 104.074 C 340.567 104.685,341.304 105.185,341.507 105.185 C 341.711 105.185,343.049 106.394,344.481 107.870 C 348.185 111.690,348.371 111.908,349.019 113.196 C 349.340 113.833,349.843 114.447,350.137 114.560 C 350.430 114.672,350.779 115.259,350.912 115.863 C 351.050 116.492,351.450 117.039,351.849 117.143 C 352.309 117.264,352.633 117.808,352.808 118.755 C 352.953 119.542,353.464 120.552,353.943 121.001 C 354.513 121.534,354.817 122.240,354.822 123.038 C 354.826 123.773,355.268 124.908,355.933 125.889 C 356.748 127.093,357.037 127.949,357.037 129.165 C 357.037 130.279,357.306 131.189,357.870 131.980 C 359.160 133.788,359.177 154.622,357.889 155.992 C 357.241 156.682,357.052 157.389,356.963 159.448 C 356.862 161.811,356.779 162.047,356.019 162.155 C 355.260 162.263,355.185 162.474,355.185 164.488 C 355.185 166.374,355.048 166.829,354.259 167.560 C 353.750 168.032,353.333 168.599,353.333 168.820 C 353.333 169.040,352.913 169.675,352.398 170.230 C 351.884 170.785,351.370 171.668,351.256 172.193 C 351.142 172.718,350.832 173.648,350.566 174.259 C 349.075 177.689,348.874 179.952,350.000 180.655 C 350.407 180.909,350.741 181.336,350.741 181.604 C 350.741 181.871,351.236 182.745,351.842 183.545 C 352.447 184.345,352.947 185.202,352.953 185.450 C 352.958 185.697,353.309 186.085,353.733 186.312 C 354.156 186.539,354.673 187.211,354.880 187.806 C 355.088 188.402,355.404 188.889,355.582 188.889 C 355.984 188.889,357.037 190.874,357.037 191.631 C 357.037 191.938,357.454 192.605,357.963 193.114 C 358.711 193.862,358.889 194.407,358.889 195.948 C 358.889 197.443,359.089 198.094,359.815 198.956 C 360.324 199.562,360.748 200.419,360.758 200.862 C 360.767 201.304,360.909 204.255,361.074 207.419 C 361.574 217.028,361.069 226.971,360.042 227.746 C 359.362 228.259,359.164 228.891,358.936 231.273 C 358.721 233.530,358.491 234.312,357.905 234.786 C 357.406 235.190,357.082 236.011,356.947 237.213 C 356.816 238.376,356.495 239.209,356.056 239.530 C 355.628 239.843,355.416 240.378,355.491 240.953 C 355.621 241.944,352.890 247.665,351.193 249.956 C 340.746 264.063,331.619 270.441,317.222 273.695 C 310.196 275.283,306.459 275.456,280.370 275.393 L 258.333 275.340 254.074 273.943 C 248.884 272.240,247.347 272.258,240.926 274.097 L 236.481 275.370 219.259 275.370 C 201.341 275.370,199.856 275.271,193.704 273.661 C 192.176 273.261,190.176 272.626,189.259 272.251 C 181.492 269.069,180.784 269.003,176.725 271.085 C 168.634 275.237,166.439 275.631,152.065 275.515 C 127.652 275.318,123.428 273.990,117.117 264.526 C 116.564 263.697,115.278 261.903,114.259 260.539 C 113.241 259.176,111.074 256.271,109.444 254.085 C 107.815 251.900,105.301 248.544,103.859 246.630 C 101.235 243.147,100.460 242.073,97.062 237.222 C 93.867 232.660,90.574 228.912,88.643 227.641 L 86.766 226.404 86.531 229.184 C 86.402 230.713,86.296 238.980,86.295 247.556 C 86.293 264.209,86.144 265.556,84.296 265.556 C 84.005 265.556,83.278 266.347,82.679 267.315 C 77.878 275.076,73.178 276.501,55.350 275.600 C 40.026 274.825,36.930 273.111,34.189 263.889 C 33.414 261.277,32.928 119.511,33.667 111.267 C 34.359 103.544,39.114 96.667,43.761 96.667 C 44.738 96.667,44.815 96.562,44.815 95.231 C 44.815 93.742,45.216 93.172,46.481 92.861 C 47.586 92.589,101.754 92.627,112.100 92.906 M87.920 142.486 C 86.487 142.667,86.303 143.754,86.303 152.037 C 86.303 159.950,86.535 161.616,87.540 160.912 C 87.965 160.614,88.859 160.370,89.527 160.370 C 90.503 160.370,90.741 160.222,90.741 159.613 C 90.741 158.305,94.040 157.051,97.593 157.009 C 105.082 156.921,106.529 156.167,106.332 152.453 C 105.940 145.058,98.680 141.128,87.920 142.486 M221.728 143.950 C 221.694 143.984,219.128 144.110,216.026 144.230 C 206.653 144.594,203.981 146.115,203.342 151.450 C 203.136 153.164,202.706 154.966,202.385 155.456 C 200.707 158.018,202.916 158.342,221.667 158.284 C 242.754 158.219,242.448 158.307,242.138 152.388 C 241.934 148.495,240.954 145.966,239.137 144.649 C 238.250 144.006,222.316 143.366,221.728 143.950 M293.580 144.321 C 293.444 144.457,293.333 147.707,293.333 151.543 L 293.333 158.519 297.130 158.516 C 300.748 158.514,303.704 158.048,303.704 157.479 C 303.704 157.334,304.097 156.790,304.578 156.271 C 307.689 152.917,305.584 147.201,300.370 144.844 C 298.734 144.104,294.150 143.751,293.580 144.321 M228.829 208.702 C 228.703 208.828,223.540 208.985,217.355 209.051 C 205.503 209.176,204.340 209.334,203.925 210.878 C 203.493 212.490,203.724 213.807,204.630 214.882 C 205.139 215.488,205.556 216.298,205.556 216.682 C 205.556 217.067,206.056 217.893,206.667 218.519 C 207.278 219.144,207.778 219.797,207.778 219.970 C 207.778 220.142,208.123 220.374,208.546 220.485 C 208.969 220.595,209.405 221.031,209.515 221.454 C 209.632 221.900,210.019 222.222,210.438 222.222 C 211.342 222.222,212.643 222.902,213.209 223.669 C 213.712 224.352,229.093 224.735,237.211 224.267 L 241.727 224.007 242.160 222.810 C 243.795 218.290,241.851 211.339,238.467 209.606 C 237.116 208.914,229.346 208.185,228.829 208.702 M295.185 208.852 L 293.519 209.074 293.333 212.963 C 293.142 216.942,292.921 217.778,292.055 217.778 C 291.784 217.778,291.460 218.183,291.336 218.679 C 291.211 219.175,290.788 219.682,290.395 219.807 C 289.569 220.069,289.112 221.691,289.466 223.101 L 289.710 224.074 298.348 224.074 L 306.987 224.074 307.678 223.056 C 308.717 221.525,309.177 220.273,309.075 219.251 C 309.025 218.746,308.962 217.811,308.936 217.172 C 308.780 213.341,300.802 207.580,297.037 208.581 C 296.935 208.608,296.102 208.730,295.185 208.852 M144.273 209.978 C 144.139 210.194,144.199 210.370,144.405 210.370 C 144.750 210.370,145.523 211.802,146.073 213.461 C 146.198 213.837,146.634 214.232,147.043 214.339 C 147.452 214.446,147.889 214.942,148.014 215.442 C 148.139 215.941,148.638 216.501,149.121 216.685 C 149.635 216.880,150.000 217.321,150.000 217.747 C 150.000 218.681,150.631 219.071,151.276 218.536 C 152.524 217.500,149.899 211.499,147.762 210.501 C 146.283 209.810,144.538 209.549,144.273 209.978 " stroke="none" fill="#fafafa" fill-rule="evenodd"></path><path id="path2" d="M46.011 93.789 C 45.798 94.048,45.435 96.162,45.203 98.488 C 44.755 102.985,44.664 103.333,43.936 103.333 C 42.237 103.333,39.825 108.139,39.288 112.593 C 38.743 117.116,39.060 257.097,39.622 260.370 C 41.038 268.610,45.259 270.334,62.963 269.904 C 70.255 269.726,72.080 269.324,75.141 267.218 C 77.382 265.676,82.179 263.704,83.687 263.704 C 85.994 263.704,85.935 264.184,85.837 246.177 L 85.749 229.815 85.648 246.078 C 85.584 256.456,85.411 262.506,85.169 262.797 C 84.933 263.082,83.092 263.354,80.266 263.523 C 76.932 263.722,74.839 264.070,72.314 264.846 C 64.344 267.294,48.303 267.114,45.461 264.545 C 43.764 263.010,42.091 256.124,42.763 253.444 C 42.895 252.919,43.001 237.638,42.999 219.486 C 42.997 201.333,42.992 170.231,42.987 150.370 C 42.979 114.466,43.031 112.737,44.194 110.494 C 44.613 109.685,44.994 107.041,45.421 101.975 C 45.762 97.935,46.202 94.421,46.399 94.167 C 47.114 93.243,116.174 93.522,118.806 94.458 C 119.972 94.874,122.009 95.310,123.333 95.428 C 124.657 95.546,126.280 95.949,126.939 96.324 C 127.598 96.699,128.799 97.184,129.607 97.401 C 130.416 97.619,131.328 98.048,131.635 98.354 C 131.941 98.660,132.827 99.135,133.604 99.409 C 134.927 99.876,136.247 100.648,139.186 102.675 C 143.698 105.785,150.722 113.322,151.316 115.688 C 151.454 116.236,151.880 116.904,152.263 117.172 C 152.647 117.441,153.151 118.229,153.385 118.923 C 153.618 119.617,154.055 120.470,154.355 120.818 C 154.656 121.166,155.032 122.000,155.191 122.670 L 155.480 123.889 155.518 122.757 C 155.540 122.083,155.181 121.117,154.630 120.370 C 154.120 119.680,153.704 118.890,153.704 118.615 C 153.704 118.340,153.302 117.713,152.811 117.222 C 152.320 116.730,151.806 115.822,151.670 115.202 C 151.534 114.582,151.129 113.866,150.770 113.612 C 150.411 113.357,149.915 112.767,149.668 112.301 C 148.600 110.289,139.679 102.020,137.660 101.171 C 137.012 100.899,136.148 100.375,135.741 100.007 C 135.333 99.640,134.476 99.228,133.835 99.093 C 133.194 98.958,132.385 98.532,132.037 98.148 C 131.689 97.764,130.880 97.336,130.239 97.198 C 129.598 97.060,128.407 96.569,127.593 96.108 C 126.634 95.564,125.256 95.205,123.687 95.090 C 122.330 94.991,120.700 94.606,119.983 94.215 C 118.341 93.321,46.737 92.908,46.011 93.789 M229.074 94.134 C 220.519 94.289,212.352 94.575,210.926 94.770 C 208.617 95.085,208.840 95.107,212.963 94.974 C 229.974 94.421,247.897 94.667,248.424 95.460 C 249.167 96.579,249.618 130.788,248.902 131.651 C 248.487 132.151,246.253 132.222,231.066 132.222 C 215.639 132.222,213.704 132.286,213.704 132.796 C 213.704 133.111,214.225 133.588,214.862 133.856 C 216.178 134.409,215.934 134.686,213.836 135.022 C 212.736 135.198,212.250 135.109,211.881 134.665 C 211.109 133.735,209.670 133.919,209.259 135.000 C 209.066 135.509,208.714 135.926,208.478 135.926 C 208.241 135.926,207.666 136.301,207.199 136.759 C 206.732 137.218,206.180 137.759,205.973 137.963 C 204.100 139.800,203.333 140.971,203.330 141.999 C 203.328 142.631,202.911 144.040,202.404 145.129 C 201.688 146.667,201.481 147.712,201.481 149.794 C 201.481 153.531,201.346 153.622,195.352 153.932 C 189.954 154.212,188.889 154.474,188.889 155.521 C 188.889 156.699,187.761 156.811,176.852 156.715 C 164.476 156.605,161.651 156.056,160.412 153.519 C 160.111 152.903,160.046 153.030,160.025 154.265 C 160.011 155.083,159.666 156.374,159.259 157.135 L 158.517 158.519 173.088 158.519 C 181.102 158.519,191.144 158.580,195.403 158.655 C 200.175 158.739,201.442 158.704,198.704 158.563 C 193.798 158.310,193.844 158.345,195.347 155.962 C 196.254 154.526,197.285 154.074,199.655 154.074 C 201.209 154.074,201.851 152.888,201.854 150.010 C 201.856 148.231,202.049 147.301,202.585 146.487 C 202.986 145.879,203.416 144.629,203.540 143.709 C 203.882 141.179,204.012 140.888,205.007 140.435 C 205.576 140.175,205.926 139.709,205.926 139.210 C 205.926 138.445,205.961 138.436,206.621 139.033 C 207.277 139.626,207.574 139.619,211.755 138.905 C 215.045 138.344,217.908 138.143,222.819 138.130 C 226.463 138.120,231.111 137.948,233.148 137.747 C 243.829 136.694,245.072 136.841,246.590 139.343 C 248.027 141.710,248.729 148.197,248.243 154.630 L 247.963 158.333 244.074 158.539 L 240.185 158.744 244.497 158.816 C 248.043 158.876,248.850 158.993,249.034 159.475 C 249.541 160.795,249.281 196.928,248.762 197.359 C 248.411 197.650,241.618 197.800,225.706 197.867 L 203.148 197.963 203.094 199.444 C 203.065 200.259,202.859 201.759,202.637 202.778 C 202.334 204.171,202.359 205.821,202.740 209.444 L 203.245 214.259 203.326 210.000 C 203.463 202.827,202.030 203.492,218.016 203.185 C 224.709 203.056,232.939 202.761,236.304 202.529 C 244.589 201.959,245.669 202.234,247.290 205.330 C 248.572 207.778,249.442 223.782,248.318 224.214 C 246.593 224.876,238.135 225.242,227.237 225.128 C 217.088 225.020,215.490 225.072,217.294 225.447 C 219.710 225.949,240.543 226.067,245.164 225.604 C 249.610 225.160,249.259 223.554,249.259 244.374 C 249.259 259.077,249.170 262.203,248.734 262.800 C 248.251 263.460,247.549 263.537,240.123 263.751 C 235.598 263.881,231.578 264.166,230.994 264.399 C 230.421 264.628,229.500 264.815,228.947 264.815 C 228.395 264.815,227.575 265.073,227.125 265.388 C 224.964 266.901,205.821 266.493,199.259 264.794 C 192.818 263.126,181.355 257.526,179.290 255.038 C 179.020 254.711,178.569 254.444,178.288 254.444 C 178.007 254.444,177.775 254.236,177.772 253.981 C 177.763 253.297,174.516 250.282,174.079 250.553 C 173.308 251.029,173.668 252.222,174.583 252.222 C 175.264 252.222,175.513 252.473,175.685 253.333 C 175.862 254.216,176.100 254.444,176.843 254.444 C 177.618 254.444,177.778 254.620,177.778 255.473 C 177.778 256.048,178.109 256.786,178.529 257.145 C 178.942 257.499,179.384 258.308,179.511 258.943 C 179.648 259.631,180.021 260.172,180.431 260.279 C 181.329 260.514,181.741 262.129,181.067 262.773 C 180.701 263.122,178.284 263.358,172.593 263.601 C 164.857 263.931,164.572 263.971,162.593 265.004 L 160.556 266.068 152.778 266.000 C 131.997 265.816,131.499 265.724,126.852 261.220 C 124.826 259.257,123.472 257.452,119.127 250.926 C 117.238 248.090,112.345 241.601,111.876 241.311 C 111.411 241.024,108.581 237.305,105.806 233.333 C 103.126 229.498,98.596 223.598,96.170 220.784 C 90.875 214.641,88.323 208.115,89.955 204.893 C 90.522 203.774,90.700 202.278,90.914 196.852 C 91.103 192.075,91.328 189.949,91.708 189.352 L 92.239 188.519 162.943 188.519 L 233.647 188.519 234.735 187.603 C 235.333 187.099,236.239 186.529,236.747 186.336 C 237.841 185.920,238.151 184.575,238.119 180.370 C 238.102 178.099,238.025 177.744,237.696 178.426 C 237.475 178.884,236.972 179.259,236.578 179.259 C 236.124 179.259,235.710 179.662,235.446 180.360 C 234.918 181.758,234.723 181.824,229.849 182.252 C 227.535 182.455,224.462 183.015,222.674 183.561 L 219.547 184.515 174.496 184.626 C 149.717 184.687,125.611 184.858,120.926 185.005 C 109.382 185.369,99.098 184.755,96.481 183.547 C 95.463 183.076,94.130 182.573,93.519 182.428 C 90.113 181.621,89.976 173.867,93.350 172.958 C 95.607 172.351,227.012 172.562,230.859 173.180 C 231.637 173.305,232.362 173.636,232.469 173.916 C 232.576 174.195,233.231 174.531,233.925 174.661 C 234.618 174.791,235.185 175.097,235.185 175.341 C 235.185 176.207,236.116 177.083,236.769 176.832 C 237.942 176.382,237.173 174.390,234.723 171.534 C 234.136 170.849,233.750 170.058,233.865 169.774 C 234.572 168.035,236.236 168.148,209.992 168.148 L 185.461 168.148 183.116 169.303 L 180.771 170.457 175.663 170.202 C 172.854 170.062,167.556 169.885,163.889 169.810 C 160.222 169.734,155.889 169.633,154.259 169.586 C 152.435 169.533,149.446 169.828,146.481 170.353 C 140.600 171.396,128.578 171.632,124.258 170.791 C 122.147 170.380,120.107 170.360,113.287 170.686 C 104.296 171.114,101.882 170.936,98.181 169.572 C 97.043 169.152,95.292 168.609,94.291 168.365 C 91.777 167.752,91.491 167.174,91.747 163.223 C 92.034 158.792,91.792 158.898,101.741 158.858 C 114.140 158.807,115.483 158.364,116.301 154.047 C 117.417 148.167,115.740 143.478,110.868 138.853 C 107.194 135.365,104.218 134.408,94.815 133.690 C 90.877 133.389,88.573 133.059,88.334 132.760 C 86.486 130.453,85.913 131.919,86.011 138.704 L 86.086 143.889 86.196 139.259 C 86.332 133.524,86.458 133.135,87.510 135.220 L 88.333 136.852 93.148 137.084 C 106.069 137.706,112.222 142.713,112.222 152.604 L 112.222 156.208 110.833 157.271 L 109.444 158.333 100.985 158.519 C 90.797 158.742,91.343 158.451,90.938 163.856 C 90.765 166.157,90.494 167.522,90.152 167.805 C 89.457 168.383,89.489 170.505,90.214 171.908 C 90.904 173.241,90.802 176.990,90.003 179.693 C 89.362 181.862,89.961 184.034,91.574 185.392 C 92.754 186.384,92.717 187.283,91.445 188.555 C 90.920 189.080,90.741 189.789,90.741 191.336 C 90.741 193.066,90.563 193.637,89.671 194.762 C 87.269 197.795,86.304 206.412,87.575 213.472 C 88.262 217.292,88.374 217.483,93.519 223.698 C 95.803 226.457,96.373 227.216,101.088 233.766 C 102.604 235.870,106.023 240.430,108.687 243.897 C 111.351 247.364,115.554 253.031,118.027 256.490 C 127.042 269.096,128.296 269.624,149.514 269.744 C 164.029 269.826,164.784 269.715,170.690 266.639 C 174.027 264.900,174.577 264.734,177.983 264.429 C 180.009 264.249,181.708 264.095,181.759 264.087 C 181.810 264.080,181.852 263.407,181.852 262.593 C 181.852 261.778,182.007 261.111,182.196 261.111 C 182.557 261.111,183.548 261.995,183.763 262.509 C 184.222 263.606,190.977 266.659,196.296 268.175 C 201.163 269.562,206.160 269.981,217.963 269.990 C 232.608 270.002,235.990 269.534,242.253 266.632 C 244.408 265.632,246.493 264.815,246.886 264.815 C 247.279 264.815,248.057 264.391,248.615 263.874 L 249.630 262.933 249.710 249.707 L 249.791 236.481 249.988 246.111 C 250.202 256.538,250.301 257.052,252.227 257.724 C 253.621 258.210,254.590 260.243,254.513 262.516 C 254.442 264.616,256.480 266.904,259.938 268.607 L 262.373 269.806 284.798 269.810 C 316.055 269.817,324.850 268.295,333.325 261.416 C 334.034 260.841,334.819 260.370,335.071 260.370 C 335.323 260.370,335.709 260.035,335.929 259.624 C 336.148 259.214,336.988 258.462,337.794 257.953 C 338.600 257.444,339.259 256.780,339.259 256.477 C 339.259 256.166,339.595 255.926,340.028 255.926 C 340.452 255.926,341.287 255.436,341.886 254.838 C 342.484 254.240,343.279 253.653,343.653 253.535 C 344.026 253.416,344.520 252.906,344.751 252.400 C 344.981 251.895,345.426 251.481,345.741 251.481 C 346.055 251.481,346.501 251.068,346.731 250.563 C 346.961 250.057,347.449 249.549,347.815 249.433 C 348.181 249.316,348.579 248.911,348.699 248.533 C 348.819 248.154,349.328 247.575,349.829 247.247 C 350.331 246.918,350.741 246.429,350.741 246.160 C 350.741 245.891,351.059 245.382,351.448 245.031 C 351.836 244.679,352.368 243.861,352.629 243.214 C 352.890 242.567,353.488 241.670,353.959 241.221 C 354.430 240.773,354.815 239.990,354.815 239.481 C 354.815 238.973,355.210 238.130,355.694 237.608 C 356.178 237.086,356.684 235.966,356.819 235.119 C 356.955 234.272,357.314 233.398,357.617 233.176 C 357.930 232.947,358.341 231.650,358.565 230.182 C 358.783 228.758,359.320 227.009,359.759 226.296 C 360.519 225.060,360.557 224.549,360.591 215.185 L 360.627 205.370 360.406 214.815 C 360.203 223.489,360.121 224.382,359.397 225.758 C 358.963 226.583,358.486 228.152,358.335 229.246 C 358.185 230.340,357.664 231.982,357.179 232.895 C 356.694 233.808,356.296 234.938,356.296 235.406 C 356.296 235.875,355.880 236.708,355.370 237.257 C 354.861 237.807,354.444 238.636,354.444 239.100 C 354.444 239.564,354.061 240.414,353.592 240.990 C 353.123 241.566,352.096 243.037,351.310 244.259 C 349.704 246.756,343.468 253.123,342.251 253.510 C 341.814 253.648,341.054 254.123,340.561 254.566 C 340.068 255.008,339.150 255.829,338.521 256.389 C 337.892 256.949,337.056 257.407,336.664 257.407 C 336.272 257.407,335.440 257.907,334.815 258.519 C 334.051 259.265,333.305 259.630,332.541 259.630 C 331.768 259.630,331.169 259.927,330.675 260.556 C 330.032 261.372,329.664 261.481,327.557 261.481 C 325.385 261.481,325.136 261.561,324.834 262.357 C 324.367 263.585,323.841 263.704,318.880 263.704 C 316.465 263.704,314.396 263.853,314.284 264.035 C 314.171 264.217,312.541 264.487,310.660 264.636 C 308.531 264.804,306.894 265.134,306.322 265.509 C 305.421 266.100,289.380 266.361,277.854 265.973 L 274.412 265.857 274.197 264.780 L 273.981 263.704 265.855 263.704 C 260.962 263.704,257.444 263.551,257.013 263.320 C 255.943 262.748,256.151 260.370,257.271 260.370 C 257.560 260.370,257.961 259.938,258.162 259.409 C 258.363 258.880,258.859 258.360,259.264 258.254 C 259.673 258.147,260.000 257.749,260.000 257.356 C 260.000 256.963,260.410 256.464,260.926 256.229 C 261.449 255.991,261.852 255.495,261.852 255.091 C 261.852 254.685,262.175 254.291,262.597 254.180 C 263.006 254.073,263.436 253.607,263.553 253.144 C 263.669 252.682,264.250 251.837,264.845 251.268 C 265.439 250.698,265.926 250.055,265.926 249.838 C 265.927 249.622,266.343 248.960,266.852 248.368 C 267.361 247.776,267.778 247.065,267.778 246.786 C 267.778 246.508,268.191 246.092,268.697 245.862 C 269.202 245.632,269.713 245.135,269.833 244.759 C 269.952 244.382,270.285 244.074,270.572 244.074 C 270.859 244.074,271.363 243.664,271.691 243.163 C 272.020 242.661,272.607 242.150,272.996 242.027 C 273.385 241.903,273.704 241.493,273.704 241.116 C 273.704 240.659,274.064 240.350,274.777 240.193 C 275.419 240.053,275.929 239.657,276.046 239.211 C 276.153 238.800,276.582 238.375,276.997 238.266 C 277.413 238.157,277.851 237.761,277.970 237.386 C 278.089 237.011,278.496 236.606,278.875 236.486 C 279.253 236.366,279.832 235.857,280.161 235.356 C 280.489 234.855,280.977 234.444,281.245 234.444 C 281.514 234.444,281.923 234.028,282.155 233.519 C 282.387 233.009,282.783 232.593,283.035 232.593 C 283.286 232.593,283.832 232.258,284.246 231.849 C 286.381 229.744,288.882 227.574,290.370 226.534 L 292.037 225.370 302.593 225.133 C 314.480 224.866,315.582 224.702,317.407 222.927 L 318.704 221.667 318.695 217.220 C 318.682 209.917,315.395 204.602,308.878 201.341 L 306.338 200.071 308.817 199.421 C 314.020 198.058,312.340 197.708,301.296 197.855 L 293.148 197.963 293.099 199.444 C 293.073 200.259,292.838 204.259,292.578 208.333 L 292.105 215.741 290.086 218.148 C 287.533 221.192,283.598 225.494,279.907 229.276 C 278.329 230.894,277.037 232.389,277.037 232.599 C 277.037 232.809,276.633 233.135,276.139 233.323 C 275.620 233.520,275.191 234.023,275.121 234.517 C 275.042 235.072,274.709 235.412,274.167 235.489 C 273.628 235.565,273.333 235.862,273.333 236.330 C 273.333 236.736,272.939 237.232,272.436 237.462 C 271.942 237.687,271.442 238.255,271.324 238.724 C 271.194 239.242,270.782 239.625,270.277 239.697 C 269.742 239.772,269.402 240.113,269.326 240.648 C 269.252 241.167,268.869 241.565,268.308 241.706 C 267.773 241.840,267.407 242.202,267.407 242.597 C 267.407 243.002,266.974 243.412,266.296 243.648 C 265.549 243.909,265.185 244.284,265.185 244.796 C 265.185 245.312,264.945 245.556,264.435 245.556 C 263.976 245.556,263.549 245.915,263.333 246.481 C 263.140 246.991,262.731 247.407,262.426 247.407 C 262.121 247.407,261.623 247.886,261.321 248.471 C 261.018 249.057,260.430 249.624,260.015 249.733 C 259.545 249.856,259.259 250.237,259.259 250.741 C 259.259 251.233,258.975 251.625,258.536 251.740 C 258.138 251.844,257.551 252.328,257.231 252.816 C 255.756 255.067,254.238 253.698,253.858 249.776 C 253.712 248.262,253.308 246.719,252.867 245.988 C 252.283 245.018,252.050 243.676,251.780 239.727 C 251.425 234.534,251.440 233.792,252.248 217.462 C 252.655 209.236,252.650 207.053,252.218 203.573 C 251.614 198.723,251.461 163.558,251.989 151.111 C 252.252 144.914,252.204 142.736,251.730 139.259 C 250.739 131.996,251.341 114.788,252.656 112.778 C 253.821 110.997,253.926 110.408,254.468 102.593 C 254.701 99.231,255.046 96.191,255.235 95.837 C 255.552 95.240,256.904 95.185,273.437 95.093 L 291.296 94.993 273.254 94.904 C 252.458 94.801,254.627 94.322,254.265 99.103 C 253.832 104.805,253.747 105.160,252.746 105.412 C 251.095 105.826,250.440 108.615,250.016 117.037 L 249.745 122.407 249.655 114.630 C 249.424 94.791,249.228 93.627,246.146 93.778 C 245.312 93.819,237.630 93.980,229.074 94.134 M200.556 96.103 C 199.537 96.604,198.340 97.019,197.894 97.025 C 196.805 97.041,195.152 97.694,194.660 98.303 C 194.440 98.576,193.593 98.897,192.778 99.018 C 191.963 99.138,191.046 99.538,190.741 99.906 C 190.435 100.275,189.480 100.786,188.617 101.042 C 187.755 101.298,186.874 101.835,186.660 102.235 C 186.445 102.636,185.949 102.963,185.556 102.963 C 185.162 102.963,184.666 103.289,184.453 103.689 C 184.239 104.088,183.316 104.745,182.402 105.149 C 181.489 105.553,180.741 106.049,180.741 106.251 C 180.741 106.452,180.390 106.728,179.962 106.864 C 179.029 107.160,176.296 109.742,176.296 110.327 C 176.296 110.555,176.050 110.741,175.749 110.741 C 175.448 110.741,174.907 111.191,174.547 111.741 C 174.186 112.292,173.557 113.101,173.149 113.539 C 167.275 119.851,165.073 122.696,162.520 127.269 C 159.305 133.029,157.801 133.111,157.782 127.527 C 157.779 126.738,157.492 126.126,156.911 125.669 C 156.435 125.294,155.948 124.740,155.830 124.438 C 155.649 123.978,155.609 123.975,155.585 124.421 C 155.569 124.713,155.915 125.334,156.353 125.802 C 156.947 126.433,157.270 127.514,157.614 130.016 C 157.886 131.995,158.319 133.649,158.665 134.031 C 159.612 135.078,159.997 138.181,160.044 145.143 C 160.095 152.723,160.808 151.241,161.334 142.462 C 161.569 138.539,161.729 137.796,162.836 135.486 C 163.518 134.063,164.179 132.252,164.306 131.460 C 164.432 130.668,164.932 129.483,165.416 128.827 C 165.900 128.171,166.296 127.189,166.296 126.646 C 166.296 126.102,166.796 125.028,167.407 124.259 C 168.019 123.490,168.519 122.555,168.519 122.180 C 168.519 121.805,168.916 121.238,169.401 120.920 C 169.886 120.602,170.383 119.843,170.505 119.234 C 170.627 118.624,171.147 117.737,171.660 117.261 C 172.173 116.786,172.593 116.211,172.593 115.985 C 172.593 115.758,172.993 115.310,173.483 114.989 C 173.973 114.668,174.471 114.039,174.589 113.592 C 175.021 111.962,182.352 105.185,183.684 105.185 C 183.875 105.185,184.250 104.877,184.516 104.500 C 184.782 104.123,185.512 103.550,186.138 103.228 C 186.764 102.905,187.484 102.391,187.738 102.085 C 187.992 101.779,188.671 101.426,189.246 101.299 C 189.822 101.173,190.584 100.748,190.938 100.357 C 191.293 99.965,192.185 99.542,192.921 99.417 C 193.657 99.292,194.711 98.872,195.264 98.483 C 195.817 98.094,197.150 97.593,198.227 97.370 C 199.304 97.146,200.583 96.711,201.070 96.402 C 201.557 96.094,203.140 95.716,204.589 95.563 L 207.222 95.286 204.815 95.239 C 202.941 95.202,201.997 95.394,200.556 96.103 M307.963 95.535 C 319.989 95.739,320.630 95.786,322.222 96.570 C 323.139 97.022,324.306 97.395,324.815 97.401 C 325.324 97.406,326.741 97.909,327.963 98.519 C 329.185 99.128,330.456 99.627,330.788 99.628 C 331.120 99.629,331.620 99.905,331.899 100.243 C 332.179 100.580,332.991 101.097,333.704 101.393 C 335.267 102.041,338.519 104.101,338.519 104.444 C 338.519 104.580,339.312 105.204,340.282 105.833 C 341.995 106.943,345.526 110.448,347.407 112.906 C 347.917 113.572,348.792 114.670,349.352 115.348 C 349.912 116.025,350.370 116.693,350.370 116.833 C 350.370 116.972,350.787 117.633,351.296 118.300 C 351.806 118.968,352.222 119.735,352.222 120.004 C 352.222 120.273,352.328 120.388,352.457 120.259 C 352.742 119.974,351.878 117.778,351.481 117.778 C 351.327 117.778,350.991 117.271,350.735 116.652 C 350.478 116.033,350.000 115.322,349.671 115.072 C 349.343 114.823,348.907 114.351,348.704 114.024 C 346.692 110.794,342.680 106.795,338.724 104.074 C 337.983 103.565,336.778 102.690,336.045 102.130 C 335.312 101.569,334.428 101.111,334.081 101.111 C 333.733 101.111,333.146 100.777,332.776 100.369 C 332.407 99.961,331.429 99.444,330.602 99.222 C 329.776 99.000,328.708 98.509,328.228 98.131 C 327.748 97.754,326.575 97.334,325.622 97.197 C 324.669 97.061,323.306 96.594,322.593 96.160 C 321.337 95.395,320.889 95.370,308.333 95.345 L 295.370 95.320 307.963 95.535 M352.604 120.973 C 352.598 121.203,352.843 121.599,353.150 121.853 C 353.456 122.107,353.858 122.836,354.042 123.473 C 354.372 124.611,354.378 124.614,354.411 123.632 C 354.430 123.060,354.054 122.190,353.530 121.595 C 353.027 121.023,352.611 120.743,352.604 120.973 M354.468 125.449 C 354.455 125.899,354.815 126.613,355.269 127.035 C 355.826 127.555,356.169 128.429,356.328 129.735 L 356.562 131.667 356.615 129.957 C 356.651 128.751,356.449 127.972,355.927 127.308 C 355.521 126.791,355.031 125.977,354.840 125.499 C 354.494 124.636,354.491 124.636,354.468 125.449 M356.696 132.059 C 356.680 132.275,357.016 133.833,357.443 135.521 C 358.434 139.442,358.344 150.703,357.303 153.007 C 356.970 153.744,356.585 155.494,356.447 156.896 C 356.200 159.405,355.787 160.702,355.091 161.157 C 354.896 161.284,354.587 162.191,354.403 163.173 C 354.220 164.154,353.759 165.300,353.380 165.719 C 353.000 166.138,352.583 166.935,352.452 167.490 C 352.320 168.044,351.860 168.827,351.428 169.229 C 350.997 169.631,350.457 170.282,350.229 170.674 C 350.001 171.067,349.148 172.353,348.333 173.532 C 347.519 174.711,346.550 176.250,346.182 176.952 L 345.512 178.229 347.848 180.750 C 351.190 184.354,354.008 187.927,354.468 189.140 C 354.686 189.715,355.165 190.519,355.532 190.926 C 355.899 191.333,356.312 192.142,356.449 192.722 C 356.587 193.303,357.009 194.220,357.386 194.759 C 357.764 195.299,358.171 196.535,358.290 197.506 C 358.409 198.477,358.790 199.811,359.138 200.469 C 359.485 201.128,359.884 202.333,360.024 203.148 L 360.278 204.630 360.323 203.148 C 360.350 202.256,360.077 201.190,359.637 200.469 C 359.236 199.810,358.745 198.264,358.547 197.033 C 358.348 195.802,357.844 194.360,357.426 193.829 C 357.009 193.298,356.667 192.565,356.667 192.201 C 356.667 191.836,356.285 191.067,355.819 190.491 C 355.353 189.916,354.757 188.952,354.496 188.349 C 354.234 187.747,353.699 187.029,353.306 186.754 C 352.914 186.479,352.593 186.023,352.593 185.741 C 352.593 185.458,352.284 185.009,351.907 184.743 C 351.530 184.477,350.955 183.759,350.629 183.148 C 350.304 182.537,349.207 181.176,348.193 180.125 C 346.168 178.025,346.067 177.297,347.562 175.556 C 349.004 173.876,350.741 171.185,350.741 170.630 C 350.741 170.330,351.137 169.826,351.621 169.508 C 352.105 169.191,352.618 168.464,352.760 167.892 C 352.902 167.320,353.353 166.493,353.762 166.055 C 354.171 165.617,354.598 164.533,354.711 163.648 C 354.824 162.762,355.225 161.741,355.602 161.379 C 356.357 160.653,356.522 160.063,356.824 157.010 C 356.936 155.875,357.322 154.375,357.681 153.677 C 358.629 151.832,358.660 136.058,357.718 134.074 C 357.380 133.361,357.018 132.528,356.914 132.222 C 356.810 131.917,356.712 131.843,356.696 132.059 M293.796 132.478 C 294.153 132.571,294.736 132.571,295.093 132.478 C 295.449 132.384,295.157 132.308,294.444 132.308 C 293.731 132.308,293.440 132.384,293.796 132.478 M300.926 132.574 C 303.370 132.696,305.870 132.684,306.481 132.547 C 307.093 132.410,305.093 132.310,302.037 132.325 L 296.481 132.352 300.926 132.574 M293.161 135.884 C 292.580 137.717,292.244 142.922,292.234 150.265 C 292.220 160.431,291.159 159.452,301.840 159.136 C 312.365 158.826,313.586 158.667,313.862 157.569 C 313.979 157.100,314.391 156.616,314.776 156.494 C 315.965 156.116,316.686 152.960,316.298 149.832 C 315.484 143.268,308.740 136.090,303.029 135.711 C 295.461 135.209,293.364 135.246,293.161 135.884 M303.856 140.123 C 310.506 143.167,313.937 150.578,311.359 156.331 L 310.431 158.402 306.454 158.646 C 299.960 159.043,293.539 158.947,293.037 158.444 C 292.288 157.696,292.676 140.252,293.470 138.967 C 293.891 138.286,301.757 139.161,303.856 140.123 M85.710 152.037 C 85.710 155.907,85.765 157.440,85.832 155.444 C 85.899 153.447,85.898 150.280,85.831 148.407 C 85.764 146.533,85.710 148.167,85.710 152.037 M213.264 159.166 C 216.587 159.228,221.920 159.227,225.116 159.166 C 228.311 159.104,225.593 159.054,219.074 159.054 C 212.556 159.054,209.941 159.105,213.264 159.166 M233.245 159.151 C 233.706 159.239,234.372 159.236,234.727 159.143 C 235.081 159.051,234.704 158.978,233.889 158.982 C 233.074 158.986,232.784 159.062,233.245 159.151 M249.905 168.056 C 249.836 169.634,249.779 168.343,249.779 165.185 C 249.779 162.028,249.836 160.736,249.905 162.315 C 249.974 163.894,249.974 166.477,249.905 168.056 M86.085 194.259 C 86.082 212.796,86.171 222.880,86.281 216.667 C 86.391 210.454,86.393 195.287,86.285 182.963 C 86.107 162.568,86.089 163.582,86.085 194.259 M133.896 198.136 C 133.775 198.333,134.033 198.708,134.471 198.969 C 134.909 199.231,135.576 200.153,135.954 201.019 C 136.331 201.884,136.813 202.593,137.024 202.593 C 137.235 202.593,137.407 202.851,137.407 203.166 C 137.407 203.481,137.852 204.151,138.396 204.655 C 138.939 205.158,139.564 205.867,139.784 206.229 C 140.005 206.591,140.519 207.437,140.926 208.109 C 141.722 209.422,143.203 211.470,144.435 212.963 C 146.182 215.081,146.966 216.176,147.550 217.315 C 147.889 217.977,148.294 218.519,148.448 218.519 C 148.603 218.519,149.006 218.977,149.345 219.537 C 149.684 220.097,150.652 221.302,151.496 222.213 C 152.340 223.125,153.248 224.292,153.514 224.807 C 153.781 225.321,154.349 226.060,154.777 226.447 C 155.205 226.835,155.556 227.307,155.556 227.497 C 155.556 227.687,156.459 228.739,157.564 229.834 C 158.668 230.930,159.691 232.207,159.837 232.672 C 159.983 233.138,160.496 233.886,160.977 234.334 C 161.458 234.783,161.852 235.397,161.852 235.698 C 161.852 236.000,162.177 236.349,162.574 236.475 C 162.971 236.601,163.399 237.031,163.526 237.430 C 163.653 237.830,164.244 238.409,164.841 238.717 C 165.602 239.111,165.926 239.555,165.926 240.204 C 165.926 240.844,166.204 241.235,166.827 241.472 C 167.487 241.723,167.760 242.142,167.846 243.037 C 167.935 243.967,168.157 244.287,168.774 244.375 C 169.278 244.446,169.628 244.796,169.699 245.301 C 169.772 245.813,170.121 246.155,170.648 246.229 C 171.772 246.389,171.726 245.531,170.556 244.514 C 170.046 244.071,169.630 243.487,169.630 243.215 C 169.630 242.944,169.213 242.330,168.704 241.852 C 168.194 241.373,167.778 240.700,167.778 240.356 C 167.778 240.011,167.470 239.332,167.094 238.846 C 166.719 238.360,166.299 237.387,166.163 236.683 C 166.026 235.979,165.264 234.141,164.470 232.598 C 162.511 228.793,161.980 226.423,161.482 219.259 C 160.675 207.647,158.326 201.486,154.303 200.435 C 153.247 200.159,153.450 200.056,156.667 199.233 L 160.185 198.333 155.000 198.101 C 146.525 197.721,134.140 197.741,133.896 198.136 M145.278 203.133 C 154.150 203.784,156.857 207.722,157.765 221.296 C 158.265 228.769,158.331 228.148,157.037 228.148 C 156.161 228.148,155.926 227.986,155.926 227.383 C 155.926 226.329,155.263 225.185,154.653 225.185 C 154.374 225.185,153.978 224.701,153.771 224.109 C 153.565 223.517,153.049 222.923,152.624 222.788 C 152.199 222.653,151.852 222.390,151.852 222.204 C 151.852 222.017,151.437 221.403,150.931 220.840 C 149.433 219.172,147.778 216.959,147.778 216.622 C 147.778 216.327,147.121 215.520,144.722 212.868 C 144.162 212.249,143.704 211.537,143.704 211.287 C 143.704 211.036,143.427 210.603,143.088 210.323 C 142.749 210.044,142.158 209.106,141.774 208.241 C 141.390 207.375,140.909 206.667,140.704 206.667 C 140.499 206.667,140.158 206.167,139.945 205.556 C 139.697 204.846,139.302 204.444,138.853 204.444 C 138.351 204.444,138.148 204.182,138.148 203.532 C 138.148 202.523,137.478 202.561,145.278 203.133 M302.787 203.737 C 311.041 205.263,316.759 214.401,314.499 222.455 L 314.070 223.985 311.279 224.400 C 309.744 224.628,304.675 224.815,300.013 224.815 L 291.538 224.815 290.438 225.741 C 289.833 226.250,289.163 226.667,288.949 226.667 C 288.735 226.667,288.341 226.980,288.073 227.363 C 287.804 227.746,287.253 228.122,286.848 228.199 C 286.443 228.275,285.947 228.712,285.746 229.169 C 285.282 230.222,284.973 230.215,284.267 229.138 C 283.830 228.471,283.452 228.313,282.592 228.440 C 281.926 228.537,281.481 228.438,281.481 228.190 C 281.481 227.963,281.898 227.778,282.407 227.778 C 283.131 227.778,283.333 227.589,283.333 226.911 C 283.333 226.346,283.656 225.898,284.259 225.623 C 284.769 225.391,285.185 224.891,285.185 224.512 C 285.185 224.133,285.602 223.633,286.111 223.401 C 286.620 223.169,287.037 222.792,287.037 222.564 C 287.037 222.336,287.495 221.696,288.056 221.143 C 292.360 216.889,292.860 215.747,292.934 210.000 C 292.953 208.472,293.075 206.347,293.203 205.278 L 293.437 203.333 297.021 203.333 C 298.992 203.333,301.587 203.515,302.787 203.737 M203.339 214.857 C 203.336 215.186,203.644 215.853,204.023 216.339 C 204.403 216.825,204.824 217.576,204.959 218.009 C 205.580 219.991,212.028 224.849,213.937 224.772 C 214.932 224.732,214.917 224.713,213.704 224.466 C 211.351 223.988,206.134 219.667,204.959 217.222 C 203.932 215.087,203.345 214.229,203.339 214.857 M158.557 230.110 C 158.259 230.408,158.151 230.223,158.159 229.426 C 158.169 228.468,158.220 228.418,158.568 229.017 C 158.853 229.507,158.850 229.817,158.557 230.110 " stroke="none" fill="#999899" fill-rule="evenodd"></path><path id="path3" d="M46.399 94.167 C 46.202 94.421,45.762 97.935,45.421 101.975 C 44.994 107.041,44.613 109.685,44.194 110.494 C 43.031 112.737,42.979 114.466,42.987 150.370 C 42.992 170.231,42.997 201.333,42.999 219.486 C 43.001 237.638,42.895 252.919,42.763 253.444 C 42.091 256.124,43.764 263.010,45.461 264.545 C 48.303 267.114,64.344 267.294,72.314 264.846 C 74.839 264.070,76.932 263.722,80.266 263.523 C 83.472 263.332,84.919 263.099,85.230 262.723 C 85.565 262.320,85.699 246.845,85.791 198.041 C 85.857 162.757,86.013 133.424,86.137 132.856 C 86.374 131.764,87.497 131.715,88.334 132.760 C 88.573 133.059,90.877 133.389,94.815 133.690 C 104.218 134.408,107.194 135.365,110.868 138.853 C 115.740 143.478,117.417 148.167,116.301 154.047 C 115.483 158.364,114.140 158.807,101.741 158.858 C 91.792 158.898,92.034 158.792,91.747 163.223 C 91.491 167.174,91.777 167.752,94.291 168.365 C 95.292 168.609,97.043 169.152,98.181 169.572 C 101.882 170.936,104.296 171.114,113.287 170.686 C 120.107 170.360,122.147 170.380,124.258 170.791 C 128.578 171.632,140.600 171.396,146.481 170.353 C 149.446 169.828,152.435 169.533,154.259 169.586 C 155.889 169.633,160.222 169.734,163.889 169.810 C 167.556 169.885,172.854 170.062,175.663 170.202 L 180.771 170.457 183.116 169.303 L 185.461 168.148 209.992 168.148 C 236.236 168.148,234.572 168.035,233.865 169.774 C 233.750 170.058,234.136 170.849,234.723 171.534 C 237.173 174.390,237.942 176.382,236.769 176.832 C 236.116 177.083,235.185 176.207,235.185 175.341 C 235.185 175.097,234.618 174.791,233.925 174.661 C 233.231 174.531,232.576 174.195,232.469 173.916 C 232.362 173.636,231.637 173.305,230.859 173.180 C 227.012 172.562,95.607 172.351,93.350 172.958 C 89.976 173.867,90.113 181.621,93.519 182.428 C 94.130 182.573,95.463 183.076,96.481 183.547 C 99.098 184.755,109.382 185.369,120.926 185.005 C 125.611 184.858,149.717 184.687,174.496 184.626 L 219.547 184.515 222.674 183.561 C 224.462 183.015,227.535 182.455,229.849 182.252 C 234.723 181.824,234.918 181.758,235.446 180.360 C 235.710 179.662,236.124 179.259,236.578 179.259 C 236.972 179.259,237.475 178.884,237.696 178.426 C 238.025 177.744,238.102 178.099,238.119 180.370 C 238.151 184.575,237.841 185.920,236.747 186.336 C 236.239 186.529,235.333 187.099,234.735 187.603 L 233.647 188.519 162.943 188.519 L 92.239 188.519 91.708 189.352 C 91.328 189.949,91.103 192.075,90.914 196.852 C 90.700 202.278,90.522 203.774,89.955 204.893 C 88.323 208.115,90.875 214.641,96.170 220.784 C 98.596 223.598,103.126 229.498,105.806 233.333 C 108.581 237.305,111.411 241.024,111.876 241.311 C 112.345 241.601,117.238 248.090,119.127 250.926 C 123.472 257.452,124.826 259.257,126.852 261.220 C 131.499 265.724,131.997 265.816,152.778 266.000 L 160.556 266.068 162.593 265.004 C 164.572 263.971,164.857 263.931,172.593 263.601 C 178.284 263.358,180.701 263.122,181.067 262.773 C 181.741 262.129,181.329 260.514,180.431 260.279 C 180.021 260.172,179.648 259.631,179.511 258.943 C 179.384 258.308,178.942 257.499,178.529 257.145 C 178.109 256.786,177.778 256.048,177.778 255.473 C 177.778 254.620,177.618 254.444,176.843 254.444 C 176.100 254.444,175.862 254.216,175.685 253.333 C 175.513 252.473,175.264 252.222,174.583 252.222 C 173.668 252.222,173.308 251.029,174.079 250.553 C 174.516 250.282,177.763 253.297,177.772 253.981 C 177.775 254.236,178.007 254.444,178.288 254.444 C 178.569 254.444,179.020 254.711,179.290 255.038 C 181.355 257.526,192.818 263.126,199.259 264.794 C 205.821 266.493,224.964 266.901,227.125 265.388 C 227.575 265.073,228.395 264.815,228.947 264.815 C 229.500 264.815,230.421 264.628,230.994 264.399 C 231.578 264.166,235.598 263.881,240.123 263.751 C 247.549 263.537,248.251 263.460,248.734 262.800 C 249.170 262.203,249.259 259.077,249.259 244.374 C 249.259 223.351,249.706 225.148,244.605 225.643 C 239.445 226.144,218.118 225.750,215.000 225.097 C 211.375 224.336,205.692 220.330,204.958 218.016 C 204.822 217.587,204.393 216.807,204.005 216.282 C 203.006 214.931,202.038 205.380,202.633 202.747 C 202.859 201.745,203.067 200.259,203.096 199.444 L 203.148 197.963 225.706 197.867 C 241.618 197.800,248.411 197.650,248.762 197.359 C 249.325 196.892,249.510 160.227,248.953 159.351 C 248.722 158.986,244.222 158.907,227.940 158.980 C 216.545 159.032,196.278 158.922,182.902 158.737 L 158.581 158.399 159.290 157.076 C 159.681 156.347,160.011 155.083,160.025 154.265 C 160.046 153.030,160.111 152.903,160.412 153.519 C 161.651 156.056,164.476 156.605,176.852 156.715 C 187.761 156.811,188.889 156.699,188.889 155.521 C 188.889 154.474,189.954 154.212,195.352 153.932 C 201.346 153.622,201.481 153.531,201.481 149.794 C 201.481 147.712,201.688 146.667,202.404 145.129 C 202.911 144.040,203.328 142.631,203.330 141.999 C 203.333 140.971,204.100 139.800,205.973 137.963 C 206.180 137.759,206.732 137.218,207.199 136.759 C 207.666 136.301,208.241 135.926,208.478 135.926 C 208.714 135.926,209.066 135.509,209.259 135.000 C 209.670 133.919,211.109 133.735,211.881 134.665 C 212.250 135.109,212.736 135.198,213.836 135.022 C 215.934 134.686,216.178 134.409,214.862 133.856 C 214.225 133.588,213.704 133.111,213.704 132.796 C 213.704 132.286,215.636 132.222,231.037 132.222 C 244.025 132.222,248.482 132.111,248.815 131.778 C 249.814 130.779,249.217 96.352,248.181 95.214 C 246.973 93.887,203.278 95.004,201.044 96.419 C 200.572 96.719,199.304 97.146,198.227 97.370 C 197.150 97.593,195.817 98.094,195.264 98.483 C 194.711 98.872,193.657 99.292,192.921 99.417 C 192.185 99.542,191.293 99.965,190.938 100.357 C 190.584 100.748,189.822 101.173,189.246 101.299 C 188.671 101.426,187.992 101.779,187.738 102.085 C 187.484 102.391,186.764 102.905,186.138 103.228 C 185.512 103.550,184.782 104.123,184.516 104.500 C 184.250 104.877,183.875 105.185,183.684 105.185 C 182.352 105.185,175.021 111.962,174.589 113.592 C 174.471 114.039,173.973 114.668,173.483 114.989 C 172.993 115.310,172.593 115.758,172.593 115.985 C 172.593 116.211,172.173 116.786,171.660 117.261 C 171.147 117.737,170.627 118.624,170.505 119.234 C 170.383 119.843,169.886 120.602,169.401 120.920 C 168.916 121.238,168.519 121.805,168.519 122.180 C 168.519 122.555,168.019 123.490,167.407 124.259 C 166.796 125.028,166.296 126.102,166.296 126.646 C 166.296 127.189,165.900 128.171,165.416 128.827 C 164.932 129.483,164.432 130.668,164.306 131.460 C 164.179 132.252,163.518 134.063,162.836 135.486 C 161.729 137.796,161.569 138.539,161.334 142.462 C 160.808 151.241,160.095 152.723,160.044 145.143 C 159.997 138.181,159.612 135.078,158.665 134.031 C 158.319 133.649,157.886 131.995,157.614 130.016 C 157.278 127.575,156.940 126.424,156.383 125.825 C 155.961 125.371,155.503 124.333,155.366 123.519 C 155.228 122.704,154.827 121.620,154.474 121.111 C 154.120 120.602,153.635 119.617,153.396 118.923 C 153.157 118.229,152.647 117.441,152.263 117.172 C 151.880 116.904,151.454 116.236,151.316 115.688 C 150.722 113.322,143.698 105.785,139.186 102.675 C 136.247 100.648,134.927 99.876,133.604 99.409 C 132.827 99.135,131.941 98.660,131.635 98.354 C 131.328 98.048,130.416 97.619,129.607 97.401 C 128.799 97.184,127.598 96.699,126.939 96.324 C 126.280 95.949,124.657 95.546,123.333 95.428 C 122.009 95.310,119.972 94.874,118.806 94.458 C 116.174 93.522,47.114 93.243,46.399 94.167 M117.410 95.001 C 118.002 95.308,120.001 95.715,121.851 95.906 C 124.048 96.134,125.628 96.508,126.404 96.985 C 127.058 97.387,128.259 97.837,129.074 97.986 C 129.889 98.135,130.923 98.649,131.371 99.129 C 131.820 99.608,132.603 100.000,133.111 100.000 C 133.620 100.000,134.480 100.411,135.022 100.914 C 135.565 101.417,136.365 101.940,136.801 102.076 C 137.236 102.212,138.064 102.717,138.640 103.199 C 139.215 103.680,139.912 104.074,140.189 104.074 C 140.465 104.074,140.797 104.407,140.926 104.815 C 141.055 105.222,141.312 105.556,141.497 105.556 C 142.067 105.556,148.679 112.346,149.160 113.426 C 149.410 113.986,149.758 114.444,149.933 114.444 C 150.109 114.444,150.452 115.108,150.695 115.920 C 150.938 116.731,151.444 117.559,151.818 117.760 C 152.192 117.960,152.690 118.886,152.925 119.818 C 153.160 120.749,153.590 121.603,153.880 121.715 C 154.171 121.826,154.520 122.659,154.656 123.565 C 154.792 124.470,155.293 125.787,155.771 126.490 C 156.435 127.469,156.726 128.620,157.010 131.395 C 157.215 133.390,157.670 135.767,158.022 136.678 C 158.932 139.036,158.969 149.455,158.079 153.148 C 157.090 157.256,157.010 158.406,157.676 158.959 C 158.151 159.352,166.728 159.463,202.927 159.544 C 227.493 159.599,247.801 159.719,248.056 159.810 C 248.714 160.047,248.732 195.934,248.074 196.593 C 247.738 196.929,242.126 197.037,225.087 197.037 C 210.256 197.037,202.299 197.168,201.828 197.420 C 200.887 197.924,200.781 207.350,201.689 209.815 C 201.989 210.630,202.341 212.356,202.471 213.651 C 202.640 215.340,202.952 216.297,203.576 217.038 C 204.054 217.605,204.444 218.264,204.444 218.502 C 204.444 219.235,208.242 222.992,209.525 223.529 C 210.194 223.808,210.741 224.195,210.741 224.389 C 210.741 224.854,212.790 225.556,214.150 225.556 C 214.742 225.556,215.965 225.892,216.869 226.304 C 218.434 227.017,219.221 227.052,233.206 227.028 C 244.848 227.009,247.962 227.104,248.203 227.483 C 248.807 228.436,248.586 262.220,247.974 262.455 C 247.674 262.569,238.049 262.689,226.585 262.721 L 205.741 262.778 204.571 261.900 C 203.775 261.302,202.653 260.941,201.053 260.766 C 199.665 260.614,198.173 260.178,197.407 259.700 C 196.694 259.256,195.598 258.891,194.972 258.890 C 194.249 258.889,193.527 258.563,192.996 257.998 C 192.536 257.508,191.595 257.002,190.905 256.872 C 190.214 256.743,189.498 256.365,189.312 256.033 C 189.126 255.701,188.477 255.166,187.869 254.844 C 184.530 253.077,183.595 252.429,181.302 250.299 C 178.248 247.461,175.420 244.108,173.770 241.369 C 173.093 240.245,172.218 239.035,171.826 238.680 C 171.433 238.324,171.111 237.665,171.111 237.216 C 171.111 236.766,170.611 235.769,170.000 235.000 C 169.389 234.231,168.889 233.231,168.889 232.777 C 168.889 232.323,168.552 231.523,168.140 231.000 C 167.728 230.476,167.217 229.079,167.004 227.894 C 166.791 226.710,166.289 225.051,165.888 224.207 C 165.078 222.505,164.182 204.842,164.665 200.100 C 164.984 196.961,165.638 197.086,148.539 197.016 C 131.632 196.946,131.519 196.971,134.074 200.185 C 134.685 200.954,135.185 201.750,135.185 201.953 C 135.185 202.156,135.560 202.716,136.019 203.196 C 137.778 205.040,138.974 206.548,140.094 208.333 C 141.290 210.240,142.802 212.209,144.084 213.532 C 144.486 213.946,144.815 214.462,144.815 214.678 C 144.815 214.894,145.162 215.384,145.586 215.768 C 146.010 216.152,146.580 216.998,146.851 217.648 C 147.123 218.298,147.692 219.015,148.117 219.242 C 148.541 219.470,148.889 219.896,148.889 220.190 C 148.889 220.483,149.306 220.997,149.815 221.330 C 150.324 221.664,150.741 222.142,150.741 222.393 C 150.741 222.643,151.092 223.166,151.521 223.554 C 151.950 223.942,152.610 224.864,152.987 225.602 C 153.364 226.341,153.929 227.044,154.243 227.165 C 154.558 227.286,154.815 227.636,154.815 227.943 C 154.815 228.250,155.247 228.784,155.775 229.130 C 156.302 229.476,156.890 230.105,157.080 230.528 C 157.468 231.390,158.838 233.416,159.978 234.815 C 162.125 237.449,162.638 238.071,163.681 239.308 C 164.305 240.048,164.815 240.834,164.815 241.055 C 164.815 241.275,165.315 242.025,165.926 242.721 C 166.537 243.417,167.037 244.105,167.037 244.249 C 167.037 244.393,167.847 245.292,168.838 246.247 C 169.828 247.201,170.751 248.338,170.889 248.773 C 171.119 249.498,172.115 250.910,174.104 253.333 C 175.671 255.241,177.037 257.148,177.037 257.427 C 177.037 257.777,178.322 259.364,179.779 260.815 C 181.585 262.611,181.570 262.613,158.297 262.854 C 133.808 263.108,134.121 263.128,132.900 261.224 C 132.426 260.483,131.735 259.413,131.365 258.846 C 130.996 258.278,129.954 257.014,129.049 256.037 C 128.145 255.059,126.864 253.362,126.203 252.266 C 125.541 251.169,123.746 248.752,122.214 246.895 C 119.638 243.773,118.958 242.875,117.387 240.528 C 117.070 240.054,116.121 238.867,115.278 237.889 C 113.153 235.423,111.111 232.654,111.111 232.237 C 111.111 232.046,110.852 231.744,110.535 231.566 C 110.218 231.389,109.677 230.815,109.331 230.291 C 108.439 228.936,105.294 224.740,103.326 222.279 C 101.718 220.268,100.933 219.189,99.544 217.083 C 99.192 216.549,98.244 215.360,97.439 214.442 C 95.355 212.068,94.192 210.413,93.370 208.652 C 92.976 207.809,92.473 207.007,92.253 206.871 C 91.643 206.494,91.702 190.141,92.315 189.744 C 92.569 189.579,124.951 189.361,164.274 189.259 L 235.770 189.074 236.984 188.148 C 242.454 183.973,242.766 183.383,242.773 177.185 L 242.778 172.334 240.752 170.382 C 239.639 169.308,238.312 168.158,237.805 167.826 C 236.961 167.273,230.858 167.222,165.497 167.222 C 114.141 167.222,93.997 167.108,93.705 166.815 C 93.030 166.141,93.025 160.363,93.699 160.005 C 94.007 159.841,98.852 159.648,104.466 159.576 L 114.673 159.444 115.808 158.519 C 116.433 158.009,117.448 157.318,118.063 156.983 C 118.778 156.595,119.272 155.972,119.427 155.263 C 119.562 154.651,119.975 153.877,120.345 153.542 C 121.904 152.130,121.750 140.921,120.151 139.531 C 119.681 139.122,119.197 138.352,119.076 137.819 C 118.813 136.659,116.654 134.237,115.579 133.896 C 115.156 133.762,114.335 133.252,113.752 132.762 C 111.666 131.006,86.456 130.170,85.569 131.828 C 85.309 132.313,85.183 153.320,85.180 197.105 C 85.176 234.487,85.034 261.887,84.842 262.191 C 84.328 263.003,46.805 263.033,46.290 262.222 C 45.234 260.559,45.983 97.973,47.059 95.278 L 47.392 94.444 81.862 94.444 C 111.817 94.444,116.474 94.517,117.410 95.001 M255.237 95.833 C 255.047 96.190,254.701 99.231,254.468 102.593 C 253.926 110.408,253.821 110.997,252.656 112.778 C 251.341 114.788,250.739 131.996,251.730 139.259 C 252.204 142.736,252.252 144.914,251.989 151.111 C 251.461 163.558,251.614 198.723,252.218 203.573 C 252.650 207.053,252.655 209.236,252.248 217.462 C 251.440 233.792,251.425 234.534,251.780 239.727 C 252.050 243.676,252.283 245.018,252.867 245.988 C 253.308 246.719,253.712 248.262,253.858 249.776 C 254.238 253.698,255.756 255.067,257.231 252.816 C 257.551 252.328,258.138 251.844,258.536 251.740 C 258.975 251.625,259.259 251.233,259.259 250.741 C 259.259 250.237,259.545 249.856,260.015 249.733 C 260.430 249.624,261.018 249.057,261.321 248.471 C 261.623 247.886,262.121 247.407,262.426 247.407 C 262.731 247.407,263.140 246.991,263.333 246.481 C 263.549 245.915,263.976 245.556,264.435 245.556 C 264.945 245.556,265.185 245.312,265.185 244.796 C 265.185 244.284,265.549 243.909,266.296 243.648 C 266.974 243.412,267.407 243.002,267.407 242.597 C 267.407 242.202,267.773 241.840,268.308 241.706 C 268.869 241.565,269.252 241.167,269.326 240.648 C 269.402 240.113,269.742 239.772,270.277 239.697 C 270.782 239.625,271.194 239.242,271.324 238.724 C 271.442 238.255,271.942 237.687,272.436 237.462 C 272.939 237.232,273.333 236.736,273.333 236.330 C 273.333 235.862,273.628 235.565,274.167 235.489 C 274.709 235.412,275.042 235.072,275.121 234.517 C 275.191 234.023,275.620 233.520,276.139 233.323 C 276.633 233.135,277.037 232.809,277.037 232.599 C 277.037 232.389,278.329 230.894,279.907 229.276 C 283.598 225.494,287.533 221.192,290.086 218.148 L 292.105 215.741 292.578 208.333 C 292.838 204.259,293.073 200.259,293.099 199.444 L 293.148 197.963 301.296 197.855 C 312.340 197.708,314.020 198.058,308.817 199.421 L 306.338 200.071 308.878 201.341 C 315.395 204.602,318.682 209.917,318.695 217.220 L 318.704 221.667 317.407 222.927 C 315.582 224.702,314.480 224.866,302.593 225.133 L 292.037 225.370 290.370 226.534 C 288.882 227.574,286.381 229.744,284.246 231.849 C 283.832 232.258,283.286 232.593,283.035 232.593 C 282.783 232.593,282.387 233.009,282.155 233.519 C 281.923 234.028,281.514 234.444,281.245 234.444 C 280.977 234.444,280.489 234.855,280.161 235.356 C 279.832 235.857,279.253 236.366,278.875 236.486 C 278.496 236.606,278.089 237.011,277.970 237.386 C 277.851 237.761,277.413 238.157,276.997 238.266 C 276.582 238.375,276.153 238.800,276.046 239.211 C 275.929 239.657,275.419 240.053,274.777 240.193 C 274.064 240.350,273.704 240.659,273.704 241.116 C 273.704 241.493,273.385 241.903,272.996 242.027 C 272.607 242.150,272.020 242.661,271.691 243.163 C 271.363 243.664,270.859 244.074,270.572 244.074 C 270.285 244.074,269.952 244.382,269.833 244.759 C 269.713 245.135,269.202 245.632,268.697 245.862 C 268.191 246.092,267.778 246.508,267.778 246.786 C 267.778 247.065,267.361 247.776,266.852 248.368 C 266.343 248.960,265.927 249.622,265.926 249.838 C 265.926 250.055,265.439 250.698,264.845 251.268 C 264.250 251.837,263.669 252.682,263.553 253.144 C 263.436 253.607,263.006 254.073,262.597 254.180 C 262.175 254.291,261.852 254.685,261.852 255.091 C 261.852 255.495,261.449 255.991,260.926 256.229 C 260.410 256.464,260.000 256.963,260.000 257.356 C 260.000 257.749,259.673 258.147,259.264 258.254 C 258.859 258.360,258.363 258.880,258.162 259.409 C 257.961 259.938,257.560 260.370,257.271 260.370 C 256.151 260.370,255.943 262.748,257.013 263.320 C 257.444 263.551,260.962 263.704,265.855 263.704 L 273.981 263.704 274.197 264.780 L 274.412 265.857 277.854 265.973 C 289.380 266.361,305.421 266.100,306.322 265.509 C 306.894 265.134,308.531 264.804,310.660 264.636 C 312.541 264.487,314.171 264.217,314.284 264.035 C 314.396 263.853,316.465 263.704,318.880 263.704 C 323.841 263.704,324.367 263.585,324.834 262.357 C 325.136 261.561,325.385 261.481,327.557 261.481 C 329.664 261.481,330.032 261.372,330.675 260.556 C 331.169 259.927,331.768 259.630,332.541 259.630 C 333.305 259.630,334.051 259.265,334.815 258.519 C 335.440 257.907,336.272 257.407,336.664 257.407 C 337.056 257.407,337.892 256.949,338.521 256.389 C 339.150 255.829,340.068 255.008,340.561 254.566 C 341.054 254.123,341.814 253.648,342.251 253.510 C 343.468 253.123,349.704 246.756,351.310 244.259 C 352.096 243.037,353.123 241.566,353.592 240.990 C 354.061 240.414,354.444 239.564,354.444 239.100 C 354.444 238.636,354.861 237.807,355.370 237.257 C 355.880 236.708,356.296 235.875,356.296 235.406 C 356.296 234.938,356.694 233.808,357.179 232.895 C 357.664 231.982,358.185 230.340,358.335 229.246 C 358.486 228.152,358.963 226.583,359.397 225.758 C 360.653 223.369,360.611 203.205,359.345 200.835 C 358.883 199.969,358.408 198.469,358.289 197.501 C 358.170 196.533,357.764 195.299,357.386 194.759 C 357.009 194.220,356.587 193.303,356.449 192.722 C 356.312 192.142,355.899 191.333,355.532 190.926 C 355.165 190.519,354.686 189.715,354.468 189.140 C 354.008 187.927,351.190 184.354,347.848 180.750 L 345.512 178.229 346.182 176.952 C 346.550 176.250,347.519 174.711,348.333 173.532 C 349.148 172.353,350.001 171.067,350.229 170.674 C 350.457 170.282,350.997 169.631,351.428 169.229 C 351.860 168.827,352.320 168.044,352.452 167.490 C 352.583 166.935,353.000 166.138,353.380 165.719 C 353.759 165.300,354.220 164.154,354.403 163.173 C 354.587 162.191,354.896 161.284,355.091 161.157 C 355.787 160.702,356.200 159.405,356.447 156.896 C 356.585 155.494,356.970 153.744,357.303 153.007 C 358.457 150.453,358.430 139.511,357.257 134.737 C 356.729 132.585,356.296 130.231,356.296 129.506 C 356.296 128.628,356.000 127.867,355.411 127.231 C 354.902 126.681,354.422 125.583,354.281 124.645 C 354.147 123.749,353.735 122.628,353.365 122.156 C 352.996 121.683,352.569 120.880,352.415 120.370 C 352.262 119.861,351.739 118.914,351.253 118.265 C 350.768 117.617,350.370 116.972,350.370 116.833 C 350.370 116.693,349.912 116.025,349.352 115.348 C 348.792 114.670,347.917 113.572,347.407 112.906 C 345.526 110.448,341.995 106.943,340.282 105.833 C 339.312 105.204,338.519 104.580,338.519 104.444 C 338.519 104.101,335.267 102.041,333.704 101.393 C 332.991 101.097,332.179 100.580,331.899 100.243 C 331.620 99.905,331.120 99.629,330.788 99.628 C 330.456 99.627,329.185 99.128,327.963 98.519 C 326.741 97.909,325.324 97.406,324.815 97.401 C 324.306 97.395,323.139 97.028,322.222 96.584 C 319.389 95.213,255.945 94.501,255.237 95.833 M248.034 96.019 C 248.587 96.874,248.628 130.723,248.076 130.929 C 247.810 131.029,239.926 131.161,230.556 131.224 L 213.519 131.337 211.670 132.335 C 210.653 132.884,209.672 133.333,209.490 133.333 C 209.308 133.333,208.805 133.708,208.373 134.167 C 207.940 134.625,207.088 135.421,206.478 135.935 C 204.541 137.570,202.593 140.406,202.593 141.591 C 202.593 142.196,202.218 143.293,201.759 144.030 C 201.088 145.110,200.890 146.089,200.741 149.074 L 200.556 152.778 195.741 153.053 C 193.093 153.204,184.759 153.287,177.222 153.238 L 163.519 153.148 163.414 148.748 C 163.331 145.285,163.467 143.736,164.053 141.478 C 164.462 139.900,164.961 137.165,165.161 135.400 C 165.418 133.142,165.750 131.907,166.281 131.231 C 166.697 130.703,167.037 129.816,167.037 129.261 C 167.037 128.706,167.537 127.315,168.148 126.170 C 168.759 125.025,169.259 123.815,169.259 123.482 C 169.259 123.148,169.759 122.306,170.370 121.610 C 170.981 120.914,171.481 120.151,171.481 119.914 C 171.481 118.284,179.326 109.203,182.766 106.852 C 183.362 106.444,184.290 105.694,184.827 105.185 C 185.365 104.676,186.374 103.956,187.069 103.586 C 187.764 103.215,188.917 102.601,189.630 102.221 C 190.343 101.840,191.176 101.285,191.481 100.987 C 191.787 100.689,192.787 100.251,193.704 100.014 C 194.620 99.778,195.826 99.258,196.382 98.860 C 196.939 98.462,198.189 98.032,199.160 97.904 C 200.131 97.777,201.593 97.326,202.407 96.903 C 204.209 95.968,209.933 95.727,232.849 95.623 C 244.411 95.571,247.801 95.659,248.034 96.019 M320.556 96.900 C 321.370 97.335,322.932 97.811,324.025 97.960 C 325.119 98.108,326.571 98.608,327.253 99.071 C 327.935 99.534,329.118 100.030,329.882 100.173 C 330.646 100.317,331.481 100.734,331.738 101.101 C 331.995 101.467,332.656 101.880,333.207 102.019 C 333.758 102.157,334.692 102.676,335.281 103.172 C 335.871 103.668,336.526 104.074,336.737 104.074 C 337.560 104.074,345.010 110.988,347.037 113.634 C 347.546 114.299,348.338 115.230,348.796 115.704 C 349.255 116.179,349.630 116.732,349.630 116.935 C 349.630 117.138,350.069 117.952,350.607 118.744 C 351.144 119.536,351.751 120.685,351.956 121.296 C 352.160 121.907,352.574 122.693,352.876 123.042 C 353.177 123.391,353.573 124.475,353.754 125.450 C 353.940 126.450,354.395 127.464,354.798 127.778 C 355.363 128.217,355.600 129.142,355.931 132.206 C 356.162 134.336,356.588 136.648,356.879 137.344 C 357.667 139.230,357.617 149.037,356.810 150.969 C 356.481 151.756,356.079 153.959,355.915 155.865 C 355.681 158.597,355.455 159.503,354.848 160.150 C 354.425 160.600,353.937 161.725,353.765 162.648 C 353.592 163.571,353.091 164.687,352.651 165.126 C 352.212 165.566,351.852 166.318,351.852 166.797 C 351.852 167.276,351.394 168.172,350.833 168.789 C 349.055 170.746,344.555 177.068,344.372 177.866 C 344.311 178.131,345.554 179.677,347.134 181.303 C 351.535 185.833,351.852 186.186,351.852 186.557 C 351.852 186.748,352.269 187.266,352.778 187.709 C 353.287 188.151,353.704 188.850,353.704 189.260 C 353.704 189.671,354.204 190.530,354.815 191.169 C 355.518 191.905,355.926 192.720,355.926 193.388 C 355.926 193.969,356.260 194.779,356.668 195.187 C 357.142 195.661,357.532 196.766,357.747 198.242 C 357.931 199.515,358.427 201.306,358.848 202.222 C 360.028 204.791,360.034 222.405,358.856 224.603 C 358.430 225.397,357.990 226.978,357.878 228.116 C 357.766 229.254,357.297 230.852,356.836 231.667 C 356.374 232.481,355.883 233.859,355.743 234.727 C 355.586 235.701,355.224 236.448,354.797 236.676 C 354.410 236.883,353.994 237.655,353.850 238.430 C 353.710 239.192,353.203 240.182,352.723 240.630 C 352.244 241.079,351.852 241.695,351.852 241.998 C 351.852 242.302,351.543 242.768,351.166 243.035 C 350.789 243.301,350.223 244.019,349.908 244.631 C 349.593 245.242,348.985 246.060,348.556 246.447 C 348.128 246.835,347.778 247.376,347.778 247.650 C 347.778 247.924,347.630 248.148,347.450 248.148 C 347.269 248.148,346.227 248.994,345.135 250.028 C 344.042 251.062,342.648 252.170,342.037 252.490 C 341.426 252.810,340.093 253.775,339.074 254.635 C 338.056 255.494,336.596 256.400,335.830 256.647 C 335.065 256.894,334.279 257.394,334.085 257.758 C 333.879 258.141,333.109 258.519,332.252 258.656 C 331.439 258.786,329.991 259.308,329.035 259.817 C 328.079 260.325,326.733 260.741,326.044 260.741 C 325.354 260.741,323.948 261.167,322.919 261.689 L 321.048 262.637 300.802 262.815 C 277.567 263.020,257.593 262.638,257.593 261.991 C 257.593 261.643,262.695 255.875,265.394 253.173 C 265.815 252.752,268.214 250.157,270.725 247.407 C 278.503 238.892,288.401 229.056,291.154 227.107 C 291.929 226.558,293.257 226.481,302.037 226.475 C 310.284 226.469,312.297 226.365,313.519 225.880 C 314.333 225.558,315.583 225.184,316.296 225.050 C 318.319 224.670,322.222 220.559,322.222 218.810 C 322.222 218.321,322.639 217.357,323.148 216.667 C 323.989 215.527,324.074 215.075,324.074 211.741 C 324.074 208.366,324.000 207.981,323.148 206.969 C 322.639 206.364,322.220 205.507,322.218 205.064 C 322.214 204.360,321.054 202.971,318.319 200.394 C 317.903 200.003,317.070 199.560,316.467 199.409 C 315.864 199.258,314.929 198.663,314.388 198.086 L 313.407 197.037 303.160 197.037 C 290.080 197.037,291.481 195.974,291.481 205.894 C 291.481 214.736,291.354 215.427,289.292 217.778 C 288.667 218.491,287.695 219.617,287.133 220.282 C 286.114 221.485,281.391 226.367,266.305 241.808 C 261.930 246.286,258.291 250.128,258.218 250.345 C 258.146 250.563,257.857 250.741,257.576 250.741 C 257.296 250.741,256.735 251.096,256.330 251.531 L 255.594 252.320 255.297 251.253 C 254.897 249.814,254.916 113.697,255.318 104.001 C 255.592 97.379,255.718 96.312,256.244 96.166 C 258.759 95.464,319.155 96.154,320.556 96.900 M292.677 131.720 C 291.274 132.312,291.110 133.717,291.139 144.889 C 291.171 157.807,291.284 158.881,292.673 159.547 C 294.533 160.438,313.402 159.666,314.507 158.654 C 314.982 158.220,315.885 157.605,316.513 157.287 C 318.822 156.122,320.692 152.368,321.354 147.572 C 321.662 145.344,319.958 138.905,318.701 137.541 C 316.411 135.057,315.368 134.210,314.027 133.743 C 313.358 133.509,312.414 132.947,311.931 132.493 C 311.076 131.688,294.343 131.017,292.677 131.720 M295.093 132.478 C 294.736 132.571,294.153 132.571,293.796 132.478 C 293.440 132.384,293.731 132.308,294.444 132.308 C 295.157 132.308,295.449 132.384,295.093 132.478 M306.481 132.547 C 305.870 132.684,303.370 132.696,300.926 132.574 L 296.481 132.352 302.037 132.325 C 305.093 132.310,307.093 132.410,306.481 132.547 M303.029 135.711 C 308.740 136.090,315.484 143.268,316.298 149.832 C 316.686 152.960,315.965 156.116,314.776 156.494 C 314.391 156.616,313.979 157.100,313.862 157.569 C 313.586 158.667,312.365 158.826,301.840 159.136 C 291.159 159.452,292.220 160.431,292.234 150.265 C 292.244 142.922,292.580 137.717,293.161 135.884 C 293.364 135.246,295.461 135.209,303.029 135.711 M227.593 174.969 C 232.685 175.136,233.815 175.461,234.604 176.988 C 235.278 178.292,234.810 180.149,233.651 180.769 C 232.546 181.360,94.159 181.381,93.055 180.790 C 91.563 179.992,91.885 175.796,93.505 174.909 C 94.193 174.533,215.950 174.587,227.593 174.969 M155.000 198.101 L 160.185 198.333 156.667 199.233 C 153.450 200.056,153.247 200.159,154.303 200.435 C 158.326 201.486,160.675 207.647,161.482 219.259 C 161.980 226.423,162.511 228.793,164.470 232.598 C 165.264 234.141,166.026 235.979,166.163 236.683 C 166.299 237.387,166.719 238.360,167.094 238.846 C 167.470 239.332,167.778 240.011,167.778 240.356 C 167.778 240.700,168.194 241.373,168.704 241.852 C 169.213 242.330,169.630 242.944,169.630 243.215 C 169.630 243.487,170.046 244.071,170.556 244.514 C 171.726 245.531,171.772 246.389,170.648 246.229 C 170.121 246.155,169.772 245.813,169.699 245.301 C 169.628 244.796,169.278 244.446,168.774 244.375 C 168.157 244.287,167.935 243.967,167.846 243.037 C 167.760 242.142,167.487 241.723,166.827 241.472 C 166.204 241.235,165.926 240.844,165.926 240.204 C 165.926 239.555,165.602 239.111,164.841 238.717 C 164.244 238.409,163.653 237.830,163.526 237.430 C 163.399 237.031,162.971 236.601,162.574 236.475 C 162.177 236.349,161.852 236.000,161.852 235.698 C 161.852 235.397,161.458 234.783,160.977 234.334 C 160.496 233.886,159.983 233.138,159.837 232.672 C 159.691 232.207,158.668 230.930,157.564 229.834 C 156.459 228.739,155.556 227.687,155.556 227.497 C 155.556 227.307,155.205 226.835,154.777 226.447 C 154.349 226.060,153.781 225.321,153.514 224.807 C 153.248 224.292,152.340 223.125,151.496 222.213 C 150.652 221.302,149.684 220.097,149.345 219.537 C 149.006 218.977,148.603 218.519,148.448 218.519 C 148.294 218.519,147.889 217.977,147.550 217.315 C 146.966 216.176,146.182 215.081,144.435 212.963 C 143.203 211.470,141.722 209.422,140.926 208.109 C 140.519 207.437,140.005 206.591,139.784 206.229 C 139.564 205.867,138.939 205.158,138.396 204.655 C 137.852 204.151,137.407 203.481,137.407 203.166 C 137.407 202.851,137.235 202.593,137.024 202.593 C 136.813 202.593,136.331 201.884,135.954 201.019 C 135.576 200.153,134.909 199.231,134.471 198.969 C 134.033 198.708,133.775 198.333,133.896 198.136 C 134.140 197.741,146.525 197.721,155.000 198.101 " stroke="none" fill="#7c7c7c" fill-rule="evenodd"></path><path id="path4" d="M46.481 92.861 C 45.216 93.172,44.815 93.742,44.815 95.231 C 44.815 96.562,44.738 96.667,43.761 96.667 C 39.114 96.667,34.359 103.544,33.667 111.267 C 32.928 119.511,33.414 261.277,34.189 263.889 C 36.930 273.111,40.026 274.825,55.350 275.600 C 73.178 276.501,77.878 275.076,82.679 267.315 C 83.278 266.347,84.005 265.556,84.296 265.556 C 86.144 265.556,86.293 264.209,86.295 247.556 C 86.296 238.980,86.402 230.713,86.531 229.184 L 86.766 226.404 88.643 227.641 C 90.574 228.912,93.867 232.660,97.062 237.222 C 100.460 242.073,101.235 243.147,103.859 246.630 C 105.301 248.544,107.815 251.900,109.444 254.085 C 111.074 256.271,113.241 259.176,114.259 260.539 C 115.278 261.903,116.564 263.697,117.117 264.526 C 123.428 273.990,127.652 275.318,152.065 275.515 C 166.439 275.631,168.634 275.237,176.725 271.085 C 180.784 269.003,181.492 269.069,189.259 272.251 C 190.176 272.626,192.176 273.261,193.704 273.661 C 199.856 275.271,201.341 275.370,219.259 275.370 L 236.481 275.370 240.926 274.097 C 247.347 272.258,248.884 272.240,254.074 273.943 L 258.333 275.340 280.370 275.393 C 306.459 275.456,310.196 275.283,317.222 273.695 C 331.619 270.441,340.746 264.063,351.193 249.956 C 352.890 247.665,355.621 241.944,355.491 240.953 C 355.416 240.378,355.628 239.843,356.056 239.530 C 356.495 239.209,356.816 238.376,356.947 237.213 C 357.082 236.011,357.406 235.190,357.905 234.786 C 358.491 234.312,358.721 233.530,358.936 231.273 C 359.164 228.891,359.362 228.259,360.042 227.746 C 361.069 226.971,361.574 217.028,361.074 207.419 C 360.909 204.255,360.767 201.304,360.758 200.862 C 360.748 200.419,360.324 199.562,359.815 198.956 C 359.089 198.094,358.889 197.443,358.889 195.948 C 358.889 194.407,358.711 193.862,357.963 193.114 C 357.454 192.605,357.037 191.938,357.037 191.631 C 357.037 190.874,355.984 188.889,355.582 188.889 C 355.404 188.889,355.088 188.402,354.880 187.806 C 354.673 187.211,354.156 186.539,353.733 186.312 C 353.309 186.085,352.958 185.697,352.953 185.450 C 352.947 185.202,352.447 184.345,351.842 183.545 C 351.236 182.745,350.741 181.871,350.741 181.604 C 350.741 181.336,350.407 180.909,350.000 180.655 C 348.874 179.952,349.075 177.689,350.566 174.259 C 350.832 173.648,351.142 172.718,351.256 172.193 C 351.370 171.668,351.884 170.785,352.398 170.230 C 352.913 169.675,353.333 169.040,353.333 168.820 C 353.333 168.599,353.750 168.032,354.259 167.560 C 355.048 166.829,355.185 166.374,355.185 164.488 C 355.185 162.474,355.260 162.263,356.019 162.155 C 356.779 162.047,356.862 161.811,356.963 159.448 C 357.052 157.389,357.241 156.682,357.889 155.992 C 359.177 154.622,359.160 133.788,357.870 131.980 C 357.306 131.189,357.037 130.279,357.037 129.165 C 357.037 127.949,356.748 127.093,355.933 125.889 C 355.268 124.908,354.826 123.773,354.822 123.038 C 354.817 122.240,354.513 121.534,353.943 121.001 C 353.464 120.552,352.953 119.542,352.808 118.755 C 352.633 117.808,352.309 117.264,351.849 117.143 C 351.450 117.039,351.050 116.492,350.912 115.863 C 350.779 115.259,350.430 114.672,350.137 114.560 C 349.843 114.447,349.340 113.833,349.019 113.196 C 348.371 111.908,348.185 111.690,344.481 107.870 C 343.049 106.394,341.711 105.185,341.507 105.185 C 341.304 105.185,340.567 104.685,339.871 104.074 C 339.175 103.463,338.418 102.963,338.189 102.963 C 337.960 102.963,337.418 102.555,336.984 102.055 C 336.550 101.556,335.676 101.040,335.042 100.908 C 334.408 100.775,333.630 100.340,333.315 99.941 C 332.999 99.541,332.021 99.052,331.142 98.855 C 330.264 98.657,329.272 98.167,328.939 97.765 C 328.561 97.309,327.649 96.943,326.516 96.792 C 325.516 96.659,324.403 96.255,324.042 95.894 C 323.106 94.958,321.845 94.872,305.556 94.645 C 297.509 94.533,289.086 94.287,286.838 94.098 C 284.589 93.910,276.484 93.636,268.825 93.489 C 253.023 93.186,254.404 92.918,253.883 96.389 C 253.628 98.089,253.578 98.148,252.365 98.148 C 251.605 98.148,250.819 98.440,250.370 98.889 L 249.630 99.630 249.630 97.078 C 249.630 95.199,249.459 94.315,248.981 93.725 L 248.332 92.924 229.999 93.041 C 213.921 93.144,211.507 93.234,210.370 93.768 C 209.506 94.174,207.470 94.466,204.259 94.643 C 199.288 94.918,198.148 95.194,198.148 96.124 C 198.148 96.526,197.682 96.667,196.348 96.667 C 195.039 96.667,194.176 96.919,193.183 97.593 C 192.433 98.102,191.463 98.519,191.028 98.519 C 188.920 98.519,177.639 103.621,174.074 106.186 C 171.521 108.024,162.187 117.948,159.976 121.176 C 157.307 125.072,156.467 125.401,156.111 122.685 C 155.815 120.417,155.332 119.259,154.684 119.259 C 154.399 119.259,154.063 118.743,153.937 118.111 C 153.811 117.480,153.290 116.467,152.780 115.861 C 152.269 115.254,151.852 114.434,151.852 114.038 C 151.852 113.629,151.452 113.135,150.926 112.896 C 150.417 112.664,150.000 112.234,150.000 111.942 C 150.000 111.234,144.812 105.240,143.963 104.967 C 143.596 104.849,142.798 104.267,142.191 103.673 C 141.583 103.079,140.861 102.593,140.586 102.593 C 140.311 102.593,140.005 102.283,139.906 101.904 C 139.807 101.525,139.294 101.107,138.765 100.974 C 138.236 100.842,137.389 100.318,136.882 99.811 C 136.375 99.304,135.561 98.889,135.074 98.889 C 134.587 98.889,133.886 98.554,133.516 98.145 C 133.145 97.736,132.161 97.199,131.329 96.953 C 130.496 96.706,129.250 96.124,128.559 95.660 C 127.597 95.012,126.782 94.815,125.065 94.815 C 123.252 94.815,122.657 94.656,121.939 93.981 C 121.086 93.180,120.706 93.139,112.100 92.906 C 101.754 92.627,47.586 92.589,46.481 92.861 M119.983 94.215 C 120.700 94.606,122.330 94.991,123.687 95.090 C 125.256 95.205,126.634 95.564,127.593 96.108 C 128.407 96.569,129.598 97.060,130.239 97.198 C 130.880 97.336,131.689 97.764,132.037 98.148 C 132.385 98.532,133.194 98.958,133.835 99.093 C 134.476 99.228,135.333 99.640,135.741 100.007 C 136.148 100.375,137.012 100.899,137.660 101.171 C 139.679 102.020,148.600 110.289,149.668 112.301 C 149.915 112.767,150.411 113.357,150.770 113.612 C 151.129 113.866,151.534 114.582,151.670 115.202 C 151.806 115.822,152.320 116.730,152.811 117.222 C 153.302 117.713,153.704 118.350,153.704 118.637 C 153.704 118.924,154.065 119.619,154.507 120.180 C 154.949 120.742,155.440 122.026,155.600 123.033 C 155.806 124.338,156.161 125.078,156.833 125.607 C 157.489 126.123,157.779 126.710,157.782 127.527 C 157.801 133.111,159.305 133.029,162.520 127.269 C 165.073 122.696,167.275 119.851,173.149 113.539 C 173.557 113.101,174.186 112.292,174.547 111.741 C 174.907 111.191,175.448 110.741,175.749 110.741 C 176.050 110.741,176.296 110.555,176.296 110.327 C 176.296 109.742,179.029 107.160,179.962 106.864 C 180.390 106.728,180.741 106.452,180.741 106.251 C 180.741 106.049,181.489 105.553,182.402 105.149 C 183.316 104.745,184.239 104.088,184.453 103.689 C 184.666 103.289,185.162 102.963,185.556 102.963 C 185.949 102.963,186.445 102.636,186.660 102.235 C 186.874 101.835,187.755 101.298,188.617 101.042 C 189.480 100.786,190.435 100.275,190.741 99.906 C 191.046 99.538,191.963 99.138,192.778 99.018 C 193.593 98.897,194.440 98.576,194.660 98.303 C 195.144 97.703,196.809 97.037,197.825 97.037 C 198.232 97.037,199.429 96.639,200.486 96.152 C 202.065 95.426,203.259 95.226,207.181 95.033 C 209.806 94.903,213.056 94.646,214.403 94.460 C 219.500 93.757,247.709 93.847,248.431 94.568 C 249.161 95.299,249.493 100.738,249.655 114.630 L 249.745 122.407 250.016 117.037 C 250.440 108.615,251.095 105.826,252.746 105.412 C 253.747 105.160,253.832 104.805,254.265 99.103 C 254.625 94.344,252.812 94.809,270.846 94.855 C 307.772 94.950,321.160 95.287,322.593 96.160 C 323.306 96.594,324.669 97.061,325.622 97.197 C 326.575 97.334,327.748 97.754,328.228 98.131 C 328.708 98.509,329.776 99.000,330.602 99.222 C 331.429 99.444,332.407 99.961,332.776 100.369 C 333.146 100.777,333.733 101.111,334.081 101.111 C 334.428 101.111,335.312 101.569,336.045 102.130 C 336.778 102.690,337.983 103.565,338.724 104.074 C 342.685 106.798,346.734 110.836,348.704 114.029 C 348.907 114.360,349.282 114.763,349.537 114.926 C 349.792 115.089,350.272 115.747,350.604 116.389 C 350.936 117.031,351.435 117.785,351.714 118.063 C 351.993 118.342,352.327 119.017,352.455 119.563 C 352.584 120.109,353.021 120.921,353.426 121.367 C 353.830 121.813,354.310 122.973,354.491 123.944 C 354.673 124.916,355.218 126.301,355.703 127.022 C 356.289 127.894,356.649 129.077,356.779 130.556 C 356.886 131.778,357.279 133.361,357.653 134.074 C 358.657 135.988,358.679 151.734,357.681 153.677 C 357.322 154.375,356.936 155.875,356.824 157.010 C 356.522 160.063,356.357 160.653,355.602 161.379 C 355.225 161.741,354.824 162.762,354.711 163.648 C 354.598 164.533,354.171 165.617,353.762 166.055 C 353.353 166.493,352.902 167.320,352.760 167.892 C 352.618 168.464,352.105 169.191,351.621 169.508 C 351.137 169.826,350.741 170.330,350.741 170.630 C 350.741 171.185,349.004 173.876,347.562 175.556 C 346.067 177.297,346.168 178.025,348.193 180.125 C 349.207 181.176,350.304 182.537,350.629 183.148 C 350.955 183.759,351.530 184.477,351.907 184.743 C 352.284 185.009,352.593 185.458,352.593 185.741 C 352.593 186.023,352.914 186.479,353.306 186.754 C 353.699 187.029,354.234 187.747,354.496 188.349 C 354.757 188.952,355.353 189.916,355.819 190.491 C 356.285 191.067,356.667 191.836,356.667 192.201 C 356.667 192.565,357.009 193.298,357.426 193.829 C 357.844 194.360,358.347 195.795,358.544 197.017 C 358.741 198.239,359.274 199.868,359.729 200.638 C 360.994 202.779,361.019 224.246,359.759 226.296 C 359.320 227.009,358.783 228.758,358.565 230.182 C 358.341 231.650,357.930 232.947,357.617 233.176 C 357.314 233.398,356.955 234.272,356.819 235.119 C 356.684 235.966,356.178 237.086,355.694 237.608 C 355.210 238.130,354.815 238.973,354.815 239.481 C 354.815 239.990,354.430 240.773,353.959 241.221 C 353.488 241.670,352.890 242.567,352.629 243.214 C 352.368 243.861,351.836 244.679,351.448 245.031 C 351.059 245.382,350.741 245.891,350.741 246.160 C 350.741 246.429,350.331 246.918,349.829 247.247 C 349.328 247.575,348.819 248.154,348.699 248.533 C 348.579 248.911,348.181 249.316,347.815 249.433 C 347.449 249.549,346.961 250.057,346.731 250.563 C 346.501 251.068,346.055 251.481,345.741 251.481 C 345.426 251.481,344.981 251.895,344.751 252.400 C 344.520 252.906,344.026 253.416,343.653 253.535 C 343.279 253.653,342.484 254.240,341.886 254.838 C 341.287 255.436,340.452 255.926,340.028 255.926 C 339.595 255.926,339.259 256.166,339.259 256.477 C 339.259 256.780,338.600 257.444,337.794 257.953 C 336.988 258.462,336.148 259.214,335.929 259.624 C 335.709 260.035,335.323 260.370,335.071 260.370 C 334.819 260.370,334.034 260.841,333.325 261.416 C 324.850 268.295,316.055 269.817,284.798 269.810 L 262.373 269.806 259.938 268.607 C 256.480 266.904,254.442 264.616,254.513 262.516 C 254.590 260.243,253.621 258.210,252.227 257.724 C 250.301 257.052,250.202 256.538,249.988 246.111 L 249.791 236.481 249.710 249.707 L 249.630 262.933 248.615 263.874 C 248.057 264.391,247.279 264.815,246.886 264.815 C 246.493 264.815,244.408 265.632,242.253 266.632 C 235.990 269.534,232.608 270.002,217.963 269.990 C 206.160 269.981,201.163 269.562,196.296 268.175 C 190.977 266.659,184.222 263.606,183.763 262.509 C 183.548 261.995,182.557 261.111,182.196 261.111 C 182.007 261.111,181.852 261.778,181.852 262.593 C 181.852 263.407,181.810 264.080,181.759 264.087 C 181.708 264.095,180.009 264.249,177.983 264.429 C 174.577 264.734,174.027 264.900,170.690 266.639 C 164.784 269.715,164.029 269.826,149.514 269.744 C 128.296 269.624,127.042 269.096,118.027 256.490 C 115.554 253.031,111.351 247.364,108.687 243.897 C 106.023 240.430,102.604 235.870,101.088 233.766 C 96.373 227.216,95.803 226.457,93.519 223.698 C 88.374 217.483,88.262 217.292,87.575 213.472 C 86.304 206.412,87.269 197.795,89.671 194.762 C 90.563 193.637,90.741 193.066,90.741 191.336 C 90.741 189.789,90.920 189.080,91.445 188.555 C 92.717 187.283,92.754 186.384,91.574 185.392 C 89.961 184.034,89.362 181.862,90.003 179.693 C 90.802 176.990,90.904 173.241,90.214 171.908 C 89.489 170.505,89.457 168.383,90.152 167.805 C 90.494 167.522,90.765 166.157,90.938 163.856 C 91.343 158.451,90.797 158.742,100.985 158.519 L 109.444 158.333 110.833 157.271 L 112.222 156.208 112.222 152.604 C 112.222 142.713,106.069 137.706,93.148 137.084 L 88.333 136.852 87.510 135.220 C 86.973 134.156,86.617 133.774,86.483 134.121 C 86.198 134.865,86.089 156.716,86.234 183.889 C 86.302 196.519,86.233 219.409,86.081 234.756 C 85.781 265.142,85.900 263.704,83.687 263.704 C 82.179 263.704,77.382 265.676,75.141 267.218 C 72.080 269.324,70.255 269.726,62.963 269.904 C 45.259 270.334,41.038 268.610,39.622 260.370 C 39.060 257.097,38.743 117.116,39.288 112.593 C 39.825 108.139,42.237 103.333,43.936 103.333 C 44.664 103.333,44.755 102.985,45.203 98.488 C 45.435 96.162,45.798 94.048,46.011 93.789 C 46.737 92.908,118.341 93.321,119.983 94.215 M236.667 137.450 C 235.954 137.636,231.037 137.884,225.741 138.001 C 218.795 138.155,214.886 138.416,211.714 138.938 C 207.573 139.620,207.277 139.626,206.621 139.033 C 205.961 138.436,205.926 138.445,205.926 139.210 C 205.926 139.709,205.576 140.175,205.007 140.435 C 204.012 140.888,203.882 141.179,203.540 143.709 C 203.416 144.629,202.986 145.879,202.585 146.487 C 202.049 147.301,201.856 148.231,201.854 150.010 C 201.851 152.888,201.209 154.074,199.655 154.074 C 197.149 154.074,196.259 154.507,195.171 156.255 C 194.461 157.395,194.232 158.084,194.480 158.332 C 195.036 158.888,247.235 158.839,247.791 158.283 C 249.129 156.946,248.180 141.947,246.593 139.343 C 245.261 137.156,240.951 136.335,236.667 137.450 M293.470 138.967 C 292.676 140.252,292.288 157.696,293.037 158.444 C 293.539 158.947,299.960 159.043,306.454 158.646 L 310.431 158.402 311.359 156.331 C 313.937 150.578,310.506 143.167,303.856 140.123 C 301.757 139.161,293.891 138.286,293.470 138.967 M97.517 142.806 C 102.939 144.211,106.077 147.645,106.332 152.453 C 106.529 156.167,105.082 156.921,97.593 157.009 C 94.040 157.051,90.741 158.305,90.741 159.613 C 90.741 160.222,90.503 160.370,89.527 160.370 C 88.859 160.370,87.965 160.614,87.540 160.912 C 86.535 161.616,86.303 159.950,86.303 152.037 C 86.303 143.754,86.487 142.667,87.920 142.486 C 90.869 142.114,95.433 142.266,97.517 142.806 M239.137 144.649 C 240.954 145.966,241.934 148.495,242.138 152.388 C 242.448 158.307,242.754 158.219,221.667 158.284 C 202.916 158.342,200.707 158.018,202.385 155.456 C 202.706 154.966,203.136 153.164,203.342 151.450 C 203.981 146.115,206.653 144.594,216.026 144.230 C 219.128 144.110,221.694 143.984,221.728 143.950 C 222.316 143.366,238.250 144.006,239.137 144.649 M300.370 144.844 C 305.584 147.201,307.689 152.917,304.578 156.271 C 304.097 156.790,303.704 157.334,303.704 157.479 C 303.704 158.048,300.748 158.514,297.130 158.516 L 293.333 158.519 293.333 151.543 C 293.333 147.707,293.444 144.457,293.580 144.321 C 294.150 143.751,298.734 144.104,300.370 144.844 M249.779 165.185 C 249.779 168.343,249.836 169.634,249.905 168.056 C 249.974 166.477,249.974 163.894,249.905 162.315 C 249.836 160.736,249.779 162.028,249.779 165.185 M235.556 202.591 C 234.028 202.737,226.737 202.978,219.354 203.126 C 204.704 203.421,204.035 203.494,203.659 204.838 C 203.150 206.662,203.314 214.207,203.884 215.185 C 204.181 215.694,204.651 216.580,204.929 217.153 C 206.679 220.762,211.650 224.218,215.892 224.776 C 221.925 225.569,245.245 225.175,248.241 224.229 C 249.070 223.967,249.118 218.896,248.362 211.441 C 247.437 202.325,246.333 201.561,235.556 202.591 M138.148 203.532 C 138.148 204.182,138.351 204.444,138.853 204.444 C 139.302 204.444,139.697 204.846,139.945 205.556 C 140.158 206.167,140.499 206.667,140.704 206.667 C 140.909 206.667,141.390 207.375,141.774 208.241 C 142.158 209.106,142.749 210.044,143.088 210.323 C 143.427 210.603,143.704 211.036,143.704 211.287 C 143.704 211.537,144.162 212.249,144.722 212.868 C 147.121 215.520,147.778 216.327,147.778 216.622 C 147.778 216.959,149.433 219.172,150.931 220.840 C 151.437 221.403,151.852 222.017,151.852 222.204 C 151.852 222.390,152.199 222.653,152.624 222.788 C 153.049 222.923,153.565 223.517,153.771 224.109 C 153.978 224.701,154.374 225.185,154.653 225.185 C 155.263 225.185,155.926 226.329,155.926 227.383 C 155.926 227.986,156.161 228.148,157.037 228.148 C 158.331 228.148,158.265 228.769,157.765 221.296 C 156.857 207.722,154.150 203.784,145.278 203.133 C 137.478 202.561,138.148 202.523,138.148 203.532 M293.203 205.278 C 293.075 206.347,292.953 208.472,292.934 210.000 C 292.860 215.747,292.360 216.889,288.056 221.143 C 287.495 221.696,287.037 222.336,287.037 222.564 C 287.037 222.792,286.620 223.169,286.111 223.401 C 285.602 223.633,285.185 224.133,285.185 224.512 C 285.185 224.891,284.769 225.391,284.259 225.623 C 283.656 225.898,283.333 226.346,283.333 226.911 C 283.333 227.589,283.131 227.778,282.407 227.778 C 281.898 227.778,281.481 227.963,281.481 228.190 C 281.481 228.438,281.926 228.537,282.592 228.440 C 283.452 228.313,283.830 228.471,284.267 229.138 C 284.973 230.215,285.282 230.222,285.746 229.169 C 285.947 228.712,286.443 228.275,286.848 228.199 C 287.253 228.122,287.804 227.746,288.073 227.363 C 288.341 226.980,288.735 226.667,288.949 226.667 C 289.163 226.667,289.833 226.250,290.438 225.741 L 291.538 224.815 300.013 224.815 C 304.675 224.815,309.744 224.628,311.279 224.400 L 314.070 223.985 314.499 222.455 C 317.427 212.021,309.486 203.333,297.021 203.333 L 293.437 203.333 293.203 205.278 M238.467 209.606 C 241.851 211.339,243.795 218.290,242.160 222.810 L 241.727 224.007 237.211 224.267 C 229.093 224.735,213.712 224.352,213.209 223.669 C 212.643 222.902,211.342 222.222,210.438 222.222 C 210.019 222.222,209.632 221.900,209.515 221.454 C 209.405 221.031,208.969 220.595,208.546 220.485 C 208.123 220.374,207.778 220.142,207.778 219.970 C 207.778 219.797,207.278 219.144,206.667 218.519 C 206.056 217.893,205.556 217.067,205.556 216.682 C 205.556 216.298,205.139 215.488,204.630 214.882 C 203.724 213.807,203.493 212.490,203.925 210.878 C 204.340 209.334,205.503 209.176,217.355 209.051 C 223.540 208.985,228.703 208.828,228.829 208.702 C 229.346 208.185,237.116 208.914,238.467 209.606 M299.733 209.064 C 304.618 210.099,308.798 213.782,308.936 217.172 C 308.962 217.811,309.025 218.746,309.075 219.251 C 309.177 220.273,308.717 221.525,307.678 223.056 L 306.987 224.074 298.348 224.074 L 289.710 224.074 289.466 223.101 C 289.112 221.691,289.569 220.069,290.395 219.807 C 290.788 219.682,291.211 219.175,291.336 218.679 C 291.460 218.183,291.784 217.778,292.055 217.778 C 292.921 217.778,293.142 216.942,293.333 212.963 L 293.519 209.074 295.185 208.852 C 296.102 208.730,296.935 208.608,297.037 208.581 C 297.139 208.554,298.352 208.771,299.733 209.064 M147.762 210.501 C 149.899 211.499,152.524 217.500,151.276 218.536 C 150.631 219.071,150.000 218.681,150.000 217.747 C 150.000 217.321,149.635 216.880,149.121 216.685 C 148.638 216.501,148.139 215.941,148.014 215.442 C 147.889 214.942,147.452 214.446,147.043 214.339 C 146.634 214.232,146.198 213.837,146.073 213.461 C 145.523 211.802,144.750 210.370,144.405 210.370 C 144.199 210.370,144.139 210.194,144.273 209.978 C 144.538 209.549,146.283 209.810,147.762 210.501 M158.159 229.426 C 158.151 230.223,158.259 230.408,158.557 230.110 C 158.850 229.817,158.853 229.507,158.568 229.017 C 158.220 228.418,158.169 228.468,158.159 229.426 " stroke="none" fill="#c9c9ca" fill-rule="evenodd"></path></g></svg>