<?xml version="1.0" encoding="UTF-8"?>
<svg version="1.1" xmlns="http://www.w3.org/2000/svg" width="1500" height="900">
<path d="M0 0 C495 0 990 0 1500 0 C1500 297 1500 594 1500 900 C1005 900 510 900 0 900 C0 603 0 306 0 0 Z " fill="#FDFDFD" transform="translate(0,0)"/>
<path d="M0 0 C8.87937831 7.11368931 14.68547013 17.4026987 16.91796875 28.51171875 C17.58264775 36.64772625 17.45243276 44.70556961 14.91796875 52.51171875 C14.66144531 53.31996094 14.40492188 54.12820313 14.140625 54.9609375 C11.18221647 63.2520996 6.15663719 69.40986322 -0.08203125 75.51171875 C1.19230555 78.25905321 2.55909306 80.45172766 4.5625 82.71875 C5.07490234 83.30591797 5.58730469 83.89308594 6.11523438 84.49804688 C6.64826172 85.10068359 7.18128906 85.70332031 7.73046875 86.32421875 C11.75559346 90.88669015 15.45140045 95.5073013 18.91796875 100.51171875 C-5.60676378 102.94844699 -5.60676378 102.94844699 -11.18164062 99.03955078 C-13.28632917 96.48871628 -14.73690609 93.79412342 -16.25952148 90.87158203 C-18.3751887 86.93995574 -18.3751887 86.93995574 -22.13525391 84.86572266 C-27.05165449 84.42586117 -31.92457642 85.00939894 -36.82714844 85.42871094 C-47.33088609 85.8153795 -57.90230877 79.27529259 -65.3671875 72.41015625 C-70.16001471 67.33961382 -73.35108354 61.90510021 -76.08203125 55.51171875 C-76.44296875 54.67125 -76.80390625 53.83078125 -77.17578125 52.96484375 C-78.57518871 49.17679251 -78.82727912 45.52258371 -79.08203125 41.51171875 C-79.14777344 40.50496094 -79.21351563 39.49820313 -79.28125 38.4609375 C-79.7007424 26.38244951 -76.30253807 17.09277587 -69.08203125 7.51171875 C-68.21578125 6.21234375 -68.21578125 6.21234375 -67.33203125 4.88671875 C-49.04789887 -14.41319876 -20.96979944 -14.98966901 0 0 Z " fill="#050505" transform="translate(330.08203125,294.48828125)"/>
<path d="M0 0 C31 0 31 0 40 7 C40.66 8.65 41.32 10.3 42 12 C42.99 12 43.98 12 45 12 C46.80182723 10.16249303 48.31143831 8.17100789 49.890625 6.140625 C54.96219872 0.99391685 59.51542267 -0.45608964 66.55000305 -0.60708618 C67.95804451 -0.60435196 67.95804451 -0.60435196 69.39453125 -0.6015625 C70.38192795 -0.61013275 71.36932465 -0.618703 72.38664246 -0.62753296 C74.46842392 -0.63897804 76.55028534 -0.64005068 78.63208008 -0.63134766 C81.7932405 -0.62503844 84.95063144 -0.6719433 88.11132812 -0.72265625 C106.35948462 -0.83700326 106.35948462 -0.83700326 113.37133789 4.38598633 C117.22370587 8.20370551 119.16945351 11.79042928 119.5 17.3125 C119.37837305 21.07653419 118.31628191 23.69117997 116.6875 27.0625 C115.49612519 29.52267256 115.49612519 29.52267256 115 32 C115.94818391 34.30273235 117.22201201 35.96337192 118.73046875 37.9375 C121.08410325 41.76125082 120.73269621 45.69284188 120 50 C118.11930763 56.02031692 114.95492813 59.2838039 110 63 C109.2575 63.7425 108.515 64.485 107.75 65.25 C105.04417325 67.95582675 103.33963185 68.1275347 99.62963867 68.14526367 C98.7249736 68.15164352 97.82030853 68.15802338 96.88822937 68.16459656 C95.90804337 68.16570938 94.92785736 68.1668222 93.91796875 68.16796875 C92.91163895 68.17129715 91.90530914 68.17462555 90.8684845 68.17805481 C88.73581398 68.18312451 86.60313552 68.18546312 84.47045898 68.18530273 C81.21129199 68.18748408 77.9524662 68.20562524 74.69335938 68.22460938 C72.62239699 68.22754432 70.551433 68.22952844 68.48046875 68.23046875 C67.50635544 68.23765427 66.53224213 68.24483978 65.52861023 68.25224304 C60.85287343 68.23650606 57.27761712 68.08695401 53 66 C48.84594326 65.71161543 48.84594326 65.71161543 45 67 C42.52443304 67.17682621 40.10250105 67.27730822 37.625 67.3125 C36.61566406 67.35600586 36.61566406 67.35600586 35.5859375 67.40039062 C32.18357381 67.44392481 30.36715194 67.28603698 27.6484375 65.16796875 C25.63911645 62.52537827 23.84121599 59.76182398 22 57 C21.2575 56.278125 20.515 55.55625 19.75 54.8125 C18 53 18 53 18 50 C17.34 50 16.68 50 16 50 C15.97113249 45.85418113 15.95324673 41.70838784 15.9375 37.5625 C15.92912109 36.37849609 15.92074219 35.19449219 15.91210938 33.97460938 C15.90888672 32.84990234 15.90566406 31.72519531 15.90234375 30.56640625 C15.89448853 29.00321655 15.89448853 29.00321655 15.88647461 27.40844727 C16 25 16 25 17 24 C19.33297433 23.95907063 21.66705225 23.95758277 24 24 C24 22.68 24 21.36 24 20 C21.36 19.34 18.72 18.68 16 18 C15.67 33.18 15.34 48.36 15 64 C10.05 64 5.1 64 0 64 C0 42.88 0 21.76 0 0 Z " fill="#C0C1C2" transform="translate(661,96)"/>
<path d="M0 0 C8.87937831 7.11368931 14.68547013 17.4026987 16.91796875 28.51171875 C17.58264775 36.64772625 17.45243276 44.70556961 14.91796875 52.51171875 C14.66144531 53.31996094 14.40492188 54.12820313 14.140625 54.9609375 C9.60813491 67.66358141 0.49121096 76.15608303 -11.2734375 82.25390625 C-22.92179203 87.47055459 -37.14262442 86.99850753 -49.015625 82.83203125 C-62.07088875 77.21078393 -70.52907015 68.5116742 -76.08203125 55.51171875 C-76.44296875 54.67125 -76.80390625 53.83078125 -77.17578125 52.96484375 C-78.57518871 49.17679251 -78.82727912 45.52258371 -79.08203125 41.51171875 C-79.14777344 40.50496094 -79.21351563 39.49820313 -79.28125 38.4609375 C-79.7007424 26.38244951 -76.30253807 17.09277587 -69.08203125 7.51171875 C-68.21578125 6.21234375 -68.21578125 6.21234375 -67.33203125 4.88671875 C-49.04789887 -14.41319876 -20.96979944 -14.98966901 0 0 Z " fill="#050505" transform="translate(628.08203125,532.48828125)"/>
<path d="M0 0 C5.8739962 4.97840934 10.00375402 10.10881737 13.36328125 17.02734375 C13.77578125 17.84589844 14.18828125 18.66445313 14.61328125 19.5078125 C19.00544387 29.58843574 19.28296192 43.72068343 15.36328125 54.02734375 C8.67919361 70.22486293 -0.76093888 78.22591675 -16.63671875 85.02734375 C-27.68967222 88.26723733 -41.29620616 86.65636109 -51.63671875 82.02734375 C-54.84818167 80.25667311 -57.73969419 78.26944015 -60.63671875 76.02734375 C-61.66796875 75.30546875 -62.69921875 74.58359375 -63.76171875 73.83984375 C-68.10736727 70.06154379 -70.87835172 65.00976942 -73.63671875 60.02734375 C-74.07628906 59.25132812 -74.51585937 58.4753125 -74.96875 57.67578125 C-79.71813495 47.37146195 -79.29451379 33.02535515 -76.71875 22.15234375 C-74.34028588 16.11766455 -70.89304288 10.89776439 -66.63671875 6.02734375 C-66.15976562 5.434375 -65.6828125 4.84140625 -65.19140625 4.23046875 C-48.79398664 -14.39172639 -18.96463737 -14.18835833 0 0 Z " fill="#050505" transform="translate(1069.63671875,531.97265625)"/>
<path d="M0 0 C7.95144913 4.70617265 13.44218846 9.96167783 18 18 C18.50660156 18.82371094 19.01320313 19.64742188 19.53515625 20.49609375 C24.97704125 30.94026859 25.05501633 45.71088757 22.11328125 57.0234375 C17.62326729 69.583543 9.78555619 79.01747923 -2 85.25 C-9.46153793 88.61937976 -16.14696044 90.54355964 -24.375 90.4375 C-25.20572021 90.42992676 -26.03644043 90.42235352 -26.89233398 90.41455078 C-33.54880494 90.23659459 -39.05065034 89.09982296 -45 86 C-45.85851562 85.56429687 -46.71703125 85.12859375 -47.6015625 84.6796875 C-59.7938669 77.93892706 -67.59241643 67.40855554 -71.58300781 54.0480957 C-73.74572065 43.42573153 -73.16310556 30.56243812 -68 21 C-67.25363281 19.60394531 -67.25363281 19.60394531 -66.4921875 18.1796875 C-60.5594933 8.05271646 -52.8379132 1.44543975 -42 -3 C-41.13890625 -3.36480469 -40.2778125 -3.72960937 -39.390625 -4.10546875 C-26.83050739 -7.41914033 -11.30713162 -6.50872703 0 0 Z " fill="#050505" transform="translate(439,409)"/>
<path d="M0 0 C8.91 0 17.82 0 27 0 C28.78602388 4.33078198 30.57174542 8.66168591 32.3565979 12.99295044 C32.99237504 14.53569899 33.62825914 16.07840347 34.26425171 17.62106323 C37.64308006 25.81783258 41.01498227 34.01712769 44.34375 42.234375 C44.59916061 42.86429855 44.85457123 43.49422211 45.11772156 44.14323425 C46.3185418 47.10563754 47.51646727 50.06915827 48.71020508 53.03442383 C49.13197021 54.07622803 49.55373535 55.11803223 49.98828125 56.19140625 C50.35477783 57.10092041 50.72127441 58.01043457 51.09887695 58.94750977 C51.83057833 60.95164395 51.83057833 60.95164395 53 62 C53.25990723 61.32984863 53.51981445 60.65969727 53.78759766 59.96923828 C61.59797276 39.86945633 69.7406928 19.91879633 78 0 C86.91 0 95.82 0 105 0 C105 30.69 105 61.38 105 93 C97.41 93 89.82 93 82 93 C81.67 76.17 81.34 59.34 81 42 C74.73 58.83 68.46 75.66 62 93 C55.73 93 49.46 93 43 93 C36.4 75.51 29.8 58.02 23 40 C22.67 57.49 22.34 74.98 22 93 C14.74 93 7.48 93 0 93 C0 62.31 0 31.62 0 0 Z " fill="#040404" transform="translate(658,524)"/>
<path d="M0 0 C8.91 0 17.82 0 27 0 C28.78602388 4.33078198 30.57174542 8.66168591 32.3565979 12.99295044 C32.99237504 14.53569899 33.62825914 16.07840347 34.26425171 17.62106323 C37.64308006 25.81783258 41.01498227 34.01712769 44.34375 42.234375 C44.59916061 42.86429855 44.85457123 43.49422211 45.11772156 44.14323425 C46.3185418 47.10563754 47.51646727 50.06915827 48.71020508 53.03442383 C49.13197021 54.07622803 49.55373535 55.11803223 49.98828125 56.19140625 C50.35477783 57.10092041 50.72127441 58.01043457 51.09887695 58.94750977 C51.83057833 60.95164395 51.83057833 60.95164395 53 62 C53.25990723 61.32984863 53.51981445 60.65969727 53.78759766 59.96923828 C61.59797276 39.86945633 69.7406928 19.91879633 78 0 C86.91 0 95.82 0 105 0 C105 30.69 105 61.38 105 93 C97.41 93 89.82 93 82 93 C81.67 76.17 81.34 59.34 81 42 C74.73 58.83 68.46 75.66 62 93 C55.73 93 49.46 93 43 93 C36.4 75.51 29.8 58.02 23 40 C22.67 57.49 22.34 74.98 22 93 C14.74 93 7.48 93 0 93 C0 62.31 0 31.62 0 0 Z " fill="#040404" transform="translate(1062,286)"/>
<path d="M0 0 C57.61103996 0 57.61103996 0 71.3125 12.6875 C82.16855911 24.30147699 83.65206299 36.85578061 83.375 52.0390625 C82.84269842 64.20975802 77.69725395 73.51285598 69.0078125 81.9296875 C49.89374505 98.24315899 23.20106801 93 0 93 C0 62.31 0 31.62 0 0 Z " fill="#040404" transform="translate(960,405)"/>
<path d="M0 0 C8.188125 -0.0825 16.37625 -0.165 24.8125 -0.25 C28.65612183 -0.30462402 28.65612183 -0.30462402 32.57739258 -0.36035156 C34.64143032 -0.37204986 36.70547739 -0.38223897 38.76953125 -0.390625 C39.81443726 -0.41108887 40.85934326 -0.43155273 41.93591309 -0.45263672 C51.64730139 -0.45717634 60.14843942 1.75488449 67.5625 8.2421875 C71.57335454 13.14676506 72.50153179 17.80637968 72.4375 24 C72.45748047 24.68578125 72.47746094 25.3715625 72.49804688 26.078125 C72.49222151 32.18310571 70.30209459 35.59393985 66.18359375 39.8984375 C65.60738281 40.38570313 65.03117187 40.87296875 64.4375 41.375 C63.85871094 41.87773437 63.27992188 42.38046875 62.68359375 42.8984375 C61 44 61 44 58 44 C58 44.66 58 45.32 58 46 C58.74121094 46.10183594 59.48242188 46.20367187 60.24609375 46.30859375 C65.48913584 47.62493198 69.20364672 51.62320945 72.40234375 55.85546875 C75.55476492 61.29648038 75.97500105 66.8506513 75 73 C72.45646011 80.82194788 68.1441219 86.28543593 60.8821106 90.11761475 C53.95975318 93.14787094 47.92276367 93.53088894 40.4296875 93.390625 C38.88196655 93.38458252 38.88196655 93.38458252 37.30297852 93.37841797 C33.49346828 93.35768213 29.68421396 93.30183852 25.875 93.25 C17.33625 93.1675 8.7975 93.085 0 93 C0 62.31 0 31.62 0 0 Z " fill="#040404" transform="translate(283,405)"/>
<path d="M0 0 C8.229375 -0.061875 16.45875 -0.12375 24.9375 -0.1875 C27.51812256 -0.21481201 30.09874512 -0.24212402 32.75756836 -0.27026367 C34.82665541 -0.279034 36.89574768 -0.28667664 38.96484375 -0.29296875 C40.01998169 -0.30831665 41.07511963 -0.32366455 42.16223145 -0.33947754 C50.97195975 -0.34256542 59.15717407 1.06955086 66 7 C70.94671772 12.99292008 72.89280946 18.32714189 72.453125 26.1015625 C71.50977296 32.13576262 69.56092617 36.96872528 64.875 41 C62 43 62 43 60 44 C60 44.66 60 45.32 60 46 C61.03125 46.495 62.0625 46.99 63.125 47.5 C68.39751589 50.4899023 72.09182922 55.27548765 74 61 C74.85311828 69.68961907 74.31980592 76.85515117 69 84 C62.6383463 90.65787261 54.20829609 93.0892613 45.18310547 93.34057617 C43.0777398 93.33983814 40.97232843 93.32373905 38.8671875 93.29296875 C37.37844116 93.28843689 37.37844116 93.28843689 35.85961914 93.28381348 C32.19797167 93.26827073 28.53647395 93.22638839 24.875 93.1875 C16.66625 93.125625 8.4575 93.06375 0 93 C0 62.31 0 31.62 0 0 Z " fill="#040404" transform="translate(676,405)"/>
<path d="M0 0 C23 0 23 0 28.55078125 4.95703125 C29.91460166 7.23725877 31.12567905 9.45027673 32.3125 11.8125 C33.0058359 13.02835557 33.70836467 14.2390095 34.41943359 15.44458008 C35.89917592 17.96847738 37.33660916 20.51051173 38.75146484 23.07128906 C41.69749655 28.31858651 45.06670907 33.27152467 48.4465332 38.24560547 C51.99896857 43.47371789 55.49383152 48.74074729 59 54 C59.33 36.18 59.66 18.36 60 0 C67.59 0 75.18 0 83 0 C83 30.69 83 61.38 83 93 C60 93 60 93 53.328125 86.37890625 C51.75717163 84.123703 51.75717163 84.123703 50.71240234 82.12573242 C50.30866394 81.37939545 49.90492554 80.63305847 49.48895264 79.86410522 C49.08009827 79.1045755 48.6712439 78.34504578 48.25 77.5625 C47.34487477 76.03332976 46.43156419 74.50897577 45.51025391 72.98950195 C43.72717791 70.02469476 41.98911176 67.04118408 40.29199219 64.02636719 C37.51957742 59.11352096 34.47973607 54.39533153 31.375 49.6875 C30.96797852 49.03918213 30.56095703 48.39086426 30.14160156 47.72290039 C27.98021592 44.29441421 25.93183331 41.93183331 23 39 C23 56.82 23 74.64 23 93 C15.41 93 7.82 93 0 93 C0 62.31 0 31.62 0 0 Z " fill="#050505" transform="translate(1100,524)"/>
<path d="M0 0 C23 0 23 0 28.55078125 4.95703125 C29.91460166 7.23725877 31.12567905 9.45027673 32.3125 11.8125 C33.0058359 13.02835557 33.70836467 14.2390095 34.41943359 15.44458008 C35.89917592 17.96847738 37.33660916 20.51051173 38.75146484 23.07128906 C41.69749655 28.31858651 45.06670907 33.27152467 48.4465332 38.24560547 C51.99896857 43.47371789 55.49383152 48.74074729 59 54 C59.33 36.18 59.66 18.36 60 0 C67.59 0 75.18 0 83 0 C83 30.69 83 61.38 83 93 C60 93 60 93 53.328125 86.37890625 C51.75717163 84.123703 51.75717163 84.123703 50.71240234 82.12573242 C50.30866394 81.37939545 49.90492554 80.63305847 49.48895264 79.86410522 C49.08009827 79.1045755 48.6712439 78.34504578 48.25 77.5625 C47.34487477 76.03332976 46.43156419 74.50897577 45.51025391 72.98950195 C43.72717791 70.02469476 41.98911176 67.04118408 40.29199219 64.02636719 C37.51957742 59.11352096 34.47973607 54.39533153 31.375 49.6875 C30.96797852 49.03918213 30.56095703 48.39086426 30.14160156 47.72290039 C27.98021592 44.29441421 25.93183331 41.93183331 23 39 C23 56.82 23 74.64 23 93 C15.41 93 7.82 93 0 93 C0 62.31 0 31.62 0 0 Z " fill="#050505" transform="translate(1096,405)"/>
<path d="M0 0 C1.29067383 -0.01836914 1.29067383 -0.01836914 2.60742188 -0.03710938 C14.96994912 -0.06505782 26.51932312 3.33381249 35.75 11.9375 C40.51903062 17.11473574 44.3125 23.04575184 44.3125 30.1875 C40.2295404 30.33268182 36.14724359 30.42153347 32.0625 30.5 C30.90363281 30.54189453 29.74476562 30.58378906 28.55078125 30.62695312 C19.92513586 30.75160118 19.92513586 30.75160118 16.69921875 27.78125 C16.01279297 26.49734375 16.01279297 26.49734375 15.3125 25.1875 C9.06173317 21.33064387 2.49655621 21.51626242 -4.6875 22.1875 C-10.32968238 23.55831192 -14.96589104 26.82825809 -18.375 31.5 C-22.40363556 39.7491109 -23.12340743 48.55072849 -20.84765625 57.484375 C-18.31250595 64.34720613 -15.21232318 68.7339848 -8.6875 72.1875 C-5.06512495 73.39495835 -1.7104405 73.40996029 2.0625 73.4375 C2.7534375 73.458125 3.444375 73.47875 4.15625 73.5 C10.00161796 73.54395014 14.70233771 72.46940659 19.23828125 68.50390625 C19.69589844 67.92511719 20.15351562 67.34632813 20.625 66.75 C21.09550781 66.17378906 21.56601563 65.59757812 22.05078125 65.00390625 C23.57287747 62.90502732 23.57287747 62.90502732 25.3125 59.1875 C11.4525 58.6925 11.4525 58.6925 -2.6875 58.1875 C-2.6875 52.5775 -2.6875 46.9675 -2.6875 41.1875 C13.8125 41.1875 30.3125 41.1875 47.3125 41.1875 C47.3125 69.88470367 47.3125 69.88470367 34.72265625 83 C24.21131573 92.54027665 11.4367122 96.15214652 -2.50390625 95.56640625 C-14.7244207 94.67738821 -26.09938084 89.40796423 -34.5 80.4375 C-44.82511568 67.55592539 -47.2455461 53.30159181 -45.6875 37.1875 C-43.39489054 25.71142651 -36.95340378 15.37003233 -27.6875 8.1875 C-18.49963061 2.60298127 -10.66810947 0.00781546 0 0 Z " fill="#060606" transform="translate(1237.6875,403.8125)"/>
<path d="M0 0 C7.94996558 5.29997706 13.90053753 12.18648098 17.01953125 21.3046875 C17.01953125 22.2946875 17.01953125 23.2846875 17.01953125 24.3046875 C12.99925467 24.47997066 8.97996845 24.58587109 4.95703125 24.6796875 C3.82330078 24.72996094 2.68957031 24.78023438 1.52148438 24.83203125 C-7.94954775 24.99770528 -7.94954775 24.99770528 -11.9765625 21.40625 C-12.50290283 20.86258789 -13.02924316 20.31892578 -13.5715332 19.75878906 C-16.40959772 16.82974518 -19.34859947 16.36892007 -23.28515625 15.96875 C-32.88491407 15.80836073 -32.88491407 15.80836073 -40.98046875 20.3046875 C-46.61683898 25.84908899 -49.19995858 30.67650346 -49.41162109 38.63793945 C-49.43624636 47.77107089 -48.86017589 54.82319342 -42.5234375 61.94140625 C-36.19559071 67.76836807 -28.77446748 67.74105647 -20.625 67.62109375 C-14.52267585 67.09130998 -10.89327952 65.26919586 -6.66796875 60.9296875 C-4.89852337 58.17721692 -3.4438232 55.2313964 -1.98046875 52.3046875 C-11.55046875 52.3046875 -21.12046875 52.3046875 -30.98046875 52.3046875 C-30.98046875 46.6946875 -30.98046875 41.0846875 -30.98046875 35.3046875 C-14.48046875 35.3046875 2.01953125 35.3046875 19.01953125 35.3046875 C19.01953125 63.72567807 19.01953125 63.72567807 7.58203125 76.2421875 C-2.58151495 86.13977175 -14.72020416 89.72739064 -28.46899414 89.67041016 C-40.95267172 89.37508279 -52.06440113 84.0471962 -61.23046875 75.6796875 C-70.41066576 65.97915543 -73.33986769 53.87379572 -73.29296875 40.9296875 C-73.30908203 40.04796875 -73.32519531 39.16625 -73.34179688 38.2578125 C-73.35071763 26.08989844 -69.10774847 15.98899265 -60.875 7.0078125 C-55.81927463 2.24737728 -50.394873 -1.064285 -43.98046875 -3.6953125 C-43.1090625 -4.06140625 -42.23765625 -4.4275 -41.33984375 -4.8046875 C-28.13476841 -8.30556794 -11.80436373 -6.71440873 0 0 Z " fill="#060606" transform="translate(825.98046875,290.6953125)"/>
<path d="M0 0 C8.91 0 17.82 0 27 0 C32.62463272 13.49911854 32.62463272 13.49911854 34.27661133 18.15380859 C34.65082718 19.20305511 35.02504303 20.25230164 35.41059875 21.33334351 C35.79717148 22.42732452 36.1837442 23.52130554 36.58203125 24.6484375 C36.99990402 25.82225983 37.41777679 26.99608215 37.84831238 28.20547485 C39.17274257 31.92757961 40.49281945 35.65120892 41.8125 39.375 C43.11797897 43.05052619 44.42439379 46.72571768 45.73141479 50.4006958 C46.58547019 52.80266969 47.43860962 55.20496948 48.290802 57.60760498 C50.30504998 63.2782292 52.33755484 68.94073382 54.41943359 74.58691406 C54.7945256 75.60588776 55.16961761 76.62486145 55.55607605 77.67471313 C56.25771813 79.57506437 56.96346676 81.47390629 57.67402649 83.37094116 C57.98228867 84.20582062 58.29055084 85.04070007 58.6081543 85.90087891 C58.8784697 86.62465729 59.1487851 87.34843567 59.42729187 88.09414673 C60 90 60 90 60 93 C52.08 93 44.16 93 36 93 C34.35 88.05 32.7 83.1 31 78 C13.675 77.505 13.675 77.505 -4 77 C-4.99 80.63 -5.98 84.26 -7 88 C-7.66 89.65 -8.32 91.3 -9 93 C-16.92 93 -24.84 93 -33 93 C-30.7499512 82.87478039 -30.7499512 82.87478039 -29.09570312 78.35791016 C-28.54372253 76.8379393 -28.54372253 76.8379393 -27.98059082 75.28726196 C-27.58480835 74.21535614 -27.18902588 73.14345032 -26.78125 72.0390625 C-26.36387573 70.89504974 -25.94650146 69.75103699 -25.51647949 68.57235718 C-24.18293364 64.92128117 -22.84155518 61.27313959 -21.5 57.625 C-20.62970259 55.24497654 -19.75990692 52.86476955 -18.890625 50.484375 C-16.27123207 43.31892315 -13.63800262 36.15861896 -11 29 C-10.76728394 28.36819321 -10.53456787 27.73638641 -10.2947998 27.08543396 C-8.66765378 22.66805721 -7.0376895 18.25173045 -5.40625 13.8359375 C-4.97832153 12.67567047 -4.55039307 11.51540344 -4.10949707 10.31997681 C-3.71564819 9.25580536 -3.32179932 8.19163391 -2.91601562 7.09521484 C-2.39569763 5.68748306 -2.39569763 5.68748306 -1.86486816 4.25131226 C-1 2 -1 2 0 0 Z " fill="#050505" transform="translate(387,286)"/>
<path d="M0 0 C1.12591553 0.00523682 2.25183105 0.01047363 3.41186523 0.01586914 C4.62680664 0.0190918 5.84174805 0.02231445 7.09350586 0.02563477 C8.37290039 0.03401367 9.65229492 0.04239258 10.97045898 0.05102539 C12.2537207 0.05553711 13.53698242 0.06004883 14.85913086 0.06469727 C18.04211921 0.07652994 21.22501661 0.09301471 24.40795898 0.11352539 C30.62903586 16.55796246 36.66981782 33.06055373 42.59545898 49.61352539 C44.12920792 53.89528138 45.66448028 58.17648703 47.20092773 62.45727539 C47.56386932 63.47031738 47.92681091 64.48335937 48.30075073 65.52709961 C50.90765071 72.78289313 53.6141126 79.9950578 56.40527344 87.18188477 C57.40795898 90.11352539 57.40795898 90.11352539 57.40795898 93.11352539 C49.48795898 93.11352539 41.56795898 93.11352539 33.40795898 93.11352539 C30.40795898 85.11352539 30.40795898 85.11352539 28.40795898 77.11352539 C16.52795898 77.11352539 4.64795898 77.11352539 -7.59204102 77.11352539 C-8.25204102 80.08352539 -8.91204102 83.05352539 -9.59204102 86.11352539 C-10.25204102 88.42352539 -10.91204102 90.73352539 -11.59204102 93.11352539 C-19.51204102 93.11352539 -27.43204102 93.11352539 -35.59204102 93.11352539 C-34.46695551 86.36301236 -34.46695551 86.36301236 -33.24780273 82.95214844 C-32.97543289 82.18257309 -32.70306305 81.41299774 -32.42243958 80.62010193 C-32.12520493 79.79679886 -31.82797028 78.97349579 -31.52172852 78.12524414 C-31.2083403 77.2450209 -30.89495209 76.36479767 -30.57206726 75.457901 C-29.54225643 72.57038788 -28.50492143 69.68564687 -27.46704102 66.80102539 C-26.75057564 64.79948302 -26.0343513 62.79785436 -25.31835938 60.79614258 C-23.08633292 54.56495614 -20.8414636 48.33845064 -18.59204102 42.11352539 C-18.22528259 41.09848938 -17.85852417 40.08345337 -17.48065186 39.03765869 C-15.04791927 32.30954602 -12.60451324 25.58537746 -10.15454102 18.86352539 C-9.8283075 17.9663681 -9.50207397 17.06921082 -9.16595459 16.14486694 C-8.24985549 13.62807641 -7.32986751 11.11274689 -6.40844727 8.59790039 C-6.13626877 7.84904068 -5.86409027 7.10018097 -5.58366394 6.32862854 C-3.30832702 0.14489706 -3.30832702 0.14489706 0 0 Z " fill="#050505" transform="translate(809.592041015625,523.886474609375)"/>
<path d="M0 0 C1.12591553 0.00523682 2.25183105 0.01047363 3.41186523 0.01586914 C4.62680664 0.0190918 5.84174805 0.02231445 7.09350586 0.02563477 C8.37290039 0.03401367 9.65229492 0.04239258 10.97045898 0.05102539 C12.2537207 0.05553711 13.53698242 0.06004883 14.85913086 0.06469727 C18.04211921 0.07652994 21.22501661 0.09301471 24.40795898 0.11352539 C30.62903586 16.55796246 36.66981782 33.06055373 42.59545898 49.61352539 C44.12920792 53.89528138 45.66448028 58.17648703 47.20092773 62.45727539 C47.56386932 63.47031738 47.92681091 64.48335937 48.30075073 65.52709961 C50.90765071 72.78289313 53.6141126 79.9950578 56.40527344 87.18188477 C57.40795898 90.11352539 57.40795898 90.11352539 57.40795898 93.11352539 C49.48795898 93.11352539 41.56795898 93.11352539 33.40795898 93.11352539 C30.40795898 85.11352539 30.40795898 85.11352539 28.40795898 77.11352539 C16.52795898 77.11352539 4.64795898 77.11352539 -7.59204102 77.11352539 C-8.25204102 80.08352539 -8.91204102 83.05352539 -9.59204102 86.11352539 C-10.25204102 88.42352539 -10.91204102 90.73352539 -11.59204102 93.11352539 C-19.51204102 93.11352539 -27.43204102 93.11352539 -35.59204102 93.11352539 C-34.46695551 86.36301236 -34.46695551 86.36301236 -33.24780273 82.95214844 C-32.97543289 82.18257309 -32.70306305 81.41299774 -32.42243958 80.62010193 C-32.12520493 79.79679886 -31.82797028 78.97349579 -31.52172852 78.12524414 C-31.2083403 77.2450209 -30.89495209 76.36479767 -30.57206726 75.457901 C-29.54225643 72.57038788 -28.50492143 69.68564687 -27.46704102 66.80102539 C-26.75057564 64.79948302 -26.0343513 62.79785436 -25.31835938 60.79614258 C-23.08633292 54.56495614 -20.8414636 48.33845064 -18.59204102 42.11352539 C-18.22528259 41.09848938 -17.85852417 40.08345337 -17.48065186 39.03765869 C-15.04791927 32.30954602 -12.60451324 25.58537746 -10.15454102 18.86352539 C-9.8283075 17.9663681 -9.50207397 17.06921082 -9.16595459 16.14486694 C-8.24985549 13.62807641 -7.32986751 11.11274689 -6.40844727 8.59790039 C-6.13626877 7.84904068 -5.86409027 7.10018097 -5.58366394 6.32862854 C-3.30832702 0.14489706 -3.30832702 0.14489706 0 0 Z " fill="#050505" transform="translate(312.592041015625,523.886474609375)"/>
<path d="M0 0 C1.12591553 0.00523682 2.25183105 0.01047363 3.41186523 0.01586914 C4.62680664 0.0190918 5.84174805 0.02231445 7.09350586 0.02563477 C8.37290039 0.03401367 9.65229492 0.04239258 10.97045898 0.05102539 C12.2537207 0.05553711 13.53698242 0.06004883 14.85913086 0.06469727 C18.04211921 0.07652994 21.22501661 0.09301471 24.40795898 0.11352539 C28.50952148 11.05102539 28.50952148 11.05102539 29.390625 13.40527344 C30.12150281 15.35094839 30.85690426 17.29492631 31.59521484 19.23779297 C36.33305522 31.7604863 40.84410068 44.36420881 45.35058594 56.97167969 C46.50167947 60.19142596 47.65720079 63.40956533 48.81367207 66.62738323 C49.92758653 69.72974281 51.03658504 72.83385906 52.14624023 75.93774414 C52.55973221 77.08667648 52.97322418 78.23560883 53.39924622 79.4193573 C53.78021957 80.48849869 54.16119293 81.55764008 54.55371094 82.65917969 C54.88869095 83.59465134 55.22367096 84.53012299 55.56880188 85.49394226 C56.40795898 88.11352539 56.40795898 88.11352539 57.40795898 93.11352539 C49.48795898 93.11352539 41.56795898 93.11352539 33.40795898 93.11352539 C30.40795898 85.11352539 30.40795898 85.11352539 28.40795898 77.11352539 C16.52795898 77.11352539 4.64795898 77.11352539 -7.59204102 77.11352539 C-8.25204102 80.08352539 -8.91204102 83.05352539 -9.59204102 86.11352539 C-10.25204102 88.42352539 -10.91204102 90.73352539 -11.59204102 93.11352539 C-19.51204102 93.11352539 -27.43204102 93.11352539 -35.59204102 93.11352539 C-34.46695551 86.36301236 -34.46695551 86.36301236 -33.24780273 82.95214844 C-32.97543289 82.18257309 -32.70306305 81.41299774 -32.42243958 80.62010193 C-32.12520493 79.79679886 -31.82797028 78.97349579 -31.52172852 78.12524414 C-31.2083403 77.2450209 -30.89495209 76.36479767 -30.57206726 75.457901 C-29.54225643 72.57038788 -28.50492143 69.68564687 -27.46704102 66.80102539 C-26.75057564 64.79948302 -26.0343513 62.79785436 -25.31835938 60.79614258 C-23.08633292 54.56495614 -20.8414636 48.33845064 -18.59204102 42.11352539 C-18.22528259 41.09848938 -17.85852417 40.08345337 -17.48065186 39.03765869 C-15.04791927 32.30954602 -12.60451324 25.58537746 -10.15454102 18.86352539 C-9.8283075 17.9663681 -9.50207397 17.06921082 -9.16595459 16.14486694 C-8.24985549 13.62807641 -7.32986751 11.11274689 -6.40844727 8.59790039 C-6.13626877 7.84904068 -5.86409027 7.10018097 -5.58366394 6.32862854 C-3.30832702 0.14489706 -3.30832702 0.14489706 0 0 Z " fill="#050505" transform="translate(594.592041015625,285.886474609375)"/>
<path d="M0 0 C9.24 0 18.48 0 28 0 C29.46050781 4.05539062 30.92101562 8.11078125 32.42578125 12.2890625 C33.62643339 15.62138216 34.82725648 18.95364012 36.02819061 22.28585815 C37.2761452 25.74868416 38.52383229 29.21160587 39.77075195 32.67480469 C40.97562128 36.02111512 42.18118219 39.36717554 43.38738632 42.71300507 C43.87155633 44.05604257 44.35559805 45.39912633 44.83951187 46.74225616 C47.59475392 54.38724361 50.37036848 62.02414283 53.18505859 69.64746094 C53.57138411 70.69505994 53.57138411 70.69505994 53.96551418 71.76382256 C55.20051417 75.11209055 56.43883653 78.45905721 57.68318176 81.80386353 C58.11926254 82.98411102 58.55534332 84.16435852 59.00463867 85.38037109 C59.58431648 86.94082657 59.58431648 86.94082657 60.17570496 88.5328064 C61 91 61 91 61 93 C53.08 93 45.16 93 37 93 C32 81.5 32 81.5 32 77 C20.12 77 8.24 77 -4 77 C-4.99 80.63 -5.98 84.26 -7 88 C-7.66 89.65 -8.32 91.3 -9 93 C-16.92 93 -24.84 93 -33 93 C-29.62494474 81.7498158 -29.62494474 81.7498158 -27.7668457 76.61425781 C-27.14523308 74.8900058 -27.14523308 74.8900058 -26.51106262 73.13092041 C-26.07041977 71.91724792 -25.62977692 70.70357544 -25.17578125 69.453125 C-24.70575876 68.1525692 -24.2359713 66.85192843 -23.7664032 65.5512085 C-22.53398734 62.13940658 -21.29831716 58.72879234 -20.06195068 55.31842041 C-18.83156425 51.92265807 -17.60443233 48.5257203 -16.37695312 45.12890625 C-10.93683613 30.07908119 -5.47356396 15.03769173 0 0 Z " fill="#060606" transform="translate(212,405)"/>
<path d="M0 0 C7.26 0 14.52 0 22 0 C22 11.88 22 23.76 22 36 C33.55 36 45.1 36 57 36 C57 24.12 57 12.24 57 0 C64.59 0 72.18 0 80 0 C80 30.69 80 61.38 80 93 C72.74 93 65.48 93 58 93 C58 80.13 58 67.26 58 54 C46.12 54 34.24 54 22 54 C22 66.87 22 79.74 22 93 C14.74 93 7.48 93 0 93 C0 62.31 0 31.62 0 0 Z " fill="#030303" transform="translate(858,286)"/>
<path d="M0 0 C7.59 0 15.18 0 23 0 C23.01401855 2.86099365 23.01401855 2.86099365 23.02832031 5.77978516 C23.06389693 12.09433267 23.11772599 18.40852018 23.18390274 24.72281837 C23.22334698 28.549767 23.25555011 32.37648659 23.27099609 36.20361328 C23.2861833 39.89974178 23.32066404 43.59524051 23.36830902 47.2910881 C23.38310181 48.69836313 23.39103981 50.10572808 23.39188385 51.5130806 C23.39426121 53.4901103 23.42366946 55.46705075 23.45410156 57.44384766 C23.46298401 58.56747711 23.47186646 59.69110657 23.48101807 60.8487854 C24.25683939 65.55950713 26.56883359 68.69893963 30.0625 71.875 C35.23272908 73.85508773 40.86419224 74.0018736 46.1640625 72.30859375 C50.56258482 70.07189836 52.17120948 67.43686951 54 63 C54.46411756 59.89651216 54.46411756 59.89651216 54.43237305 56.62744141 C54.45216721 55.38660797 54.47196136 54.14577454 54.49235535 52.86734009 C54.49912347 51.52874911 54.50557053 50.19015647 54.51171875 48.8515625 C54.52858002 47.4700665 54.5467322 46.08858571 54.56611633 44.7071228 C54.61346597 41.0871862 54.64337199 37.46731128 54.66955566 33.84716797 C54.6994376 30.14668604 54.74594151 26.44641629 54.79101562 22.74609375 C54.87687756 15.49748332 54.94276016 8.24890331 55 1 C62.59 1 70.18 1 78 1 C78.11365777 9.1200605 78.20508874 17.23948669 78.25906086 25.36013317 C78.28498493 29.13223881 78.32006012 32.9037649 78.37719727 36.67553711 C78.43214189 40.32606381 78.4615492 43.97603863 78.47438622 47.6269474 C78.4835158 49.00904321 78.50133858 50.39111411 78.52865028 51.7729702 C78.75725589 63.83621182 76.5879468 73.83083685 69 83.4375 C61.58862058 91.08554532 51.43593187 95.01044713 40.90795898 95.34375 C28.56212997 95.50824111 18.10731148 93.28770343 8.94140625 84.375 C2.04168043 75.93428913 -0.13510081 67.14510111 -0.11352539 56.42211914 C-0.11344986 55.16134048 -0.11337433 53.90056183 -0.11329651 52.60157776 C-0.1081915 51.24610351 -0.10297553 49.89062967 -0.09765625 48.53515625 C-0.09578854 47.13268586 -0.0943663 45.73021481 -0.09336853 44.32774353 C-0.08957116 40.6567908 -0.07976496 36.98587835 -0.06866455 33.31494141 C-0.05839031 29.56087794 -0.05385809 25.80680789 -0.04882812 22.05273438 C-0.0381399 14.70180253 -0.02056597 7.35091207 0 0 Z " fill="#060606" transform="translate(475,404)"/>
<path d="M0 0 C7.59 0 15.18 0 23 0 C23.0093457 1.80597656 23.01869141 3.61195313 23.02832031 5.47265625 C23.06395367 11.4639061 23.11781831 17.45476392 23.18390274 23.44573975 C23.22328102 27.0753348 23.25551619 30.70469077 23.27099609 34.33447266 C23.28622717 37.84259227 23.32078433 41.35005417 23.36830902 44.85787964 C23.39019599 46.83622203 23.39246818 48.81475033 23.39434814 50.79321289 C23.52373201 58.80258965 24.03028488 65.15057928 30.0625 71 C35.86652004 72.97583661 41.75324826 72.80241134 47.5 70.75 C51.65208147 67.84354297 53.37558511 64.73783728 55 60 C55.32367459 57.07265674 55.32367459 57.07265674 55.31884766 53.92456055 C55.33871735 52.72369308 55.35858704 51.52282562 55.37905884 50.28556824 C55.39061005 48.99894791 55.40216125 47.71232758 55.4140625 46.38671875 C55.43278598 45.04863811 55.45236027 43.71056913 55.4727478 42.37251282 C55.5239507 38.86273084 55.56363936 35.35291062 55.60089111 31.84295654 C55.64100539 28.25653722 55.69206374 24.6702753 55.7421875 21.08398438 C55.83880636 14.05609899 55.92224339 7.02812308 56 0 C63.26 0 70.52 0 78 0 C78.06805813 8.17186186 78.12297762 16.34349952 78.15543652 24.51556969 C78.17102331 28.3111063 78.19213188 32.1064372 78.22631836 35.90185547 C78.25916373 39.57178362 78.27690541 43.24151522 78.28463173 46.91157913 C78.29013047 48.30447097 78.30086686 49.69735333 78.31719017 51.09016037 C78.46939579 64.62854363 76.69556194 74.06090762 67.1484375 83.91015625 C57.23956138 93.20712966 46.81034 94.4826426 33.78515625 94.2734375 C23.98626264 93.88736835 15.85991749 90.00701124 9 83 C0.93454943 72.34019225 -0.4457811 62.21093542 -0.29296875 49.12109375 C-0.28736236 47.69906566 -0.2830972 46.27703172 -0.28010559 44.85499573 C-0.26873869 41.14117992 -0.23934372 37.42772506 -0.20599365 33.71405029 C-0.17511511 29.91293213 -0.16156255 26.11175474 -0.14648438 22.31054688 C-0.11446445 14.87351556 -0.06176527 7.43685467 0 0 Z " fill="#040404" transform="translate(380,524)"/>
<path d="M0 0 C7.59 0 15.18 0 23 0 C23.0093457 1.80597656 23.01869141 3.61195313 23.02832031 5.47265625 C23.06395367 11.4639061 23.11781831 17.45476392 23.18390274 23.44573975 C23.22328102 27.0753348 23.25551619 30.70469077 23.27099609 34.33447266 C23.28622717 37.84259227 23.32078433 41.35005417 23.36830902 44.85787964 C23.39019599 46.83622203 23.39246818 48.81475033 23.39434814 50.79321289 C23.52373201 58.80258965 24.03028488 65.15057928 30.0625 71 C35.86652004 72.97583661 41.75324826 72.80241134 47.5 70.75 C51.65208147 67.84354297 53.37558511 64.73783728 55 60 C55.32367459 57.07265674 55.32367459 57.07265674 55.31884766 53.92456055 C55.33871735 52.72369308 55.35858704 51.52282562 55.37905884 50.28556824 C55.39061005 48.99894791 55.40216125 47.71232758 55.4140625 46.38671875 C55.43278598 45.04863811 55.45236027 43.71056913 55.4727478 42.37251282 C55.5239507 38.86273084 55.56363936 35.35291062 55.60089111 31.84295654 C55.64100539 28.25653722 55.69206374 24.6702753 55.7421875 21.08398438 C55.83880636 14.05609899 55.92224339 7.02812308 56 0 C63.26 0 70.52 0 78 0 C78.06805813 8.17186186 78.12297762 16.34349952 78.15543652 24.51556969 C78.17102331 28.3111063 78.19213188 32.1064372 78.22631836 35.90185547 C78.25916373 39.57178362 78.27690541 43.24151522 78.28463173 46.91157913 C78.29013047 48.30447097 78.30086686 49.69735333 78.31719017 51.09016037 C78.46939579 64.62854363 76.69556194 74.06090762 67.1484375 83.91015625 C57.23956138 93.20712966 46.81034 94.4826426 33.78515625 94.2734375 C23.98626264 93.88736835 15.85991749 90.00701124 9 83 C0.93454943 72.34019225 -0.4457811 62.21093542 -0.29296875 49.12109375 C-0.28736236 47.69906566 -0.2830972 46.27703172 -0.28010559 44.85499573 C-0.26873869 41.14117992 -0.23934372 37.42772506 -0.20599365 33.71405029 C-0.17511511 29.91293213 -0.16156255 26.11175474 -0.14648438 22.31054688 C-0.11446445 14.87351556 -0.06176527 7.43685467 0 0 Z " fill="#040404" transform="translate(763,405)"/>
<path d="M0 0 C7.59 0 15.18 0 23 0 C23.0093457 1.80597656 23.01869141 3.61195313 23.02832031 5.47265625 C23.06395367 11.4639061 23.11781831 17.45476392 23.18390274 23.44573975 C23.22328102 27.0753348 23.25551619 30.70469077 23.27099609 34.33447266 C23.28622717 37.84259227 23.32078433 41.35005417 23.36830902 44.85787964 C23.39019599 46.83622203 23.39246818 48.81475033 23.39434814 50.79321289 C23.52373201 58.80258965 24.03028488 65.15057928 30.0625 71 C35.86652004 72.97583661 41.75324826 72.80241134 47.5 70.75 C51.65208147 67.84354297 53.37558511 64.73783728 55 60 C55.32367459 57.07265674 55.32367459 57.07265674 55.31884766 53.92456055 C55.33871735 52.72369308 55.35858704 51.52282562 55.37905884 50.28556824 C55.39061005 48.99894791 55.40216125 47.71232758 55.4140625 46.38671875 C55.43278598 45.04863811 55.45236027 43.71056913 55.4727478 42.37251282 C55.5239507 38.86273084 55.56363936 35.35291062 55.60089111 31.84295654 C55.64100539 28.25653722 55.69206374 24.6702753 55.7421875 21.08398438 C55.83880636 14.05609899 55.92224339 7.02812308 56 0 C63.26 0 70.52 0 78 0 C78.06805813 8.17186186 78.12297762 16.34349952 78.15543652 24.51556969 C78.17102331 28.3111063 78.19213188 32.1064372 78.22631836 35.90185547 C78.25916373 39.57178362 78.27690541 43.24151522 78.28463173 46.91157913 C78.29013047 48.30447097 78.30086686 49.69735333 78.31719017 51.09016037 C78.46939579 64.62854363 76.69556194 74.06090762 67.1484375 83.91015625 C57.23956138 93.20712966 46.81034 94.4826426 33.78515625 94.2734375 C23.98626264 93.88736835 15.85991749 90.00701124 9 83 C0.93454943 72.34019225 -0.4457811 62.21093542 -0.29296875 49.12109375 C-0.28736236 47.69906566 -0.2830972 46.27703172 -0.28010559 44.85499573 C-0.26873869 41.14117992 -0.23934372 37.42772506 -0.20599365 33.71405029 C-0.17511511 29.91293213 -0.16156255 26.11175474 -0.14648438 22.31054688 C-0.11446445 14.87351556 -0.06176527 7.43685467 0 0 Z " fill="#040404" transform="translate(662,286)"/>
<path d="M0 0 C18.81 0 37.62 0 57 0 C57 5.94 57 11.88 57 18 C45.45 18 33.9 18 22 18 C22 24.27 22 30.54 22 37 C31.9 37 41.8 37 52 37 C52 42.61 52 48.22 52 54 C42.1 54 32.2 54 22 54 C22 60.93 22 67.86 22 75 C33.55 75 45.1 75 57 75 C57 80.94 57 86.88 57 93 C38.19 93 19.38 93 0 93 C0 62.31 0 31.62 0 0 Z " fill="#030303" transform="translate(1184,286)"/>
<path d="M0 0 C23.76 0 47.52 0 72 0 C72 5.94 72 11.88 72 18 C63.75 18 55.5 18 47 18 C47 42.75 47 67.5 47 93 C39.41 93 31.82 93 24 93 C24 68.25 24 43.5 24 18 C16.08 18 8.16 18 0 18 C0 12.06 0 6.12 0 0 Z " fill="#040404" transform="translate(873,524)"/>
<path d="M0 0 C23.76 0 47.52 0 72 0 C72 5.94 72 11.88 72 18 C64.08 18 56.16 18 48 18 C48 42.75 48 67.5 48 93 C40.41 93 32.82 93 25 93 C25 68.25 25 43.5 25 18 C16.75 18 8.5 18 0 18 C0 12.06 0 6.12 0 0 Z " fill="#040404" transform="translate(469,524)"/>
<path d="M0 0 C23.76 0 47.52 0 72 0 C72 5.94 72 11.88 72 18 C63.75 18 55.5 18 47 18 C47 42.75 47 67.5 47 93 C39.41 93 31.82 93 24 93 C24 68.25 24 43.5 24 18 C16.08 18 8.16 18 0 18 C0 12.06 0 6.12 0 0 Z " fill="#050505" transform="translate(950,286)"/>
<path d="M0 0 C23.76 0 47.52 0 72 0 C72 5.94 72 11.88 72 18 C63.75 18 55.5 18 47 18 C47 42.75 47 67.5 47 93 C39.74 93 32.48 93 25 93 C25 68.25 25 43.5 25 18 C16.75 18 8.5 18 0 18 C0 12.06 0 6.12 0 0 Z " fill="#020202" transform="translate(564,405)"/>
<path d="M0 0 C23.76 0 47.52 0 72 0 C72 5.94 72 11.88 72 18 C63.75 18 55.5 18 47 18 C47 42.75 47 67.5 47 93 C39.74 93 32.48 93 25 93 C25 68.25 25 43.5 25 18 C16.75 18 8.5 18 0 18 C0 12.06 0 6.12 0 0 Z " fill="#020202" transform="translate(481,286)"/>
<path d="M0 0 C31 0 31 0 40 7 C42.69379947 12.22433837 43.46494329 16.07197304 43 22 C42.505 23.485 42.505 23.485 42 25 C53.55 25 65.1 25 77 25 C77 29.62 77 34.24 77 39 C71.06 39 65.12 39 59 39 C59.45472251 45.34648701 59.45472251 45.34648701 61.11328125 47.89453125 C65.58289604 50.51337387 72.03524626 49.772259 77 50 C77 54.62 77 59.24 77 64 C57.37492776 64.80284386 57.37492776 64.80284386 52 60 C45.70244844 53.07547981 44.88050479 48.20113123 45 39 C41.04 39 37.08 39 33 39 C33.88042969 40.14597656 34.76085937 41.29195312 35.66796875 42.47265625 C36.8412062 44.00255788 38.01437989 45.5325084 39.1875 47.0625 C39.76564453 47.81466797 40.34378906 48.56683594 40.93945312 49.34179688 C51 62.47166314 51 62.47166314 51 64 C35.91259813 65.92290416 35.91259813 65.92290416 31.26269531 62.85302734 C27.78854228 59.39614147 25.46326902 55.20204715 23 51 C21.35623486 48.95693969 19.6678692 46.96641106 17.9609375 44.9765625 C16.52936966 42.03195548 16.94257904 39.22817827 17 36 C17.68460297 35.98969254 18.36920593 35.97938507 19.07455444 35.96876526 C26.17936045 35.8608532 33.28403569 35.74624306 40.38867188 35.62768555 C43.04261548 35.58428752 45.6965879 35.54261612 48.35058594 35.50268555 C52.15829158 35.44510075 55.96585155 35.3813725 59.7734375 35.31640625 C60.96617279 35.29969376 62.15890808 35.28298126 63.38778687 35.26576233 C64.48877716 35.24581711 65.58976746 35.22587189 66.72412109 35.20532227 C67.69674896 35.18977798 68.66937683 35.1742337 69.67147827 35.15821838 C72.02390474 35.14869349 72.02390474 35.14869349 74 34 C74 32.35 74 30.7 74 29 C55.52 28.67 37.04 28.34 18 28 C18 27.01 18 26.02 18 25 C21.96 24.505 21.96 24.505 26 24 C26.33 21.69 26.66 19.38 27 17 C21.06 16.01 21.06 16.01 15 15 C15 31.17 15 47.34 15 64 C10.05 64 5.1 64 0 64 C0 42.88 0 21.76 0 0 Z " fill="#030303" transform="translate(661,96)"/>
<path d="M0 0 C7.26 0 14.52 0 22 0 C22 25.08 22 50.16 22 76 C31.9 76 41.8 76 52 76 C52 81.61 52 87.22 52 93 C34.84 93 17.68 93 0 93 C0 62.31 0 31.62 0 0 Z " fill="#020202" transform="translate(897,405)"/>
<path d="M0 0 C6.59968402 4.19504668 9.57922341 9.73767024 12 17 C12.91510049 27.69617453 11.50189502 35.9962449 4.6875 44.4375 C-0.79791647 50.14187217 -5.19443504 51.1650894 -12.9375 51.4375 C-19.92578386 51.25964336 -24.59558485 50.21744499 -29.70703125 45.38671875 C-35.46276595 39.07081523 -37.48763183 33.50385405 -37.3125 25.0625 C-37.31733398 23.90331055 -37.31733398 23.90331055 -37.32226562 22.72070312 C-37.24676282 14.60071958 -35.60438854 8.76442407 -29.9765625 2.80078125 C-21.50726527 -4.91531761 -10.05246572 -5.03573425 0 0 Z " fill="#F4F4F4" transform="translate(610,546)"/>
<path d="M0 0 C6.59968402 4.19504668 9.57922341 9.73767024 12 17 C12.91510049 27.69617453 11.50189502 35.9962449 4.6875 44.4375 C-0.79791647 50.14187217 -5.19443504 51.1650894 -12.9375 51.4375 C-19.92578386 51.25964336 -24.59558485 50.21744499 -29.70703125 45.38671875 C-35.46276595 39.07081523 -37.48763183 33.50385405 -37.3125 25.0625 C-37.31733398 23.90331055 -37.31733398 23.90331055 -37.32226562 22.72070312 C-37.24676282 14.60071958 -35.60438854 8.76442407 -29.9765625 2.80078125 C-21.50726527 -4.91531761 -10.05246572 -5.03573425 0 0 Z " fill="#F4F4F4" transform="translate(312,308)"/>
<path d="M0 0 C5.59863709 3.927561 9.34659734 9.3766059 11 16 C12.02271226 24.90919443 11.21645765 33.00658517 7 41 C3.29275371 45.58527831 -1.37539833 49.12513278 -7 51 C-14.9263327 51.61436632 -22.50819213 52.12989013 -29 47 C-34.91720467 41.65149693 -37.64601341 35.9646498 -38.3515625 28.0625 C-38.75264129 19.43352123 -38.40306057 12.1515311 -33 5 C-24.48595621 -4.30604786 -11.04517388 -4.98986151 0 0 Z " fill="#F5F5F5" transform="translate(1053,546)"/>
<path d="M0 0 C4.93810665 4.06312645 8.34898038 9.72693486 9.31835938 16.08959961 C9.47361956 18.34011615 9.51888548 20.55676086 9.5 22.8125 C9.49427979 23.60495117 9.48855957 24.39740234 9.48266602 25.21386719 C9.25354113 32.74644422 7.42637218 38.20708568 2.3203125 43.859375 C-3.80499126 49.57632518 -9.84258541 50.42446967 -18.03515625 50.2421875 C-24.94840743 49.67746869 -29.76149883 47.26888687 -34.45703125 42.1328125 C-40.07338493 34.36944767 -41.12412306 25.32906255 -40 16 C-38.29601219 8.77065528 -34.89870555 3.50856475 -29 -1 C-19.90497041 -6.42203687 -9.03544432 -4.89960298 0 0 Z " fill="#F5F5F5" transform="translate(430,428)"/>
<path d="M0 0 C7.59 0 15.18 0 23 0 C23 30.69 23 61.38 23 93 C15.41 93 7.82 93 0 93 C0 62.31 0 31.62 0 0 Z " fill="#040404" transform="translate(956,524)"/>
<path d="M0 0 C7.59 0 15.18 0 23 0 C23 30.69 23 61.38 23 93 C15.41 93 7.82 93 0 93 C0 62.31 0 31.62 0 0 Z " fill="#040404" transform="translate(857,405)"/>
<path d="M0 0 C27 0 27 0 36 6 C38.96439494 10.04235674 39.48929785 13.68168973 39.390625 18.57421875 C38.93761016 21.38744089 37.92920991 23.50442041 36.6875 26.0625 C35.49612519 28.52267256 35.49612519 28.52267256 35 31 C35.94818391 33.30273235 37.22201201 34.96337192 38.73046875 36.9375 C41.08410325 40.76125082 40.73269621 44.69284188 40 49 C38.15274799 54.91327039 35.05391322 58.52543466 30 62 C26.70731805 63.12595599 23.60172152 63.11531491 20.140625 63.09765625 C19.02558594 63.09443359 17.91054688 63.09121094 16.76171875 63.08789062 C15.60285156 63.07951172 14.44398438 63.07113281 13.25 63.0625 C12.07566406 63.05798828 10.90132812 63.05347656 9.69140625 63.04882812 C6.79421928 63.03705094 3.89713546 63.02060326 1 63 C3.74796023 57.21970206 7.8766088 52.81824548 13 49 C16.75487713 47.97767976 20.1370994 47.93690362 24 48 C25.96822886 46.03177114 25.66248381 42.65191291 26 40 C21.71 39.34 17.42 38.68 13 38 C13.1546875 40.10375 13.1546875 40.10375 13.3125 42.25 C13.30557722 46.69442278 13.30557722 46.69442278 10.875 49.125 C9.451875 50.053125 9.451875 50.053125 8 51 C6.37424583 52.82052667 4.85213079 54.70022624 3.33203125 56.609375 C2.67267578 57.29773438 2.67267578 57.29773438 2 58 C1.34 58 0.68 58 0 58 C0 38.86 0 19.72 0 0 Z " fill="#030303" transform="translate(741,97)"/>
<path d="M0 0 C7.26 0 14.52 0 22 0 C22 30.69 22 61.38 22 93 C14.74 93 7.48 93 0 93 C0 62.31 0 31.62 0 0 Z " fill="#020202" transform="translate(1057,405)"/>
<path d="M0 0 C22.15789474 0 22.15789474 0 29.875 6.375 C37.69894148 16.03986889 38.23231348 24.92120326 37 37 C35.14957547 43.28506264 31.33174754 47.37441168 26 51 C19 54 19 54 0 54 C0 36.18 0 18.36 0 0 Z " fill="#F4F4F4" transform="translate(983,424)"/>
<path d="M0 0 C1.4370809 -0.05422947 2.87475462 -0.09289723 4.3125 -0.125 C5.11300781 -0.14820312 5.91351562 -0.17140625 6.73828125 -0.1953125 C9 0 9 0 12 2 C12.25 5.5625 12.25 5.5625 12 9 C11 10 11 10 9.15234375 10.09765625 C7.1015625 10.06510417 5.05078125 10.03255208 3 10 C3 10.99 3 11.98 3 13 C3.69935165 12.99777939 4.39870331 12.99555878 5.11924744 12.99327087 C11.69704921 12.9732672 18.27484254 12.95802548 24.85266781 12.94818783 C28.23471813 12.94296025 31.6167434 12.93586489 34.9987793 12.92456055 C38.88329777 12.91165733 42.76780597 12.90677076 46.65234375 12.90234375 C47.87211411 12.89718246 49.09188446 12.89202118 50.34861755 12.88670349 C52.03024742 12.88659019 52.03024742 12.88659019 53.74584961 12.88647461 C54.73846298 12.884254 55.73107635 12.88203339 56.75376892 12.87974548 C59 13 59 13 60 14 C60.25 16.4375 60.25 16.4375 60 19 C56.63352075 21.2443195 55.54377354 21.2450516 51.6105957 21.22705078 C50.50968094 21.22689972 49.40876617 21.22674866 48.27449036 21.22659302 C46.49312935 21.21110916 46.49312935 21.21110916 44.67578125 21.1953125 C43.45924362 21.1924826 42.24270599 21.18965271 40.98930359 21.18673706 C37.09693642 21.17552603 33.20479784 21.15041948 29.3125 21.125 C26.67643561 21.11497141 24.04036762 21.10584535 21.40429688 21.09765625 C14.93611968 21.07558366 8.46807617 21.04209688 2 21 C2.64714307 26.78781073 4.05300679 30.13358761 7.75 34.5625 C8.39582031 35.36977539 8.39582031 35.36977539 9.0546875 36.19335938 C10.81513506 38.38337723 12.60435271 40.54291762 14.44335938 42.66748047 C18 46.80226331 18 46.80226331 18 49 C26.415 48.505 26.415 48.505 35 48 C32.73229072 44.8935079 30.46099334 41.78975445 28.1875 38.6875 C27.22360352 37.36588867 27.22360352 37.36588867 26.24023438 36.01757812 C25.61826172 35.17001953 24.99628906 34.32246094 24.35546875 33.44921875 C23.78465576 32.66893311 23.21384277 31.88864746 22.62573242 31.0847168 C21.07301874 28.9937096 21.07301874 28.9937096 19.2902832 27.34692383 C18 26 18 26 18 24 C21.96 24 25.92 24 30 24 C30.07476563 24.845625 30.14953125 25.69125 30.2265625 26.5625 C31.07351359 33.86952898 32.0838113 40.1278446 38 45 C43.36694365 47.84328156 47.91966838 48.50701662 53.9375 48.6875 C54.71673828 48.72166016 55.49597656 48.75582031 56.29882812 48.79101562 C58.19874393 48.8726071 60.09934403 48.93799885 62 49 C58.57807951 51.0853453 55.96236016 51.2234875 51.9921875 51.16015625 C50.84105469 51.14919922 49.68992187 51.13824219 48.50390625 51.12695312 C47.30636719 51.10568359 46.10882812 51.08441406 44.875 51.0625 C42.49745504 51.02817181 40.11984512 50.99800726 37.7421875 50.97265625 C36.6888623 50.95468994 35.63553711 50.93672363 34.55029297 50.91821289 C32.00788418 50.82176019 32.00788418 50.82176019 30 52 C27.52443304 52.17682621 25.10250105 52.27730822 22.625 52.3125 C21.95210937 52.34150391 21.27921875 52.37050781 20.5859375 52.40039062 C17.18357381 52.44392481 15.36715194 52.28603698 12.6484375 50.16796875 C10.63911645 47.52537827 8.84121599 44.76182398 7 42 C6.2575 41.278125 5.515 40.55625 4.75 39.8125 C3 38 3 38 3 35 C2.34 35 1.68 35 1 35 C0.97113249 30.85418113 0.95324673 26.70838784 0.9375 22.5625 C0.92912109 21.37849609 0.92074219 20.19449219 0.91210938 18.97460938 C0.90888672 17.84990234 0.90566406 16.72519531 0.90234375 15.56640625 C0.89710693 14.52427979 0.89187012 13.48215332 0.88647461 12.40844727 C1 10 1 10 2 9 C4.33297433 8.95907063 6.66705225 8.95758277 9 9 C9 7.68 9 6.36 9 5 C6.03 4.01 3.06 3.02 0 2 C0 1.34 0 0.68 0 0 Z " fill="#8A8B8B" transform="translate(676,111)"/>
<path d="M0 0 C3.56295812 -0.08104454 7.12406707 -0.14052442 10.6875 -0.1875 C11.69490234 -0.21263672 12.70230469 -0.23777344 13.74023438 -0.26367188 C23.1579348 -0.35691643 23.1579348 -0.35691643 27 3 C29.48533404 6.72800106 29.4014703 9.68855804 29 14 C28.15859864 17.11318503 27.29647327 17.80363459 24.59375 19.59375 C19.68498832 21.51456979 15.336309 21.32413061 10.125 21.1875 C6.78375 21.125625 3.4425 21.06375 0 21 C0 14.07 0 7.14 0 0 Z " fill="#E5E5E5" transform="translate(698,459)"/>
<path d="M0 0 C3.17625 -0.061875 6.3525 -0.12375 9.625 -0.1875 C11.1092749 -0.22846802 11.1092749 -0.22846802 12.62353516 -0.27026367 C18.81618558 -0.32847233 23.05506243 0.53005236 27.9375 4.625 C29.65124322 8.45572014 29.21045239 12.03321628 28 16 C24.99587268 19.16223928 22.26247402 20.88199098 17.82348633 21.11352539 C17.00130615 21.10828857 16.17912598 21.10305176 15.33203125 21.09765625 C14.52741455 21.09515869 13.72279785 21.09266113 12.89379883 21.09008789 C11.36855591 21.07643188 11.36855591 21.07643188 9.8125 21.0625 C4.9553125 21.0315625 4.9553125 21.0315625 0 21 C0 14.07 0 7.14 0 0 Z " fill="#E8E8E8" transform="translate(306,459)"/>
<path d="M0 0 C1.94326172 0.01933594 1.94326172 0.01933594 3.92578125 0.0390625 C5.28907324 0.07248134 6.65235449 0.10634109 8.015625 0.140625 C9.39450564 0.16069793 10.77341412 0.17894733 12.15234375 0.1953125 C15.52414244 0.24247052 18.89453187 0.30827962 22.265625 0.390625 C22.265625 0.720625 22.265625 1.050625 22.265625 1.390625 C13.355625 1.390625 4.445625 1.390625 -4.734375 1.390625 C-4.734375 22.510625 -4.734375 43.630625 -4.734375 65.390625 C0.215625 65.390625 5.165625 65.390625 10.265625 65.390625 C6.265625 70.390625 6.265625 70.390625 2.59375 70.87890625 C1.2335134 70.8458908 -0.12629838 70.78656071 -1.484375 70.703125 C-2.18175781 70.68056641 -2.87914062 70.65800781 -3.59765625 70.63476562 C-5.31082435 70.57609548 -7.02288123 70.48641756 -8.734375 70.390625 C-10.80922009 66.96748207 -10.99689337 64.27824644 -11.02490234 60.30859375 C-11.03766205 59.08052002 -11.05042175 57.85244629 -11.06356812 56.5871582 C-11.06662521 55.25081541 -11.06885327 53.9144705 -11.0703125 52.578125 C-11.07674184 51.20336773 -11.08347031 49.82861183 -11.09048462 48.45385742 C-11.10244572 45.57565131 -11.10616651 42.69756514 -11.10498047 39.81933594 C-11.10477699 36.13367046 -11.13211312 32.44877355 -11.16652489 28.76329041 C-11.18877205 25.92537917 -11.19281875 23.08765382 -11.19176102 20.24966431 C-11.19411897 18.89089298 -11.20295365 17.53211668 -11.21842575 16.1734314 C-11.23804358 14.27327419 -11.22973596 12.37289087 -11.22021484 10.47265625 C-11.22306488 9.39218018 -11.22591492 8.3117041 -11.22885132 7.19848633 C-10.08356938 0.69505486 -5.92651064 -0.10397387 0 0 Z " fill="#C4C5C5" transform="translate(665.734375,94.609375)"/>
<path d="M0 0 C0.79921875 0.00644531 1.5984375 0.01289062 2.421875 0.01953125 C3.246875 0.03628906 4.071875 0.05304688 4.921875 0.0703125 C5.76234375 0.07933594 6.6028125 0.08835937 7.46875 0.09765625 C9.53658104 0.12115433 11.60426495 0.15702342 13.671875 0.1953125 C13.671875 4.8153125 13.671875 9.4353125 13.671875 14.1953125 C8.721875 14.5253125 3.771875 14.8553125 -1.328125 15.1953125 C-2.318125 17.5053125 -3.308125 19.8153125 -4.328125 22.1953125 C-8.948125 22.1953125 -13.568125 22.1953125 -18.328125 22.1953125 C-18.64137801 12.95434864 -18.64137801 12.95434864 -16.328125 9.1953125 C-11.58607168 4.41147898 -7.05042512 -0.10072036 0 0 Z " fill="#060706" transform="translate(724.328125,95.8046875)"/>
<path d="M0 0 C3.20975922 -0.1354964 6.41375629 -0.23434038 9.625 -0.3125 C10.98044922 -0.3753418 10.98044922 -0.3753418 12.36328125 -0.43945312 C16.76472549 -0.51977145 20.02707014 -0.51021232 23.61328125 2.234375 C26.71089648 5.82375566 26.71394197 7.39543759 26.3984375 11.91015625 C25.87863907 14.63654999 25.07770581 16.15315039 23 18 C20.11734851 18.96088383 18.32337729 19.11670941 15.33203125 19.09765625 C14.43935547 19.09443359 13.54667969 19.09121094 12.62695312 19.08789062 C11.23379883 19.07532227 11.23379883 19.07532227 9.8125 19.0625 C8.87212891 19.05798828 7.93175781 19.05347656 6.96289062 19.04882812 C4.64189992 19.03704645 2.32094193 19.01911114 0 19 C0 12.73 0 6.46 0 0 Z " fill="#ECECEC" transform="translate(306,423)"/>
<path d="M0 0 C3.23006734 -0.1081697 6.45649754 -0.18739234 9.6875 -0.25 C11.05551758 -0.30027344 11.05551758 -0.30027344 12.45117188 -0.3515625 C16.81769795 -0.41507561 19.28725121 -0.43722486 23.08203125 1.890625 C25.57456096 4.63190004 25.95909094 5.56636398 26.3125 9.3125 C25.95124058 13.57536111 24.98007946 15.01992054 22 18 C19.59940183 19.20029908 18.10639351 19.11459743 15.4296875 19.09765625 C14.53378906 19.09443359 13.63789062 19.09121094 12.71484375 19.08789062 C11.77769531 19.07951172 10.84054687 19.07113281 9.875 19.0625 C8.93011719 19.05798828 7.98523438 19.05347656 7.01171875 19.04882812 C4.6744523 19.03702375 2.33721831 19.01908799 0 19 C0 12.73 0 6.46 0 0 Z " fill="#EBEBEB" transform="translate(699,423)"/>
<path d="M0 0 C9.24 0 18.48 0 28 0 C28 0.33 28 0.66 28 1 C19.75 1 11.5 1 3 1 C3.33 20.47 3.66 39.94 4 60 C3.34 60 2.68 60 2 60 C1.67 53.73 1.34 47.46 1 41 C-4.94 40.67 -10.88 40.34 -17 40 C-17 41.98 -17 43.96 -17 46 C-17.33 46 -17.66 46 -18 46 C-18 43.69 -18 41.38 -18 39 C-12.06 39 -6.12 39 0 39 C0 34.38 0 29.76 0 25 C-11.55 25 -23.1 25 -35 25 C-35 21.04 -35 17.08 -35 13 C-33.68 12.67 -32.36 12.34 -31 12 C-31.33 15.3 -31.66 18.6 -32 22 C-27.38 22 -22.76 22 -18 22 C-17.67 20.35 -17.34 18.7 -17 17 C-16.34 16.01 -15.68 15.02 -15 14 C-12.37302936 13.77862607 -9.99106036 13.71837975 -7.375 13.8125 C-6.66859375 13.82603516 -5.9621875 13.83957031 -5.234375 13.85351562 C-3.48925872 13.8888896 -1.74453392 13.94269779 0 14 C0 9.38 0 4.76 0 0 Z " fill="#6C6C6C" transform="translate(738,96)"/>
<path d="M0 0 C2.15944321 3.23916481 3.22858297 6.4046389 4.3828125 10.07421875 C4.60194305 10.7580513 4.82107361 11.44188385 5.04684448 12.1464386 C5.74397319 14.32541318 6.43456173 16.50639733 7.125 18.6875 C7.59722621 20.167455 8.06987754 21.64727441 8.54296875 23.12695312 C9.70105236 26.74951992 10.85026611 30.37473206 12 34 C4.41 34 -3.18 34 -11 34 C-8.74746374 23.86358682 -8.74746374 23.86358682 -7.08984375 18.90625 C-6.73986328 17.85695313 -6.38988281 16.80765625 -6.02929688 15.7265625 C-5.66900391 14.66179688 -5.30871094 13.59703125 -4.9375 12.5 C-4.57333984 11.40429688 -4.20917969 10.30859375 -3.83398438 9.1796875 C-1.13368056 1.13368056 -1.13368056 1.13368056 0 0 Z " fill="#E1E1E1" transform="translate(820,549)"/>
<path d="M0 0 C2.15944321 3.23916481 3.22858297 6.4046389 4.3828125 10.07421875 C4.60194305 10.7580513 4.82107361 11.44188385 5.04684448 12.1464386 C5.74397319 14.32541318 6.43456173 16.50639733 7.125 18.6875 C7.59722621 20.167455 8.06987754 21.64727441 8.54296875 23.12695312 C9.70105236 26.74951992 10.85026611 30.37473206 12 34 C4.41 34 -3.18 34 -11 34 C-8.74746374 23.86358682 -8.74746374 23.86358682 -7.08984375 18.90625 C-6.73986328 17.85695313 -6.38988281 16.80765625 -6.02929688 15.7265625 C-5.66900391 14.66179688 -5.30871094 13.59703125 -4.9375 12.5 C-4.57333984 11.40429688 -4.20917969 10.30859375 -3.83398438 9.1796875 C-1.13368056 1.13368056 -1.13368056 1.13368056 0 0 Z " fill="#E1E1E1" transform="translate(323,549)"/>
<path d="M0 0 C2.64677492 2.64677492 3.2057802 5.13272316 4.3828125 8.6875 C4.60194305 9.34580811 4.82107361 10.00411621 5.04684448 10.68237305 C5.50852082 12.07344067 5.96728233 13.46547859 6.42333984 14.85839844 C7.12299518 16.99388092 7.8322025 19.12600564 8.54296875 21.2578125 C12 31.70490367 12 31.70490367 12 34 C4.41 34 -3.18 34 -11 34 C-7.625 21.625 -7.625 21.625 -5.95703125 16.89453125 C-5.60576172 15.89228516 -5.25449219 14.89003906 -4.89257812 13.85742188 C-4.53615234 12.85259766 -4.17972656 11.84777344 -3.8125 10.8125 C-3.44447266 9.76513672 -3.07644531 8.71777344 -2.69726562 7.63867188 C-1.80158738 5.09122337 -0.90246184 2.54505148 0 0 Z " fill="#E1E1E1" transform="translate(400,311)"/>
<path d="M0 0 C2.15944321 3.23916481 3.22858297 6.4046389 4.3828125 10.07421875 C4.60194305 10.7580513 4.82107361 11.44188385 5.04684448 12.1464386 C5.74397319 14.32541318 6.43456173 16.50639733 7.125 18.6875 C7.59722621 20.167455 8.06987754 21.64727441 8.54296875 23.12695312 C9.70105236 26.74951992 10.85026611 30.37473206 12 34 C4.41 34 -3.18 34 -11 34 C-8.74746374 23.86358682 -8.74746374 23.86358682 -7.08984375 18.90625 C-6.73986328 17.85695313 -6.38988281 16.80765625 -6.02929688 15.7265625 C-5.66900391 14.66179687 -5.30871094 13.59703125 -4.9375 12.5 C-4.57333984 11.40429688 -4.20917969 10.30859375 -3.83398438 9.1796875 C-1.13368056 1.13368056 -1.13368056 1.13368056 0 0 Z " fill="#E1E1E1" transform="translate(605,311)"/>
<path d="M0 0 C0.66 0 1.32 0 2 0 C3.26700515 3.89492424 4.53031321 7.7910265 5.7902832 11.68823242 C6.21896831 13.01245057 6.64864291 14.33634884 7.0793457 15.65991211 C7.70006379 17.56799234 8.3168705 19.47734357 8.93359375 21.38671875 C9.4913147 23.10701294 9.4913147 23.10701294 10.06030273 24.86206055 C11 28 11 28 12 33 C4.74 33 -2.52 33 -10 33 C-8.87578919 25.13052436 -8.87578919 25.13052436 -7.44140625 21.40625 C-7.13783203 20.60316406 -6.83425781 19.80007813 -6.52148438 18.97265625 C-6.20501953 18.15667969 -5.88855469 17.34070313 -5.5625 16.5 C-3.47168886 11.04233629 -1.51092944 5.64890201 0 0 Z " fill="#E4E4E4" transform="translate(225,431)"/>
<path d="M0 0 C6.75 1.875 6.75 1.875 9 3 C9 4.32 9 5.64 9 7 C6.69 7.33 4.38 7.66 2 8 C1.67 16.25 1.34 24.5 1 33 C1.66 33 2.32 33 3 33 C3.268125 33.969375 3.53625 34.93875 3.8125 35.9375 C4.204375 36.948125 4.59625 37.95875 5 39 C5.99 39.33 6.98 39.66 8 40 C12 45.37142857 12 45.37142857 12 48 C15.57693822 49.19231274 18.84182553 49.1461202 22.5625 49.125 C23.24763672 49.12886719 23.93277344 49.13273437 24.63867188 49.13671875 C28.44562188 49.18722618 28.44562188 49.18722618 32 48 C35.03336073 47.79777595 37.28185802 47.65115639 40.04858398 48.99511719 C44.47338124 50.5016492 48.76750945 50.28504515 53.41015625 50.265625 C54.41461288 50.26753845 55.41906952 50.2694519 56.45396423 50.27142334 C58.57290905 50.27278179 60.69186228 50.26910913 62.81079102 50.26074219 C66.05438905 50.25002679 69.29743465 50.26065491 72.54101562 50.2734375 C74.60156372 50.27211606 76.66211148 50.269554 78.72265625 50.265625 C80.1774514 50.27169769 80.1774514 50.27169769 81.66163635 50.27789307 C82.56615036 50.27158875 83.47066437 50.26528442 84.40258789 50.25878906 C85.59242027 50.25640228 85.59242027 50.25640228 86.80628967 50.25396729 C90.57011651 49.81822658 92.52112741 48.57155761 94.9375 45.6875 C95.618125 44.800625 96.29875 43.91375 97 43 C98.66666667 41.33333333 100.33333333 39.66666667 102 38 C102.66 37.01 103.32 36.02 104 35 C104.6796875 37.25 104.6796875 37.25 105 40 C103.8828125 42.0625 103.8828125 42.0625 102.125 44 C101.57070313 44.639375 101.01640625 45.27875 100.4453125 45.9375 C93.2574472 52.00010844 87.14258491 53.73778844 77.83203125 53.5234375 C76.79358566 53.51873444 75.75514008 53.51403137 74.68522644 53.50918579 C71.39361973 53.48798606 68.10366985 53.43145728 64.8125 53.375 C62.59181217 53.35847486 60.37110697 53.34413146 58.15039062 53.33203125 C41.98519037 53.19769967 41.98519037 53.19769967 35 52 C34.01 52.495 34.01 52.495 33 53 C30.19648462 53.12479416 27.4286626 53.18517138 24.625 53.1875 C23.85671875 53.19974609 23.0884375 53.21199219 22.296875 53.22460938 C14.89318166 53.24382311 14.89318166 53.24382311 12 51 C10.30704992 49.02676017 8.76825307 47.09687069 7.25 45 C6.63318359 44.18015625 6.63318359 44.18015625 6.00390625 43.34375 C3 39.27200997 3 39.27200997 3 37 C2.34 37 1.68 37 1 37 C-0.21077701 33.36766898 -0.12444164 30.04878013 -0.09765625 26.26953125 C-0.0962413 25.51911057 -0.09482635 24.76868988 -0.09336853 23.99552917 C-0.0877756 21.6011454 -0.07522444 19.20685547 -0.0625 16.8125 C-0.05748408 15.18815239 -0.05292134 13.56380332 -0.04882812 11.93945312 C-0.03780848 7.95959931 -0.02054873 3.97981556 0 0 Z " fill="#E6E6E7" transform="translate(676,113)"/>
<path d="M0 0 C2.97922593 -0.02683987 5.95821295 -0.04676037 8.9375 -0.0625 C9.78763672 -0.07087891 10.63777344 -0.07925781 11.51367188 -0.08789062 C12.32255859 -0.09111328 13.13144531 -0.09433594 13.96484375 -0.09765625 C14.7137085 -0.10289307 15.46257324 -0.10812988 16.23413086 -0.11352539 C18 0 18 0 19 1 C19.25068786 4.09631103 19.18522508 7.20723686 19.1875 10.3125 C19.19974609 11.18068359 19.21199219 12.04886719 19.22460938 12.94335938 C19.22750977 14.2030957 19.22750977 14.2030957 19.23046875 15.48828125 C19.23457764 16.25696533 19.23868652 17.02564941 19.24291992 17.81762695 C19 20 19 20 17 24 C17 19.38 17 14.76 17 10 C13.6278125 10.0928125 13.6278125 10.0928125 10.1875 10.1875 C3.66592527 10.36699288 3.66592527 10.36699288 1.05078125 8.92578125 C-0.55504162 5.98276759 -0.1856838 3.28041373 0 0 Z " fill="#959595" transform="translate(721,136)"/>
<path d="M0 0 C11.55 0 23.1 0 35 0 C35 4.62 35 9.24 35 14 C29.06 14 23.12 14 17 14 C17 13.34 17 12.68 17 12 C12.71 12 8.42 12 4 12 C4 15.96 4 19.92 4 24 C3.67 24 3.34 24 3 24 C3 20.7 3 17.4 3 14 C-0.96 14 -4.92 14 -9 14 C-9 13.34 -9 12.68 -9 12 C-13.95 12 -18.9 12 -24 12 C-24 13.98 -24 15.96 -24 18 C-24.33 18 -24.66 18 -25 18 C-25 15.69 -25 13.38 -25 11 C-24.31539703 10.98969254 -23.63079407 10.97938507 -22.92544556 10.96876526 C-15.82063955 10.8608532 -8.71596431 10.74624306 -1.61132812 10.62768555 C1.04261548 10.58428752 3.6965879 10.54261612 6.35058594 10.50268555 C10.15829158 10.44510075 13.96585155 10.3813725 17.7734375 10.31640625 C18.96617279 10.29969376 20.15890808 10.28298126 21.38778687 10.26576233 C22.48877716 10.24581711 23.58976746 10.22587189 24.72412109 10.20532227 C25.69674896 10.18977798 26.66937683 10.1742337 27.67147827 10.15821838 C30.02390474 10.14869349 30.02390474 10.14869349 32 9 C32.66 6.36 33.32 3.72 34 1 C22.78 1 11.56 1 0 1 C0 0.67 0 0.34 0 0 Z " fill="#131313" transform="translate(703,121)"/>
<path d="M0 0 C17.82 0 35.64 0 54 0 C54.495 1.485 54.495 1.485 55 3 C36.85 3 18.7 3 0 3 C0 2.01 0 1.02 0 0 Z " fill="#1A1B1A" transform="translate(678,126)"/>
<path d="M0 0 C0.33 0 0.66 0 1 0 C1 21.12 1 42.24 1 64 C4.96 64 8.92 64 13 64 C9.71737969 66.18841354 8.68209102 66.24854665 4.875 66.1875 C3.98554687 66.18105469 3.09609375 66.17460937 2.1796875 66.16796875 C0 66 0 66 -1 65 C-1.09903867 63.1907532 -1.12799196 61.37762876 -1.12939453 59.56567383 C-1.13254669 58.40389114 -1.13569885 57.24210846 -1.13894653 56.04512024 C-1.1369223 54.77855087 -1.13489807 53.51198151 -1.1328125 52.20703125 C-1.13376923 50.91310959 -1.13472595 49.61918793 -1.13571167 48.28605652 C-1.1371892 45.53956923 -1.13503406 42.79311438 -1.13037109 40.04663086 C-1.12470184 36.5373641 -1.12793453 33.02817428 -1.13394356 29.51891041 C-1.13844505 26.16494468 -1.13528329 22.81099916 -1.1328125 19.45703125 C-1.13483673 18.20058304 -1.13686096 16.94413483 -1.13894653 15.64961243 C-1.13579437 14.47206894 -1.13264221 13.29452545 -1.12939453 12.08129883 C-1.12859894 11.04951004 -1.12780334 10.01772125 -1.12698364 8.95466614 C-0.99566465 5.89912472 -0.56390853 3.00336655 0 0 Z " fill="#737475" transform="translate(660,96)"/>
<path d="M0 0 C1.37376679 0.00398964 2.74753489 0.01873698 4.12109375 0.04296875 C4.81912109 0.04361328 5.51714844 0.04425781 6.23632812 0.04492188 C11.41828217 0.09015717 11.41828217 0.09015717 12.55859375 1.23046875 C12.55859375 3.54046875 12.55859375 5.85046875 12.55859375 8.23046875 C5.95859375 8.23046875 -0.64140625 8.23046875 -7.44140625 8.23046875 C-6.78140625 7.90046875 -6.12140625 7.57046875 -5.44140625 7.23046875 C-5.48265625 6.44671875 -5.52390625 5.66296875 -5.56640625 4.85546875 C-5.36519985 0.63013432 -4.08450263 0.2735365 0 0 Z " fill="#F3F3F3" transform="translate(725.44140625,111.76953125)"/>
<path d="M0 0 C9.10714286 -0.26785714 9.10714286 -0.26785714 13 2 C13.125 5.375 13.125 5.375 13 9 C11 11 11 11 8.1796875 11.1953125 C7.08914063 11.17210937 5.99859375 11.14890625 4.875 11.125 C3.77929688 11.10695312 2.68359375 11.08890625 1.5546875 11.0703125 C0.71164062 11.04710937 -0.13140625 11.02390625 -1 11 C-0.67 7.37 -0.34 3.74 0 0 Z " fill="#B2B2B3" transform="translate(754,135)"/>
<path d="M0 0 C3.96 0 7.92 0 12 0 C12.14695312 1.28583984 12.14695312 1.28583984 12.296875 2.59765625 C13.17641379 9.32309509 14.09910991 14.4087242 18 20 C15.8203125 19.9296875 15.8203125 19.9296875 13 19 C11.08815926 16.72787317 9.4851878 14.59198498 7.875 12.125 C7.02070488 10.85510185 6.16400649 9.58681649 5.3046875 8.3203125 C4.93327637 7.75586426 4.56186523 7.19141602 4.17919922 6.60986328 C3.01487729 4.92383144 3.01487729 4.92383144 1.35595703 3.41748047 C0 2 0 2 0 0 Z " fill="#6E6E6E" transform="translate(694,135)"/>
<path d="M0 0 C8.57142857 -0.28571429 8.57142857 -0.28571429 12 2 C12.1875 5.375 12.1875 5.375 12 9 C7.7975546 11.80163026 4.99895065 11.14489712 0 11 C0 7.37 0 3.74 0 0 Z " fill="#A1A1A3" transform="translate(754,110)"/>
<path d="M0 0 C6.75 1.875 6.75 1.875 9 3 C9 4.32 9 5.64 9 7 C6.69 7.33 4.38 7.66 2 8 C1.67 16.25 1.34 24.5 1 33 C1.66 33 2.32 33 3 33 C3.268125 33.969375 3.53625 34.93875 3.8125 35.9375 C4.204375 36.948125 4.59625 37.95875 5 39 C5.99 39.33 6.98 39.66 8 40 C9.60546875 42.28515625 9.60546875 42.28515625 11.1875 45.0625 C11.71730469 45.98160156 12.24710938 46.90070313 12.79296875 47.84765625 C13.19128906 48.55792969 13.58960938 49.26820313 14 50 C13.01 50.495 13.01 50.495 12 51 C10.49412261 49.04594482 8.99521356 47.08718716 7.5 45.125 C7.07074219 44.56941406 6.64148438 44.01382813 6.19921875 43.44140625 C3 39.2265625 3 39.2265625 3 37 C2.34 37 1.68 37 1 37 C-0.21077701 33.36766898 -0.12444164 30.04878013 -0.09765625 26.26953125 C-0.0962413 25.51911057 -0.09482635 24.76868988 -0.09336853 23.99552917 C-0.0877756 21.6011454 -0.07522444 19.20685547 -0.0625 16.8125 C-0.05748408 15.18815239 -0.05292134 13.56380332 -0.04882812 11.93945312 C-0.03780848 7.95959931 -0.02054873 3.97981556 0 0 Z " fill="#DFDEDE" transform="translate(676,113)"/>
<path d="M0 0 C3.12613393 2.96160056 5.04783565 5.09567131 7 9 C15.415 8.505 15.415 8.505 24 8 C23.34 6.35 22.68 4.7 22 3 C23.62542193 3.64477069 25.25032424 4.29085143 26.875 4.9375 C27.77992188 5.29714844 28.68484375 5.65679687 29.6171875 6.02734375 C32 7 32 7 34 8 C36.87910588 8.23274209 39.74146495 8.41972757 42.625 8.5625 C43.42679688 8.60568359 44.22859375 8.64886719 45.0546875 8.69335938 C47.0362511 8.79951457 49.01810271 8.90026855 51 9 C46.99106694 11.74867226 42.72041345 11.25918778 38.0625 11.1875 C36.7616748 11.17783203 36.7616748 11.17783203 35.43457031 11.16796875 C25.61223026 11.05543209 15.80596016 10.55133913 6 10 C5.34 8.68 4.68 7.36 4 6 C3.34 6 2.68 6 2 6 C2 5.34 2 4.68 2 4 C1.34 4 0.68 4 0 4 C0 2.68 0 1.36 0 0 Z " fill="#8F8E8F" transform="translate(687,151)"/>
<path d="M0 0 C1.98 0.99 1.98 0.99 4 2 C4 2.66 4 3.32 4 4 C5.32 4.33 6.64 4.66 8 5 C8 5.66 8 6.32 8 7 C8.66 7 9.32 7 10 7 C10 8.32 10 9.64 10 11 C10.66 11 11.32 11 12 11 C12 11.66 12 12.32 12 13 C12.66 13 13.32 13 14 13 C14.99 14.485 14.99 14.485 16 16 C18.609621 16.38411275 21.0058074 16.60293197 23.625 16.6875 C24.33140625 16.72166016 25.0378125 16.75582031 25.765625 16.79101562 C27.50985688 16.87351308 29.25490395 16.93843335 31 17 C28.16816475 19.83183525 25.41155565 19.36782849 21.625 19.375 C20.95210937 19.39949219 20.27921875 19.42398438 19.5859375 19.44921875 C16.18958967 19.46927592 14.35754198 19.27914407 11.6484375 17.1640625 C9.63732439 14.52388084 7.8407477 11.76112155 6 9 C5.2575 8.278125 4.515 7.55625 3.75 6.8125 C2 5 2 5 2 2 C1.34 2 0.68 2 0 2 C0 1.34 0 0.68 0 0 Z " fill="#A6A6A6" transform="translate(677,144)"/>
<path d="M0 0 C2.31243792 -0.02685412 4.6249627 -0.04632841 6.9375 -0.0625 C8.22527344 -0.07410156 9.51304687 -0.08570313 10.83984375 -0.09765625 C14 0 14 0 15 1 C15.04063832 2.66617115 15.042721 4.33388095 15 6 C12.87527424 6.05386629 10.75016348 6.09273071 8.625 6.125 C6.84996094 6.15980469 6.84996094 6.15980469 5.0390625 6.1953125 C2 6 2 6 0 4 C0 2.68 0 1.36 0 0 Z " fill="#F1F1F1" transform="translate(721,139)"/>
<path d="M0 0 C3.96 0 7.92 0 12 0 C15 3 15 3 15.1875 6.1875 C15.125625 7.115625 15.06375 8.04375 15 9 C14.01 9.495 14.01 9.495 13 10 C13 7.69 13 5.38 13 3 C7.06 2.01 7.06 2.01 1 1 C1 17.17 1 33.34 1 50 C0.67 50 0.34 50 0 50 C0 33.5 0 17 0 0 Z " fill="#343435" transform="translate(675,110)"/>
<path d="M0 0 C2 2 2 2 2.22705078 4.24658203 C2.21657715 5.15778809 2.20610352 6.06899414 2.1953125 7.0078125 C2.18886719 7.99394531 2.18242188 8.98007813 2.17578125 9.99609375 C2.15902344 11.02863281 2.14226563 12.06117187 2.125 13.125 C2.11597656 14.16527344 2.10695313 15.20554687 2.09765625 16.27734375 C2.07403747 18.85179092 2.04110149 21.42578212 2 24 C1.34 24 0.68 24 0 24 C-0.33 21.69 -0.66 19.38 -1 17 C-5.95 16.67 -10.9 16.34 -16 16 C-15.67 15.34 -15.34 14.68 -15 14 C-10.05 14 -5.1 14 0 14 C0 9.38 0 4.76 0 0 Z " fill="#8D8D8E" transform="translate(738,96)"/>
<path d="M0 0 C1.37376679 0.00398964 2.74753489 0.01873698 4.12109375 0.04296875 C4.81912109 0.04361328 5.51714844 0.04425781 6.23632812 0.04492188 C11.41828217 0.09015717 11.41828217 0.09015717 12.55859375 1.23046875 C12.59952312 3.56344308 12.60101098 5.897521 12.55859375 8.23046875 C11.89859375 8.23046875 11.23859375 8.23046875 10.55859375 8.23046875 C10.22859375 6.58046875 9.89859375 4.93046875 9.55859375 3.23046875 C4.93859375 3.23046875 0.31859375 3.23046875 -4.44140625 3.23046875 C-4.77140625 4.55046875 -5.10140625 5.87046875 -5.44140625 7.23046875 C-5.56640625 4.85546875 -5.56640625 4.85546875 -5.44140625 2.23046875 C-3.44140625 0.23046875 -3.44140625 0.23046875 0 0 Z " fill="#C2C3C4" transform="translate(725.44140625,111.76953125)"/>
<path d="M0 0 C11.55 0 23.1 0 35 0 C35 4.29 35 8.58 35 13 C33.35 13 31.7 13 30 13 C30.20496094 12.46890625 30.40992188 11.9378125 30.62109375 11.390625 C30.89050781 10.68421875 31.15992188 9.9778125 31.4375 9.25 C31.70433594 8.55390625 31.97117187 7.8578125 32.24609375 7.140625 C33.13653634 4.71879627 33.13653634 4.71879627 34 1 C22.78 1 11.56 1 0 1 C0 0.67 0 0.34 0 0 Z " fill="#0C0C0C" transform="translate(703,121)"/>
<path d="M0 0 C9.57 0 19.14 0 29 0 C28.67 0.99 28.34 1.98 28 3 C19.09 3 10.18 3 1 3 C0.67 2.01 0.34 1.02 0 0 Z " fill="#8C8C8E" transform="translate(741,159)"/>
<path d="M0 0 C2.64590014 -0.02684679 5.29153096 -0.04676357 7.9375 -0.0625 C8.69224609 -0.07087891 9.44699219 -0.07925781 10.22460938 -0.08789062 C12.14994313 -0.09652441 14.07535581 -0.05224333 16 0 C17 1 17 1 17.125 4.5 C17 8 17 8 16 9 C13.81360547 9.07258946 11.62499611 9.08373783 9.4375 9.0625 C7.64119141 9.04896484 7.64119141 9.04896484 5.80859375 9.03515625 C4.88175781 9.02355469 3.95492187 9.01195312 3 9 C3 8.67 3 8.34 3 8 C6.96 8 10.92 8 15 8 C14.67 6.35 14.34 4.7 14 3 C7.07 2.505 7.07 2.505 0 2 C0 1.34 0 0.68 0 0 Z " fill="#C2C2C3" transform="translate(721,137)"/>
<path d="M0 0 C-1.515625 1.984375 -1.515625 1.984375 -4 4 C-6.73682971 4.2911521 -9.03940039 4.38322418 -11.75 4.25 C-12.44738281 4.23195312 -13.14476562 4.21390625 -13.86328125 4.1953125 C-15.57611539 4.14838554 -17.28823824 4.07664605 -19 4 C-19.33 2.68 -19.66 1.36 -20 0 C-18.53626953 0.01740234 -18.53626953 0.01740234 -17.04296875 0.03515625 C-15.77066406 0.04417969 -14.49835937 0.05320313 -13.1875 0.0625 C-11.29064453 0.07990234 -11.29064453 0.07990234 -9.35546875 0.09765625 C-0.48179872 -0.16059957 -0.48179872 -0.16059957 0 0 Z " fill="#C8C8C9" transform="translate(676,161)"/>
<path d="M0 0 C6.75 1.875 6.75 1.875 9 3 C9 4.32 9 5.64 9 7 C7.88625 7.12375 6.7725 7.2475 5.625 7.375 C1.96896323 7.6465813 1.96896323 7.6465813 0 10 C0 6.7 0 3.4 0 0 Z " fill="#EEEEEE" transform="translate(676,113)"/>
<path d="M0 0 C0.72960937 0.32097656 1.45921875 0.64195312 2.2109375 0.97265625 C5.72396575 2.26667086 9.11191702 2.45502107 12.8125 2.625 C13.85180664 2.68300781 13.85180664 2.68300781 14.91210938 2.7421875 C16.60767015 2.83573568 18.30379712 2.91892364 20 3 C20 3.33 20 3.66 20 4 C4.33941864 4.17293894 4.33941864 4.17293894 -0.4375 3.5 C-7.54633089 2.51033923 -14.83999032 2.92601597 -22 3 C-22 2.67 -22 2.34 -22 2 C-21.01257813 1.93941406 -20.02515625 1.87882813 -19.0078125 1.81640625 C-17.72648438 1.73261719 -16.44515625 1.64882812 -15.125 1.5625 C-13.84882812 1.48128906 -12.57265625 1.40007812 -11.2578125 1.31640625 C-7.16023301 0.9184399 -4.2652922 -0.25089954 0 0 Z " fill="#D9D9DA" transform="translate(714,161)"/>
<path d="M0 0 C1.4370809 -0.05422947 2.87475462 -0.09289723 4.3125 -0.125 C5.11300781 -0.14820312 5.91351562 -0.17140625 6.73828125 -0.1953125 C9 0 9 0 12 2 C12.1875 5.625 12.1875 5.625 12 9 C11.01 9 10.02 9 9 9 C9 7.68 9 6.36 9 5 C6.03 4.01 3.06 3.02 0 2 C0 1.34 0 0.68 0 0 Z " fill="#BBBBBC" transform="translate(676,111)"/>
<path d="M0 0 C1.41623216 -0.05447047 2.83308191 -0.09300508 4.25 -0.125 C5.03890625 -0.14820313 5.8278125 -0.17140625 6.640625 -0.1953125 C9.20731941 0.0171622 10.7916067 0.71345895 13 2 C13 4.31 13 6.62 13 9 C11.02 9.99 11.02 9.99 9 11 C9.04125 9.88625 9.0825 8.7725 9.125 7.625 C9.41121859 3.95633975 9.41121859 3.95633975 7 2 C5.01178687 1.60235737 3.01055661 1.26224651 1 1 C1 3.31 1 5.62 1 8 C0.67 8 0.34 8 0 8 C0 5.36 0 2.72 0 0 Z " fill="#6B6B6C" transform="translate(754,135)"/>
<path d="M0 0 C-0.86625 0.515625 -1.7325 1.03125 -2.625 1.5625 C-6.46201739 4.09310433 -9.16675882 7.42328418 -12 11 C-13.32 10.67 -14.64 10.34 -16 10 C-16.33 8.68 -16.66 7.36 -17 6 C-16.236875 5.896875 -15.47375 5.79375 -14.6875 5.6875 C-11.757381 4.93793468 -11.02209812 4.11401167 -9 2 C-8.01 2 -7.02 2 -6 2 C-6 1.34 -6 0.68 -6 0 C-3 -1 -3 -1 0 0 Z " fill="#C9C9CA" transform="translate(718,98)"/>
<path d="M0 0 C8.57142857 -0.28571429 8.57142857 -0.28571429 12 2 C12 4.31 12 6.62 12 9 C11.01 9.495 11.01 9.495 10 10 C10 7.69 10 5.38 10 3 C7.03 2.67 4.06 2.34 1 2 C1 4.97 1 7.94 1 11 C0.67 11 0.34 11 0 11 C0 7.37 0 3.74 0 0 Z " fill="#636363" transform="translate(754,110)"/>
<path d="M0 0 C0.99 0.33 1.98 0.66 3 1 C-0.50897269 5.18423892 -4.08060535 9.19588166 -8 13 C-8.99 12.67 -9.98 12.34 -11 12 C-10.04882866 10.8274869 -9.08882991 9.66212985 -8.125 8.5 C-7.32449219 7.52546875 -7.32449219 7.52546875 -6.5078125 6.53125 C-6.01023437 6.0259375 -5.51265625 5.520625 -5 5 C-4.34 5 -3.68 5 -3 5 C-2.690625 4.360625 -2.38125 3.72125 -2.0625 3.0625 C-1 1 -1 1 0 0 Z " fill="#8B8987" transform="translate(751,145)"/>
<path d="M0 0 C2.875 -0.1875 2.875 -0.1875 6 0 C8.29013653 3.4352048 8.17842973 4.985331 8 9 C4.20620942 7.50958227 2.31656242 5.30937488 0 2 C0 1.34 0 0.68 0 0 Z " fill="#B5B5B6" transform="translate(696,137)"/>
<path d="M0 0 C1.66611905 -0.042721 3.33382885 -0.04063832 5 0 C6 1 6 1 6.0625 3.5625 C6.041875 4.366875 6.02125 5.17125 6 6 C1.545 6.495 1.545 6.495 -3 7 C-2.34 5.68 -1.68 4.36 -1 3 C-0.67 2.01 -0.34 1.02 0 0 Z " fill="#EBEBEB" transform="translate(756,139)"/>
<path d="M0 0 C0.24492188 0.54140625 0.48984375 1.0828125 0.7421875 1.640625 C2.29353788 4.55061143 4.16714304 7.0974196 6.125 9.75 C6.84945312 10.73484375 7.57390625 11.7196875 8.3203125 12.734375 C8.87460937 13.48203125 9.42890625 14.2296875 10 15 C9.01 15.495 9.01 15.495 8 16 C8 15.34 8 14.68 8 14 C7.13375 13.87625 7.13375 13.87625 6.25 13.75 C3.1135816 12.7045272 1.91043954 11.72919934 0 9 C-0.33429898 5.97041545 -0.2334377 3.03469016 0 0 Z " fill="#797978" transform="translate(677,135)"/>
<path d="M0 0 C3.12613393 2.96160056 5.04783565 5.09567131 7 9 C12.94 9 18.88 9 25 9 C25 9.33 25 9.66 25 10 C18.73 10 12.46 10 6 10 C5.34 8.68 4.68 7.36 4 6 C3.34 6 2.68 6 2 6 C2 5.34 2 4.68 2 4 C1.34 4 0.68 4 0 4 C0 2.68 0 1.36 0 0 Z " fill="#7D7D7E" transform="translate(687,151)"/>
<path d="M0 0 C0.66 0.66 1.32 1.32 2 2 C1.91015625 4.41796875 1.91015625 4.41796875 1 7 C-1.06640625 8.80078125 -1.06640625 8.80078125 -3.5625 10.3125 C-4.38878906 10.82425781 -5.21507812 11.33601562 -6.06640625 11.86328125 C-6.70449219 12.23839844 -7.34257813 12.61351562 -8 13 C-8 12.01 -8 11.02 -8 10 C-7.236875 9.401875 -6.47375 8.80375 -5.6875 8.1875 C-2.66832926 5.73003545 -1.52756977 3.53752999 0 0 Z " fill="#BCBCBC" transform="translate(779,148)"/>
<path d="M0 0 C1.5 1.375 1.5 1.375 3 3 C3 3.66 3 4.32 3 5 C9.6 5.33 16.2 5.66 23 6 C23 6.33 23 6.66 23 7 C19.56265937 7.08703823 16.12560163 7.14040272 12.6875 7.1875 C11.22280273 7.22520508 11.22280273 7.22520508 9.72851562 7.26367188 C8.32182617 7.27817383 8.32182617 7.27817383 6.88671875 7.29296875 C6.02264404 7.3086792 5.15856934 7.32438965 4.26831055 7.34057617 C2 7 2 7 0.17504883 5.6184082 C-1 4 -1 4 -0.6875 1.8125 C-0.460625 1.214375 -0.23375 0.61625 0 0 Z " fill="#B0AFB1" transform="translate(739,156)"/>
<path d="M0 0 C2.97 0.495 2.97 0.495 6 1 C6 2.65 6 4.3 6 6 C4.02 6 2.04 6 0 6 C0 4.02 0 2.04 0 0 Z " fill="#E4E5E6" transform="translate(755,114)"/>
<path d="M0 0 C2.97 0 5.94 0 9 0 C10.35091528 2.70183055 10.33858058 5.11808206 10.5625 8.125 C10.64628906 9.22070312 10.73007812 10.31640625 10.81640625 11.4453125 C10.87699219 12.28835937 10.93757812 13.13140625 11 14 C9.68 12.68 8.36 11.36 7 10 C7.66 10 8.32 10 9 10 C8.34 7.36 7.68 4.72 7 2 C4.69 2 2.38 2 0 2 C0 1.34 0 0.68 0 0 Z " fill="#959595" transform="translate(695,136)"/>
<path d="M0 0 C0 0.66 0 1.32 0 2 C-2.64 2.33 -5.28 2.66 -8 3 C-8 3.66 -8 4.32 -8 5 C-8.99 5 -9.98 5 -11 5 C-11.33 5.99 -11.66 6.98 -12 8 C-14.5625 9.1875 -14.5625 9.1875 -17 10 C-12.85675021 4.11925836 -7.48190749 0 0 0 Z " fill="#EFEFEF" transform="translate(720,95)"/>
<path d="M0 0 C1.77007714 -0.08114106 3.54122098 -0.13925505 5.3125 -0.1875 C6.29863281 -0.22230469 7.28476562 -0.25710937 8.30078125 -0.29296875 C11 0 11 0 12.84375 1.3125 C14.5684867 3.8296833 14.19767151 6.03492731 14 9 C13.01 9.495 13.01 9.495 12 10 C12 7.69 12 5.38 12 3 C6.06 2.01 6.06 2.01 0 1 C0 0.67 0 0.34 0 0 Z " fill="#5E5E5E" transform="translate(676,110)"/>
<path d="M0 0 C-0.33 0.99 -0.66 1.98 -1 3 C-2.95803507 3.05389087 -4.91648909 3.09274217 -6.875 3.125 C-7.96554687 3.14820313 -9.05609375 3.17140625 -10.1796875 3.1953125 C-13 3 -13 3 -15 1 C-12.8750734 0.83240016 -10.75005624 0.66594799 -8.625 0.5 C-7.44164062 0.4071875 -6.25828125 0.314375 -5.0390625 0.21875 C-3.36213157 0.09804546 -1.68126944 0 0 0 Z " fill="#9A9A9A" transform="translate(734,129)"/>
<path d="M0 0 C1.258125 -0.04125 2.51625 -0.0825 3.8125 -0.125 C4.52019531 -0.14820312 5.22789062 -0.17140625 5.95703125 -0.1953125 C8 0 8 0 11 2 C11.1875 5.625 11.1875 5.625 11 9 C10.67 9 10.34 9 10 9 C10 7.35 10 5.7 10 4 C6.7 3.01 3.4 2.02 0 1 C0 0.67 0 0.34 0 0 Z " fill="#8F8F90" transform="translate(677,111)"/>
<path d="M0 0 C-0.33 0.99 -0.66 1.98 -1 3 C-6.61 3 -12.22 3 -18 3 C-18 2.67 -18 2.34 -18 2 C-17.01257813 1.93941406 -16.02515625 1.87882813 -15.0078125 1.81640625 C-13.72648438 1.73261719 -12.44515625 1.64882812 -11.125 1.5625 C-9.84882812 1.48128906 -8.57265625 1.40007812 -7.2578125 1.31640625 C-4.53573738 1.05203205 -2.62506009 0 0 0 Z " fill="#C6C7C8" transform="translate(710,161)"/>
<path d="M0 0 C3.80666984 1.44390925 5.26602582 3.34952803 7 7 C6.67 7.66 6.34 8.32 6 9 C4 7.1875 4 7.1875 2 5 C2 4.01 2 3.02 2 2 C1.34 2 0.68 2 0 2 C0 1.34 0 0.68 0 0 Z " fill="#BFBFBE" transform="translate(677,144)"/>
<path d="M0 0 C2.64752004 2.57784846 4.94432065 4.91648098 7 8 C6.01 8 5.02 8 4 8 C4 7.34 4 6.68 4 6 C3.34 6 2.68 6 2 6 C2 5.34 2 4.68 2 4 C1.34 4 0.68 4 0 4 C0 2.68 0 1.36 0 0 Z " fill="#6A6969" transform="translate(687,151)"/>
<path d="M0 0 C0.66 0.66 1.32 1.32 2 2 C1.625 4.625 1.625 4.625 1 7 C0.01 7.33 -0.98 7.66 -2 8 C-1.47731534 5.23723823 -0.89130413 2.6739124 0 0 Z " fill="#D1D0CE" transform="translate(779,148)"/>
<path d="M0 0 C1.32 0.33 2.64 0.66 4 1 C4.33 2.98 4.66 4.96 5 7 C3.29115995 5.37660195 1.62553283 3.70680947 0 2 C0 1.34 0 0.68 0 0 Z " fill="#D0D0D0" transform="translate(698,139)"/>
<path d="M0 0 C-4.5 3 -4.5 3 -9 6 C-9 4.68 -9 3.36 -9 2 C-8.01 2 -7.02 2 -6 2 C-6 1.34 -6 0.68 -6 0 C-3 -1 -3 -1 0 0 Z " fill="#BFBFC0" transform="translate(718,98)"/>
<path d="M0 0 C0.99 0.33 1.98 0.66 3 1 C3 2.65 3 4.3 3 6 C2.01 6.495 2.01 6.495 1 7 C-0.0625 4.625 -0.0625 4.625 -1 2 C-0.67 1.34 -0.34 0.68 0 0 Z " fill="#737373" transform="translate(733,124)"/>
<path d="M0 0 C4.455 1.98 4.455 1.98 9 4 C9 4.33 9 4.66 9 5 C3.5 5.36666667 3.5 5.36666667 1.125 3.625 C0 2 0 2 0 0 Z " fill="#6A6969" transform="translate(712,155)"/>
</svg>
