<?xml version="1.0" encoding="UTF-8"?>
<svg version="1.1" xmlns="http://www.w3.org/2000/svg" width="1500" height="900">
<path d="M0 0 C495 0 990 0 1500 0 C1500 297 1500 594 1500 900 C1005 900 510 900 0 900 C0 603 0 306 0 0 Z " fill="#FDFDFD" transform="translate(0,0)"/>
<path d="M0 0 C31 0 31 0 40 7 C40.66 8.65 41.32 10.3 42 12 C42.99 12 43.98 12 45 12 C46.80182723 10.16249303 48.31143831 8.17100789 49.890625 6.140625 C54.96219872 0.99391685 59.51542267 -0.45608964 66.55000305 -0.60708618 C67.95804451 -0.60435196 67.95804451 -0.60435196 69.39453125 -0.6015625 C70.38192795 -0.61013275 71.36932465 -0.618703 72.38664246 -0.62753296 C74.46842392 -0.63897804 76.55028534 -0.64005068 78.63208008 -0.63134766 C81.7932405 -0.62503844 84.95063144 -0.6719433 88.11132812 -0.72265625 C106.35948462 -0.83700326 106.35948462 -0.83700326 113.37133789 4.38598633 C117.22370587 8.20370551 119.16945351 11.79042928 119.5 17.3125 C119.37837305 21.07653419 118.31628191 23.69117997 116.6875 27.0625 C115.49612519 29.52267256 115.49612519 29.52267256 115 32 C115.94818391 34.30273235 117.22201201 35.96337192 118.73046875 37.9375 C121.08410325 41.76125082 120.73269621 45.69284188 120 50 C118.11930763 56.02031692 114.95492813 59.2838039 110 63 C109.2575 63.7425 108.515 64.485 107.75 65.25 C105.04417325 67.95582675 103.33963185 68.1275347 99.62963867 68.14526367 C98.7249736 68.15164352 97.82030853 68.15802338 96.88822937 68.16459656 C95.90804337 68.16570938 94.92785736 68.1668222 93.91796875 68.16796875 C92.91163895 68.17129715 91.90530914 68.17462555 90.8684845 68.17805481 C88.73581398 68.18312451 86.60313552 68.18546312 84.47045898 68.18530273 C81.21129199 68.18748408 77.9524662 68.20562524 74.69335938 68.22460938 C72.62239699 68.22754432 70.551433 68.22952844 68.48046875 68.23046875 C67.50635544 68.23765427 66.53224213 68.24483978 65.52861023 68.25224304 C60.85287343 68.23650606 57.27761712 68.08695401 53 66 C48.84594326 65.71161543 48.84594326 65.71161543 45 67 C42.52443304 67.17682621 40.10250105 67.27730822 37.625 67.3125 C36.61566406 67.35600586 36.61566406 67.35600586 35.5859375 67.40039062 C32.18357381 67.44392481 30.36715194 67.28603698 27.6484375 65.16796875 C25.63911645 62.52537827 23.84121599 59.76182398 22 57 C21.2575 56.278125 20.515 55.55625 19.75 54.8125 C18 53 18 53 18 50 C17.34 50 16.68 50 16 50 C15.97113249 45.85418113 15.95324673 41.70838784 15.9375 37.5625 C15.92912109 36.37849609 15.92074219 35.19449219 15.91210938 33.97460938 C15.90888672 32.84990234 15.90566406 31.72519531 15.90234375 30.56640625 C15.89448853 29.00321655 15.89448853 29.00321655 15.88647461 27.40844727 C16 25 16 25 17 24 C19.33297433 23.95907063 21.66705225 23.95758277 24 24 C24 22.68 24 21.36 24 20 C21.36 19.34 18.72 18.68 16 18 C15.67 33.18 15.34 48.36 15 64 C10.05 64 5.1 64 0 64 C0 42.88 0 21.76 0 0 Z " fill="#C0C1C2" transform="translate(661,96)"/>
<path d="M0 0 C10.04414531 6.82506638 16.6410903 16.98270883 19.53515625 28.72265625 C19.973698 32.17200117 20.0600027 35.56047587 20.03515625 39.03515625 C20.03016113 39.95651367 20.02516602 40.87787109 20.02001953 41.82714844 C19.82887361 49.31743201 18.37596749 55.21969543 14.53515625 61.72265625 C14.08914063 62.52703125 13.643125 63.33140625 13.18359375 64.16015625 C7.26987197 73.9392716 -0.89020744 79.73980053 -11.46484375 83.72265625 C-12.398125 84.08875 -13.33140625 84.45484375 -14.29296875 84.83203125 C-25.97252207 88.11151174 -39.39620088 85.9508753 -49.984375 80.40234375 C-52.28406746 78.96846395 -54.36496942 77.4345538 -56.46484375 75.72265625 C-57.15191406 75.1709375 -57.83898438 74.61921875 -58.546875 74.05078125 C-67.37601036 66.15014005 -72.86086135 54.05377854 -73.7109375 42.328125 C-74.18047914 28.2845614 -70.41426269 17.36701708 -60.96484375 6.97265625 C-60.13984375 6.23015625 -59.31484375 5.48765625 -58.46484375 4.72265625 C-57.57796875 3.89765625 -56.69109375 3.07265625 -55.77734375 2.22265625 C-39.70089158 -10.91197091 -17.33219882 -10.14993513 0 0 Z " fill="#050505" transform="translate(1201.46484375,349.27734375)"/>
<path d="M0 0 C8.91 0 17.82 0 27 0 C29.45417919 5.99138713 31.90797208 11.98292975 34.36083984 17.97485352 C35.19265432 20.0065178 36.02467979 22.03809572 36.85693359 24.06958008 C39.22085687 29.83999928 41.58120929 35.61184973 43.93469238 41.38653564 C44.6206219 43.06929124 45.30732818 44.75173052 45.99499512 46.43377686 C46.86224691 48.55727425 47.72495322 50.68254904 48.5859375 52.80859375 C49.05821777 53.97060303 49.53049805 55.1326123 50.01708984 56.32983398 C51 59 51 59 51 61 C51.66 61 52.32 61 53 61 C53.39944824 59.75726318 53.79889648 58.51452637 54.21044922 57.23413086 C56.12916954 51.48364742 58.37051129 45.87631575 60.6328125 40.25390625 C61.07011688 39.16158188 61.50742126 38.06925751 61.95797729 36.9438324 C62.87620652 34.65160254 63.79566996 32.35986673 64.71630859 30.06860352 C66.12999298 26.55007293 67.53992641 23.03005739 68.94921875 19.50976562 C69.84353385 17.27855918 70.73805765 15.04743638 71.6328125 12.81640625 C72.26716721 11.23370689 72.26716721 11.23370689 72.91433716 9.61903381 C73.30499359 8.6471965 73.69565002 7.67535919 74.09814453 6.67407227 C74.44217316 5.8174147 74.78620178 4.96075714 75.14065552 4.07814026 C76 2 76 2 77 0 C85.58 0 94.16 0 103 0 C103 30.03 103 60.06 103 91 C95.74 91 88.48 91 81 91 C80.67 74.17 80.34 57.34 80 40 C75.24195203 53.04210475 75.24195203 53.04210475 70.48730469 66.08544922 C69.88228275 67.74190629 69.27714683 69.39832173 68.671875 71.0546875 C68.36846191 71.8887915 68.06504883 72.72289551 67.75244141 73.58227539 C65.61151668 79.4349305 63.33627405 85.22245743 61 91 C55.06 91 49.12 91 43 91 C36.25848862 74.46421738 30.102723 57.78248824 24 41 C23.67 57.5 23.34 74 23 91 C15.41 91 7.82 91 0 91 C0 60.97 0 30.94 0 0 Z " fill="#060606" transform="translate(894,459)"/>
<path d="M0 0 C56.32994186 0 56.32994186 0 70.48046875 13.32421875 C79.66879667 23.45736188 82.77815282 34.89407182 82.2578125 48.296875 C81.36145312 61.17185523 76.30395283 72.10227496 67 81.125 C48.63825394 96.08490471 20.96361337 91 0 91 C0 60.97 0 30.94 0 0 Z " fill="#080808" transform="translate(81,228)"/>
<path d="M0 0 C23 0 23 0 28.33203125 4.73828125 C30.15454102 7.87744141 30.15454102 7.87744141 31.8125 11.3125 C32.45802552 12.48095818 33.11313477 13.64416648 33.77709961 14.80224609 C35.16835758 17.24113845 36.5187462 19.69713164 37.84960938 22.16943359 C41.47248372 28.76793876 45.83271765 34.90746577 50.0625 41.125 C52.681875 45.04375 55.30125 48.9625 58 53 C58.33 35.51 58.66 18.02 59 0 C66.59 0 74.18 0 82 0 C82 30.03 82 60.06 82 91 C59 91 59 91 53.9296875 87.3190918 C52.3046875 84.87858582 52.3046875 84.87858582 50.875 82.19921875 C50.30265625 81.29307327 49.7303125 80.3869278 49.140625 79.45332336 C47.34551055 76.57263606 45.67486944 73.63937254 44 70.6875 C42.82274661 68.75249109 41.6378891 66.82208716 40.4453125 64.89648438 C38.24855087 61.32508725 36.09908671 57.73385355 34 54.10424805 C30.79821518 48.65668008 27.3924169 43.33094085 24 38 C23.67 55.49 23.34 72.98 23 91 C15.41 91 7.82 91 0 91 C0 60.97 0 30.94 0 0 Z " fill="#090909" transform="translate(1233,343)"/>
<path d="M0 0 C7.59 0 15.18 0 23 0 C29.18513379 7.43605973 29.18513379 7.43605973 30.6953125 11.109375 C33.18212619 16.64112888 36.50266578 21.45645896 39.9375 26.4375 C46.09030543 35.54269311 52.0279923 44.77053356 58 54 C58.33 36.18 58.66 18.36 59 0 C66.59 0 74.18 0 82 0 C82 30.03 82 60.06 82 91 C59 91 59 91 52.29296875 84.30859375 C50.70422363 82.02233887 50.70422363 82.02233887 49.64648438 80.00195312 C49.24002686 79.25051025 48.83356934 78.49906738 48.41479492 77.72485352 C48.0097876 76.97002686 47.60478027 76.2152002 47.1875 75.4375 C46.32490501 73.96996827 45.45447616 72.5070123 44.57617188 71.04882812 C42.84559931 68.15583354 41.15927534 65.24334419 39.50146484 62.30810547 C35.69174077 55.639348 31.32538379 49.34037618 27 43 C25.68 41.02 24.36 39.04 23 37 C22.67 54.82 22.34 72.64 22 91 C14.74 91 7.48 91 0 91 C0 60.97 0 30.94 0 0 Z " fill="#070707" transform="translate(612,343)"/>
<path d="M0 0 C7.59 0 15.18 0 23 0 C29.18513379 7.43605973 29.18513379 7.43605973 30.6953125 11.109375 C33.18212619 16.64112888 36.50266578 21.45645896 39.9375 26.4375 C46.09030543 35.54269311 52.0279923 44.77053356 58 54 C58.33 36.18 58.66 18.36 59 0 C66.59 0 74.18 0 82 0 C82 30.03 82 60.06 82 91 C59 91 59 91 52.29296875 84.30859375 C50.70422363 82.02233887 50.70422363 82.02233887 49.64648438 80.00195312 C49.24002686 79.25051025 48.83356934 78.49906738 48.41479492 77.72485352 C48.0097876 76.97002686 47.60478027 76.2152002 47.1875 75.4375 C46.32490501 73.96996827 45.45447616 72.5070123 44.57617188 71.04882812 C42.84559931 68.15583354 41.15927534 65.24334419 39.50146484 62.30810547 C35.69174077 55.639348 31.32538379 49.34037618 27 43 C25.68 41.02 24.36 39.04 23 37 C22.67 54.82 22.34 72.64 22 91 C14.74 91 7.48 91 0 91 C0 60.97 0 30.94 0 0 Z " fill="#070707" transform="translate(596,228)"/>
<path d="M0 0 C54.36166531 0 54.36166531 0 64.96484375 10.5859375 C70.27678692 16.88686049 71.68943861 22.80959273 71.38671875 31.00390625 C70.43444416 38.38162961 67.46116245 44.89500032 62 50 C58.75400835 51.87978318 55.43347022 53.49327326 52 55 C56.27118826 64.24448965 61.41237479 72.90405952 66.68041992 81.60791016 C67.23705322 82.53394043 67.79368652 83.4599707 68.3671875 84.4140625 C68.87362793 85.2488916 69.38006836 86.0837207 69.90185547 86.94384766 C71 89 71 89 71 91 C62.75 91 54.5 91 46 91 C44.515 88.15375 43.03 85.3075 41.5 82.375 C40.11784585 79.75508573 38.7290291 77.13884938 37.33837891 74.5234375 C36.49449329 72.93233905 35.65500602 71.3388926 34.82177734 69.7421875 C33.79363845 67.77699315 32.74434849 65.82486466 31.6875 63.875 C31.09324219 62.75867188 30.49898437 61.64234375 29.88671875 60.4921875 C27.99789654 57.42460196 27.99789654 57.42460196 23 57 C23 68.22 23 79.44 23 91 C15.41 91 7.82 91 0 91 C0 60.97 0 30.94 0 0 Z " fill="#080808" transform="translate(1280,228)"/>
<path d="M0 0 C22 0 22 0 26.15234375 3.90234375 C27.12801342 5.92233209 28.07321822 7.95711974 29 10 C30.75002083 12.82917481 32.6354824 15.56447796 34.50390625 18.31640625 C35.5049591 19.83591455 36.50296409 21.35743477 37.49804688 22.88085938 C38.25396118 24.03557739 38.25396118 24.03557739 39.02514648 25.21362305 C39.53247314 25.98875244 40.0397998 26.76388184 40.5625 27.5625 C42.09392382 29.89950267 43.62578993 32.23621449 45.15794373 34.57273865 C46.10349737 36.01499705 47.0485751 37.45756764 47.99305725 38.90052795 C51.30218422 43.95215478 54.64986037 48.97479056 58 54 C58.33 36.18 58.66 18.36 59 0 C66.26 0 73.52 0 81 0 C81 30.03 81 60.06 81 91 C59 91 59 91 54.0625 86.1875 C53.00394427 84.14410412 51.99076566 82.07711106 51 80 C45.89161598 71.51828764 40.26302877 63.34728862 34.75 55.125 C33.16008739 52.75351848 31.57177522 50.38097626 29.984375 48.0078125 C29.29053711 46.97285645 28.59669922 45.93790039 27.88183594 44.87158203 C26.18951667 42.28919241 24.58850768 39.6475128 23 37 C22.67 54.82 22.34 72.64 22 91 C14.74 91 7.48 91 0 91 C0 60.97 0 30.94 0 0 Z " fill="#030303" transform="translate(461,228)"/>
<path d="M0 0 C8.42872059 5.80174859 13.01036935 13.10078529 15.125 22.9375 C11.27141528 23.1128878 7.41886561 23.21871462 3.5625 23.3125 C1.93344727 23.38791016 1.93344727 23.38791016 0.27148438 23.46484375 C-8.81283192 23.63051517 -8.81283192 23.63051517 -12.83984375 20.0390625 C-13.36940674 19.49548096 -13.89896973 18.95189941 -14.44458008 18.3918457 C-17.16327915 15.62767257 -19.99257396 15.03007058 -23.7421875 14.63671875 C-31.49517826 14.60651229 -35.88138 15.61562791 -42.5625 19.5 C-48.82970248 26.10597019 -49.46055602 34.09951387 -49.34521484 42.8125 C-49.06225399 49.57934999 -47.86136787 53.80252141 -43.2265625 58.66796875 C-36.74759049 64.62353036 -31.00678611 65.40032953 -22.32421875 65.24609375 C-15.70581632 64.65396035 -11.82788133 62.25090585 -7.4375 57.375 C-5.5971546 55.12346026 -4.81601951 53.76055852 -3.875 50.9375 C-12.785 50.6075 -21.695 50.2775 -30.875 49.9375 C-30.875 44.6575 -30.875 39.3775 -30.875 33.9375 C-15.035 33.9375 0.805 33.9375 17.125 33.9375 C17.125 61.48404255 17.125 61.48404255 6.5 73.375 C-4.38492849 83.22226021 -16.5096198 86.65649854 -30.76953125 86.24609375 C-41.31196439 85.65315877 -49.84615332 81.62112545 -57.875 74.9375 C-58.53371094 74.3909375 -59.19242187 73.844375 -59.87109375 73.28125 C-64.67706839 68.89902796 -67.32966666 63.86707804 -69.875 57.9375 C-70.22949219 57.15632813 -70.58398438 56.37515625 -70.94921875 55.5703125 C-75.09385603 43.78345375 -74.15528284 29.15197067 -68.875 17.9375 C-62.72597259 6.63179543 -53.93736255 -1.13055607 -41.8125 -5.375 C-27.45882856 -9.43579619 -12.91545229 -7.40058974 0 0 Z " fill="#050505" transform="translate(431.875,234.0625)"/>
<path d="M0 0 C6.20761349 5.27647146 11.72440957 11.41239887 14.5 19.1875 C14.5 20.1775 14.5 21.1675 14.5 22.1875 C10.4170404 22.33268182 6.33474359 22.42153347 2.25 22.5 C1.09113281 22.54189453 -0.06773437 22.58378906 -1.26171875 22.62695312 C-9.88646256 22.75158815 -9.88646256 22.75158815 -13.1171875 19.78125 C-13.80167969 18.49734375 -13.80167969 18.49734375 -14.5 17.1875 C-20.90578851 13.14906811 -28.12732296 13.29358419 -35.5 14.1875 C-41.45426247 16.27427423 -45.62261233 20.6446253 -48.5 26.1875 C-51.63787684 34.19792504 -51.81325849 42.71987134 -48.625 50.75 C-47.94540627 52.24258919 -47.23882781 53.72332665 -46.5 55.1875 C-45.99146484 56.28191406 -45.99146484 56.28191406 -45.47265625 57.3984375 C-44.16639598 59.80111704 -43.02672916 60.16315034 -40.5 61.1875 C-39.55125 61.72375 -38.6025 62.26 -37.625 62.8125 C-31.3526588 65.45419878 -23.53899641 65.20203464 -17.02734375 63.56640625 C-11.68453936 61.25016157 -8.42673694 57.11940619 -5.5 52.1875 C-5.17 51.1975 -4.84 50.2075 -4.5 49.1875 C-13.41 49.1875 -22.32 49.1875 -31.5 49.1875 C-31.5 43.9075 -31.5 38.6275 -31.5 33.1875 C-15.66 33.1875 0.18 33.1875 16.5 33.1875 C16.5 60.85085227 16.5 60.85085227 4.6875 73.22265625 C-5.46010576 82.33738071 -18.05735564 86.16363464 -31.53125 85.5703125 C-41.54626659 84.60429712 -49.57150441 81.27992293 -57.5 75.1875 C-58.386875 74.589375 -59.27375 73.99125 -60.1875 73.375 C-68.66749167 65.35338626 -73.24242112 54.3456314 -73.73828125 42.83203125 C-73.95041474 33.60089481 -73.92981333 25.53447763 -69.5 17.1875 C-68.77103516 15.78951172 -68.77103516 15.78951172 -68.02734375 14.36328125 C-61.61167133 3.2458158 -52.56562252 -2.83613501 -40.5 -6.8125 C-26.97201648 -10.23311573 -11.50376666 -8.07475929 0 0 Z " fill="#050505" transform="translate(763.5,234.8125)"/>
<path d="M0 0 C8.58 0 17.16 0 26 0 C33.62674012 20.57503203 41.18897338 41.17334513 48.6519165 61.80841064 C49.46775917 64.06239027 50.28526635 66.3157681 51.10443115 68.56854248 C52.25921144 71.74584247 53.40776653 74.92532474 54.5546875 78.10546875 C54.90402344 79.0631868 55.25335937 80.02090485 55.61328125 81.00764465 C55.92894043 81.88708237 56.24459961 82.76652008 56.56982422 83.67260742 C56.84736542 84.43957443 57.12490662 85.20654144 57.41085815 85.99674988 C58 88 58 88 58 91 C50.41 91 42.82 91 35 91 C34.175 88.73125 33.35 86.4625 32.5 84.125 C32.23896484 83.41230957 31.97792969 82.69961914 31.70898438 81.96533203 C30 77.22222222 30 77.22222222 30 75 C18.78 75 7.56 75 -4 75 C-4.99 78.63 -5.98 82.26 -7 86 C-7.66 87.65 -8.32 89.3 -9 91 C-16.92 91 -24.84 91 -33 91 C-28.07554189 76.9045381 -23.12270274 62.81966026 -18.125 48.75 C-17.77782928 47.77251801 -17.43065857 46.79503601 -17.07296753 45.78793335 C-2.76046527 5.52093053 -2.76046527 5.52093053 0 0 Z " fill="#050505" transform="translate(949,343)"/>
<path d="M0 0 C8.58 0 17.16 0 26 0 C33.62674012 20.57503203 41.18897338 41.17334513 48.6519165 61.80841064 C49.46775917 64.06239027 50.28526635 66.3157681 51.10443115 68.56854248 C52.25921144 71.74584247 53.40776653 74.92532474 54.5546875 78.10546875 C54.90402344 79.0631868 55.25335937 80.02090485 55.61328125 81.00764465 C55.92894043 81.88708237 56.24459961 82.76652008 56.56982422 83.67260742 C56.84736542 84.43957443 57.12490662 85.20654144 57.41085815 85.99674988 C58 88 58 88 58 91 C50.41 91 42.82 91 35 91 C34.175 88.73125 33.35 86.4625 32.5 84.125 C32.23896484 83.41230957 31.97792969 82.69961914 31.70898438 81.96533203 C30 77.22222222 30 77.22222222 30 75 C18.78 75 7.56 75 -4 75 C-4.99 78.63 -5.98 82.26 -7 86 C-7.66 87.65 -8.32 89.3 -9 91 C-16.92 91 -24.84 91 -33 91 C-28.07554189 76.9045381 -23.12270274 62.81966026 -18.125 48.75 C-17.77782928 47.77251801 -17.43065857 46.79503601 -17.07296753 45.78793335 C-2.76046527 5.52093053 -2.76046527 5.52093053 0 0 Z " fill="#050505" transform="translate(846,228)"/>
<path d="M0 0 C7.26 0 14.52 0 22 0 C22 11.88 22 23.76 22 36 C33.22 36 44.44 36 56 36 C56 24.12 56 12.24 56 0 C63.59 0 71.18 0 79 0 C79 30.03 79 60.06 79 91 C71.41 91 63.82 91 56 91 C56 78.79 56 66.58 56 54 C44.78 54 33.56 54 22 54 C22 66.21 22 78.42 22 91 C14.74 91 7.48 91 0 91 C0 60.97 0 30.94 0 0 Z " fill="#070707" transform="translate(448,343)"/>
<path d="M0 0 C8.58 0 17.16 0 26 0 C31.62463272 13.49911854 31.62463272 13.49911854 33.27661133 18.15380859 C33.65082718 19.20305511 34.02504303 20.25230164 34.41059875 21.33334351 C34.79717148 22.42732452 35.1837442 23.52130554 35.58203125 24.6484375 C35.99990402 25.82225983 36.41777679 26.99608215 36.84831238 28.20547485 C38.17274257 31.92757961 39.49281945 35.65120892 40.8125 39.375 C42.54694096 44.25825229 44.28322442 49.14084841 46.01953125 54.0234375 C46.4390506 55.20476257 46.85856995 56.38608765 47.290802 57.60321045 C50.37168456 66.26829101 53.49932441 74.9155639 56.67402649 83.54672241 C56.98228867 84.38804718 57.29055084 85.22937195 57.6081543 86.09619141 C57.8784697 86.83044342 58.1487851 87.56469543 58.42729187 88.32119751 C59 90 59 90 59 91 C51.08 91 43.16 91 35 91 C33.35 86.05 31.7 81.1 30 76 C18.78 76 7.56 76 -4 76 C-5.65 80.95 -7.3 85.9 -9 91 C-16.59 91 -24.18 91 -32 91 C-29.7499512 80.87478039 -29.7499512 80.87478039 -28.09570312 76.35791016 C-27.54372253 74.8379393 -27.54372253 74.8379393 -26.98059082 73.28726196 C-26.58480835 72.21535614 -26.18902588 71.14345032 -25.78125 70.0390625 C-25.36387573 68.89504974 -24.94650146 67.75103699 -24.51647949 66.57235718 C-23.18293364 62.92128117 -21.84155518 59.27313959 -20.5 55.625 C-19.62970259 53.24497654 -18.75990692 50.86476955 -17.890625 48.484375 C-11.97577385 32.30488252 -5.99081188 16.15148742 0 0 Z " fill="#050505" transform="translate(212,343)"/>
<path d="M0 0 C7.59 0 15.18 0 23 0 C23.0093457 1.84674316 23.01869141 3.69348633 23.02832031 5.59619141 C23.06390156 11.71117574 23.11773346 17.82578854 23.18390274 23.94051552 C23.22334168 27.64639634 23.25554734 31.35204084 23.27099609 35.05810547 C23.2861869 38.63753427 23.32067373 42.21631324 23.36830902 45.79545212 C23.38309816 47.15806796 23.39103961 48.5207766 23.39188385 49.88347244 C23.16396561 59.82260095 23.16396561 59.82260095 28 68 C32.8838188 71.2558792 38.28781851 70.44264137 44 70 C48.12951504 68.71842637 49.42491708 67.96637484 51.62141418 64.27536011 C53.0795396 60.81102313 53.39361184 58.45581839 53.43237305 54.71923828 C53.45216721 53.4984256 53.47196136 52.27761292 53.49235535 51.01980591 C53.49874527 49.71647308 53.50513519 48.41314026 53.51171875 47.0703125 C53.52858055 45.71123649 53.5467328 44.35217593 53.56611633 42.99313354 C53.61346024 39.43238149 53.64336991 35.8716921 53.66955566 32.31072998 C53.69944054 28.67056913 53.74594342 25.03062388 53.79101562 21.390625 C53.87687076 14.26052674 53.94275697 7.13039377 54 0 C61.26 0 68.52 0 76 0 C76.09081509 8.02421195 76.16400939 16.04801608 76.20724869 24.07260609 C76.22801431 27.79982092 76.25612611 31.52666219 76.30175781 35.25366211 C76.3456147 38.85877272 76.36921972 42.46352685 76.37950897 46.0688839 C76.38682972 47.435855 76.4011229 48.80280933 76.42292023 50.16962624 C76.60988759 62.39347199 74.63536257 72.87699343 66 82 C56.33062822 90.47299188 45.76170517 93.11937777 33.21484375 92.453125 C23.29047919 91.57607783 14.99422797 87.47094973 8.28125 80.1171875 C1.9576379 72.21267237 -0.13473472 63.8642564 -0.11352539 53.81103516 C-0.11344986 52.61024323 -0.11337433 51.40945129 -0.11329651 50.17227173 C-0.10813522 48.89081268 -0.10297394 47.60935364 -0.09765625 46.2890625 C-0.09578895 44.95242364 -0.09436652 43.61578408 -0.09336853 42.27914429 C-0.08956795 38.77750731 -0.07975891 35.27591244 -0.06866455 31.77429199 C-0.05839732 28.19458587 -0.05385957 24.61487288 -0.04882812 21.03515625 C-0.03813422 14.02341856 -0.02055758 7.01171564 0 0 Z " fill="#080808" transform="translate(280,343)"/>
<path d="M0 0 C7.26 0 14.52 0 22 0 C22.01458252 1.75062744 22.02916504 3.50125488 22.04418945 5.30493164 C22.09597107 11.10853369 22.16129186 16.91189981 22.23571491 22.71524906 C22.28031906 26.23161053 22.31959638 29.7478588 22.34643555 33.2644043 C22.37757643 37.313281 22.43236099 41.36154538 22.48828125 45.41015625 C22.49467117 46.66458023 22.5010611 47.91900421 22.50764465 49.21144104 C22.63549507 56.83755066 22.82947937 62.65032324 28.28125 68.41015625 C31.59130568 70.34577789 33.684941 70.50435267 37.5 70.4375 C38.6034375 70.43621094 39.706875 70.43492187 40.84375 70.43359375 C45.19400333 69.83597231 47.87313039 68.28785098 50.75 65 C53.01660042 61.37343932 53.14399038 58.33094114 53.20532227 54.15161133 C53.22526749 52.9505928 53.24521271 51.74957428 53.26576233 50.51216125 C53.28247482 49.21521835 53.29918732 47.91827545 53.31640625 46.58203125 C53.33698293 45.2410977 53.35797959 43.90017054 53.37937927 42.55924988 C53.43452627 39.03298111 53.48396794 35.50665452 53.53222656 31.98028564 C53.5824955 28.38068507 53.63815339 24.78116827 53.69335938 21.18164062 C53.80085074 14.12116503 53.90181756 7.06061207 54 0 C61.26 0 68.52 0 76 0 C76.11367356 7.98967705 76.20509749 15.97870889 76.25906086 23.96898174 C76.28498118 27.68055836 76.32004903 31.39154564 76.37719727 35.1027832 C76.43215594 38.69495613 76.46155199 42.286568 76.47438622 45.87912941 C76.48790753 47.89354106 76.5268351 49.90773188 76.56648254 51.92179871 C76.56979436 62.97411718 74.18780755 73.97806018 66.30078125 82.21484375 C55.28417579 90.76253254 43.59815893 92.89987816 30 92 C20.67915162 90.49011767 12.6235938 85.88380709 6.71025085 78.49906921 C0.23440599 69.03637286 -0.70794485 59.10800093 -0.48828125 47.94921875 C-0.47892511 46.55533636 -0.4718223 45.16143724 -0.46684265 43.76753235 C-0.44799196 40.14552272 -0.39909075 36.52455821 -0.34332275 32.9029541 C-0.2916478 29.18870167 -0.26922706 25.47427594 -0.24414062 21.75976562 C-0.19094169 14.50598472 -0.10319634 7.25327349 0 0 Z " fill="#050505" transform="translate(1189,228)"/>
<path d="M0 0 C5.16557119 4.69682607 9.62320095 10.41101458 12.15234375 16.95703125 C12.19375396 18.6231834 12.19986357 20.29104216 12.15234375 21.95703125 C8.23623891 22.13129881 4.32112878 22.2378728 0.40234375 22.33203125 C-0.70882813 22.38230469 -1.82 22.43257813 -2.96484375 22.484375 C-6.03457622 22.53985209 -8.82964685 22.52776571 -11.84765625 21.95703125 C-14.4375 19.08203125 -14.4375 19.08203125 -15.84765625 15.95703125 C-21.45459932 11.22227933 -27.05293131 11.29561815 -34.2421875 11.515625 C-39.18875549 12.12121783 -42.37444698 13.37233625 -45.84765625 16.95703125 C-52.23972816 25.23291276 -52.83742489 33.81511627 -51.84765625 43.95703125 C-50.18729361 50.29737977 -46.86902753 56.16254629 -41.14453125 59.5625 C-34.98040841 62.16983632 -27.73918918 62.013475 -21.30078125 60.265625 C-17.57996064 58.59405333 -16.17612169 57.68292173 -14.43359375 53.83203125 C-11.84765625 50.95703125 -11.84765625 50.95703125 -9.18701172 50.47119141 C-5.80611315 50.36539318 -2.47695873 50.43543192 0.90234375 50.58203125 C2.66384766 50.62263672 2.66384766 50.62263672 4.4609375 50.6640625 C7.35992535 50.73476952 10.25520845 50.83341169 13.15234375 50.95703125 C9.16490286 64.0097533 2.2243711 72.77399014 -9.91015625 79.26953125 C-21.84156573 84.68867045 -35.60342068 84.61838956 -47.8828125 80.27734375 C-59.08477561 75.28885425 -67.801402 66.62780658 -72.8828125 55.47265625 C-77.85497375 42.50880264 -77.42299184 27.62524939 -71.84765625 14.95703125 C-65.15488098 2.75051884 -55.0959392 -4.75120702 -42.16015625 -9.35546875 C-27.19828297 -12.41994882 -12.17685264 -9.29979261 0 0 Z " fill="#060606" transform="translate(1162.84765625,237.04296875)"/>
<path d="M0 0 C6.45760258 5.3261423 11.87107281 11.59612498 14.828125 19.5078125 C14.828125 20.8278125 14.828125 22.1478125 14.828125 23.5078125 C10.97499372 23.74163538 7.12369588 23.88271003 3.265625 24.0078125 C2.17958984 24.07484375 1.09355469 24.141875 -0.02539062 24.2109375 C-8.04104462 24.40584702 -8.04104462 24.40584702 -11.37060547 21.76171875 C-13.19921875 19.6015625 -13.19921875 19.6015625 -14.68725586 17.43554688 C-16.36789428 15.25328722 -17.61275907 14.47317953 -20.171875 13.5078125 C-29.93629144 12.54839341 -29.93629144 12.54839341 -39.234375 15.0078125 C-44.33603141 19.34964774 -48.28730423 23.71007841 -49.171875 30.5078125 C-50.2658769 43.19403668 -50.2658769 43.19403668 -45.7578125 54.703125 C-44.97277344 55.59644531 -44.97277344 55.59644531 -44.171875 56.5078125 C-43.64851562 57.12398438 -43.12515625 57.74015625 -42.5859375 58.375 C-38.33012387 62.40780157 -34.45492337 62.95460723 -28.671875 63.1328125 C-22.93230924 62.88152803 -17.57572653 62.49580396 -13.171875 58.5078125 C-12.45837891 56.9609375 -12.45837891 56.9609375 -11.73046875 55.3828125 C-9.171875 52.5078125 -9.171875 52.5078125 -6.60473633 52.02197266 C-3.3585757 51.91625132 -0.16635689 51.9860204 3.078125 52.1328125 C4.76808594 52.17341797 4.76808594 52.17341797 6.4921875 52.21484375 C9.27276737 52.28553646 12.04947859 52.3841621 14.828125 52.5078125 C13.62985775 61.57296475 8.75798428 69.6385942 1.55859375 75.2890625 C-10.22454992 83.43202562 -23.20117201 86.16505977 -37.30078125 84.03515625 C-48.78049274 81.58673758 -57.79135714 75.60947879 -65.171875 66.5078125 C-67.14106898 63.28025553 -68.73215789 60.00013835 -70.171875 56.5078125 C-70.52378906 55.72921875 -70.87570312 54.950625 -71.23828125 54.1484375 C-75.40423893 42.36522666 -74.44402014 27.72340077 -69.171875 16.5078125 C-62.56301697 4.20907965 -52.65421571 -3.73959724 -39.296875 -7.8671875 C-25.7474464 -10.55467747 -11.20185274 -8.25618036 0 0 Z " fill="#060606" transform="translate(893.171875,350.4921875)"/>
<path d="M0 0 C6.3392682 4.32222832 9.3466865 9.56008926 11 17 C11 18.32 11 19.64 11 21 C3.08 21 -4.84 21 -13 21 C-13.99 19.02 -14.98 17.04 -16 15 C-19.122002 12.91866533 -19.93266989 12.7262178 -23.5 12.75 C-24.2734375 12.74484375 -25.046875 12.7396875 -25.84375 12.734375 C-28.29513844 12.87261938 -28.29513844 12.87261938 -31 15 C-31.66503538 17.01636923 -31.66503538 17.01636923 -31.6875 19.3125 C-31.75324219 20.07175781 -31.81898438 20.83101562 -31.88671875 21.61328125 C-30.36679439 25.70435518 -26.7773114 27.13102377 -23 29 C-18.66143718 30.81999932 -14.22529185 32.34466299 -9.77734375 33.87304688 C-0.89359637 37.07352355 6.06594166 41.57152061 11.078125 49.76171875 C13.30534745 55.16933935 12.8123951 62.13149152 11.2421875 67.67578125 C7.56706228 76.28483443 2.26311312 81.31274975 -6.28515625 84.98046875 C-17.20292061 88.76174323 -29.2020623 87.80935203 -40 84 C-46.45313659 80.5089589 -51.84591261 74.91652252 -55.375 68.5 C-56 66 -56 66 -56 59 C-48.41 59 -40.82 59 -33 59 C-32.01 60.98 -31.02 62.96 -30 65 C-27.79120431 67.1949619 -26.61759885 67.91804375 -23.52734375 68.328125 C-22.67269531 68.30234375 -21.81804687 68.2765625 -20.9375 68.25 C-19.65166016 68.22679687 -19.65166016 68.22679687 -18.33984375 68.203125 C-15.84628175 68.07820224 -15.84628175 68.07820224 -13 67 C-12.773125 65.783125 -12.54625 64.56625 -12.3125 63.3125 C-12.12107422 62.28576172 -12.12107422 62.28576172 -11.92578125 61.23828125 C-12.03336449 57.99379711 -12.96539667 56.52290813 -15 54 C-17.35997018 52.75714086 -19.45321058 51.8212799 -21.9375 50.9375 C-22.60410645 50.68347412 -23.27071289 50.42944824 -23.95751953 50.16772461 C-28.05083213 48.62894771 -32.18749138 47.32360298 -36.375 46.0625 C-43.86772859 43.60190003 -49.66238502 39.5499633 -54.0625 32.9375 C-57.31087162 26.35052421 -57.14930362 18.63502051 -55.40625 11.60546875 C-52.21484607 4.11453453 -45.21848208 -1.39187942 -37.875 -4.5 C-25.31990269 -8.48518538 -11.23146748 -6.69947183 0 0 Z " fill="#050505" transform="translate(299,233)"/>
<path d="M0 0 C5.72713891 4.13452357 10.44405461 8.2875811 13 15 C13 17.64 13 20.28 13 23 C5.41 23 -2.18 23 -10 23 C-10.99 21.02 -11.98 19.04 -13 17 C-17.04686536 14.30208976 -20.25450886 14.46891615 -25 15 C-27.65844217 15.84520133 -27.65844217 15.84520133 -29 18 C-29.33543224 21.75684104 -29.19334591 24.41996227 -28 28 C-25.72721969 29.14581254 -25.72721969 29.14581254 -23 30 C-22.12754639 30.31614258 -21.25509277 30.63228516 -20.35620117 30.95800781 C-19.42783447 31.28639648 -18.49946777 31.61478516 -17.54296875 31.953125 C-16.51236328 32.32566406 -15.48175781 32.69820313 -14.41992188 33.08203125 C-12.28030947 33.85513591 -10.13708389 34.61831939 -7.99023438 35.37109375 C1.72736766 38.91907805 8.49092866 43.15209755 14 52 C16.43233853 59.29701558 15.4629821 66.79676236 12.31640625 73.71484375 C8.12115008 80.99741009 1.71399626 84.99873457 -6 88 C-17.85412179 91.16513116 -30.63794165 89.6780746 -41.234375 83.75 C-46.69045669 80.13996098 -50.70284154 75.14315861 -53 69 C-53 66.36 -53 63.72 -53 61 C-45.41 61 -37.82 61 -30 61 C-29.01 63.31 -28.02 65.62 -27 68 C-22.94064004 70.70623997 -19.75915363 70.51766232 -15 70 C-11.94350714 69.15163476 -11.94350714 69.15163476 -10 67 C-8.66339855 63.64407137 -8.66339855 63.64407137 -9 60 C-13.7267108 52.99142882 -22.86607519 51.31240495 -30.5625 49.125 C-40.00961099 46.27640116 -46.74239724 41.6061025 -52.09765625 33.296875 C-54.56773548 27.00940061 -54.10141698 18.28331145 -51.97265625 11.9375 C-48.61855607 5.84251463 -44.14518142 2.12939491 -38 -1 C-37.34644531 -1.33902344 -36.69289063 -1.67804688 -36.01953125 -2.02734375 C-25.37618856 -6.49466554 -10.0533419 -5.40115074 0 0 Z " fill="#050505" transform="translate(720,462)"/>
<path d="M0 0 C4.60865679 3.84054732 9.13124018 8.21246073 10.625 14.1875 C10.625 16.4975 10.625 18.8075 10.625 21.1875 C2.705 21.1875 -5.215 21.1875 -13.375 21.1875 C-14.035 18.8775 -14.695 16.5675 -15.375 14.1875 C-20.10615816 13.00471046 -25.91641458 11.8813765 -30.375 14.25 C-31.98356522 17.36659511 -31.79713381 19.75012469 -31.375 23.1875 C-28.399187 27.00414468 -24.79700173 28.50006446 -20.375 30.125 C-19.02979618 30.64413823 -17.68474602 31.16367481 -16.33984375 31.68359375 C-15.01852099 32.18566452 -13.69691855 32.68700002 -12.375 33.1875 C6.8502187 40.51669693 6.8502187 40.51669693 10.99609375 48.8828125 C13.03439565 56.35236603 12.79253202 64.69098963 9.5625 71.75 C5.47886781 78.6669388 -0.78535232 83.54467626 -8.375 86.1875 C-21.72664274 88.56042229 -34.22457394 88.2645103 -45.6875 80.5 C-53.31601951 74.2527762 -55.27644686 69.07447823 -56.375 59.1875 C-48.455 59.1875 -40.535 59.1875 -32.375 59.1875 C-31.055 61.8275 -29.735 64.4675 -28.375 67.1875 C-24.05556611 69.34721694 -18.76946361 68.64283506 -14.3125 67.1875 C-11.98542329 65.16861292 -11.98542329 65.16861292 -11.75 61.25 C-11.9630627 58.01854909 -12.2125235 57.36431266 -14.5 54.875 C-19.42101545 51.98657789 -24.12327645 49.84376788 -29.625 48.3125 C-39.50429851 45.31945512 -47.47420985 42.03868523 -53.375 33.1875 C-56.57228271 26.83570759 -56.39309452 18.78483306 -54.875 11.9296875 C-51.6924772 3.8648854 -45.99988135 -0.38195067 -38.375 -3.8125 C-25.53572232 -8.46120399 -11.8160393 -6.34565073 0 0 Z " fill="#050505" transform="translate(556.375,463.8125)"/>
<path d="M0 0 C4.60865679 3.84054732 9.13124018 8.21246073 10.625 14.1875 C10.625 16.4975 10.625 18.8075 10.625 21.1875 C2.705 21.1875 -5.215 21.1875 -13.375 21.1875 C-14.035 18.8775 -14.695 16.5675 -15.375 14.1875 C-20.10615816 13.00471046 -25.91641458 11.8813765 -30.375 14.25 C-31.98356522 17.36659511 -31.79713381 19.75012469 -31.375 23.1875 C-28.399187 27.00414468 -24.79700173 28.50006446 -20.375 30.125 C-19.02979618 30.64413823 -17.68474602 31.16367481 -16.33984375 31.68359375 C-15.01852099 32.18566452 -13.69691855 32.68700002 -12.375 33.1875 C6.8502187 40.51669693 6.8502187 40.51669693 10.99609375 48.8828125 C13.03439565 56.35236603 12.79253202 64.69098963 9.5625 71.75 C5.47886781 78.6669388 -0.78535232 83.54467626 -8.375 86.1875 C-21.72664274 88.56042229 -34.22457394 88.2645103 -45.6875 80.5 C-53.31601951 74.2527762 -55.27644686 69.07447823 -56.375 59.1875 C-48.455 59.1875 -40.535 59.1875 -32.375 59.1875 C-31.055 61.8275 -29.735 64.4675 -28.375 67.1875 C-24.05556611 69.34721694 -18.76946361 68.64283506 -14.3125 67.1875 C-11.98542329 65.16861292 -11.98542329 65.16861292 -11.75 61.25 C-11.9630627 58.01854909 -12.2125235 57.36431266 -14.5 54.875 C-19.42101545 51.98657789 -24.12327645 49.84376788 -29.625 48.3125 C-39.50429851 45.31945512 -47.47420985 42.03868523 -53.375 33.1875 C-56.57228271 26.83570759 -56.39309452 18.78483306 -54.875 11.9296875 C-51.6924772 3.8648854 -45.99988135 -0.38195067 -38.375 -3.8125 C-25.53572232 -8.46120399 -11.8160393 -6.34565073 0 0 Z " fill="#050505" transform="translate(995.375,232.8125)"/>
<path d="M0 0 C18.48 0 36.96 0 56 0 C56 5.94 56 11.88 56 18 C45.11 18 34.22 18 23 18 C23 23.94 23 29.88 23 36 C32.57 36 42.14 36 52 36 C52 41.94 52 47.88 52 54 C42.43 54 32.86 54 23 54 C23 60.27 23 66.54 23 73 C33.89 73 44.78 73 56 73 C56 78.94 56 84.88 56 91 C37.52 91 19.04 91 0 91 C0 60.97 0 30.94 0 0 Z " fill="#090909" transform="translate(542,343)"/>
<path d="M0 0 C18.48 0 36.96 0 56 0 C56 5.94 56 11.88 56 18 C45.11 18 34.22 18 23 18 C23 23.94 23 29.88 23 36 C32.57 36 42.14 36 52 36 C52 41.94 52 47.88 52 54 C42.43 54 32.86 54 23 54 C23 60.27 23 66.54 23 73 C33.89 73 44.78 73 56 73 C56 78.94 56 84.88 56 91 C37.52 91 19.04 91 0 91 C0 60.97 0 30.94 0 0 Z " fill="#090909" transform="translate(1021,228)"/>
<path d="M0 0 C18.48 0 36.96 0 56 0 C56 5.94 56 11.88 56 18 C45.11 18 34.22 18 23 18 C23 23.94 23 29.88 23 36 C32.57 36 42.14 36 52 36 C52 41.94 52 47.88 52 54 C42.43 54 32.86 54 23 54 C23 60.27 23 66.54 23 73 C33.89 73 44.78 73 56 73 C56 78.94 56 84.88 56 91 C37.52 91 19.04 91 0 91 C0 60.97 0 30.94 0 0 Z " fill="#090909" transform="translate(175,228)"/>
<path d="M0 0 C18.15 0 36.3 0 55 0 C55 5.94 55 11.88 55 18 C44.11 18 33.22 18 22 18 C22 23.94 22 29.88 22 36 C31.9 36 41.8 36 52 36 C52 41.61 52 47.22 52 53 C42.1 53 32.2 53 22 53 C22 59.6 22 66.2 22 73 C32.89 73 43.78 73 55 73 C55 78.94 55 84.88 55 91 C36.85 91 18.7 91 0 91 C0 60.97 0 30.94 0 0 Z " fill="#050505" transform="translate(825,459)"/>
<path d="M0 0 C18.15 0 36.3 0 55 0 C55 5.94 55 11.88 55 18 C44.11 18 33.22 18 22 18 C22 23.94 22 29.88 22 36 C31.9 36 41.8 36 52 36 C52 41.61 52 47.22 52 53 C42.1 53 32.2 53 22 53 C22 59.6 22 66.2 22 73 C32.89 73 43.78 73 55 73 C55 78.94 55 84.88 55 91 C36.85 91 18.7 91 0 91 C0 60.97 0 30.94 0 0 Z " fill="#050505" transform="translate(1365,228)"/>
<path d="M0 0 C8.25 0 16.5 0 25 0 C31.18213387 12.24978378 37.13736993 24.59438525 43 37 C43.4439209 36.0212793 43.8878418 35.04255859 44.34521484 34.03417969 C45.99564956 30.395972 47.64708856 26.75822092 49.29882812 23.12060547 C50.01296867 21.54748735 50.72683842 19.97424627 51.44042969 18.40087891 C52.46738304 16.13671853 53.49531596 13.87300511 54.5234375 11.609375 C54.84122162 10.90818542 55.15900574 10.20699585 55.48641968 9.48455811 C56.93783743 6.29129297 58.43090889 3.13818222 60 0 C68.25 0 76.5 0 85 0 C83.66872336 3.3281916 82.35925468 6.38966992 80.7409668 9.55566406 C80.29677902 10.42717102 79.85259125 11.29867798 79.39494324 12.19659424 C78.91785416 13.12687439 78.44076508 14.05715454 77.94921875 15.015625 C77.45339798 15.98602722 76.95757721 16.95642944 76.44673157 17.95623779 C75.39792184 20.0076636 74.34802536 22.05853411 73.29711914 24.10888672 C71.70108708 27.22348531 70.10906683 30.34010913 68.51757812 33.45703125 C67.49503169 35.45585197 66.47225264 37.45455372 65.44921875 39.453125 C64.97820236 40.37530823 64.50718597 41.29749146 64.02189636 42.24761963 C63.56825211 43.13173523 63.11460785 44.01585083 62.6472168 44.92675781 C62.21031021 45.78048477 61.77340363 46.63421173 61.32325745 47.5138092 C60.44798731 49.15830293 59.53162765 50.78163636 58.57408142 52.37962341 C55.51509211 57.48465986 54.36548099 60.90873178 54.29296875 66.87890625 C54.27784744 67.57644516 54.26272614 68.27398407 54.24714661 68.99266052 C54.20475037 71.1829482 54.19548009 73.37184548 54.1875 75.5625 C54.16431774 77.06318678 54.13894474 78.5638414 54.11132812 80.06445312 C54.0448924 83.71036516 54.02344937 87.35255691 54 91 C46.41 91 38.82 91 31 91 C31.29197266 88.31810547 31.29197266 88.31810547 31.58984375 85.58203125 C33.47738891 54.61642104 16.61857757 29.75955619 1.11376953 4.07324219 C0 2 0 2 0 0 Z " fill="#070707" transform="translate(575,459)"/>
<path d="M0 0 C23.43 0 46.86 0 71 0 C71 5.94 71 11.88 71 18 C63.08 18 55.16 18 47 18 C47 42.09 47 66.18 47 91 C39.74 91 32.48 91 25 91 C25 66.91 25 42.82 25 18 C16.75 18 8.5 18 0 18 C0 12.06 0 6.12 0 0 Z " fill="#070707" transform="translate(743,459)"/>
<path d="M0 0 C23.43 0 46.86 0 71 0 C71 5.94 71 11.88 71 18 C63.08 18 55.16 18 47 18 C47 42.09 47 66.18 47 91 C39.74 91 32.48 91 25 91 C25 66.91 25 42.82 25 18 C16.75 18 8.5 18 0 18 C0 12.06 0 6.12 0 0 Z " fill="#070707" transform="translate(1012,343)"/>
<path d="M0 0 C23.43 0 46.86 0 71 0 C71 5.94 71 11.88 71 18 C63.08 18 55.16 18 47 18 C47 42.09 47 66.18 47 91 C39.74 91 32.48 91 25 91 C25 66.91 25 42.82 25 18 C16.75 18 8.5 18 0 18 C0 12.06 0 6.12 0 0 Z " fill="#070707" transform="translate(704,343)"/>
<path d="M0 0 C23.1 0 46.2 0 70 0 C70 5.94 70 11.88 70 18 C62.08 18 54.16 18 46 18 C46 42.09 46 66.18 46 91 C38.74 91 31.48 91 24 91 C24 66.91 24 42.82 24 18 C16.08 18 8.16 18 0 18 C0 12.06 0 6.12 0 0 Z " fill="#040404" transform="translate(367,343)"/>
<path d="M0 0 C31 0 31 0 40 7 C42.69379947 12.22433837 43.46494329 16.07197304 43 22 C42.505 23.485 42.505 23.485 42 25 C53.55 25 65.1 25 77 25 C77 29.62 77 34.24 77 39 C71.06 39 65.12 39 59 39 C59.45472251 45.34648701 59.45472251 45.34648701 61.11328125 47.89453125 C65.58289604 50.51337387 72.03524626 49.772259 77 50 C77 54.62 77 59.24 77 64 C57.37492776 64.80284386 57.37492776 64.80284386 52 60 C45.70244844 53.07547981 44.88050479 48.20113123 45 39 C41.04 39 37.08 39 33 39 C33.88042969 40.14597656 34.76085937 41.29195312 35.66796875 42.47265625 C36.8412062 44.00255788 38.01437989 45.5325084 39.1875 47.0625 C39.76564453 47.81466797 40.34378906 48.56683594 40.93945312 49.34179688 C51 62.47166314 51 62.47166314 51 64 C35.91259813 65.92290416 35.91259813 65.92290416 31.26269531 62.85302734 C27.78854228 59.39614147 25.46326902 55.20204715 23 51 C21.35623486 48.95693969 19.6678692 46.96641106 17.9609375 44.9765625 C16.52936966 42.03195548 16.94257904 39.22817827 17 36 C17.68460297 35.98969254 18.36920593 35.97938507 19.07455444 35.96876526 C26.17936045 35.8608532 33.28403569 35.74624306 40.38867188 35.62768555 C43.04261548 35.58428752 45.6965879 35.54261612 48.35058594 35.50268555 C52.15829158 35.44510075 55.96585155 35.3813725 59.7734375 35.31640625 C60.96617279 35.29969376 62.15890808 35.28298126 63.38778687 35.26576233 C64.48877716 35.24581711 65.58976746 35.22587189 66.72412109 35.20532227 C67.69674896 35.18977798 68.66937683 35.1742337 69.67147827 35.15821838 C72.02390474 35.14869349 72.02390474 35.14869349 74 34 C74 32.35 74 30.7 74 29 C55.52 28.67 37.04 28.34 18 28 C18 27.01 18 26.02 18 25 C21.96 24.505 21.96 24.505 26 24 C26.33 21.69 26.66 19.38 27 17 C21.06 16.01 21.06 16.01 15 15 C15 31.17 15 47.34 15 64 C10.05 64 5.1 64 0 64 C0 42.88 0 21.76 0 0 Z " fill="#030303" transform="translate(661,96)"/>
<path d="M0 0 C27 0 27 0 36 6 C38.96439494 10.04235674 39.48929785 13.68168973 39.390625 18.57421875 C38.93761016 21.38744089 37.92920991 23.50442041 36.6875 26.0625 C35.49612519 28.52267256 35.49612519 28.52267256 35 31 C35.94818391 33.30273235 37.22201201 34.96337192 38.73046875 36.9375 C41.08410325 40.76125082 40.73269621 44.69284188 40 49 C38.15274799 54.91327039 35.05391322 58.52543466 30 62 C26.70731805 63.12595599 23.60172152 63.11531491 20.140625 63.09765625 C19.02558594 63.09443359 17.91054688 63.09121094 16.76171875 63.08789062 C15.60285156 63.07951172 14.44398438 63.07113281 13.25 63.0625 C12.07566406 63.05798828 10.90132812 63.05347656 9.69140625 63.04882812 C6.79421928 63.03705094 3.89713546 63.02060326 1 63 C3.74796023 57.21970206 7.8766088 52.81824548 13 49 C16.75487713 47.97767976 20.1370994 47.93690362 24 48 C25.96822886 46.03177114 25.66248381 42.65191291 26 40 C21.71 39.34 17.42 38.68 13 38 C13.1546875 40.10375 13.1546875 40.10375 13.3125 42.25 C13.30557722 46.69442278 13.30557722 46.69442278 10.875 49.125 C9.451875 50.053125 9.451875 50.053125 8 51 C6.37424583 52.82052667 4.85213079 54.70022624 3.33203125 56.609375 C2.67267578 57.29773438 2.67267578 57.29773438 2 58 C1.34 58 0.68 58 0 58 C0 38.86 0 19.72 0 0 Z " fill="#030303" transform="translate(741,97)"/>
<path d="M0 0 C7.59 0 15.18 0 23 0 C23 30.03 23 60.06 23 91 C15.41 91 7.82 91 0 91 C0 60.97 0 30.94 0 0 Z " fill="#0C0C0C" transform="translate(558,228)"/>
<path d="M0 0 C7.59 0 15.18 0 23 0 C23 30.03 23 60.06 23 91 C15.41 91 7.82 91 0 91 C0 60.97 0 30.94 0 0 Z " fill="#0C0C0C" transform="translate(324,228)"/>
<path d="M0 0 C5.97073168 3.07747331 10.35393649 8.09116027 13.125 14.1875 C15.69548338 22.36485025 15.1518131 31.5196906 11.58203125 39.27734375 C7.79610305 45.31149823 2.00016446 49.53702888 -4.8125 51.5 C-12.81590946 52.59923371 -19.22994489 51.26111254 -25.8125 46.5 C-32.57904418 39.92958753 -33.86588827 32.72549341 -34.25 23.625 C-34.11891726 15.97304529 -32.29763184 10.31062252 -27.09765625 4.625 C-19.49402264 -2.29646954 -9.65012366 -3.74087127 0 0 Z " fill="#F3F3F3" transform="translate(1184.8125,363.5)"/>
<path d="M0 0 C7.26 0 14.52 0 22 0 C22 30.03 22 60.06 22 91 C14.74 91 7.48 91 0 91 C0 60.97 0 30.94 0 0 Z " fill="#040404" transform="translate(1094,343)"/>
<path d="M0 0 C7.26 0 14.52 0 22 0 C22 30.03 22 60.06 22 91 C14.74 91 7.48 91 0 91 C0 60.97 0 30.94 0 0 Z " fill="#040404" transform="translate(786,343)"/>
<path d="M0 0 C23.23963134 0 23.23963134 0 29 5 C36.39374421 13.58529802 36.66461027 22.13922095 36.17480469 33.04345703 C35.65954142 38.81066349 32.86338343 42.41234711 28.8125 46.3125 C19.79546031 53.26471338 11.82400063 52 0 52 C0 34.84 0 17.68 0 0 Z " fill="#F5F5F5" transform="translate(104,248)"/>
<path d="M0 0 C1.4370809 -0.05422947 2.87475462 -0.09289723 4.3125 -0.125 C5.11300781 -0.14820312 5.91351562 -0.17140625 6.73828125 -0.1953125 C9 0 9 0 12 2 C12.25 5.5625 12.25 5.5625 12 9 C11 10 11 10 9.15234375 10.09765625 C7.1015625 10.06510417 5.05078125 10.03255208 3 10 C3 10.99 3 11.98 3 13 C3.69935165 12.99777939 4.39870331 12.99555878 5.11924744 12.99327087 C11.69704921 12.9732672 18.27484254 12.95802548 24.85266781 12.94818783 C28.23471813 12.94296025 31.6167434 12.93586489 34.9987793 12.92456055 C38.88329777 12.91165733 42.76780597 12.90677076 46.65234375 12.90234375 C47.87211411 12.89718246 49.09188446 12.89202118 50.34861755 12.88670349 C52.03024742 12.88659019 52.03024742 12.88659019 53.74584961 12.88647461 C54.73846298 12.884254 55.73107635 12.88203339 56.75376892 12.87974548 C59 13 59 13 60 14 C60.25 16.4375 60.25 16.4375 60 19 C56.63352075 21.2443195 55.54377354 21.2450516 51.6105957 21.22705078 C50.50968094 21.22689972 49.40876617 21.22674866 48.27449036 21.22659302 C46.49312935 21.21110916 46.49312935 21.21110916 44.67578125 21.1953125 C43.45924362 21.1924826 42.24270599 21.18965271 40.98930359 21.18673706 C37.09693642 21.17552603 33.20479784 21.15041948 29.3125 21.125 C26.67643561 21.11497141 24.04036762 21.10584535 21.40429688 21.09765625 C14.93611968 21.07558366 8.46807617 21.04209688 2 21 C2.64714307 26.78781073 4.05300679 30.13358761 7.75 34.5625 C8.39582031 35.36977539 8.39582031 35.36977539 9.0546875 36.19335938 C10.81513506 38.38337723 12.60435271 40.54291762 14.44335938 42.66748047 C18 46.80226331 18 46.80226331 18 49 C26.415 48.505 26.415 48.505 35 48 C32.73229072 44.8935079 30.46099334 41.78975445 28.1875 38.6875 C27.22360352 37.36588867 27.22360352 37.36588867 26.24023438 36.01757812 C25.61826172 35.17001953 24.99628906 34.32246094 24.35546875 33.44921875 C23.78465576 32.66893311 23.21384277 31.88864746 22.62573242 31.0847168 C21.07301874 28.9937096 21.07301874 28.9937096 19.2902832 27.34692383 C18 26 18 26 18 24 C21.96 24 25.92 24 30 24 C30.07476563 24.845625 30.14953125 25.69125 30.2265625 26.5625 C31.07351359 33.86952898 32.0838113 40.1278446 38 45 C43.36694365 47.84328156 47.91966838 48.50701662 53.9375 48.6875 C54.71673828 48.72166016 55.49597656 48.75582031 56.29882812 48.79101562 C58.19874393 48.8726071 60.09934403 48.93799885 62 49 C58.57807951 51.0853453 55.96236016 51.2234875 51.9921875 51.16015625 C50.84105469 51.14919922 49.68992187 51.13824219 48.50390625 51.12695312 C47.30636719 51.10568359 46.10882812 51.08441406 44.875 51.0625 C42.49745504 51.02817181 40.11984512 50.99800726 37.7421875 50.97265625 C36.6888623 50.95468994 35.63553711 50.93672363 34.55029297 50.91821289 C32.00788418 50.82176019 32.00788418 50.82176019 30 52 C27.52443304 52.17682621 25.10250105 52.27730822 22.625 52.3125 C21.95210937 52.34150391 21.27921875 52.37050781 20.5859375 52.40039062 C17.18357381 52.44392481 15.36715194 52.28603698 12.6484375 50.16796875 C10.63911645 47.52537827 8.84121599 44.76182398 7 42 C6.2575 41.278125 5.515 40.55625 4.75 39.8125 C3 38 3 38 3 35 C2.34 35 1.68 35 1 35 C0.97113249 30.85418113 0.95324673 26.70838784 0.9375 22.5625 C0.92912109 21.37849609 0.92074219 20.19449219 0.91210938 18.97460938 C0.90888672 17.84990234 0.90566406 16.72519531 0.90234375 15.56640625 C0.89710693 14.52427979 0.89187012 13.48215332 0.88647461 12.40844727 C1 10 1 10 2 9 C4.33297433 8.95907063 6.66705225 8.95758277 9 9 C9 7.68 9 6.36 9 5 C6.03 4.01 3.06 3.02 0 2 C0 1.34 0 0.68 0 0 Z " fill="#8A8B8B" transform="translate(676,111)"/>
<path d="M0 0 C4.5478125 -0.12375 4.5478125 -0.12375 9.1875 -0.25 C10.60712036 -0.30462402 10.60712036 -0.30462402 12.05541992 -0.36035156 C16.21574001 -0.41511005 18.4337676 -0.35090458 22.05078125 1.890625 C25.4890337 5.61137916 25.32840281 8.6115517 25.29296875 13.515625 C24.88537873 16.97198834 23.53723498 18.68663869 21 21 C18.65147472 22.17426264 17.26225935 22.11508173 14.6484375 22.09765625 C13.88192871 22.09515869 13.11541992 22.09266113 12.32568359 22.09008789 C11.35195801 22.08098389 10.37823242 22.07187988 9.375 22.0625 C6.28125 22.041875 3.1875 22.02125 0 22 C0 14.74 0 7.48 0 0 Z " fill="#EDEDED" transform="translate(1303,247)"/>
<path d="M0 0 C1.29550781 0.00644531 2.59101562 0.01289062 3.92578125 0.01953125 C5.28906519 0.03624057 6.65234644 0.05317044 8.015625 0.0703125 C9.39452485 0.0803491 10.77343165 0.08947377 12.15234375 0.09765625 C15.52361382 0.12123157 18.89453136 0.1541398 22.265625 0.1953125 C22.265625 0.5253125 22.265625 0.8553125 22.265625 1.1953125 C13.355625 1.1953125 4.445625 1.1953125 -4.734375 1.1953125 C-4.734375 22.3153125 -4.734375 43.4353125 -4.734375 65.1953125 C0.215625 65.1953125 5.165625 65.1953125 10.265625 65.1953125 C6.265625 70.1953125 6.265625 70.1953125 2.59375 70.68359375 C1.2335134 70.6505783 -0.12629838 70.59124821 -1.484375 70.5078125 C-2.18175781 70.48525391 -2.87914062 70.46269531 -3.59765625 70.43945312 C-5.31082435 70.38078298 -7.02288123 70.29110506 -8.734375 70.1953125 C-10.88212244 66.69979587 -10.97741634 63.92781206 -10.96142578 59.86621094 C-10.96127472 58.58518494 -10.96112366 57.30415894 -10.96096802 55.98431396 C-10.95075551 54.59110356 -10.94032353 53.19789474 -10.9296875 51.8046875 C-10.92595564 50.37551064 -10.92310948 48.94633122 -10.92111206 47.51715088 C-10.91348919 43.76225679 -10.89385239 40.00751831 -10.8717041 36.25268555 C-10.85121659 32.41847844 -10.84210414 28.58424611 -10.83203125 24.75 C-10.81060512 17.23170002 -10.77648556 9.7135281 -10.734375 2.1953125 C-6.97499619 0.14237925 -4.31073552 -0.03781347 0 0 Z " fill="#BBBCBD" transform="translate(665.734375,94.8046875)"/>
<path d="M0 0 C0.79921875 0.00644531 1.5984375 0.01289062 2.421875 0.01953125 C3.246875 0.03628906 4.071875 0.05304688 4.921875 0.0703125 C5.76234375 0.07933594 6.6028125 0.08835937 7.46875 0.09765625 C9.53658104 0.12115433 11.60426495 0.15702342 13.671875 0.1953125 C13.671875 4.8153125 13.671875 9.4353125 13.671875 14.1953125 C8.721875 14.5253125 3.771875 14.8553125 -1.328125 15.1953125 C-2.318125 17.5053125 -3.308125 19.8153125 -4.328125 22.1953125 C-8.948125 22.1953125 -13.568125 22.1953125 -18.328125 22.1953125 C-18.64137801 12.95434864 -18.64137801 12.95434864 -16.328125 9.1953125 C-11.58607168 4.41147898 -7.05042512 -0.10072036 0 0 Z " fill="#060706" transform="translate(724.328125,95.8046875)"/>
<path d="M0 0 C9.24 0 18.48 0 28 0 C28 0.33 28 0.66 28 1 C19.75 1 11.5 1 3 1 C3.33 20.47 3.66 39.94 4 60 C3.34 60 2.68 60 2 60 C1.67 53.73 1.34 47.46 1 41 C-4.94 40.67 -10.88 40.34 -17 40 C-17 41.98 -17 43.96 -17 46 C-17.33 46 -17.66 46 -18 46 C-18 43.69 -18 41.38 -18 39 C-12.06 39 -6.12 39 0 39 C0 34.38 0 29.76 0 25 C-11.55 25 -23.1 25 -35 25 C-35 21.04 -35 17.08 -35 13 C-33.68 12.67 -32.36 12.34 -31 12 C-31.33 15.3 -31.66 18.6 -32 22 C-27.38 22 -22.76 22 -18 22 C-17.67 20.35 -17.34 18.7 -17 17 C-16.34 16.01 -15.68 15.02 -15 14 C-12.37302936 13.77862607 -9.99106036 13.71837975 -7.375 13.8125 C-6.66859375 13.82603516 -5.9621875 13.83957031 -5.234375 13.85351562 C-3.48925872 13.8888896 -1.74453392 13.94269779 0 14 C0 9.38 0 4.76 0 0 Z " fill="#6C6C6C" transform="translate(738,96)"/>
<path d="M0 0 C2 1 2 1 3.14501953 3.83569336 C3.55349121 5.07456299 3.96196289 6.31343262 4.3828125 7.58984375 C4.60194305 8.2495668 4.82107361 8.90928986 5.04684448 9.58900452 C5.50920133 10.98582745 5.96793656 12.38385355 6.42333984 13.78295898 C7.12181386 15.92771653 7.83137753 18.06854754 8.54296875 20.20898438 C12 30.68896648 12 30.68896648 12 33 C4.74 33 -2.52 33 -10 33 C-7.75 22.875 -7.75 22.875 -6.0546875 17.87109375 C-5.70019531 16.81728516 -5.34570312 15.76347656 -4.98046875 14.67773438 C-4.43326172 13.07381836 -4.43326172 13.07381836 -3.875 11.4375 C-3.50246094 10.33341797 -3.12992188 9.22933594 -2.74609375 8.09179688 C-1.83484757 5.39310627 -0.91940476 2.69591967 0 0 Z " fill="#E1E1E1" transform="translate(961,368)"/>
<path d="M0 0 C2 1 2 1 3.14501953 3.83569336 C3.55349121 5.07456299 3.96196289 6.31343262 4.3828125 7.58984375 C4.60194305 8.2495668 4.82107361 8.90928986 5.04684448 9.58900452 C5.50920133 10.98582745 5.96793656 12.38385355 6.42333984 13.78295898 C7.12181386 15.92771653 7.83137753 18.06854754 8.54296875 20.20898438 C12 30.68896648 12 30.68896648 12 33 C4.74 33 -2.52 33 -10 33 C-7.75 22.875 -7.75 22.875 -6.0546875 17.87109375 C-5.70019531 16.81728516 -5.34570312 15.76347656 -4.98046875 14.67773438 C-4.43326172 13.07381836 -4.43326172 13.07381836 -3.875 11.4375 C-3.50246094 10.33341797 -3.12992188 9.22933594 -2.74609375 8.09179688 C-1.83484757 5.39310627 -0.91940476 2.69591967 0 0 Z " fill="#E1E1E1" transform="translate(858,253)"/>
<path d="M0 0 C0.66 0 1.32 0 2 0 C2.25523437 0.90878906 2.25523437 0.90878906 2.515625 1.8359375 C4.07034277 7.2112915 5.89327765 12.36380012 8.015625 17.5390625 C12 27.5 12 27.5 12 32 C4.74 32 -2.52 32 -10 32 C-7.24573403 21.14495177 -3.59707613 10.59934496 0 0 Z " fill="#E3E3E3" transform="translate(224,369)"/>
<path d="M0 0 C6.75 1.875 6.75 1.875 9 3 C9 4.32 9 5.64 9 7 C6.69 7.33 4.38 7.66 2 8 C1.67 16.25 1.34 24.5 1 33 C1.66 33 2.32 33 3 33 C3.268125 33.969375 3.53625 34.93875 3.8125 35.9375 C4.204375 36.948125 4.59625 37.95875 5 39 C5.99 39.33 6.98 39.66 8 40 C12 45.37142857 12 45.37142857 12 48 C15.57693822 49.19231274 18.84182553 49.1461202 22.5625 49.125 C23.24763672 49.12886719 23.93277344 49.13273437 24.63867188 49.13671875 C28.44562188 49.18722618 28.44562188 49.18722618 32 48 C35.03336073 47.79777595 37.28185802 47.65115639 40.04858398 48.99511719 C44.47338124 50.5016492 48.76750945 50.28504515 53.41015625 50.265625 C54.41461288 50.26753845 55.41906952 50.2694519 56.45396423 50.27142334 C58.57290905 50.27278179 60.69186228 50.26910913 62.81079102 50.26074219 C66.05438905 50.25002679 69.29743465 50.26065491 72.54101562 50.2734375 C74.60156372 50.27211606 76.66211148 50.269554 78.72265625 50.265625 C80.1774514 50.27169769 80.1774514 50.27169769 81.66163635 50.27789307 C82.56615036 50.27158875 83.47066437 50.26528442 84.40258789 50.25878906 C85.59242027 50.25640228 85.59242027 50.25640228 86.80628967 50.25396729 C90.57011651 49.81822658 92.52112741 48.57155761 94.9375 45.6875 C95.618125 44.800625 96.29875 43.91375 97 43 C98.66666667 41.33333333 100.33333333 39.66666667 102 38 C102.66 37.01 103.32 36.02 104 35 C104.6796875 37.25 104.6796875 37.25 105 40 C103.8828125 42.0625 103.8828125 42.0625 102.125 44 C101.57070313 44.639375 101.01640625 45.27875 100.4453125 45.9375 C93.2574472 52.00010844 87.14258491 53.73778844 77.83203125 53.5234375 C76.79358566 53.51873444 75.75514008 53.51403137 74.68522644 53.50918579 C71.39361973 53.48798606 68.10366985 53.43145728 64.8125 53.375 C62.59181217 53.35847486 60.37110697 53.34413146 58.15039062 53.33203125 C41.98519037 53.19769967 41.98519037 53.19769967 35 52 C34.01 52.495 34.01 52.495 33 53 C30.19648462 53.12479416 27.4286626 53.18517138 24.625 53.1875 C23.85671875 53.19974609 23.0884375 53.21199219 22.296875 53.22460938 C14.80818874 53.24404368 14.80818874 53.24404368 12 51 C10.3507851 48.83575724 8.84587905 46.71491106 7.375 44.4375 C4.81443531 40.07373973 4.81443531 40.07373973 1 37 C-0.21077701 33.36766898 -0.12444164 30.04878013 -0.09765625 26.26953125 C-0.0962413 25.51911057 -0.09482635 24.76868988 -0.09336853 23.99552917 C-0.0877756 21.6011454 -0.07522444 19.20685547 -0.0625 16.8125 C-0.05748408 15.18815239 -0.05292134 13.56380332 -0.04882812 11.93945312 C-0.03780848 7.95959931 -0.02054873 3.97981556 0 0 Z " fill="#E6E6E7" transform="translate(676,113)"/>
<path d="M0 0 C2.97922593 -0.02683987 5.95821295 -0.04676037 8.9375 -0.0625 C9.78763672 -0.07087891 10.63777344 -0.07925781 11.51367188 -0.08789062 C12.32255859 -0.09111328 13.13144531 -0.09433594 13.96484375 -0.09765625 C14.7137085 -0.10289307 15.46257324 -0.10812988 16.23413086 -0.11352539 C18 0 18 0 19 1 C19.25068786 4.09631103 19.18522508 7.20723686 19.1875 10.3125 C19.19974609 11.18068359 19.21199219 12.04886719 19.22460938 12.94335938 C19.22750977 14.2030957 19.22750977 14.2030957 19.23046875 15.48828125 C19.23457764 16.25696533 19.23868652 17.02564941 19.24291992 17.81762695 C19 20 19 20 17 24 C17 19.38 17 14.76 17 10 C13.6278125 10.0928125 13.6278125 10.0928125 10.1875 10.1875 C3.66592527 10.36699288 3.66592527 10.36699288 1.05078125 8.92578125 C-0.55504162 5.98276759 -0.1856838 3.28041373 0 0 Z " fill="#959595" transform="translate(721,136)"/>
<path d="M0 0 C11.55 0 23.1 0 35 0 C35 4.62 35 9.24 35 14 C29.06 14 23.12 14 17 14 C17 13.34 17 12.68 17 12 C12.71 12 8.42 12 4 12 C4 15.96 4 19.92 4 24 C3.67 24 3.34 24 3 24 C3 20.7 3 17.4 3 14 C-0.96 14 -4.92 14 -9 14 C-9 13.34 -9 12.68 -9 12 C-13.95 12 -18.9 12 -24 12 C-24 13.98 -24 15.96 -24 18 C-24.33 18 -24.66 18 -25 18 C-25 15.69 -25 13.38 -25 11 C-24.31539703 10.98969254 -23.63079407 10.97938507 -22.92544556 10.96876526 C-15.82063955 10.8608532 -8.71596431 10.74624306 -1.61132812 10.62768555 C1.04261548 10.58428752 3.6965879 10.54261612 6.35058594 10.50268555 C10.15829158 10.44510075 13.96585155 10.3813725 17.7734375 10.31640625 C18.96617279 10.29969376 20.15890808 10.28298126 21.38778687 10.26576233 C22.48877716 10.24581711 23.58976746 10.22587189 24.72412109 10.20532227 C25.69674896 10.18977798 26.66937683 10.1742337 27.67147827 10.15821838 C30.02390474 10.14869349 30.02390474 10.14869349 32 9 C32.66 6.36 33.32 3.72 34 1 C22.78 1 11.56 1 0 1 C0 0.67 0 0.34 0 0 Z " fill="#131313" transform="translate(703,121)"/>
<path d="M0 0 C17.82 0 35.64 0 54 0 C54.495 1.485 54.495 1.485 55 3 C36.85 3 18.7 3 0 3 C0 2.01 0 1.02 0 0 Z " fill="#1A1B1A" transform="translate(678,126)"/>
<path d="M0 0 C0.33 0 0.66 0 1 0 C1 21.12 1 42.24 1 64 C4.96 64 8.92 64 13 64 C9.71737969 66.18841354 8.68209102 66.24854665 4.875 66.1875 C3.98554687 66.18105469 3.09609375 66.17460937 2.1796875 66.16796875 C0 66 0 66 -1 65 C-1.09903867 63.1907532 -1.12799196 61.37762876 -1.12939453 59.56567383 C-1.13254669 58.40389114 -1.13569885 57.24210846 -1.13894653 56.04512024 C-1.1369223 54.77855087 -1.13489807 53.51198151 -1.1328125 52.20703125 C-1.13376923 50.91310959 -1.13472595 49.61918793 -1.13571167 48.28605652 C-1.1371892 45.53956923 -1.13503406 42.79311438 -1.13037109 40.04663086 C-1.12470184 36.5373641 -1.12793453 33.02817428 -1.13394356 29.51891041 C-1.13844505 26.16494468 -1.13528329 22.81099916 -1.1328125 19.45703125 C-1.13483673 18.20058304 -1.13686096 16.94413483 -1.13894653 15.64961243 C-1.13579437 14.47206894 -1.13264221 13.29452545 -1.12939453 12.08129883 C-1.12859894 11.04951004 -1.12780334 10.01772125 -1.12698364 8.95466614 C-0.99566465 5.89912472 -0.56390853 3.00336655 0 0 Z " fill="#737475" transform="translate(660,96)"/>
<path d="M0 0 C1.37376679 0.00398964 2.74753489 0.01873698 4.12109375 0.04296875 C4.81912109 0.04361328 5.51714844 0.04425781 6.23632812 0.04492188 C11.41828217 0.09015717 11.41828217 0.09015717 12.55859375 1.23046875 C12.55859375 3.54046875 12.55859375 5.85046875 12.55859375 8.23046875 C5.95859375 8.23046875 -0.64140625 8.23046875 -7.44140625 8.23046875 C-6.78140625 7.90046875 -6.12140625 7.57046875 -5.44140625 7.23046875 C-5.48265625 6.44671875 -5.52390625 5.66296875 -5.56640625 4.85546875 C-5.36519985 0.63013432 -4.08450263 0.2735365 0 0 Z " fill="#F3F3F3" transform="translate(725.44140625,111.76953125)"/>
<path d="M0 0 C9.10714286 -0.26785714 9.10714286 -0.26785714 13 2 C13.125 5.375 13.125 5.375 13 9 C11 11 11 11 8.1796875 11.1953125 C7.08914063 11.17210937 5.99859375 11.14890625 4.875 11.125 C3.77929688 11.10695312 2.68359375 11.08890625 1.5546875 11.0703125 C0.71164062 11.04710937 -0.13140625 11.02390625 -1 11 C-0.67 7.37 -0.34 3.74 0 0 Z " fill="#B2B2B3" transform="translate(754,135)"/>
<path d="M0 0 C3.96 0 7.92 0 12 0 C12.14695312 1.28583984 12.14695312 1.28583984 12.296875 2.59765625 C13.17641379 9.32309509 14.09910991 14.4087242 18 20 C15.8203125 19.9296875 15.8203125 19.9296875 13 19 C11.08815926 16.72787317 9.4851878 14.59198498 7.875 12.125 C7.02070488 10.85510185 6.16400649 9.58681649 5.3046875 8.3203125 C4.93327637 7.75586426 4.56186523 7.19141602 4.17919922 6.60986328 C3.01487729 4.92383144 3.01487729 4.92383144 1.35595703 3.41748047 C0 2 0 2 0 0 Z " fill="#6E6E6E" transform="translate(694,135)"/>
<path d="M0 0 C8.57142857 -0.28571429 8.57142857 -0.28571429 12 2 C12.1875 5.375 12.1875 5.375 12 9 C7.7975546 11.80163026 4.99895065 11.14489712 0 11 C0 7.37 0 3.74 0 0 Z " fill="#A1A1A3" transform="translate(754,110)"/>
<path d="M0 0 C6.75 1.875 6.75 1.875 9 3 C9 4.32 9 5.64 9 7 C6.69 7.33 4.38 7.66 2 8 C1.67 16.25 1.34 24.5 1 33 C1.66 33 2.32 33 3 33 C3.268125 33.969375 3.53625 34.93875 3.8125 35.9375 C4.204375 36.948125 4.59625 37.95875 5 39 C5.99 39.33 6.98 39.66 8 40 C9.60546875 42.28515625 9.60546875 42.28515625 11.1875 45.0625 C11.71730469 45.98160156 12.24710938 46.90070313 12.79296875 47.84765625 C13.19128906 48.55792969 13.58960938 49.26820313 14 50 C13.01 50.495 13.01 50.495 12 51 C11.37351562 50.07316406 10.74703125 49.14632812 10.1015625 48.19140625 C9.27627585 46.98161105 8.45074218 45.77198433 7.625 44.5625 C7.2125 43.95083984 6.8 43.33917969 6.375 42.70898438 C4.18904598 39.32135329 4.18904598 39.32135329 1 37 C-0.21077701 33.36766898 -0.12444164 30.04878013 -0.09765625 26.26953125 C-0.0962413 25.51911057 -0.09482635 24.76868988 -0.09336853 23.99552917 C-0.0877756 21.6011454 -0.07522444 19.20685547 -0.0625 16.8125 C-0.05748408 15.18815239 -0.05292134 13.56380332 -0.04882812 11.93945312 C-0.03780848 7.95959931 -0.02054873 3.97981556 0 0 Z " fill="#DEDEDD" transform="translate(676,113)"/>
<path d="M0 0 C3.12613393 2.96160056 5.04783565 5.09567131 7 9 C15.415 8.505 15.415 8.505 24 8 C23.34 6.35 22.68 4.7 22 3 C23.62542193 3.64477069 25.25032424 4.29085143 26.875 4.9375 C27.77992188 5.29714844 28.68484375 5.65679687 29.6171875 6.02734375 C32 7 32 7 34 8 C36.87910588 8.23274209 39.74146495 8.41972757 42.625 8.5625 C43.42679688 8.60568359 44.22859375 8.64886719 45.0546875 8.69335938 C47.0362511 8.79951457 49.01810271 8.90026855 51 9 C46.99106694 11.74867226 42.72041345 11.25918778 38.0625 11.1875 C36.7616748 11.17783203 36.7616748 11.17783203 35.43457031 11.16796875 C25.61223026 11.05543209 15.80596016 10.55133913 6 10 C5.34 8.68 4.68 7.36 4 6 C3.34 6 2.68 6 2 6 C2 5.34 2 4.68 2 4 C1.34 4 0.68 4 0 4 C0 2.68 0 1.36 0 0 Z " fill="#8F8E8F" transform="translate(687,151)"/>
<path d="M0 0 C1.29550781 0.00644531 2.59101562 0.01289062 3.92578125 0.01953125 C5.28906519 0.03624057 6.65234644 0.05317044 8.015625 0.0703125 C9.39452485 0.0803491 10.77343165 0.08947377 12.15234375 0.09765625 C15.52361382 0.12123157 18.89453136 0.1541398 22.265625 0.1953125 C22.265625 0.5253125 22.265625 0.8553125 22.265625 1.1953125 C13.025625 1.1953125 3.785625 1.1953125 -5.734375 1.1953125 C-5.734375 1.8553125 -5.734375 2.5153125 -5.734375 3.1953125 C-6.724375 3.8553125 -7.714375 4.5153125 -8.734375 5.1953125 C-9.21267242 7.85901372 -9.21267242 7.85901372 -9.16674805 11.02197266 C-9.18654221 12.24308746 -9.20633636 13.46420227 -9.22673035 14.72232056 C-9.23350061 16.05967048 -9.23994742 17.39702207 -9.24609375 18.734375 C-9.26293393 20.09916817 -9.28108328 21.46394577 -9.30049133 22.82870483 C-9.34807004 26.42239516 -9.37782797 30.01602238 -9.40393066 33.60992432 C-9.43369688 37.27653473 -9.48024057 40.94292746 -9.52539062 44.609375 C-9.61151302 51.80457968 -9.67881801 58.99980004 -9.734375 66.1953125 C-10.064375 66.1953125 -10.394375 66.1953125 -10.734375 66.1953125 C-10.734375 45.0753125 -10.734375 23.9553125 -10.734375 2.1953125 C-6.50475176 0.08050088 -4.62442569 -0.04056514 0 0 Z " fill="#D6D7D7" transform="translate(665.734375,94.8046875)"/>
<path d="M0 0 C1.98 0.99 1.98 0.99 4 2 C4 2.66 4 3.32 4 4 C5.32 4.33 6.64 4.66 8 5 C8 5.66 8 6.32 8 7 C8.66 7 9.32 7 10 7 C10 8.32 10 9.64 10 11 C10.66 11 11.32 11 12 11 C12 11.66 12 12.32 12 13 C12.66 13 13.32 13 14 13 C14.99 14.485 14.99 14.485 16 16 C18.609621 16.38411275 21.0058074 16.60293197 23.625 16.6875 C24.33140625 16.72166016 25.0378125 16.75582031 25.765625 16.79101562 C27.50985688 16.87351308 29.25490395 16.93843335 31 17 C28.16816475 19.83183525 25.41155565 19.36782849 21.625 19.375 C20.95210937 19.39949219 20.27921875 19.42398438 19.5859375 19.44921875 C16.18958967 19.46927592 14.35754198 19.27914407 11.6484375 17.1640625 C9.63732439 14.52388084 7.8407477 11.76112155 6 9 C5.2575 8.278125 4.515 7.55625 3.75 6.8125 C2 5 2 5 2 2 C1.34 2 0.68 2 0 2 C0 1.34 0 0.68 0 0 Z " fill="#A6A6A6" transform="translate(677,144)"/>
<path d="M0 0 C2.31243792 -0.02685412 4.6249627 -0.04632841 6.9375 -0.0625 C8.22527344 -0.07410156 9.51304687 -0.08570313 10.83984375 -0.09765625 C14 0 14 0 15 1 C15.04063832 2.66617115 15.042721 4.33388095 15 6 C12.87527424 6.05386629 10.75016348 6.09273071 8.625 6.125 C6.84996094 6.15980469 6.84996094 6.15980469 5.0390625 6.1953125 C2 6 2 6 0 4 C0 2.68 0 1.36 0 0 Z " fill="#F1F1F1" transform="translate(721,139)"/>
<path d="M0 0 C3.96 0 7.92 0 12 0 C15 3 15 3 15.1875 6.1875 C15.125625 7.115625 15.06375 8.04375 15 9 C14.01 9.495 14.01 9.495 13 10 C13 7.69 13 5.38 13 3 C7.06 2.01 7.06 2.01 1 1 C1 17.17 1 33.34 1 50 C0.67 50 0.34 50 0 50 C0 33.5 0 17 0 0 Z " fill="#343435" transform="translate(675,110)"/>
<path d="M0 0 C2 2 2 2 2.22705078 4.24658203 C2.21657715 5.15778809 2.20610352 6.06899414 2.1953125 7.0078125 C2.18886719 7.99394531 2.18242188 8.98007813 2.17578125 9.99609375 C2.15902344 11.02863281 2.14226563 12.06117187 2.125 13.125 C2.11597656 14.16527344 2.10695313 15.20554687 2.09765625 16.27734375 C2.07403747 18.85179092 2.04110149 21.42578212 2 24 C1.34 24 0.68 24 0 24 C-0.33 21.69 -0.66 19.38 -1 17 C-5.95 16.67 -10.9 16.34 -16 16 C-15.67 15.34 -15.34 14.68 -15 14 C-10.05 14 -5.1 14 0 14 C0 9.38 0 4.76 0 0 Z " fill="#8D8D8E" transform="translate(738,96)"/>
<path d="M0 0 C1.37376679 0.00398964 2.74753489 0.01873698 4.12109375 0.04296875 C4.81912109 0.04361328 5.51714844 0.04425781 6.23632812 0.04492188 C11.41828217 0.09015717 11.41828217 0.09015717 12.55859375 1.23046875 C12.59952312 3.56344308 12.60101098 5.897521 12.55859375 8.23046875 C11.89859375 8.23046875 11.23859375 8.23046875 10.55859375 8.23046875 C10.22859375 6.58046875 9.89859375 4.93046875 9.55859375 3.23046875 C4.93859375 3.23046875 0.31859375 3.23046875 -4.44140625 3.23046875 C-4.77140625 4.55046875 -5.10140625 5.87046875 -5.44140625 7.23046875 C-5.56640625 4.85546875 -5.56640625 4.85546875 -5.44140625 2.23046875 C-3.44140625 0.23046875 -3.44140625 0.23046875 0 0 Z " fill="#C2C3C4" transform="translate(725.44140625,111.76953125)"/>
<path d="M0 0 C11.55 0 23.1 0 35 0 C35 4.29 35 8.58 35 13 C33.35 13 31.7 13 30 13 C30.20496094 12.46890625 30.40992188 11.9378125 30.62109375 11.390625 C30.89050781 10.68421875 31.15992188 9.9778125 31.4375 9.25 C31.70433594 8.55390625 31.97117187 7.8578125 32.24609375 7.140625 C33.13653634 4.71879627 33.13653634 4.71879627 34 1 C22.78 1 11.56 1 0 1 C0 0.67 0 0.34 0 0 Z " fill="#0C0C0C" transform="translate(703,121)"/>
<path d="M0 0 C9.57 0 19.14 0 29 0 C28.67 0.99 28.34 1.98 28 3 C19.09 3 10.18 3 1 3 C0.67 2.01 0.34 1.02 0 0 Z " fill="#8C8C8E" transform="translate(741,159)"/>
<path d="M0 0 C2.64590014 -0.02684679 5.29153096 -0.04676357 7.9375 -0.0625 C8.69224609 -0.07087891 9.44699219 -0.07925781 10.22460938 -0.08789062 C12.14994313 -0.09652441 14.07535581 -0.05224333 16 0 C17 1 17 1 17.125 4.5 C17 8 17 8 16 9 C13.81360547 9.07258946 11.62499611 9.08373783 9.4375 9.0625 C7.64119141 9.04896484 7.64119141 9.04896484 5.80859375 9.03515625 C4.88175781 9.02355469 3.95492187 9.01195312 3 9 C3 8.67 3 8.34 3 8 C6.96 8 10.92 8 15 8 C14.67 6.35 14.34 4.7 14 3 C7.07 2.505 7.07 2.505 0 2 C0 1.34 0 0.68 0 0 Z " fill="#C2C2C3" transform="translate(721,137)"/>
<path d="M0 0 C-1.515625 1.984375 -1.515625 1.984375 -4 4 C-6.73682971 4.2911521 -9.03940039 4.38322418 -11.75 4.25 C-12.44738281 4.23195312 -13.14476562 4.21390625 -13.86328125 4.1953125 C-15.57611539 4.14838554 -17.28823824 4.07664605 -19 4 C-19.33 2.68 -19.66 1.36 -20 0 C-18.53626953 0.01740234 -18.53626953 0.01740234 -17.04296875 0.03515625 C-15.77066406 0.04417969 -14.49835937 0.05320313 -13.1875 0.0625 C-11.29064453 0.07990234 -11.29064453 0.07990234 -9.35546875 0.09765625 C-0.48179872 -0.16059957 -0.48179872 -0.16059957 0 0 Z " fill="#C8C8C9" transform="translate(676,161)"/>
<path d="M0 0 C6.75 1.875 6.75 1.875 9 3 C9 4.32 9 5.64 9 7 C7.88625 7.12375 6.7725 7.2475 5.625 7.375 C1.96896323 7.6465813 1.96896323 7.6465813 0 10 C0 6.7 0 3.4 0 0 Z " fill="#EEEEEE" transform="translate(676,113)"/>
<path d="M0 0 C0.72960937 0.32097656 1.45921875 0.64195312 2.2109375 0.97265625 C5.72396575 2.26667086 9.11191702 2.45502107 12.8125 2.625 C13.85180664 2.68300781 13.85180664 2.68300781 14.91210938 2.7421875 C16.60767015 2.83573568 18.30379712 2.91892364 20 3 C20 3.33 20 3.66 20 4 C4.33941864 4.17293894 4.33941864 4.17293894 -0.4375 3.5 C-7.54633089 2.51033923 -14.83999032 2.92601597 -22 3 C-22 2.67 -22 2.34 -22 2 C-21.01257813 1.93941406 -20.02515625 1.87882813 -19.0078125 1.81640625 C-17.72648438 1.73261719 -16.44515625 1.64882812 -15.125 1.5625 C-13.84882812 1.48128906 -12.57265625 1.40007812 -11.2578125 1.31640625 C-7.16023301 0.9184399 -4.2652922 -0.25089954 0 0 Z " fill="#D9D9DA" transform="translate(714,161)"/>
<path d="M0 0 C1.4370809 -0.05422947 2.87475462 -0.09289723 4.3125 -0.125 C5.11300781 -0.14820312 5.91351562 -0.17140625 6.73828125 -0.1953125 C9 0 9 0 12 2 C12.1875 5.625 12.1875 5.625 12 9 C11.01 9 10.02 9 9 9 C9 7.68 9 6.36 9 5 C6.03 4.01 3.06 3.02 0 2 C0 1.34 0 0.68 0 0 Z " fill="#BBBBBC" transform="translate(676,111)"/>
<path d="M0 0 C1.41623216 -0.05447047 2.83308191 -0.09300508 4.25 -0.125 C5.03890625 -0.14820313 5.8278125 -0.17140625 6.640625 -0.1953125 C9.20731941 0.0171622 10.7916067 0.71345895 13 2 C13 4.31 13 6.62 13 9 C11.02 9.99 11.02 9.99 9 11 C9.04125 9.88625 9.0825 8.7725 9.125 7.625 C9.41121859 3.95633975 9.41121859 3.95633975 7 2 C5.01178687 1.60235737 3.01055661 1.26224651 1 1 C1 3.31 1 5.62 1 8 C0.67 8 0.34 8 0 8 C0 5.36 0 2.72 0 0 Z " fill="#6B6B6C" transform="translate(754,135)"/>
<path d="M0 0 C-0.86625 0.515625 -1.7325 1.03125 -2.625 1.5625 C-6.46201739 4.09310433 -9.16675882 7.42328418 -12 11 C-13.32 10.67 -14.64 10.34 -16 10 C-16.33 8.68 -16.66 7.36 -17 6 C-16.236875 5.896875 -15.47375 5.79375 -14.6875 5.6875 C-11.757381 4.93793468 -11.02209812 4.11401167 -9 2 C-8.01 2 -7.02 2 -6 2 C-6 1.34 -6 0.68 -6 0 C-3 -1 -3 -1 0 0 Z " fill="#C9C9CA" transform="translate(718,98)"/>
<path d="M0 0 C8.57142857 -0.28571429 8.57142857 -0.28571429 12 2 C12 4.31 12 6.62 12 9 C11.01 9.495 11.01 9.495 10 10 C10 7.69 10 5.38 10 3 C7.03 2.67 4.06 2.34 1 2 C1 4.97 1 7.94 1 11 C0.67 11 0.34 11 0 11 C0 7.37 0 3.74 0 0 Z " fill="#636363" transform="translate(754,110)"/>
<path d="M0 0 C0.99 0.33 1.98 0.66 3 1 C-0.50897269 5.18423892 -4.08060535 9.19588166 -8 13 C-8.99 12.67 -9.98 12.34 -11 12 C-10.04882866 10.8274869 -9.08882991 9.66212985 -8.125 8.5 C-7.32449219 7.52546875 -7.32449219 7.52546875 -6.5078125 6.53125 C-6.01023437 6.0259375 -5.51265625 5.520625 -5 5 C-4.34 5 -3.68 5 -3 5 C-2.690625 4.360625 -2.38125 3.72125 -2.0625 3.0625 C-1 1 -1 1 0 0 Z " fill="#8B8987" transform="translate(751,145)"/>
<path d="M0 0 C2.875 -0.1875 2.875 -0.1875 6 0 C8.29013653 3.4352048 8.17842973 4.985331 8 9 C4.20620942 7.50958227 2.31656242 5.30937488 0 2 C0 1.34 0 0.68 0 0 Z " fill="#B5B5B6" transform="translate(696,137)"/>
<path d="M0 0 C1.66611905 -0.042721 3.33382885 -0.04063832 5 0 C6 1 6 1 6.0625 3.5625 C6.041875 4.366875 6.02125 5.17125 6 6 C1.545 6.495 1.545 6.495 -3 7 C-2.34 5.68 -1.68 4.36 -1 3 C-0.67 2.01 -0.34 1.02 0 0 Z " fill="#EBEBEB" transform="translate(756,139)"/>
<path d="M0 0 C0.24492188 0.54140625 0.48984375 1.0828125 0.7421875 1.640625 C2.29353788 4.55061143 4.16714304 7.0974196 6.125 9.75 C6.84945312 10.73484375 7.57390625 11.7196875 8.3203125 12.734375 C8.87460937 13.48203125 9.42890625 14.2296875 10 15 C9.01 15.495 9.01 15.495 8 16 C8 15.34 8 14.68 8 14 C7.13375 13.87625 7.13375 13.87625 6.25 13.75 C3.1135816 12.7045272 1.91043954 11.72919934 0 9 C-0.33429898 5.97041545 -0.2334377 3.03469016 0 0 Z " fill="#797978" transform="translate(677,135)"/>
<path d="M0 0 C3.12613393 2.96160056 5.04783565 5.09567131 7 9 C12.94 9 18.88 9 25 9 C25 9.33 25 9.66 25 10 C18.73 10 12.46 10 6 10 C5.34 8.68 4.68 7.36 4 6 C3.34 6 2.68 6 2 6 C2 5.34 2 4.68 2 4 C1.34 4 0.68 4 0 4 C0 2.68 0 1.36 0 0 Z " fill="#7D7D7E" transform="translate(687,151)"/>
<path d="M0 0 C0.66 0.66 1.32 1.32 2 2 C1.91015625 4.41796875 1.91015625 4.41796875 1 7 C-1.06640625 8.80078125 -1.06640625 8.80078125 -3.5625 10.3125 C-4.38878906 10.82425781 -5.21507812 11.33601562 -6.06640625 11.86328125 C-6.70449219 12.23839844 -7.34257813 12.61351562 -8 13 C-8 12.01 -8 11.02 -8 10 C-7.236875 9.401875 -6.47375 8.80375 -5.6875 8.1875 C-2.66832926 5.73003545 -1.52756977 3.53752999 0 0 Z " fill="#BCBCBC" transform="translate(779,148)"/>
<path d="M0 0 C1.5 1.375 1.5 1.375 3 3 C3 3.66 3 4.32 3 5 C9.6 5.33 16.2 5.66 23 6 C23 6.33 23 6.66 23 7 C19.56265937 7.08703823 16.12560163 7.14040272 12.6875 7.1875 C11.22280273 7.22520508 11.22280273 7.22520508 9.72851562 7.26367188 C8.32182617 7.27817383 8.32182617 7.27817383 6.88671875 7.29296875 C6.02264404 7.3086792 5.15856934 7.32438965 4.26831055 7.34057617 C2 7 2 7 0.17504883 5.6184082 C-1 4 -1 4 -0.6875 1.8125 C-0.460625 1.214375 -0.23375 0.61625 0 0 Z " fill="#B0AFB1" transform="translate(739,156)"/>
<path d="M0 0 C2.97 0.495 2.97 0.495 6 1 C6 2.65 6 4.3 6 6 C4.02 6 2.04 6 0 6 C0 4.02 0 2.04 0 0 Z " fill="#E4E5E6" transform="translate(755,114)"/>
<path d="M0 0 C2.97 0 5.94 0 9 0 C10.35091528 2.70183055 10.33858058 5.11808206 10.5625 8.125 C10.64628906 9.22070312 10.73007812 10.31640625 10.81640625 11.4453125 C10.87699219 12.28835937 10.93757812 13.13140625 11 14 C9.68 12.68 8.36 11.36 7 10 C7.66 10 8.32 10 9 10 C8.34 7.36 7.68 4.72 7 2 C4.69 2 2.38 2 0 2 C0 1.34 0 0.68 0 0 Z " fill="#959595" transform="translate(695,136)"/>
<path d="M0 0 C0 0.66 0 1.32 0 2 C-2.64 2.33 -5.28 2.66 -8 3 C-8 3.66 -8 4.32 -8 5 C-8.99 5 -9.98 5 -11 5 C-11.33 5.99 -11.66 6.98 -12 8 C-14.5625 9.1875 -14.5625 9.1875 -17 10 C-12.85675021 4.11925836 -7.48190749 0 0 0 Z " fill="#EFEFEF" transform="translate(720,95)"/>
<path d="M0 0 C1.77007714 -0.08114106 3.54122098 -0.13925505 5.3125 -0.1875 C6.29863281 -0.22230469 7.28476562 -0.25710937 8.30078125 -0.29296875 C11 0 11 0 12.84375 1.3125 C14.5684867 3.8296833 14.19767151 6.03492731 14 9 C13.01 9.495 13.01 9.495 12 10 C12 7.69 12 5.38 12 3 C6.06 2.01 6.06 2.01 0 1 C0 0.67 0 0.34 0 0 Z " fill="#5E5E5E" transform="translate(676,110)"/>
<path d="M0 0 C-0.33 0.99 -0.66 1.98 -1 3 C-2.95803507 3.05389087 -4.91648909 3.09274217 -6.875 3.125 C-7.96554687 3.14820313 -9.05609375 3.17140625 -10.1796875 3.1953125 C-13 3 -13 3 -15 1 C-12.8750734 0.83240016 -10.75005624 0.66594799 -8.625 0.5 C-7.44164062 0.4071875 -6.25828125 0.314375 -5.0390625 0.21875 C-3.36213157 0.09804546 -1.68126944 0 0 0 Z " fill="#9A9A9A" transform="translate(734,129)"/>
<path d="M0 0 C1.258125 -0.04125 2.51625 -0.0825 3.8125 -0.125 C4.52019531 -0.14820312 5.22789062 -0.17140625 5.95703125 -0.1953125 C8 0 8 0 11 2 C11.1875 5.625 11.1875 5.625 11 9 C10.67 9 10.34 9 10 9 C10 7.35 10 5.7 10 4 C6.7 3.01 3.4 2.02 0 1 C0 0.67 0 0.34 0 0 Z " fill="#8F8F90" transform="translate(677,111)"/>
<path d="M0 0 C-0.33 0.99 -0.66 1.98 -1 3 C-6.61 3 -12.22 3 -18 3 C-18 2.67 -18 2.34 -18 2 C-17.01257813 1.93941406 -16.02515625 1.87882813 -15.0078125 1.81640625 C-13.72648438 1.73261719 -12.44515625 1.64882812 -11.125 1.5625 C-9.84882812 1.48128906 -8.57265625 1.40007812 -7.2578125 1.31640625 C-4.53573738 1.05203205 -2.62506009 0 0 0 Z " fill="#C6C7C8" transform="translate(710,161)"/>
<path d="M0 0 C3.80666984 1.44390925 5.26602582 3.34952803 7 7 C6.67 7.66 6.34 8.32 6 9 C4 7.1875 4 7.1875 2 5 C2 4.01 2 3.02 2 2 C1.34 2 0.68 2 0 2 C0 1.34 0 0.68 0 0 Z " fill="#BFBFBE" transform="translate(677,144)"/>
<path d="M0 0 C2.64752004 2.57784846 4.94432065 4.91648098 7 8 C6.01 8 5.02 8 4 8 C4 7.34 4 6.68 4 6 C3.34 6 2.68 6 2 6 C2 5.34 2 4.68 2 4 C1.34 4 0.68 4 0 4 C0 2.68 0 1.36 0 0 Z " fill="#6A6969" transform="translate(687,151)"/>
<path d="M0 0 C0.66 0.66 1.32 1.32 2 2 C1.625 4.625 1.625 4.625 1 7 C0.01 7.33 -0.98 7.66 -2 8 C-1.47731534 5.23723823 -0.89130413 2.6739124 0 0 Z " fill="#D1D0CE" transform="translate(779,148)"/>
<path d="M0 0 C1.32 0.33 2.64 0.66 4 1 C4.33 2.98 4.66 4.96 5 7 C3.29115995 5.37660195 1.62553283 3.70680947 0 2 C0 1.34 0 0.68 0 0 Z " fill="#D0D0D0" transform="translate(698,139)"/>
<path d="M0 0 C-4.5 3 -4.5 3 -9 6 C-9 4.68 -9 3.36 -9 2 C-8.01 2 -7.02 2 -6 2 C-6 1.34 -6 0.68 -6 0 C-3 -1 -3 -1 0 0 Z " fill="#BFBFC0" transform="translate(718,98)"/>
<path d="M0 0 C0.99 0.33 1.98 0.66 3 1 C3 2.65 3 4.3 3 6 C2.01 6.495 2.01 6.495 1 7 C-0.0625 4.625 -0.0625 4.625 -1 2 C-0.67 1.34 -0.34 0.68 0 0 Z " fill="#737373" transform="translate(733,124)"/>
<path d="M0 0 C4.455 1.98 4.455 1.98 9 4 C9 4.33 9 4.66 9 5 C3.5 5.36666667 3.5 5.36666667 1.125 3.625 C0 2 0 2 0 0 Z " fill="#6A6969" transform="translate(712,155)"/>
</svg>
