<?xml version="1.0" encoding="UTF-8"?>
<svg version="1.1" xmlns="http://www.w3.org/2000/svg" width="1500" height="900">
<path d="M0 0 C495 0 990 0 1500 0 C1500 297 1500 594 1500 900 C1005 900 510 900 0 900 C0 603 0 306 0 0 Z " fill="#FEFEFE" transform="translate(0,0)"/>
<path d="M0 0 C0.61359375 0.43699219 1.2271875 0.87398438 1.859375 1.32421875 C13.15498904 9.95137351 20.56392518 25.30103379 23 39 C23.29111681 42.42174748 23.33400406 45.8171415 23.3125 49.25 C23.30512817 50.64206665 23.30512817 50.64206665 23.29760742 52.06225586 C23.1780817 59.07504457 22.38480173 65.36696848 20 72 C19.67128906 72.97839844 19.34257813 73.95679688 19.00390625 74.96484375 C12.92770726 91.30119883 1.26312173 102.26284521 -14 110 C-28.57680329 116.1307775 -46.92399233 118.00868966 -62.22265625 113.15625 C-81.57703756 105.09872979 -94.64810573 93.32689969 -103 73.7109375 C-108.64443723 58.40922093 -108.0920049 38.1089072 -101.37109375 23.33203125 C-93.47585774 6.95550406 -80.59848056 -5.18416035 -63.33203125 -11.29296875 C-41.29835063 -17.97319688 -18.18081682 -14.08059764 0 0 Z " fill="#040404" transform="translate(687,319)"/>
<path d="M0 0 C13.11162059 10.20860782 22.11372579 23.63127095 24.7890625 40.15234375 C26.07931458 51.71013516 26.74715352 64.35920595 22.1875 75.25 C21.81625 76.145979 21.81625 76.145979 21.4375 77.06005859 C13.80141184 95.00574957 1.9948692 106.5450767 -16.1015625 114.25 C-32.11996748 120.15880645 -51.29054687 118.94574449 -66.8125 112.25 C-83.88242351 104.01486126 -94.73003972 91.26439481 -101.04956055 73.63085938 C-106.42129983 57.99970558 -105.46071489 40.33826603 -98.8125 25.25 C-90.36790052 7.97969084 -77.0300348 -3.10993465 -59.01953125 -9.78515625 C-39.29869847 -15.63340321 -16.75454712 -11.5597015 0 0 Z " fill="#040404" transform="translate(543.8125,316.75)"/>
<path d="M0 0 C80.25581095 0 80.25581095 0 98.93676758 17.66796875 C109.98453078 28.74017807 116.09226692 43.56302514 116.38061523 59.14013672 C116.34012348 77.05861764 111.96609374 94.76582894 99.15234375 108.046875 C71.56996548 133.07625637 36.05537607 126 0 126 C0 84.42 0 42.84 0 0 Z " fill="#030303" transform="translate(954,467)"/>
<path d="M0 0 C11.88 0 23.76 0 36 0 C47.75942066 13.78932066 47.75942066 13.78932066 50.5078125 19.796875 C53.39419913 25.86336435 56.67758577 31.4584471 60.375 37.0625 C61.31191611 38.5539076 62.2455641 40.04737372 63.17578125 41.54296875 C66.69900426 47.14600173 70.38301324 52.64079858 74.08154297 58.12915039 C74.55092285 58.82645264 75.02030273 59.52375488 75.50390625 60.2421875 C75.91455322 60.8491748 76.3252002 61.45616211 76.74829102 62.08154297 C78.22739066 64.34851489 79.60735042 66.67891737 81 69 C81.33 46.23 81.66 23.46 82 0 C93.55 0 105.1 0 117 0 C117 41.58 117 83.16 117 126 C82 126 82 126 72.765625 117.40234375 C70.68586731 114.47103882 70.68586731 114.47103882 69.37036133 111.87255859 C68.85841217 110.90179382 68.34646301 109.93102905 67.81900024 108.93084717 C67.30123016 107.9430426 66.78346008 106.95523804 66.25 105.9375 C65.08360801 103.94921637 63.90469821 101.96822513 62.71362305 99.99462891 C60.40414666 96.1318917 58.16405266 92.2423038 55.98388672 88.30517578 C52.25402594 81.59756607 48.08098881 75.249525 43.8125 68.875 C42.25235405 66.43326473 40.69353847 63.99083286 39.14379883 61.54248047 C38.06427909 59.84377539 38.06427909 59.84377539 36 59 C36 81.11 36 103.22 36 126 C24.12 126 12.24 126 0 126 C0 84.42 0 42.84 0 0 Z " fill="#040404" transform="translate(910,307)"/>
<path d="M0 0 C9.0124551 8.52382801 12.54214836 16.50761678 14.96875 28.640625 C2.42875 28.640625 -10.11125 28.640625 -23.03125 28.640625 C-24.02125 26.660625 -24.02125 26.660625 -25.03125 24.640625 C-27.32659258 23.50516938 -27.32659258 23.50516938 -30.03125 22.640625 C-30.93746094 22.1353125 -31.84367187 21.63 -32.77734375 21.109375 C-38.93633174 18.3293276 -46.29767066 18.60055647 -52.765625 20.40234375 C-60.5325018 23.69935689 -65.23533251 28.27436146 -68.859375 35.88671875 C-72.00105134 45.95055529 -71.5398656 59.04288535 -67.03125 68.640625 C-63.27457146 75.50627889 -58.25760692 79.93536976 -50.78125 82.1328125 C-41.46590007 83.85297655 -31.18551949 83.97850123 -23.03125 78.640625 C-19.8372281 75.67516614 -16.98953343 72.55719186 -15.03125 68.640625 C-26.25125 68.310625 -37.47125 67.980625 -49.03125 67.640625 C-49.03125 59.060625 -49.03125 50.480625 -49.03125 41.640625 C-27.25125 41.640625 -5.47125 41.640625 16.96875 41.640625 C17.0925 47.18875 17.21625 52.736875 17.34375 58.453125 C17.42568604 61.04377808 17.42568604 61.04377808 17.50927734 63.68676758 C17.68409992 73.09644912 16.80107005 79.85066954 10.96875 87.640625 C10.51870605 88.25075439 10.06866211 88.86088379 9.60498047 89.48950195 C-0.99731331 102.81028062 -16.04882622 112.28145478 -33.03125 114.640625 C-52.12360176 116.22299172 -69.40064143 113.40142183 -84.90234375 101.421875 C-97.23904583 90.84277634 -105.64656191 75.99132546 -107.03125 59.640625 C-108.17947988 40.36180441 -105.8507678 22.37141059 -92.59375 7.265625 C-91.09133732 5.70600124 -89.57206739 4.16231877 -88.03125 2.640625 C-87.48984375 2.07730469 -86.9484375 1.51398438 -86.390625 0.93359375 C-63.98752348 -20.50775846 -23.41138657 -18.2222648 0 0 Z " fill="#040404" transform="translate(1150.03125,319.359375)"/>
<path d="M0 0 C11.88 0 23.76 0 36 0 C36 15.51 36 31.02 36 47 C49.86 47 63.72 47 78 47 C78 31.49 78 15.98 78 0 C89.55 0 101.1 0 113 0 C113 41.58 113 83.16 113 126 C101.45 126 89.9 126 78 126 C78 109.5 78 93 78 76 C64.14 76 50.28 76 36 76 C36 92.5 36 109 36 126 C24.12 126 12.24 126 0 126 C0 84.42 0 42.84 0 0 Z " fill="#060606" transform="translate(588,467)"/>
<path d="M0 0 C13.53 0 27.06 0 41 0 C44.15153548 7.56368516 47.19094232 15.04831249 49.9375 22.75 C52.17595113 28.99336266 54.45256578 35.21977962 56.79272461 41.42578125 C59.75539436 49.30664439 62.63122426 57.21660551 65.4765625 65.140625 C65.97401486 66.52392535 66.47152391 67.90720531 66.96908569 69.29046631 C67.99997839 72.15724924 69.03006538 75.02431999 70.05957031 77.89160156 C71.36661495 81.5315968 72.67592617 85.17077205 73.98586464 88.80972672 C75.00955463 91.65440596 76.03192834 94.49955697 77.053936 97.344841 C77.53585105 98.68596269 78.01817938 100.02693595 78.50096512 101.36774445 C79.17858729 103.25021184 79.85420963 105.13339871 80.52978516 107.01660156 C80.91139801 108.07864807 81.29301086 109.14069458 81.68618774 110.23492432 C83.51323757 115.47081767 85.2463555 120.73906651 87 126 C74.79 126 62.58 126 50 126 C46 117 46 117 43 106 C28.15 106 13.3 106 -2 106 C-2.66 108.97 -3.32 111.94 -4 115 C-5.32 118.63 -6.64 122.26 -8 126 C-20.21 126 -32.42 126 -45 126 C-43.87514037 119.25084219 -43.87514037 119.25084219 -42.56738281 115.74121094 C-42.27408585 114.94569824 -41.98078888 114.15018555 -41.67860413 113.33056641 C-41.35669601 112.47382324 -41.0347879 111.61708008 -40.703125 110.734375 C-40.36184067 109.81221191 -40.02055634 108.89004883 -39.66893005 107.93994141 C-38.92497496 105.93108489 -38.17865811 103.9231018 -37.43026733 101.91589355 C-35.3917907 96.44797976 -33.37065847 90.97365369 -31.34765625 85.5 C-30.91906815 84.34167664 -30.49048004 83.18335327 -30.04890442 81.9899292 C-26.76736936 73.10989931 -23.52747115 64.21537779 -20.30859375 55.3125 C-20.07319256 54.66148567 -19.83779137 54.01047134 -19.59525681 53.33972931 C-17.50318337 47.55270577 -15.41386535 41.76468919 -13.32653809 35.97595215 C-12.44949612 33.54408453 -11.57195029 31.11239855 -10.69386292 28.6809082 C-9.89752492 26.47577568 -9.10228379 24.27024655 -8.30845642 22.06420898 C-5.63619021 14.66631383 -2.8252476 7.34564376 0 0 Z " fill="#040404" transform="translate(856,467)"/>
<path d="M0 0 C1.72974441 0.00015918 3.45949355 0.0058569 5.18920898 0.01586914 C6.09783188 0.01728409 7.00645477 0.01869904 7.94261169 0.02015686 C10.85687494 0.02577346 13.77106254 0.03832874 16.68530273 0.05102539 C18.65600475 0.05603825 20.62670797 0.06060153 22.59741211 0.06469727 C27.43923832 0.07574828 32.28100768 0.09302401 37.12280273 0.11352539 C37.35178757 0.75116318 37.5807724 1.38880096 37.81669617 2.04576111 C40.56383823 9.69388877 43.31439282 17.34078557 46.06718445 24.98688126 C46.56103527 26.35864035 47.05482027 27.73042314 47.54853821 29.10223007 C53.37156831 45.28085402 59.22410536 61.44760788 65.18920898 77.57446289 C65.43115683 78.2289271 65.67310467 78.8833913 65.92238426 79.55768776 C68.47149482 86.4523198 71.02815493 93.3440844 73.59423828 100.23242188 C74.43195834 102.49093951 75.26960865 104.74948301 76.10717773 107.00805664 C76.48640884 108.0200412 76.86563995 109.03202576 77.25636292 110.07467651 C77.60641891 111.02053619 77.95647491 111.96639587 78.31713867 112.94091797 C78.77053619 114.1571862 78.77053619 114.1571862 79.23309326 115.39802551 C80.38493178 118.91357464 81.22555801 122.5245465 82.12280273 126.11352539 C69.91280273 126.11352539 57.70280273 126.11352539 45.12280273 126.11352539 C39.12280273 109.11352539 39.12280273 109.11352539 39.12280273 106.11352539 C23.94280273 106.11352539 8.76280273 106.11352539 -6.87719727 106.11352539 C-7.86719727 109.74352539 -8.85719727 113.37352539 -9.87719727 117.11352539 C-10.86719727 120.08352539 -11.85719727 123.05352539 -12.87719727 126.11352539 C-25.08719727 126.11352539 -37.29719727 126.11352539 -49.87719727 126.11352539 C-48.0973229 120.18061083 -46.34254687 114.41546852 -44.26000977 108.60961914 C-44.01061142 107.91306717 -43.76121307 107.2165152 -43.5042572 106.49885559 C-42.6732647 104.1818117 -41.83796582 101.86635048 -41.00219727 99.55102539 C-40.70973114 98.73815063 -40.41726501 97.92527588 -40.11593628 97.08776855 C-32.01352922 74.57182155 -23.71232287 52.12741432 -15.41125488 29.68409729 C-13.50690046 24.53461961 -11.60800351 19.38337604 -9.72827148 14.22485352 C-9.40177109 13.3309491 -9.07527069 12.43704468 -8.73887634 11.51605225 C-8.13739104 9.86785417 -7.53810042 8.21885286 -6.94142151 6.56890869 C-4.59024745 0.13440369 -4.59024745 0.13440369 0 0 Z " fill="#040404" transform="translate(494.877197265625,466.886474609375)"/>
<path d="M0 0 C11.88 0 23.76 0 36 0 C36.33 16.83 36.66 33.66 37 51 C45.0907515 40.52571353 45.0907515 40.52571353 52.8125 29.8125 C57.74523799 22.75896243 62.75731558 15.766838 67.81176758 8.80004883 C68.3302124 8.08486084 68.84865723 7.36967285 69.3828125 6.6328125 C69.84059082 6.00262207 70.29836914 5.37243164 70.77001953 4.72314453 C71.87812807 3.17073682 72.94200855 1.58698718 74 0 C75.79702759 -0.36076355 75.79702759 -0.36076355 77.99072266 -0.34057617 C79.22177231 -0.34023628 79.22177231 -0.34023628 80.47769165 -0.33988953 C81.36419403 -0.32440567 82.25069641 -0.30892181 83.1640625 -0.29296875 C84.07127045 -0.28872391 84.97847839 -0.28447906 85.91317749 -0.28010559 C88.81741732 -0.26328133 91.7209691 -0.2256226 94.625 -0.1875 C96.59113583 -0.17245799 98.55728251 -0.15876875 100.5234375 -0.14648438 C105.34922439 -0.11336557 110.17449545 -0.06155786 115 0 C111.05932209 6.08746512 106.87514524 11.878741 102.375 17.5625 C97.33484961 23.98420769 92.35443742 30.44115601 87.50097656 37.00537109 C84.83574815 40.59939123 82.11018201 44.12493958 79.29296875 47.6015625 C78.68138916 48.36718506 78.06980957 49.13280762 77.43969727 49.92163086 C76.25315918 51.40316724 75.05228651 52.87336524 73.83569336 54.33032227 C70.73850012 57.9762124 70.73850012 57.9762124 70.2578125 62.48046875 C72.7907298 66.14354422 75.46157235 69.6528243 78.25 73.125 C83.24336238 79.43922469 88.12858769 85.8105092 92.875 92.3125 C98.76868113 100.38536444 104.807705 108.3385406 110.93505859 116.2355957 C111.58168457 117.07566162 112.22831055 117.91572754 112.89453125 118.78125 C113.47050049 119.52439453 114.04646973 120.26753906 114.63989258 121.03320312 C116 123 116 123 117 126 C111.2021927 126.3235469 105.40971913 126.55817315 99.60498047 126.71411133 C97.63529908 126.77914341 95.66623712 126.86761327 93.69873047 126.98071289 C77.8693268 127.86725577 77.8693268 127.86725577 73.17752075 124.81399536 C69.58631512 121.40364232 67.34092568 117.32202157 65 113 C63.97522328 111.53156626 62.93062681 110.07648799 61.85546875 108.64453125 C60.96363941 107.3689362 60.07429781 106.0915981 59.1875 104.8125 C58.1817298 103.37708523 57.17519013 101.94220936 56.16796875 100.5078125 C55.65540527 99.77723633 55.1428418 99.04666016 54.61474609 98.29394531 C51.76370065 94.2436848 48.88710575 90.21211152 46 86.1875 C45.46012451 85.42864502 44.92024902 84.66979004 44.36401367 83.88793945 C43.85201416 83.17597412 43.34001465 82.46400879 42.8125 81.73046875 C42.36519531 81.10551514 41.91789063 80.48056152 41.45703125 79.83666992 C39.8017223 77.7500598 37.88334669 75.88334669 36 74 C36 91.16 36 108.32 36 126 C24.12 126 12.24 126 0 126 C0 84.42 0 42.84 0 0 Z " fill="#050505" transform="translate(725,307)"/>
<path d="M0 0 C26.73 0 53.46 0 81 0 C81 9.24 81 18.48 81 28 C65.82 28 50.64 28 35 28 C35 34.93 35 41.86 35 49 C48.2 49 61.4 49 75 49 C75 57.58 75 66.16 75 75 C61.8 75 48.6 75 35 75 C35 82.59 35 90.18 35 98 C50.18 98 65.36 98 81 98 C81 107.24 81 116.48 81 126 C54.27 126 27.54 126 0 126 C0 84.42 0 42.84 0 0 Z " fill="#030303" transform="translate(721,467)"/>
<path d="M0 0 C31 0 31 0 40 7 C40.66 8.65 41.32 10.3 42 12 C42.99 12 43.98 12 45 12 C46.80182723 10.16249303 48.31143831 8.17100789 49.890625 6.140625 C54.96219872 0.99391685 59.51542267 -0.45608964 66.55000305 -0.60708618 C67.95804451 -0.60435196 67.95804451 -0.60435196 69.39453125 -0.6015625 C70.38192795 -0.61013275 71.36932465 -0.618703 72.38664246 -0.62753296 C74.46842392 -0.63897804 76.55028534 -0.64005068 78.63208008 -0.63134766 C81.7932405 -0.62503844 84.95063144 -0.6719433 88.11132812 -0.72265625 C106.35948462 -0.83700326 106.35948462 -0.83700326 113.37133789 4.38598633 C117.22370587 8.20370551 119.16945351 11.79042928 119.5 17.3125 C119.37837305 21.07653419 118.31628191 23.69117997 116.6875 27.0625 C115.49612519 29.52267256 115.49612519 29.52267256 115 32 C115.94818391 34.30273235 117.22201201 35.96337192 118.73046875 37.9375 C121.08410325 41.76125082 120.73269621 45.69284188 120 50 C118.11930763 56.02031692 114.95492813 59.2838039 110 63 C109.2575 63.7425 108.515 64.485 107.75 65.25 C105.04417325 67.95582675 103.33963185 68.1275347 99.62963867 68.14526367 C98.7249736 68.15164352 97.82030853 68.15802338 96.88822937 68.16459656 C95.90804337 68.16570938 94.92785736 68.1668222 93.91796875 68.16796875 C92.91163895 68.17129715 91.90530914 68.17462555 90.8684845 68.17805481 C88.73581398 68.18312451 86.60313552 68.18546312 84.47045898 68.18530273 C81.21129199 68.18748408 77.9524662 68.20562524 74.69335938 68.22460938 C72.62239699 68.22754432 70.551433 68.22952844 68.48046875 68.23046875 C67.50635544 68.23765427 66.53224213 68.24483978 65.52861023 68.25224304 C60.85287343 68.23650606 57.27761712 68.08695401 53 66 C48.84594326 65.71161543 48.84594326 65.71161543 45 67 C42.52443304 67.17682621 40.10250105 67.27730822 37.625 67.3125 C36.61566406 67.35600586 36.61566406 67.35600586 35.5859375 67.40039062 C32.18357381 67.44392481 30.36715194 67.28603698 27.6484375 65.16796875 C25.63911645 62.52537827 23.84121599 59.76182398 22 57 C21.2575 56.278125 20.515 55.55625 19.75 54.8125 C18 53 18 53 18 50 C17.34 50 16.68 50 16 50 C15.97113249 45.85418113 15.95324673 41.70838784 15.9375 37.5625 C15.92912109 36.37849609 15.92074219 35.19449219 15.91210938 33.97460938 C15.90888672 32.84990234 15.90566406 31.72519531 15.90234375 30.56640625 C15.89448853 29.00321655 15.89448853 29.00321655 15.88647461 27.40844727 C16 25 16 25 17 24 C19.33297433 23.95907063 21.66705225 23.95758277 24 24 C24 22.68 24 21.36 24 20 C21.36 19.34 18.72 18.68 16 18 C15.67 33.18 15.34 48.36 15 64 C10.05 64 5.1 64 0 64 C0 42.88 0 21.76 0 0 Z " fill="#C0C1C2" transform="translate(661,96)"/>
<path d="M0 0 C11.88 0 23.76 0 36 0 C36 32.67 36 65.34 36 99 C48.87 99 61.74 99 75 99 C75 107.91 75 116.82 75 126 C50.25 126 25.5 126 0 126 C0 84.42 0 42.84 0 0 Z " fill="#070707" transform="translate(356,307)"/>
<path d="M0 0 C11.88 0 23.76 0 36 0 C36 41.58 36 83.16 36 126 C24.12 126 12.24 126 0 126 C0 84.42 0 42.84 0 0 Z " fill="#080808" transform="translate(855,307)"/>
<path d="M0 0 C6.44052292 5.16560712 10.72043332 10.71590881 12 19 C12.21779412 22.25053067 12.27636404 25.49294573 12.3125 28.75 C12.34150391 29.6059375 12.37050781 30.461875 12.40039062 31.34375 C12.49339445 40.78721581 9.09798338 47.51141783 2.7265625 54.34375 C-3.66174855 60.47190358 -11.22265247 61.4733266 -19.75 61.30859375 C-28.02483993 60.52288179 -34.52123633 56.11092871 -40 50 C-46.19291979 40.74641754 -46.47876719 27.88313391 -44.46875 17.16796875 C-41.84567508 8.79978951 -36.77831782 2.3982618 -29.2265625 -2.04296875 C-20.02673196 -6.17706981 -8.52527833 -5.20827584 0 0 Z " fill="#F4F4F4" transform="translate(521,341)"/>
<path d="M0 0 C5.73431848 4.61491193 8.51135063 9.56530188 10.80859375 16.45703125 C11.87179108 27.40527209 12.15005487 39.04092232 5.80859375 48.45703125 C0.00592773 55.33717491 -6.18477646 58.81404513 -15.07421875 59.765625 C-23.00377074 60.10024804 -29.8561211 58.81874948 -36.2265625 53.87890625 C-43.11858928 47.38196381 -46.05347648 40.72009524 -46.39453125 31.25 C-46.66931118 15.01698201 -46.66931118 15.01698201 -43.19140625 8.45703125 C-42.71574219 7.52890625 -42.71574219 7.52890625 -42.23046875 6.58203125 C-38.6487395 0.6886895 -32.37225522 -3.44449729 -25.73828125 -5.1875 C-15.87287138 -6.5644207 -8.20655882 -5.7782366 0 0 Z " fill="#F4F4F4" transform="translate(663.19140625,342.54296875)"/>
<path d="M0 0 C31 0 31 0 40 7 C42.69379947 12.22433837 43.46494329 16.07197304 43 22 C42.505 23.485 42.505 23.485 42 25 C53.55 25 65.1 25 77 25 C77 29.62 77 34.24 77 39 C71.06 39 65.12 39 59 39 C59.45472251 45.34648701 59.45472251 45.34648701 61.11328125 47.89453125 C65.58289604 50.51337387 72.03524626 49.772259 77 50 C77 54.62 77 59.24 77 64 C57.37492776 64.80284386 57.37492776 64.80284386 52 60 C45.70244844 53.07547981 44.88050479 48.20113123 45 39 C41.04 39 37.08 39 33 39 C33.88042969 40.14597656 34.76085937 41.29195312 35.66796875 42.47265625 C36.8412062 44.00255788 38.01437989 45.5325084 39.1875 47.0625 C39.76564453 47.81466797 40.34378906 48.56683594 40.93945312 49.34179688 C51 62.47166314 51 62.47166314 51 64 C35.91259813 65.92290416 35.91259813 65.92290416 31.26269531 62.85302734 C27.78854228 59.39614147 25.46326902 55.20204715 23 51 C21.35623486 48.95693969 19.6678692 46.96641106 17.9609375 44.9765625 C16.52936966 42.03195548 16.94257904 39.22817827 17 36 C17.68460297 35.98969254 18.36920593 35.97938507 19.07455444 35.96876526 C26.17936045 35.8608532 33.28403569 35.74624306 40.38867188 35.62768555 C43.04261548 35.58428752 45.6965879 35.54261612 48.35058594 35.50268555 C52.15829158 35.44510075 55.96585155 35.3813725 59.7734375 35.31640625 C60.96617279 35.29969376 62.15890808 35.28298126 63.38778687 35.26576233 C64.48877716 35.24581711 65.58976746 35.22587189 66.72412109 35.20532227 C67.69674896 35.18977798 68.66937683 35.1742337 69.67147827 35.15821838 C72.02390474 35.14869349 72.02390474 35.14869349 74 34 C74 32.35 74 30.7 74 29 C55.52 28.67 37.04 28.34 18 28 C18 27.01 18 26.02 18 25 C21.96 24.505 21.96 24.505 26 24 C26.33 21.69 26.66 19.38 27 17 C21.06 16.01 21.06 16.01 15 15 C15 31.17 15 47.34 15 64 C10.05 64 5.1 64 0 64 C0 42.88 0 21.76 0 0 Z " fill="#030303" transform="translate(661,96)"/>
<path d="M0 0 C27.35452323 0 27.35452323 0 37.7265625 9.59765625 C43.72607759 16.08481665 45.55468209 23.10915154 45.4375 31.8125 C45.43065186 32.59786133 45.42380371 33.38322266 45.41674805 34.19238281 C45.20140911 42.03491391 43.46931788 48.9395364 38.8125 55.375 C27.53140774 65.90401944 15.43776669 65 0 65 C0 43.55 0 22.1 0 0 Z " fill="#F1F1F1" transform="translate(989,497)"/>
<path d="M0 0 C27 0 27 0 36 6 C38.96439494 10.04235674 39.48929785 13.68168973 39.390625 18.57421875 C38.93761016 21.38744089 37.92920991 23.50442041 36.6875 26.0625 C35.49612519 28.52267256 35.49612519 28.52267256 35 31 C35.94818391 33.30273235 37.22201201 34.96337192 38.73046875 36.9375 C41.08410325 40.76125082 40.73269621 44.69284188 40 49 C38.15274799 54.91327039 35.05391322 58.52543466 30 62 C26.70731805 63.12595599 23.60172152 63.11531491 20.140625 63.09765625 C19.02558594 63.09443359 17.91054688 63.09121094 16.76171875 63.08789062 C15.60285156 63.07951172 14.44398438 63.07113281 13.25 63.0625 C12.07566406 63.05798828 10.90132812 63.05347656 9.69140625 63.04882812 C6.79421928 63.03705094 3.89713546 63.02060326 1 63 C3.74796023 57.21970206 7.8766088 52.81824548 13 49 C16.75487713 47.97767976 20.1370994 47.93690362 24 48 C25.96822886 46.03177114 25.66248381 42.65191291 26 40 C21.71 39.34 17.42 38.68 13 38 C13.1546875 40.10375 13.1546875 40.10375 13.3125 42.25 C13.30557722 46.69442278 13.30557722 46.69442278 10.875 49.125 C9.451875 50.053125 9.451875 50.053125 8 51 C6.37424583 52.82052667 4.85213079 54.70022624 3.33203125 56.609375 C2.67267578 57.29773438 2.67267578 57.29773438 2 58 C1.34 58 0.68 58 0 58 C0 38.86 0 19.72 0 0 Z " fill="#030303" transform="translate(741,97)"/>
<path d="M0 0 C1.4370809 -0.05422947 2.87475462 -0.09289723 4.3125 -0.125 C5.11300781 -0.14820312 5.91351562 -0.17140625 6.73828125 -0.1953125 C9 0 9 0 12 2 C12.25 5.5625 12.25 5.5625 12 9 C11 10 11 10 9.15234375 10.09765625 C7.1015625 10.06510417 5.05078125 10.03255208 3 10 C3 10.99 3 11.98 3 13 C3.69935165 12.99777939 4.39870331 12.99555878 5.11924744 12.99327087 C11.69704921 12.9732672 18.27484254 12.95802548 24.85266781 12.94818783 C28.23471813 12.94296025 31.6167434 12.93586489 34.9987793 12.92456055 C38.88329777 12.91165733 42.76780597 12.90677076 46.65234375 12.90234375 C47.87211411 12.89718246 49.09188446 12.89202118 50.34861755 12.88670349 C52.03024742 12.88659019 52.03024742 12.88659019 53.74584961 12.88647461 C54.73846298 12.884254 55.73107635 12.88203339 56.75376892 12.87974548 C59 13 59 13 60 14 C60.25 16.4375 60.25 16.4375 60 19 C56.63352075 21.2443195 55.54377354 21.2450516 51.6105957 21.22705078 C50.50968094 21.22689972 49.40876617 21.22674866 48.27449036 21.22659302 C46.49312935 21.21110916 46.49312935 21.21110916 44.67578125 21.1953125 C43.45924362 21.1924826 42.24270599 21.18965271 40.98930359 21.18673706 C37.09693642 21.17552603 33.20479784 21.15041948 29.3125 21.125 C26.67643561 21.11497141 24.04036762 21.10584535 21.40429688 21.09765625 C14.93611968 21.07558366 8.46807617 21.04209688 2 21 C2.64714307 26.78781073 4.05300679 30.13358761 7.75 34.5625 C8.39582031 35.36977539 8.39582031 35.36977539 9.0546875 36.19335938 C10.81513506 38.38337723 12.60435271 40.54291762 14.44335938 42.66748047 C18 46.80226331 18 46.80226331 18 49 C26.415 48.505 26.415 48.505 35 48 C32.73229072 44.8935079 30.46099334 41.78975445 28.1875 38.6875 C27.22360352 37.36588867 27.22360352 37.36588867 26.24023438 36.01757812 C25.61826172 35.17001953 24.99628906 34.32246094 24.35546875 33.44921875 C23.78465576 32.66893311 23.21384277 31.88864746 22.62573242 31.0847168 C21.07301874 28.9937096 21.07301874 28.9937096 19.2902832 27.34692383 C18 26 18 26 18 24 C21.96 24 25.92 24 30 24 C30.07476563 24.845625 30.14953125 25.69125 30.2265625 26.5625 C31.07351359 33.86952898 32.0838113 40.1278446 38 45 C43.36694365 47.84328156 47.91966838 48.50701662 53.9375 48.6875 C54.71673828 48.72166016 55.49597656 48.75582031 56.29882812 48.79101562 C58.19874393 48.8726071 60.09934403 48.93799885 62 49 C58.57807951 51.0853453 55.96236016 51.2234875 51.9921875 51.16015625 C50.84105469 51.14919922 49.68992187 51.13824219 48.50390625 51.12695312 C47.30636719 51.10568359 46.10882812 51.08441406 44.875 51.0625 C42.49745504 51.02817181 40.11984512 50.99800726 37.7421875 50.97265625 C36.6888623 50.95468994 35.63553711 50.93672363 34.55029297 50.91821289 C32.00788418 50.82176019 32.00788418 50.82176019 30 52 C27.52443304 52.17682621 25.10250105 52.27730822 22.625 52.3125 C21.95210937 52.34150391 21.27921875 52.37050781 20.5859375 52.40039062 C17.18357381 52.44392481 15.36715194 52.28603698 12.6484375 50.16796875 C10.63911645 47.52537827 8.84121599 44.76182398 7 42 C6.2575 41.278125 5.515 40.55625 4.75 39.8125 C3 38 3 38 3 35 C2.34 35 1.68 35 1 35 C0.97113249 30.85418113 0.95324673 26.70838784 0.9375 22.5625 C0.92912109 21.37849609 0.92074219 20.19449219 0.91210938 18.97460938 C0.90888672 17.84990234 0.90566406 16.72519531 0.90234375 15.56640625 C0.89710693 14.52427979 0.89187012 13.48215332 0.88647461 12.40844727 C1 10 1 10 2 9 C4.33297433 8.95907063 6.66705225 8.95758277 9 9 C9 7.68 9 6.36 9 5 C6.03 4.01 3.06 3.02 0 2 C0 1.34 0 0.68 0 0 Z " fill="#8A8B8B" transform="translate(676,111)"/>
<path d="M0 0 C2.88712261 1.44356131 3.07021873 3.60543636 4.05618286 6.52511597 C4.30834564 7.29799957 4.56050842 8.07088318 4.8203125 8.8671875 C5.21559647 10.05297897 5.21559647 10.05297897 5.61886597 11.26272583 C6.1754344 12.93780001 6.72832143 14.61410114 7.27783203 16.29150391 C8.12014775 18.86020273 8.97511197 21.42442213 9.83203125 23.98828125 C10.37054991 25.61433241 10.90833477 27.24062682 11.4453125 28.8671875 C11.70152374 29.63602264 11.95773499 30.40485779 12.22171021 31.19699097 C13.2141768 34.24193747 14 36.77572316 14 40 C5.09 40 -3.82 40 -13 40 C-9.625 27.625 -9.625 27.625 -7.51953125 21.58203125 C-7.19295784 20.63984993 -7.19295784 20.63984993 -6.85978699 19.67863464 C-6.18075415 17.72205508 -5.49675088 15.76725996 -4.8125 13.8125 C-4.34406631 12.46561116 -3.87596523 11.11860659 -3.40820312 9.77148438 C-2.27595638 6.51298342 -1.13925314 3.25605898 0 0 Z " fill="#DEDEDE" transform="translate(876,506)"/>
<path d="M0 0 C0.66 0 1.32 0 2 0 C3.71668675 5.05113769 5.42545248 10.10485934 7.12695312 15.16113281 C7.70681638 16.88061545 8.28883229 18.59937371 8.87304688 20.31738281 C9.71271535 22.78783598 10.54459185 25.2607961 11.375 27.734375 C11.63748535 28.50118591 11.8999707 29.26799683 12.17041016 30.05804443 C13.34520915 33.58096405 14 36.2474525 14 40 C5.42 40 -3.16 40 -12 40 C-11.23804932 34.66634525 -10.21955427 30.11691848 -8.49609375 25.09765625 C-8.2533522 24.3750914 -8.01061066 23.65252655 -7.76051331 22.9080658 C-6.99184073 20.62425181 -6.2148266 18.34338111 -5.4375 16.0625 C-4.91155318 14.50474497 -4.3861571 12.94680388 -3.86132812 11.38867188 C-2.58057492 7.59026747 -1.2923382 3.79447765 0 0 Z " fill="#DEDEDE" transform="translate(510,506)"/>
<path d="M0 0 C1.94326172 0.01933594 1.94326172 0.01933594 3.92578125 0.0390625 C5.28907324 0.07248134 6.65235449 0.10634109 8.015625 0.140625 C9.39450564 0.16069793 10.77341412 0.17894733 12.15234375 0.1953125 C15.52414244 0.24247052 18.89453187 0.30827962 22.265625 0.390625 C22.265625 0.720625 22.265625 1.050625 22.265625 1.390625 C13.355625 1.390625 4.445625 1.390625 -4.734375 1.390625 C-4.734375 22.510625 -4.734375 43.630625 -4.734375 65.390625 C0.215625 65.390625 5.165625 65.390625 10.265625 65.390625 C6.265625 70.390625 6.265625 70.390625 2.59375 70.87890625 C1.2335134 70.8458908 -0.12629838 70.78656071 -1.484375 70.703125 C-2.18175781 70.68056641 -2.87914062 70.65800781 -3.59765625 70.63476562 C-5.31082435 70.57609548 -7.02288123 70.48641756 -8.734375 70.390625 C-10.80922009 66.96748207 -10.99689337 64.27824644 -11.02490234 60.30859375 C-11.03766205 59.08052002 -11.05042175 57.85244629 -11.06356812 56.5871582 C-11.06662521 55.25081541 -11.06885327 53.9144705 -11.0703125 52.578125 C-11.07674184 51.20336773 -11.08347031 49.82861183 -11.09048462 48.45385742 C-11.10244572 45.57565131 -11.10616651 42.69756514 -11.10498047 39.81933594 C-11.10477699 36.13367046 -11.13211312 32.44877355 -11.16652489 28.76329041 C-11.18877205 25.92537917 -11.19281875 23.08765382 -11.19176102 20.24966431 C-11.19411897 18.89089298 -11.20295365 17.53211668 -11.21842575 16.1734314 C-11.23804358 14.27327419 -11.22973596 12.37289087 -11.22021484 10.47265625 C-11.22306488 9.39218018 -11.22591492 8.3117041 -11.22885132 7.19848633 C-10.08356938 0.69505486 -5.92651064 -0.10397387 0 0 Z " fill="#C4C5C5" transform="translate(665.734375,94.609375)"/>
<path d="M0 0 C0.79921875 0.00644531 1.5984375 0.01289062 2.421875 0.01953125 C3.246875 0.03628906 4.071875 0.05304688 4.921875 0.0703125 C5.76234375 0.07933594 6.6028125 0.08835937 7.46875 0.09765625 C9.53658104 0.12115433 11.60426495 0.15702342 13.671875 0.1953125 C13.671875 4.8153125 13.671875 9.4353125 13.671875 14.1953125 C8.721875 14.5253125 3.771875 14.8553125 -1.328125 15.1953125 C-2.318125 17.5053125 -3.308125 19.8153125 -4.328125 22.1953125 C-8.948125 22.1953125 -13.568125 22.1953125 -18.328125 22.1953125 C-18.64137801 12.95434864 -18.64137801 12.95434864 -16.328125 9.1953125 C-11.58607168 4.41147898 -7.05042512 -0.10072036 0 0 Z " fill="#060706" transform="translate(724.328125,95.8046875)"/>
<path d="M0 0 C9.24 0 18.48 0 28 0 C28 0.33 28 0.66 28 1 C19.75 1 11.5 1 3 1 C3.33 20.47 3.66 39.94 4 60 C3.34 60 2.68 60 2 60 C1.67 53.73 1.34 47.46 1 41 C-4.94 40.67 -10.88 40.34 -17 40 C-17 41.98 -17 43.96 -17 46 C-17.33 46 -17.66 46 -18 46 C-18 43.69 -18 41.38 -18 39 C-12.06 39 -6.12 39 0 39 C0 34.38 0 29.76 0 25 C-11.55 25 -23.1 25 -35 25 C-35 21.04 -35 17.08 -35 13 C-33.68 12.67 -32.36 12.34 -31 12 C-31.33 15.3 -31.66 18.6 -32 22 C-27.38 22 -22.76 22 -18 22 C-17.67 20.35 -17.34 18.7 -17 17 C-16.34 16.01 -15.68 15.02 -15 14 C-12.37302936 13.77862607 -9.99106036 13.71837975 -7.375 13.8125 C-6.66859375 13.82603516 -5.9621875 13.83957031 -5.234375 13.85351562 C-3.48925872 13.8888896 -1.74453392 13.94269779 0 14 C0 9.38 0 4.76 0 0 Z " fill="#6C6C6C" transform="translate(738,96)"/>
<path d="M0 0 C6.75 1.875 6.75 1.875 9 3 C9 4.32 9 5.64 9 7 C6.69 7.33 4.38 7.66 2 8 C1.67 16.25 1.34 24.5 1 33 C1.66 33 2.32 33 3 33 C3.268125 33.969375 3.53625 34.93875 3.8125 35.9375 C4.204375 36.948125 4.59625 37.95875 5 39 C5.99 39.33 6.98 39.66 8 40 C12 45.37142857 12 45.37142857 12 48 C15.57693822 49.19231274 18.84182553 49.1461202 22.5625 49.125 C23.24763672 49.12886719 23.93277344 49.13273437 24.63867188 49.13671875 C28.44562188 49.18722618 28.44562188 49.18722618 32 48 C35.03336073 47.79777595 37.28185802 47.65115639 40.04858398 48.99511719 C44.47338124 50.5016492 48.76750945 50.28504515 53.41015625 50.265625 C54.41461288 50.26753845 55.41906952 50.2694519 56.45396423 50.27142334 C58.57290905 50.27278179 60.69186228 50.26910913 62.81079102 50.26074219 C66.05438905 50.25002679 69.29743465 50.26065491 72.54101562 50.2734375 C74.60156372 50.27211606 76.66211148 50.269554 78.72265625 50.265625 C80.1774514 50.27169769 80.1774514 50.27169769 81.66163635 50.27789307 C82.56615036 50.27158875 83.47066437 50.26528442 84.40258789 50.25878906 C85.59242027 50.25640228 85.59242027 50.25640228 86.80628967 50.25396729 C90.57011651 49.81822658 92.52112741 48.57155761 94.9375 45.6875 C95.618125 44.800625 96.29875 43.91375 97 43 C98.66666667 41.33333333 100.33333333 39.66666667 102 38 C102.66 37.01 103.32 36.02 104 35 C104.6796875 37.25 104.6796875 37.25 105 40 C103.8828125 42.0625 103.8828125 42.0625 102.125 44 C101.57070313 44.639375 101.01640625 45.27875 100.4453125 45.9375 C93.2574472 52.00010844 87.14258491 53.73778844 77.83203125 53.5234375 C76.79358566 53.51873444 75.75514008 53.51403137 74.68522644 53.50918579 C71.39361973 53.48798606 68.10366985 53.43145728 64.8125 53.375 C62.59181217 53.35847486 60.37110697 53.34413146 58.15039062 53.33203125 C41.98519037 53.19769967 41.98519037 53.19769967 35 52 C34.01 52.495 34.01 52.495 33 53 C30.19648462 53.12479416 27.4286626 53.18517138 24.625 53.1875 C23.85671875 53.19974609 23.0884375 53.21199219 22.296875 53.22460938 C14.89318166 53.24382311 14.89318166 53.24382311 12 51 C10.30704992 49.02676017 8.76825307 47.09687069 7.25 45 C6.63318359 44.18015625 6.63318359 44.18015625 6.00390625 43.34375 C3 39.27200997 3 39.27200997 3 37 C2.34 37 1.68 37 1 37 C-0.21077701 33.36766898 -0.12444164 30.04878013 -0.09765625 26.26953125 C-0.0962413 25.51911057 -0.09482635 24.76868988 -0.09336853 23.99552917 C-0.0877756 21.6011454 -0.07522444 19.20685547 -0.0625 16.8125 C-0.05748408 15.18815239 -0.05292134 13.56380332 -0.04882812 11.93945312 C-0.03780848 7.95959931 -0.02054873 3.97981556 0 0 Z " fill="#E6E6E7" transform="translate(676,113)"/>
<path d="M0 0 C2.97922593 -0.02683987 5.95821295 -0.04676037 8.9375 -0.0625 C9.78763672 -0.07087891 10.63777344 -0.07925781 11.51367188 -0.08789062 C12.32255859 -0.09111328 13.13144531 -0.09433594 13.96484375 -0.09765625 C14.7137085 -0.10289307 15.46257324 -0.10812988 16.23413086 -0.11352539 C18 0 18 0 19 1 C19.25068786 4.09631103 19.18522508 7.20723686 19.1875 10.3125 C19.19974609 11.18068359 19.21199219 12.04886719 19.22460938 12.94335938 C19.22750977 14.2030957 19.22750977 14.2030957 19.23046875 15.48828125 C19.23457764 16.25696533 19.23868652 17.02564941 19.24291992 17.81762695 C19 20 19 20 17 24 C17 19.38 17 14.76 17 10 C13.6278125 10.0928125 13.6278125 10.0928125 10.1875 10.1875 C3.66592527 10.36699288 3.66592527 10.36699288 1.05078125 8.92578125 C-0.55504162 5.98276759 -0.1856838 3.28041373 0 0 Z " fill="#959595" transform="translate(721,136)"/>
<path d="M0 0 C11.55 0 23.1 0 35 0 C35 4.62 35 9.24 35 14 C29.06 14 23.12 14 17 14 C17 13.34 17 12.68 17 12 C12.71 12 8.42 12 4 12 C4 15.96 4 19.92 4 24 C3.67 24 3.34 24 3 24 C3 20.7 3 17.4 3 14 C-0.96 14 -4.92 14 -9 14 C-9 13.34 -9 12.68 -9 12 C-13.95 12 -18.9 12 -24 12 C-24 13.98 -24 15.96 -24 18 C-24.33 18 -24.66 18 -25 18 C-25 15.69 -25 13.38 -25 11 C-24.31539703 10.98969254 -23.63079407 10.97938507 -22.92544556 10.96876526 C-15.82063955 10.8608532 -8.71596431 10.74624306 -1.61132812 10.62768555 C1.04261548 10.58428752 3.6965879 10.54261612 6.35058594 10.50268555 C10.15829158 10.44510075 13.96585155 10.3813725 17.7734375 10.31640625 C18.96617279 10.29969376 20.15890808 10.28298126 21.38778687 10.26576233 C22.48877716 10.24581711 23.58976746 10.22587189 24.72412109 10.20532227 C25.69674896 10.18977798 26.66937683 10.1742337 27.67147827 10.15821838 C30.02390474 10.14869349 30.02390474 10.14869349 32 9 C32.66 6.36 33.32 3.72 34 1 C22.78 1 11.56 1 0 1 C0 0.67 0 0.34 0 0 Z " fill="#131313" transform="translate(703,121)"/>
<path d="M0 0 C17.82 0 35.64 0 54 0 C54.495 1.485 54.495 1.485 55 3 C36.85 3 18.7 3 0 3 C0 2.01 0 1.02 0 0 Z " fill="#1A1B1A" transform="translate(678,126)"/>
<path d="M0 0 C0.33 0 0.66 0 1 0 C1 21.12 1 42.24 1 64 C4.96 64 8.92 64 13 64 C9.71737969 66.18841354 8.68209102 66.24854665 4.875 66.1875 C3.98554687 66.18105469 3.09609375 66.17460937 2.1796875 66.16796875 C0 66 0 66 -1 65 C-1.09903867 63.1907532 -1.12799196 61.37762876 -1.12939453 59.56567383 C-1.13254669 58.40389114 -1.13569885 57.24210846 -1.13894653 56.04512024 C-1.1369223 54.77855087 -1.13489807 53.51198151 -1.1328125 52.20703125 C-1.13376923 50.91310959 -1.13472595 49.61918793 -1.13571167 48.28605652 C-1.1371892 45.53956923 -1.13503406 42.79311438 -1.13037109 40.04663086 C-1.12470184 36.5373641 -1.12793453 33.02817428 -1.13394356 29.51891041 C-1.13844505 26.16494468 -1.13528329 22.81099916 -1.1328125 19.45703125 C-1.13483673 18.20058304 -1.13686096 16.94413483 -1.13894653 15.64961243 C-1.13579437 14.47206894 -1.13264221 13.29452545 -1.12939453 12.08129883 C-1.12859894 11.04951004 -1.12780334 10.01772125 -1.12698364 8.95466614 C-0.99566465 5.89912472 -0.56390853 3.00336655 0 0 Z " fill="#737475" transform="translate(660,96)"/>
<path d="M0 0 C1.37376679 0.00398964 2.74753489 0.01873698 4.12109375 0.04296875 C4.81912109 0.04361328 5.51714844 0.04425781 6.23632812 0.04492188 C11.41828217 0.09015717 11.41828217 0.09015717 12.55859375 1.23046875 C12.55859375 3.54046875 12.55859375 5.85046875 12.55859375 8.23046875 C5.95859375 8.23046875 -0.64140625 8.23046875 -7.44140625 8.23046875 C-6.78140625 7.90046875 -6.12140625 7.57046875 -5.44140625 7.23046875 C-5.48265625 6.44671875 -5.52390625 5.66296875 -5.56640625 4.85546875 C-5.36519985 0.63013432 -4.08450263 0.2735365 0 0 Z " fill="#F3F3F3" transform="translate(725.44140625,111.76953125)"/>
<path d="M0 0 C9.10714286 -0.26785714 9.10714286 -0.26785714 13 2 C13.125 5.375 13.125 5.375 13 9 C11 11 11 11 8.1796875 11.1953125 C7.08914063 11.17210937 5.99859375 11.14890625 4.875 11.125 C3.77929688 11.10695312 2.68359375 11.08890625 1.5546875 11.0703125 C0.71164062 11.04710937 -0.13140625 11.02390625 -1 11 C-0.67 7.37 -0.34 3.74 0 0 Z " fill="#B2B2B3" transform="translate(754,135)"/>
<path d="M0 0 C3.96 0 7.92 0 12 0 C12.14695312 1.28583984 12.14695312 1.28583984 12.296875 2.59765625 C13.17641379 9.32309509 14.09910991 14.4087242 18 20 C15.8203125 19.9296875 15.8203125 19.9296875 13 19 C11.08815926 16.72787317 9.4851878 14.59198498 7.875 12.125 C7.02070488 10.85510185 6.16400649 9.58681649 5.3046875 8.3203125 C4.93327637 7.75586426 4.56186523 7.19141602 4.17919922 6.60986328 C3.01487729 4.92383144 3.01487729 4.92383144 1.35595703 3.41748047 C0 2 0 2 0 0 Z " fill="#6E6E6E" transform="translate(694,135)"/>
<path d="M0 0 C8.57142857 -0.28571429 8.57142857 -0.28571429 12 2 C12.1875 5.375 12.1875 5.375 12 9 C7.7975546 11.80163026 4.99895065 11.14489712 0 11 C0 7.37 0 3.74 0 0 Z " fill="#A1A1A3" transform="translate(754,110)"/>
<path d="M0 0 C6.75 1.875 6.75 1.875 9 3 C9 4.32 9 5.64 9 7 C6.69 7.33 4.38 7.66 2 8 C1.67 16.25 1.34 24.5 1 33 C1.66 33 2.32 33 3 33 C3.268125 33.969375 3.53625 34.93875 3.8125 35.9375 C4.204375 36.948125 4.59625 37.95875 5 39 C5.99 39.33 6.98 39.66 8 40 C9.60546875 42.28515625 9.60546875 42.28515625 11.1875 45.0625 C11.71730469 45.98160156 12.24710938 46.90070313 12.79296875 47.84765625 C13.19128906 48.55792969 13.58960938 49.26820313 14 50 C13.01 50.495 13.01 50.495 12 51 C10.49412261 49.04594482 8.99521356 47.08718716 7.5 45.125 C7.07074219 44.56941406 6.64148438 44.01382813 6.19921875 43.44140625 C3 39.2265625 3 39.2265625 3 37 C2.34 37 1.68 37 1 37 C-0.21077701 33.36766898 -0.12444164 30.04878013 -0.09765625 26.26953125 C-0.0962413 25.51911057 -0.09482635 24.76868988 -0.09336853 23.99552917 C-0.0877756 21.6011454 -0.07522444 19.20685547 -0.0625 16.8125 C-0.05748408 15.18815239 -0.05292134 13.56380332 -0.04882812 11.93945312 C-0.03780848 7.95959931 -0.02054873 3.97981556 0 0 Z " fill="#DFDEDE" transform="translate(676,113)"/>
<path d="M0 0 C3.12613393 2.96160056 5.04783565 5.09567131 7 9 C15.415 8.505 15.415 8.505 24 8 C23.34 6.35 22.68 4.7 22 3 C23.62542193 3.64477069 25.25032424 4.29085143 26.875 4.9375 C27.77992188 5.29714844 28.68484375 5.65679687 29.6171875 6.02734375 C32 7 32 7 34 8 C36.87910588 8.23274209 39.74146495 8.41972757 42.625 8.5625 C43.42679688 8.60568359 44.22859375 8.64886719 45.0546875 8.69335938 C47.0362511 8.79951457 49.01810271 8.90026855 51 9 C46.99106694 11.74867226 42.72041345 11.25918778 38.0625 11.1875 C36.7616748 11.17783203 36.7616748 11.17783203 35.43457031 11.16796875 C25.61223026 11.05543209 15.80596016 10.55133913 6 10 C5.34 8.68 4.68 7.36 4 6 C3.34 6 2.68 6 2 6 C2 5.34 2 4.68 2 4 C1.34 4 0.68 4 0 4 C0 2.68 0 1.36 0 0 Z " fill="#8F8E8F" transform="translate(687,151)"/>
<path d="M0 0 C1.98 0.99 1.98 0.99 4 2 C4 2.66 4 3.32 4 4 C5.32 4.33 6.64 4.66 8 5 C8 5.66 8 6.32 8 7 C8.66 7 9.32 7 10 7 C10 8.32 10 9.64 10 11 C10.66 11 11.32 11 12 11 C12 11.66 12 12.32 12 13 C12.66 13 13.32 13 14 13 C14.99 14.485 14.99 14.485 16 16 C18.609621 16.38411275 21.0058074 16.60293197 23.625 16.6875 C24.33140625 16.72166016 25.0378125 16.75582031 25.765625 16.79101562 C27.50985688 16.87351308 29.25490395 16.93843335 31 17 C28.16816475 19.83183525 25.41155565 19.36782849 21.625 19.375 C20.95210937 19.39949219 20.27921875 19.42398438 19.5859375 19.44921875 C16.18958967 19.46927592 14.35754198 19.27914407 11.6484375 17.1640625 C9.63732439 14.52388084 7.8407477 11.76112155 6 9 C5.2575 8.278125 4.515 7.55625 3.75 6.8125 C2 5 2 5 2 2 C1.34 2 0.68 2 0 2 C0 1.34 0 0.68 0 0 Z " fill="#A6A6A6" transform="translate(677,144)"/>
<path d="M0 0 C2.31243792 -0.02685412 4.6249627 -0.04632841 6.9375 -0.0625 C8.22527344 -0.07410156 9.51304687 -0.08570313 10.83984375 -0.09765625 C14 0 14 0 15 1 C15.04063832 2.66617115 15.042721 4.33388095 15 6 C12.87527424 6.05386629 10.75016348 6.09273071 8.625 6.125 C6.84996094 6.15980469 6.84996094 6.15980469 5.0390625 6.1953125 C2 6 2 6 0 4 C0 2.68 0 1.36 0 0 Z " fill="#F1F1F1" transform="translate(721,139)"/>
<path d="M0 0 C3.96 0 7.92 0 12 0 C15 3 15 3 15.1875 6.1875 C15.125625 7.115625 15.06375 8.04375 15 9 C14.01 9.495 14.01 9.495 13 10 C13 7.69 13 5.38 13 3 C7.06 2.01 7.06 2.01 1 1 C1 17.17 1 33.34 1 50 C0.67 50 0.34 50 0 50 C0 33.5 0 17 0 0 Z " fill="#343435" transform="translate(675,110)"/>
<path d="M0 0 C2 2 2 2 2.22705078 4.24658203 C2.21657715 5.15778809 2.20610352 6.06899414 2.1953125 7.0078125 C2.18886719 7.99394531 2.18242188 8.98007813 2.17578125 9.99609375 C2.15902344 11.02863281 2.14226563 12.06117187 2.125 13.125 C2.11597656 14.16527344 2.10695313 15.20554687 2.09765625 16.27734375 C2.07403747 18.85179092 2.04110149 21.42578212 2 24 C1.34 24 0.68 24 0 24 C-0.33 21.69 -0.66 19.38 -1 17 C-5.95 16.67 -10.9 16.34 -16 16 C-15.67 15.34 -15.34 14.68 -15 14 C-10.05 14 -5.1 14 0 14 C0 9.38 0 4.76 0 0 Z " fill="#8D8D8E" transform="translate(738,96)"/>
<path d="M0 0 C1.37376679 0.00398964 2.74753489 0.01873698 4.12109375 0.04296875 C4.81912109 0.04361328 5.51714844 0.04425781 6.23632812 0.04492188 C11.41828217 0.09015717 11.41828217 0.09015717 12.55859375 1.23046875 C12.59952312 3.56344308 12.60101098 5.897521 12.55859375 8.23046875 C11.89859375 8.23046875 11.23859375 8.23046875 10.55859375 8.23046875 C10.22859375 6.58046875 9.89859375 4.93046875 9.55859375 3.23046875 C4.93859375 3.23046875 0.31859375 3.23046875 -4.44140625 3.23046875 C-4.77140625 4.55046875 -5.10140625 5.87046875 -5.44140625 7.23046875 C-5.56640625 4.85546875 -5.56640625 4.85546875 -5.44140625 2.23046875 C-3.44140625 0.23046875 -3.44140625 0.23046875 0 0 Z " fill="#C2C3C4" transform="translate(725.44140625,111.76953125)"/>
<path d="M0 0 C11.55 0 23.1 0 35 0 C35 4.29 35 8.58 35 13 C33.35 13 31.7 13 30 13 C30.20496094 12.46890625 30.40992188 11.9378125 30.62109375 11.390625 C30.89050781 10.68421875 31.15992188 9.9778125 31.4375 9.25 C31.70433594 8.55390625 31.97117187 7.8578125 32.24609375 7.140625 C33.13653634 4.71879627 33.13653634 4.71879627 34 1 C22.78 1 11.56 1 0 1 C0 0.67 0 0.34 0 0 Z " fill="#0C0C0C" transform="translate(703,121)"/>
<path d="M0 0 C9.57 0 19.14 0 29 0 C28.67 0.99 28.34 1.98 28 3 C19.09 3 10.18 3 1 3 C0.67 2.01 0.34 1.02 0 0 Z " fill="#8C8C8E" transform="translate(741,159)"/>
<path d="M0 0 C2.64590014 -0.02684679 5.29153096 -0.04676357 7.9375 -0.0625 C8.69224609 -0.07087891 9.44699219 -0.07925781 10.22460938 -0.08789062 C12.14994313 -0.09652441 14.07535581 -0.05224333 16 0 C17 1 17 1 17.125 4.5 C17 8 17 8 16 9 C13.81360547 9.07258946 11.62499611 9.08373783 9.4375 9.0625 C7.64119141 9.04896484 7.64119141 9.04896484 5.80859375 9.03515625 C4.88175781 9.02355469 3.95492187 9.01195312 3 9 C3 8.67 3 8.34 3 8 C6.96 8 10.92 8 15 8 C14.67 6.35 14.34 4.7 14 3 C7.07 2.505 7.07 2.505 0 2 C0 1.34 0 0.68 0 0 Z " fill="#C2C2C3" transform="translate(721,137)"/>
<path d="M0 0 C-1.515625 1.984375 -1.515625 1.984375 -4 4 C-6.73682971 4.2911521 -9.03940039 4.38322418 -11.75 4.25 C-12.44738281 4.23195312 -13.14476562 4.21390625 -13.86328125 4.1953125 C-15.57611539 4.14838554 -17.28823824 4.07664605 -19 4 C-19.33 2.68 -19.66 1.36 -20 0 C-18.53626953 0.01740234 -18.53626953 0.01740234 -17.04296875 0.03515625 C-15.77066406 0.04417969 -14.49835937 0.05320313 -13.1875 0.0625 C-11.29064453 0.07990234 -11.29064453 0.07990234 -9.35546875 0.09765625 C-0.48179872 -0.16059957 -0.48179872 -0.16059957 0 0 Z " fill="#C8C8C9" transform="translate(676,161)"/>
<path d="M0 0 C6.75 1.875 6.75 1.875 9 3 C9 4.32 9 5.64 9 7 C7.88625 7.12375 6.7725 7.2475 5.625 7.375 C1.96896323 7.6465813 1.96896323 7.6465813 0 10 C0 6.7 0 3.4 0 0 Z " fill="#EEEEEE" transform="translate(676,113)"/>
<path d="M0 0 C0.72960937 0.32097656 1.45921875 0.64195312 2.2109375 0.97265625 C5.72396575 2.26667086 9.11191702 2.45502107 12.8125 2.625 C13.85180664 2.68300781 13.85180664 2.68300781 14.91210938 2.7421875 C16.60767015 2.83573568 18.30379712 2.91892364 20 3 C20 3.33 20 3.66 20 4 C4.33941864 4.17293894 4.33941864 4.17293894 -0.4375 3.5 C-7.54633089 2.51033923 -14.83999032 2.92601597 -22 3 C-22 2.67 -22 2.34 -22 2 C-21.01257813 1.93941406 -20.02515625 1.87882813 -19.0078125 1.81640625 C-17.72648438 1.73261719 -16.44515625 1.64882812 -15.125 1.5625 C-13.84882812 1.48128906 -12.57265625 1.40007812 -11.2578125 1.31640625 C-7.16023301 0.9184399 -4.2652922 -0.25089954 0 0 Z " fill="#D9D9DA" transform="translate(714,161)"/>
<path d="M0 0 C1.4370809 -0.05422947 2.87475462 -0.09289723 4.3125 -0.125 C5.11300781 -0.14820312 5.91351562 -0.17140625 6.73828125 -0.1953125 C9 0 9 0 12 2 C12.1875 5.625 12.1875 5.625 12 9 C11.01 9 10.02 9 9 9 C9 7.68 9 6.36 9 5 C6.03 4.01 3.06 3.02 0 2 C0 1.34 0 0.68 0 0 Z " fill="#BBBBBC" transform="translate(676,111)"/>
<path d="M0 0 C1.41623216 -0.05447047 2.83308191 -0.09300508 4.25 -0.125 C5.03890625 -0.14820313 5.8278125 -0.17140625 6.640625 -0.1953125 C9.20731941 0.0171622 10.7916067 0.71345895 13 2 C13 4.31 13 6.62 13 9 C11.02 9.99 11.02 9.99 9 11 C9.04125 9.88625 9.0825 8.7725 9.125 7.625 C9.41121859 3.95633975 9.41121859 3.95633975 7 2 C5.01178687 1.60235737 3.01055661 1.26224651 1 1 C1 3.31 1 5.62 1 8 C0.67 8 0.34 8 0 8 C0 5.36 0 2.72 0 0 Z " fill="#6B6B6C" transform="translate(754,135)"/>
<path d="M0 0 C-0.86625 0.515625 -1.7325 1.03125 -2.625 1.5625 C-6.46201739 4.09310433 -9.16675882 7.42328418 -12 11 C-13.32 10.67 -14.64 10.34 -16 10 C-16.33 8.68 -16.66 7.36 -17 6 C-16.236875 5.896875 -15.47375 5.79375 -14.6875 5.6875 C-11.757381 4.93793468 -11.02209812 4.11401167 -9 2 C-8.01 2 -7.02 2 -6 2 C-6 1.34 -6 0.68 -6 0 C-3 -1 -3 -1 0 0 Z " fill="#C9C9CA" transform="translate(718,98)"/>
<path d="M0 0 C8.57142857 -0.28571429 8.57142857 -0.28571429 12 2 C12 4.31 12 6.62 12 9 C11.01 9.495 11.01 9.495 10 10 C10 7.69 10 5.38 10 3 C7.03 2.67 4.06 2.34 1 2 C1 4.97 1 7.94 1 11 C0.67 11 0.34 11 0 11 C0 7.37 0 3.74 0 0 Z " fill="#636363" transform="translate(754,110)"/>
<path d="M0 0 C0.99 0.33 1.98 0.66 3 1 C-0.50897269 5.18423892 -4.08060535 9.19588166 -8 13 C-8.99 12.67 -9.98 12.34 -11 12 C-10.04882866 10.8274869 -9.08882991 9.66212985 -8.125 8.5 C-7.32449219 7.52546875 -7.32449219 7.52546875 -6.5078125 6.53125 C-6.01023437 6.0259375 -5.51265625 5.520625 -5 5 C-4.34 5 -3.68 5 -3 5 C-2.690625 4.360625 -2.38125 3.72125 -2.0625 3.0625 C-1 1 -1 1 0 0 Z " fill="#8B8987" transform="translate(751,145)"/>
<path d="M0 0 C2.875 -0.1875 2.875 -0.1875 6 0 C8.29013653 3.4352048 8.17842973 4.985331 8 9 C4.20620942 7.50958227 2.31656242 5.30937488 0 2 C0 1.34 0 0.68 0 0 Z " fill="#B5B5B6" transform="translate(696,137)"/>
<path d="M0 0 C1.66611905 -0.042721 3.33382885 -0.04063832 5 0 C6 1 6 1 6.0625 3.5625 C6.041875 4.366875 6.02125 5.17125 6 6 C1.545 6.495 1.545 6.495 -3 7 C-2.34 5.68 -1.68 4.36 -1 3 C-0.67 2.01 -0.34 1.02 0 0 Z " fill="#EBEBEB" transform="translate(756,139)"/>
<path d="M0 0 C0.24492188 0.54140625 0.48984375 1.0828125 0.7421875 1.640625 C2.29353788 4.55061143 4.16714304 7.0974196 6.125 9.75 C6.84945312 10.73484375 7.57390625 11.7196875 8.3203125 12.734375 C8.87460937 13.48203125 9.42890625 14.2296875 10 15 C9.01 15.495 9.01 15.495 8 16 C8 15.34 8 14.68 8 14 C7.13375 13.87625 7.13375 13.87625 6.25 13.75 C3.1135816 12.7045272 1.91043954 11.72919934 0 9 C-0.33429898 5.97041545 -0.2334377 3.03469016 0 0 Z " fill="#797978" transform="translate(677,135)"/>
<path d="M0 0 C3.12613393 2.96160056 5.04783565 5.09567131 7 9 C12.94 9 18.88 9 25 9 C25 9.33 25 9.66 25 10 C18.73 10 12.46 10 6 10 C5.34 8.68 4.68 7.36 4 6 C3.34 6 2.68 6 2 6 C2 5.34 2 4.68 2 4 C1.34 4 0.68 4 0 4 C0 2.68 0 1.36 0 0 Z " fill="#7D7D7E" transform="translate(687,151)"/>
<path d="M0 0 C0.66 0.66 1.32 1.32 2 2 C1.91015625 4.41796875 1.91015625 4.41796875 1 7 C-1.06640625 8.80078125 -1.06640625 8.80078125 -3.5625 10.3125 C-4.38878906 10.82425781 -5.21507812 11.33601562 -6.06640625 11.86328125 C-6.70449219 12.23839844 -7.34257813 12.61351562 -8 13 C-8 12.01 -8 11.02 -8 10 C-7.236875 9.401875 -6.47375 8.80375 -5.6875 8.1875 C-2.66832926 5.73003545 -1.52756977 3.53752999 0 0 Z " fill="#BCBCBC" transform="translate(779,148)"/>
<path d="M0 0 C1.5 1.375 1.5 1.375 3 3 C3 3.66 3 4.32 3 5 C9.6 5.33 16.2 5.66 23 6 C23 6.33 23 6.66 23 7 C19.56265937 7.08703823 16.12560163 7.14040272 12.6875 7.1875 C11.22280273 7.22520508 11.22280273 7.22520508 9.72851562 7.26367188 C8.32182617 7.27817383 8.32182617 7.27817383 6.88671875 7.29296875 C6.02264404 7.3086792 5.15856934 7.32438965 4.26831055 7.34057617 C2 7 2 7 0.17504883 5.6184082 C-1 4 -1 4 -0.6875 1.8125 C-0.460625 1.214375 -0.23375 0.61625 0 0 Z " fill="#B0AFB1" transform="translate(739,156)"/>
<path d="M0 0 C2.97 0.495 2.97 0.495 6 1 C6 2.65 6 4.3 6 6 C4.02 6 2.04 6 0 6 C0 4.02 0 2.04 0 0 Z " fill="#E4E5E6" transform="translate(755,114)"/>
<path d="M0 0 C2.97 0 5.94 0 9 0 C10.35091528 2.70183055 10.33858058 5.11808206 10.5625 8.125 C10.64628906 9.22070312 10.73007812 10.31640625 10.81640625 11.4453125 C10.87699219 12.28835937 10.93757812 13.13140625 11 14 C9.68 12.68 8.36 11.36 7 10 C7.66 10 8.32 10 9 10 C8.34 7.36 7.68 4.72 7 2 C4.69 2 2.38 2 0 2 C0 1.34 0 0.68 0 0 Z " fill="#959595" transform="translate(695,136)"/>
<path d="M0 0 C0 0.66 0 1.32 0 2 C-2.64 2.33 -5.28 2.66 -8 3 C-8 3.66 -8 4.32 -8 5 C-8.99 5 -9.98 5 -11 5 C-11.33 5.99 -11.66 6.98 -12 8 C-14.5625 9.1875 -14.5625 9.1875 -17 10 C-12.85675021 4.11925836 -7.48190749 0 0 0 Z " fill="#EFEFEF" transform="translate(720,95)"/>
<path d="M0 0 C1.77007714 -0.08114106 3.54122098 -0.13925505 5.3125 -0.1875 C6.29863281 -0.22230469 7.28476562 -0.25710937 8.30078125 -0.29296875 C11 0 11 0 12.84375 1.3125 C14.5684867 3.8296833 14.19767151 6.03492731 14 9 C13.01 9.495 13.01 9.495 12 10 C12 7.69 12 5.38 12 3 C6.06 2.01 6.06 2.01 0 1 C0 0.67 0 0.34 0 0 Z " fill="#5E5E5E" transform="translate(676,110)"/>
<path d="M0 0 C-0.33 0.99 -0.66 1.98 -1 3 C-2.95803507 3.05389087 -4.91648909 3.09274217 -6.875 3.125 C-7.96554687 3.14820313 -9.05609375 3.17140625 -10.1796875 3.1953125 C-13 3 -13 3 -15 1 C-12.8750734 0.83240016 -10.75005624 0.66594799 -8.625 0.5 C-7.44164062 0.4071875 -6.25828125 0.314375 -5.0390625 0.21875 C-3.36213157 0.09804546 -1.68126944 0 0 0 Z " fill="#9A9A9A" transform="translate(734,129)"/>
<path d="M0 0 C1.258125 -0.04125 2.51625 -0.0825 3.8125 -0.125 C4.52019531 -0.14820312 5.22789062 -0.17140625 5.95703125 -0.1953125 C8 0 8 0 11 2 C11.1875 5.625 11.1875 5.625 11 9 C10.67 9 10.34 9 10 9 C10 7.35 10 5.7 10 4 C6.7 3.01 3.4 2.02 0 1 C0 0.67 0 0.34 0 0 Z " fill="#8F8F90" transform="translate(677,111)"/>
<path d="M0 0 C-0.33 0.99 -0.66 1.98 -1 3 C-6.61 3 -12.22 3 -18 3 C-18 2.67 -18 2.34 -18 2 C-17.01257813 1.93941406 -16.02515625 1.87882813 -15.0078125 1.81640625 C-13.72648438 1.73261719 -12.44515625 1.64882812 -11.125 1.5625 C-9.84882812 1.48128906 -8.57265625 1.40007812 -7.2578125 1.31640625 C-4.53573738 1.05203205 -2.62506009 0 0 0 Z " fill="#C6C7C8" transform="translate(710,161)"/>
<path d="M0 0 C3.80666984 1.44390925 5.26602582 3.34952803 7 7 C6.67 7.66 6.34 8.32 6 9 C4 7.1875 4 7.1875 2 5 C2 4.01 2 3.02 2 2 C1.34 2 0.68 2 0 2 C0 1.34 0 0.68 0 0 Z " fill="#BFBFBE" transform="translate(677,144)"/>
<path d="M0 0 C2.64752004 2.57784846 4.94432065 4.91648098 7 8 C6.01 8 5.02 8 4 8 C4 7.34 4 6.68 4 6 C3.34 6 2.68 6 2 6 C2 5.34 2 4.68 2 4 C1.34 4 0.68 4 0 4 C0 2.68 0 1.36 0 0 Z " fill="#6A6969" transform="translate(687,151)"/>
<path d="M0 0 C0.66 0.66 1.32 1.32 2 2 C1.625 4.625 1.625 4.625 1 7 C0.01 7.33 -0.98 7.66 -2 8 C-1.47731534 5.23723823 -0.89130413 2.6739124 0 0 Z " fill="#D1D0CE" transform="translate(779,148)"/>
<path d="M0 0 C1.32 0.33 2.64 0.66 4 1 C4.33 2.98 4.66 4.96 5 7 C3.29115995 5.37660195 1.62553283 3.70680947 0 2 C0 1.34 0 0.68 0 0 Z " fill="#D0D0D0" transform="translate(698,139)"/>
<path d="M0 0 C-4.5 3 -4.5 3 -9 6 C-9 4.68 -9 3.36 -9 2 C-8.01 2 -7.02 2 -6 2 C-6 1.34 -6 0.68 -6 0 C-3 -1 -3 -1 0 0 Z " fill="#BFBFC0" transform="translate(718,98)"/>
<path d="M0 0 C0.99 0.33 1.98 0.66 3 1 C3 2.65 3 4.3 3 6 C2.01 6.495 2.01 6.495 1 7 C-0.0625 4.625 -0.0625 4.625 -1 2 C-0.67 1.34 -0.34 0.68 0 0 Z " fill="#737373" transform="translate(733,124)"/>
<path d="M0 0 C4.455 1.98 4.455 1.98 9 4 C9 4.33 9 4.66 9 5 C3.5 5.36666667 3.5 5.36666667 1.125 3.625 C0 2 0 2 0 0 Z " fill="#6A6969" transform="translate(712,155)"/>
</svg>
