<?xml version="1.0" standalone="no"?>
<!DOCTYPE svg PUBLIC "-//W3C//DTD SVG 20010904//EN"
 "http://www.w3.org/TR/2001/REC-SVG-20010904/DTD/svg10.dtd">
<svg version="1.0" xmlns="http://www.w3.org/2000/svg"
 width="1500.000000pt" height="900.000000pt" viewBox="0 0 1500.000000 900.000000"
 preserveAspectRatio="xMidYMid meet">

<g transform="translate(0.000000,900.000000) scale(0.100000,-0.100000)"
fill="#000000" stroke="none">
<path d="M6605 8008 c-3 -18 -4 -163 -3 -323 l3 -290 35 -3 c19 -2 54 -1 77 3
l43 6 0 248 0 248 47 -7 c50 -8 76 -31 71 -65 -2 -13 -12 -21 -28 -23 -52 -6
-70 -13 -70 -27 0 -13 39 -15 275 -15 l275 0 12 -25 c8 -19 8 -28 -2 -40 -11
-13 -53 -15 -285 -15 l-273 0 -5 -32 c-2 -18 0 -42 6 -53 18 -34 139 -190 155
-199 15 -9 169 -2 179 8 3 3 -14 31 -38 62 -109 141 -129 168 -129 176 0 12
83 -3 92 -16 4 -6 8 -25 8 -42 0 -44 35 -118 69 -147 41 -34 110 -51 185 -45
35 3 69 9 75 12 6 4 11 35 11 72 l0 64 -73 0 c-85 0 -104 13 -109 70 l-3 35
93 3 93 3 -3 72 c-3 65 -5 72 -23 69 -11 -1 -89 0 -172 4 l-153 6 0 38 c0 45
-24 117 -48 143 -42 47 -83 57 -236 57 l-145 0 -6 -32z"/>
<path d="M7174 8021 c-23 -10 -51 -29 -64 -42 -31 -33 -60 -98 -60 -136 l0
-33 75 0 c65 0 75 2 75 18 0 43 26 59 105 64 41 3 78 8 81 11 4 3 3 36 -1 72
l-7 65 -81 0 c-58 0 -94 -6 -123 -19z"/>
<path d="M7406 8024 c-9 -23 -7 -584 2 -584 4 0 36 29 71 64 49 50 65 73 70
103 6 35 9 38 36 35 40 -5 65 -29 65 -62 0 -32 -15 -40 -71 -40 -35 0 -46 -7
-105 -67 -64 -65 -65 -67 -42 -76 37 -14 238 -3 273 15 92 49 131 168 85 258
-11 21 -24 42 -30 45 -6 4 -2 18 12 38 18 25 23 45 23 97 0 85 -26 129 -97
164 -47 23 -63 26 -169 26 -97 0 -118 -3 -123 -16z m211 -149 c23 -16 34 -47
23 -65 -4 -6 -26 -14 -49 -17 l-41 -6 0 52 c0 46 2 51 23 51 12 0 32 -7 44
-15z"/>
<path d="M6782 7723 c3 -17 24 -18 255 -21 242 -2 313 4 298 28 -4 6 -108 10
-281 10 -257 0 -275 -1 -272 -17z"/>
<path d="M6070 6132 c-342 -90 -456 -525 -203 -778 99 -100 251 -148 397 -127
232 33 396 223 396 458 0 311 -284 527 -590 447z m198 -194 c59 -15 132 -85
150 -144 19 -66 15 -181 -9 -234 -42 -94 -107 -134 -214 -134 -148 0 -225 81
-233 246 -4 76 -1 92 21 141 50 110 157 157 285 125z"/>
<path d="M11370 6140 c-223 -39 -370 -219 -370 -454 0 -140 42 -248 131 -335
63 -63 131 -97 235 -118 205 -42 412 55 502 236 30 60 32 71 32 168 l0 103
-240 0 -240 0 0 -80 0 -80 135 0 c88 0 135 -4 135 -10 0 -40 -65 -110 -122
-134 -42 -18 -126 -21 -177 -6 -119 34 -187 162 -163 308 20 121 92 190 207
199 78 7 142 -14 179 -58 l25 -29 121 0 c121 0 121 0 114 23 -59 192 -275 306
-504 267z"/>
<path d="M3405 6128 c-9 -25 -247 -684 -286 -791 l-39 -108 117 3 117 3 25 78
25 77 171 0 171 0 25 -77 25 -78 117 -3 c64 -1 117 1 116 5 0 4 -73 208 -162
453 l-162 445 -128 3 c-96 2 -129 -1 -132 -10z m189 -411 l55 -157 -109 0
c-61 0 -110 3 -110 7 0 14 102 314 106 311 1 -2 28 -74 58 -161z"/>
<path d="M4090 5831 c0 -282 2 -315 20 -374 27 -88 95 -163 182 -203 56 -25
74 -28 168 -28 91 -1 113 3 167 25 70 30 107 57 151 115 63 82 66 96 70 452
l3 322 -110 0 -110 0 -3 -302 c-3 -269 -5 -307 -21 -336 -27 -49 -71 -72 -140
-72 -73 0 -111 21 -137 75 -19 38 -20 63 -20 338 l0 297 -110 0 -110 0 0 -309z"/>
<path d="M4957 6133 c-4 -3 -7 -44 -7 -90 l0 -83 120 0 120 0 0 -365 0 -365
110 0 110 0 0 313 c0 171 3 336 6 365 l7 52 118 0 119 0 0 29 c0 15 -3 56 -6
90 l-7 61 -342 0 c-188 0 -345 -3 -348 -7z"/>
<path d="M6780 5685 l0 -455 110 0 110 0 0 267 c0 146 3 264 6 260 3 -3 49
-122 103 -264 l97 -258 90 -3 91 -3 99 268 99 268 3 -267 2 -268 110 0 110 0
0 455 0 455 -128 0 -129 0 -12 -27 c-7 -16 -62 -152 -123 -303 -60 -151 -113
-278 -117 -283 -4 -4 -63 131 -132 300 l-125 308 -132 3 -132 3 0 -456z"/>
<path d="M8236 6132 c-3 -5 -76 -204 -162 -443 -86 -239 -159 -440 -161 -446
-4 -10 22 -13 110 -13 l116 0 28 80 28 80 169 -2 170 -3 25 -77 25 -78 118 0
117 0 -36 103 c-20 56 -94 260 -164 452 l-126 350 -126 3 c-69 1 -128 -1 -131
-6z m183 -406 c28 -82 51 -153 51 -157 0 -5 -49 -9 -109 -9 l-110 0 50 148
c60 179 59 176 64 171 2 -2 26 -71 54 -153z"/>
<path d="M8870 6050 l0 -90 120 0 120 0 0 -365 0 -365 110 0 110 0 0 365 0
365 120 0 120 0 0 90 0 90 -350 0 -350 0 0 -90z"/>
<path d="M9680 5685 l0 -455 110 0 110 0 0 455 0 455 -110 0 -110 0 0 -455z"/>
<path d="M10060 5685 l0 -455 110 0 110 0 2 278 3 277 184 -277 183 -278 109
0 109 0 0 455 0 456 -107 -3 -108 -3 -5 -274 -5 -274 -182 276 -182 277 -110
0 -111 0 0 -455z"/>
<path d="M8293 4986 c-78 -19 -157 -63 -213 -120 -99 -100 -133 -185 -133
-331 0 -76 5 -114 21 -157 72 -197 267 -322 478 -305 l65 5 60 -79 60 -79 124
0 c84 0 125 4 125 11 0 6 -41 60 -91 120 l-91 110 44 47 c90 96 128 196 128
333 0 303 -278 517 -577 445z m194 -201 c59 -18 123 -80 144 -141 20 -57 18
-170 -4 -226 -41 -105 -157 -165 -271 -139 -110 25 -174 102 -183 225 -17 210
125 337 314 281z"/>
<path d="M12132 4985 c-143 -40 -212 -124 -212 -254 0 -81 23 -134 75 -180 43
-37 80 -55 215 -100 109 -36 147 -63 156 -108 5 -27 1 -37 -24 -63 -55 -54
-158 -35 -183 35 l-13 35 -117 0 -116 0 8 -45 c21 -114 101 -189 234 -221 132
-31 267 -5 350 68 131 115 124 302 -14 393 -20 14 -91 44 -157 68 -137 50
-158 62 -173 94 -17 37 -13 62 14 88 45 46 140 26 165 -35 l12 -30 119 0 119
0 -6 28 c-22 104 -89 184 -182 217 -66 24 -204 29 -270 10z"/>
<path d="M13837 4990 c-90 -23 -164 -76 -200 -145 -27 -52 -30 -175 -5 -221
41 -76 98 -114 238 -159 148 -48 190 -77 190 -131 0 -52 -28 -76 -93 -82 -52
-4 -58 -2 -87 26 -16 17 -30 40 -30 51 0 20 -5 21 -121 21 l-122 0 7 -41 c15
-93 83 -170 185 -211 45 -17 77 -22 161 -22 93 -1 111 2 160 25 115 54 170
134 170 245 0 78 -11 109 -58 157 -44 46 -94 72 -221 117 -127 46 -155 65
-159 114 -5 55 26 86 86 86 35 0 49 -6 73 -29 16 -16 29 -37 29 -45 0 -14 18
-16 121 -16 l122 0 -7 43 c-14 88 -99 179 -194 207 -51 16 -199 21 -245 10z"/>
<path d="M737 4983 c-4 -3 -7 -208 -7 -455 l0 -448 110 0 110 0 0 170 0 170
29 0 c27 0 35 -11 122 -170 l93 -170 123 0 c68 0 123 2 123 4 0 2 -45 81 -100
175 -55 95 -100 174 -100 176 0 2 19 13 43 23 94 42 151 132 151 242 0 151
-94 253 -255 280 -70 11 -432 14 -442 3z m443 -209 c27 -27 37 -94 20 -134
-19 -46 -55 -60 -160 -60 l-90 0 0 111 0 111 105 -4 c90 -3 107 -6 125 -24z"/>
<path d="M1576 4968 c-3 -13 -6 -218 -6 -455 l0 -433 280 0 280 0 0 90 0 90
-165 0 -165 0 0 100 0 100 145 0 145 0 0 85 0 85 -145 0 -145 0 0 90 0 90 165
0 165 0 0 90 0 90 -274 0 -274 0 -6 -22z"/>
<path d="M2277 4983 c-4 -3 -7 -208 -7 -455 l0 -448 110 0 110 0 0 158 0 159
113 7 c140 8 204 27 264 80 62 55 93 122 93 207 0 160 -88 262 -250 288 -71
12 -423 15 -433 4z m398 -187 c56 -24 81 -98 52 -156 -20 -41 -72 -60 -159
-60 l-78 0 0 108 c0 60 3 112 7 115 12 13 143 7 178 -7z"/>
<path d="M3080 4535 l0 -455 275 0 275 0 0 90 0 90 -165 0 -165 0 0 100 0 100
145 0 145 0 0 85 0 85 -145 0 -145 0 0 90 0 90 165 0 165 0 0 90 0 90 -275 0
-275 0 0 -455z"/>
<path d="M3730 4900 l0 -90 120 0 120 0 0 -365 0 -365 110 0 110 0 0 365 0
365 120 0 120 0 0 90 0 90 -350 0 -350 0 0 -90z"/>
<path d="M4540 4535 l0 -455 110 0 110 0 0 455 0 455 -110 0 -110 0 0 -455z"/>
<path d="M4877 4983 c-4 -3 -7 -44 -7 -90 l0 -83 120 0 120 0 0 -365 0 -365
110 0 110 0 0 304 c0 166 3 331 6 365 l7 61 118 0 c136 0 124 -12 112 113 l-6
67 -342 0 c-188 0 -345 -3 -348 -7z"/>
<path d="M5686 4968 c-3 -13 -6 -218 -6 -455 l0 -433 115 0 115 0 -2 453 -3
452 -106 3 c-104 3 -107 2 -113 -20z"/>
<path d="M6000 4983 c0 -4 71 -208 158 -453 l158 -445 140 -3 139 -3 152 429
c84 236 155 441 159 456 l6 26 -114 0 -113 0 -114 -342 -115 -343 -112 340
-112 340 -116 3 c-64 1 -116 -1 -116 -5z"/>
<path d="M7010 4535 l0 -455 275 0 275 0 0 90 0 90 -165 0 -165 0 0 100 0 100
145 0 145 0 0 85 0 85 -145 0 -145 0 0 90 0 90 165 0 165 0 0 90 0 90 -275 0
-275 0 0 -455z"/>
<path d="M9266 4982 c-3 -5 -76 -204 -162 -443 -86 -239 -159 -440 -161 -446
-4 -10 22 -13 110 -13 l116 0 20 55 c11 30 23 66 27 80 l6 25 171 -2 171 -3
25 -77 25 -78 118 0 117 0 -36 103 c-20 56 -94 260 -164 452 l-126 350 -126 3
c-69 1 -128 -1 -131 -6z m183 -405 c28 -82 51 -153 51 -158 0 -5 -49 -9 -109
-9 l-110 0 50 148 c59 178 59 176 63 171 2 -2 27 -71 55 -152z"/>
<path d="M10180 4900 l0 -90 120 0 120 0 0 -365 0 -365 110 0 110 0 0 365 0
365 120 0 121 0 -3 88 -3 87 -347 3 -348 2 0 -90z"/>
<path d="M11256 4982 c-3 -5 -76 -204 -162 -443 -86 -239 -159 -440 -161 -446
-4 -10 22 -13 110 -13 l116 0 20 55 c11 30 23 66 27 80 l6 25 171 -2 171 -3
25 -77 25 -78 118 0 117 0 -36 103 c-20 56 -94 260 -164 452 l-126 350 -126 3
c-69 1 -128 -1 -131 -6z m183 -405 c28 -82 51 -153 51 -158 0 -5 -49 -9 -109
-9 l-110 0 50 148 c59 178 59 176 63 171 2 -2 27 -71 55 -152z"/>
<path d="M12736 4968 c-3 -13 -6 -218 -6 -455 l0 -433 115 0 115 0 2 193 3
194 148 -194 148 -193 135 0 135 0 -18 23 c-114 143 -343 436 -343 439 0 2 76
101 170 219 93 118 170 217 170 222 0 4 -56 7 -125 7 l-124 0 -148 -195 -148
-194 -5 192 -5 192 -106 3 c-104 3 -107 2 -113 -20z"/>
</g>
</svg>
