<?xml version="1.0" standalone="no"?>
<!DOCTYPE svg PUBLIC "-//W3C//DTD SVG 20010904//EN"
 "http://www.w3.org/TR/2001/REC-SVG-20010904/DTD/svg10.dtd">
<svg version="1.0" xmlns="http://www.w3.org/2000/svg"
 width="1500.000000pt" height="900.000000pt" viewBox="0 0 1500.000000 900.000000"
 preserveAspectRatio="xMidYMid meet">

<g transform="translate(0.000000,900.000000) scale(0.100000,-0.100000)"
fill="#000000" stroke="none">
<path d="M6605 8008 c-3 -18 -4 -163 -3 -323 l3 -290 35 -3 c19 -2 54 -1 77 3
l43 6 0 248 0 248 47 -7 c50 -8 76 -31 71 -65 -2 -13 -12 -21 -28 -23 -52 -6
-70 -13 -70 -27 0 -13 39 -15 275 -15 l275 0 12 -25 c8 -19 8 -28 -2 -40 -11
-13 -53 -15 -285 -15 l-273 0 -5 -32 c-2 -18 0 -42 6 -53 18 -34 139 -190 155
-199 15 -9 169 -2 179 8 3 3 -14 31 -38 62 -109 141 -129 168 -129 176 0 12
83 -3 92 -16 4 -6 8 -25 8 -42 0 -44 35 -118 69 -147 41 -34 110 -51 185 -45
35 3 69 9 75 12 6 4 11 35 11 72 l0 64 -73 0 c-85 0 -104 13 -109 70 l-3 35
93 3 93 3 -3 72 c-3 65 -5 72 -23 69 -11 -1 -89 0 -172 4 l-153 6 0 38 c0 45
-24 117 -48 143 -42 47 -83 57 -236 57 l-145 0 -6 -32z"/>
<path d="M7174 8021 c-23 -10 -51 -29 -64 -42 -31 -33 -60 -98 -60 -136 l0
-33 75 0 c65 0 75 2 75 18 0 43 26 59 105 64 41 3 78 8 81 11 4 3 3 36 -1 72
l-7 65 -81 0 c-58 0 -94 -6 -123 -19z"/>
<path d="M7406 8024 c-9 -23 -7 -584 2 -584 4 0 36 29 71 64 49 50 65 73 70
103 6 35 9 38 36 35 40 -5 65 -29 65 -62 0 -32 -15 -40 -71 -40 -35 0 -46 -7
-105 -67 -64 -65 -65 -67 -42 -76 37 -14 238 -3 273 15 92 49 131 168 85 258
-11 21 -24 42 -30 45 -6 4 -2 18 12 38 18 25 23 45 23 97 0 85 -26 129 -97
164 -47 23 -63 26 -169 26 -97 0 -118 -3 -123 -16z m211 -149 c23 -16 34 -47
23 -65 -4 -6 -26 -14 -49 -17 l-41 -6 0 52 c0 46 2 51 23 51 12 0 32 -7 44
-15z"/>
<path d="M6782 7723 c3 -17 24 -18 255 -21 242 -2 313 4 298 28 -4 6 -108 10
-281 10 -257 0 -275 -1 -272 -17z"/>
<path d="M1530 5777 c-144 -32 -220 -122 -220 -256 1 -133 64 -191 288 -265
100 -33 142 -65 142 -108 0 -43 -15 -65 -56 -78 -66 -22 -130 7 -149 68 -6 21
-11 22 -116 22 l-109 0 0 -30 c0 -70 61 -155 139 -195 135 -68 315 -55 427 30
48 37 86 121 86 192 0 134 -58 189 -279 268 -144 51 -184 106 -123 169 39 40
142 15 156 -39 6 -25 7 -25 120 -25 l114 0 0 25 c0 74 -81 173 -166 205 -68
25 -184 33 -254 17z"/>
<path d="M6495 5763 c-190 -68 -295 -220 -295 -428 1 -229 149 -403 373 -436
195 -29 382 65 467 234 27 55 30 69 30 159 l0 98 -235 0 -235 0 0 -75 0 -75
135 0 c74 0 135 -2 135 -5 0 -3 -9 -23 -20 -45 -43 -84 -143 -124 -253 -100
-48 10 -68 20 -107 58 -56 54 -70 94 -70 198 0 93 34 164 97 204 86 55 205 48
269 -16 l33 -34 116 0 c133 0 129 -4 77 93 -34 63 -89 112 -171 150 -60 29
-76 32 -181 35 -90 2 -126 -1 -165 -15z"/>
<path d="M2090 5335 l0 -435 110 0 110 0 0 180 0 180 165 0 165 0 0 -180 0
-180 105 0 105 0 0 435 0 435 -105 0 -105 0 0 -170 0 -170 -165 0 -165 0 0
170 0 170 -110 0 -110 0 0 -435z"/>
<path d="M3010 5335 l0 -435 105 0 105 0 0 435 0 435 -105 0 -105 0 0 -435z"/>
<path d="M3370 5336 l0 -436 110 0 110 0 0 153 0 154 115 6 c96 5 126 11 176
33 206 93 216 386 15 492 -51 27 -52 27 -288 30 l-238 3 0 -435z m421 235 c24
-25 29 -38 29 -79 0 -83 -44 -112 -171 -112 l-59 0 0 110 0 110 86 0 c81 0 87
-1 115 -29z"/>
<path d="M4150 5335 l0 -435 110 0 110 0 0 154 0 153 108 6 c59 3 124 11 144
17 64 18 129 71 162 130 28 49 31 64 30 135 0 132 -54 210 -174 256 -44 17
-77 19 -270 19 l-220 0 0 -435z m426 232 c17 -20 24 -40 24 -71 0 -80 -53
-116 -172 -116 l-58 0 0 111 0 111 91 -4 c85 -3 92 -5 115 -31z"/>
<path d="M4930 5335 l0 -435 105 0 105 0 0 435 0 435 -105 0 -105 0 0 -435z"/>
<path d="M5300 5335 l0 -435 105 0 105 0 2 267 3 267 175 -267 175 -267 108 0
107 0 0 435 0 435 -105 0 -105 0 -2 -267 -3 -267 -175 267 -175 267 -107 0
-108 0 0 -435z"/>
<path d="M7450 5335 l0 -435 105 0 105 0 0 435 0 435 -105 0 -105 0 0 -435z"/>
<path d="M7810 5335 l0 -435 110 0 110 0 0 268 1 267 176 -267 176 -268 109 0
108 0 0 435 0 435 -110 0 -110 0 -2 -262 -3 -261 -172 261 -172 262 -111 0
-110 0 0 -435z"/>
<path d="M8702 5688 l3 -83 118 -3 117 -3 0 -349 0 -350 105 0 105 0 0 350 0
350 115 0 115 0 0 85 0 85 -340 0 -341 0 3 -82z"/>
<path d="M9490 5335 l0 -435 270 0 270 0 0 85 0 85 -165 0 -165 0 0 95 0 95
145 0 145 0 0 85 0 85 -145 0 -145 0 0 85 0 85 163 2 162 3 3 83 3 82 -271 0
-270 0 0 -435z"/>
<path d="M10160 5336 l0 -436 110 0 110 0 0 165 0 165 23 0 c20 0 37 -25 112
-161 48 -88 93 -163 99 -165 7 -3 62 -3 122 -2 l110 3 -99 170 c-54 93 -94
171 -88 173 44 15 101 55 128 91 41 53 56 110 50 186 -7 97 -54 167 -141 213
-51 27 -52 27 -293 30 l-243 3 0 -435z m405 250 c41 -17 55 -42 55 -96 0 -82
-41 -110 -165 -110 l-75 0 0 110 0 110 75 0 c43 0 90 -6 110 -14z"/>
<path d="M10970 5335 l0 -435 110 0 110 0 0 268 1 267 176 -267 176 -268 109
0 108 0 0 435 0 435 -110 0 -110 0 -2 -262 -3 -261 -172 261 -172 262 -111 0
-110 0 0 -435z"/>
<path d="M12165 5758 c-128 -352 -305 -845 -305 -850 0 -5 49 -8 109 -8 l109
0 24 73 25 72 165 3 166 2 24 -72 25 -73 111 -3 c62 -1 112 1 112 5 0 4 -69
199 -154 433 l-154 425 -126 3 c-96 2 -128 -1 -131 -10z m184 -381 c28 -82 51
-150 51 -153 0 -2 -48 -4 -106 -4 -81 0 -105 3 -102 13 3 6 26 76 53 155 26
79 48 142 50 140 1 -2 25 -70 54 -151z"/>
<path d="M12830 5335 l0 -435 245 0 245 0 0 80 0 79 -137 3 -138 3 -3 353 -2
352 -105 0 -105 0 0 -435z"/>
<path d="M6405 4679 c-195 -40 -340 -205 -352 -402 -9 -144 31 -259 124 -354
161 -165 452 -175 618 -22 105 97 147 193 147 339 0 131 -32 218 -116 308 -99
108 -272 161 -421 131z m222 -222 c23 -16 53 -50 69 -80 25 -46 29 -62 29
-137 0 -75 -4 -91 -29 -137 -41 -75 -91 -107 -176 -111 -115 -7 -183 30 -226
123 -33 70 -33 180 0 250 44 94 102 127 217 123 64 -3 82 -7 116 -31z"/>
<path d="M7385 4679 c-195 -40 -340 -205 -352 -402 -9 -144 31 -259 124 -354
161 -165 452 -175 618 -22 105 97 147 193 147 339 0 131 -32 218 -116 308 -99
108 -272 161 -421 131z m222 -222 c23 -16 53 -50 69 -80 25 -46 29 -62 29
-137 0 -75 -4 -91 -29 -137 -41 -75 -91 -107 -176 -111 -115 -7 -183 30 -226
123 -33 70 -33 180 0 250 44 94 102 127 217 123 64 -3 82 -7 116 -31z"/>
<path d="M8840 4677 c-144 -32 -220 -122 -220 -256 1 -133 64 -191 288 -265
100 -33 142 -65 142 -108 0 -43 -15 -65 -56 -78 -66 -22 -130 7 -149 68 -6 21
-11 22 -116 22 l-109 0 0 -30 c0 -70 61 -155 139 -195 135 -68 315 -55 427 30
48 37 86 121 86 192 0 134 -58 189 -279 268 -144 51 -184 106 -123 169 39 40
142 15 156 -39 6 -25 7 -25 120 -25 l114 0 0 25 c0 74 -81 173 -166 205 -68
25 -184 33 -254 17z"/>
<path d="M5302 4588 l3 -83 113 -3 112 -3 0 -349 0 -350 110 0 110 0 0 350 0
350 115 0 115 0 0 85 0 85 -340 0 -341 0 3 -82z"/>
<path d="M8040 4235 l0 -435 250 0 250 0 0 80 0 80 -140 0 -140 0 0 355 0 355
-110 0 -110 0 0 -435z"/>
</g>
</svg>
