<?xml version="1.0" standalone="no"?>
<!DOCTYPE svg PUBLIC "-//W3C//DTD SVG 20010904//EN"
 "http://www.w3.org/TR/2001/REC-SVG-20010904/DTD/svg10.dtd">
<svg version="1.0" xmlns="http://www.w3.org/2000/svg"
 width="1500.000000pt" height="900.000000pt" viewBox="0 0 1500.000000 900.000000"
 preserveAspectRatio="xMidYMid meet">

<g transform="translate(0.000000,900.000000) scale(0.100000,-0.100000)"
fill="#000000" stroke="none">
<path d="M6605 8008 c-3 -18 -4 -163 -3 -323 l3 -290 35 -3 c19 -2 54 -1 77 3
l43 6 0 248 0 248 47 -7 c50 -8 76 -31 71 -65 -2 -13 -12 -21 -28 -23 -52 -6
-70 -13 -70 -27 0 -13 39 -15 275 -15 l275 0 12 -25 c8 -19 8 -28 -2 -40 -11
-13 -53 -15 -285 -15 l-273 0 -5 -32 c-2 -18 0 -42 6 -53 18 -34 139 -190 155
-199 15 -9 169 -2 179 8 3 3 -14 31 -38 62 -109 141 -129 168 -129 176 0 12
83 -3 92 -16 4 -6 8 -25 8 -42 0 -44 35 -118 69 -147 41 -34 110 -51 185 -45
35 3 69 9 75 12 6 4 11 35 11 72 l0 64 -73 0 c-85 0 -104 13 -109 70 l-3 35
93 3 93 3 -3 72 c-3 65 -5 72 -23 69 -11 -1 -89 0 -172 4 l-153 6 0 38 c0 45
-24 117 -48 143 -42 47 -83 57 -236 57 l-145 0 -6 -32z"/>
<path d="M7174 8021 c-23 -10 -51 -29 -64 -42 -31 -33 -60 -98 -60 -136 l0
-33 75 0 c65 0 75 2 75 18 0 43 26 59 105 64 41 3 78 8 81 11 4 3 3 36 -1 72
l-7 65 -81 0 c-58 0 -94 -6 -123 -19z"/>
<path d="M7406 8024 c-9 -23 -7 -584 2 -584 4 0 36 29 71 64 49 50 65 73 70
103 6 35 9 38 36 35 40 -5 65 -29 65 -62 0 -32 -15 -40 -71 -40 -35 0 -46 -7
-105 -67 -64 -65 -65 -67 -42 -76 37 -14 238 -3 273 15 92 49 131 168 85 258
-11 21 -24 42 -30 45 -6 4 -2 18 12 38 18 25 23 45 23 97 0 85 -26 129 -97
164 -47 23 -63 26 -169 26 -97 0 -118 -3 -123 -16z m211 -149 c23 -16 34 -47
23 -65 -4 -6 -26 -14 -49 -17 l-41 -6 0 52 c0 46 2 51 23 51 12 0 32 -7 44
-15z"/>
<path d="M6782 7723 c3 -17 24 -18 255 -21 242 -2 313 4 298 28 -4 6 -108 10
-281 10 -257 0 -275 -1 -272 -17z"/>
<path d="M2428 5594 c-140 -34 -288 -142 -361 -265 -135 -228 -105 -528 71
-719 110 -119 241 -179 412 -187 191 -9 323 40 452 168 128 126 185 279 175
465 -15 263 -187 474 -442 539 -73 19 -229 18 -307 -1z m282 -266 c51 -21 114
-78 137 -123 43 -81 54 -199 28 -298 -40 -155 -155 -235 -320 -225 -193 13
-310 183 -275 403 24 150 113 246 245 265 66 9 130 2 185 -22z"/>
<path d="M6082 5596 c-203 -50 -372 -216 -427 -421 -21 -78 -21 -241 0 -319
24 -91 83 -194 150 -262 120 -121 278 -181 460 -171 128 6 212 33 310 99 120
79 199 192 235 334 73 285 -53 573 -301 692 -46 22 -108 45 -137 51 -70 14
-224 13 -290 -3z m271 -262 c64 -23 113 -69 149 -142 31 -63 33 -72 33 -177 0
-128 -16 -174 -85 -249 -60 -64 -129 -89 -235 -84 -124 7 -203 59 -254 168
-33 72 -41 210 -17 293 49 170 229 253 409 191z"/>
<path d="M12632 5590 c-264 -69 -432 -292 -432 -575 0 -294 187 -528 463 -580
150 -28 277 -12 407 51 100 49 203 152 251 249 33 68 34 73 37 212 l3 143
-310 0 -311 0 0 -105 0 -105 180 -2 180 -3 -22 -44 c-28 -58 -80 -109 -137
-134 -66 -30 -196 -29 -267 2 -110 48 -173 148 -182 286 -9 158 49 275 166
332 111 54 283 26 341 -56 l22 -31 160 0 159 0 -21 53 c-82 209 -273 327 -529
326 -50 0 -115 -8 -158 -19z"/>
<path d="M3340 5015 l0 -585 140 0 140 0 2 356 3 355 235 -355 235 -356 143 0
142 0 0 585 0 585 -140 0 -140 0 -1 -337 c0 -186 -3 -346 -7 -355 -5 -12 -70
79 -241 337 l-233 355 -139 0 -139 0 0 -585z"/>
<path d="M4590 5014 l0 -585 333 3 c372 4 391 7 483 77 93 70 135 204 100 323
-20 70 -83 143 -149 174 l-49 22 40 21 c51 26 115 99 130 149 44 146 -24 302
-158 361 -75 33 -162 41 -452 41 l-278 0 0 -586z m561 333 c33 -22 49 -57 49
-108 0 -33 -7 -48 -34 -75 l-34 -34 -131 0 -131 0 0 121 0 121 128 -4 c100 -2
132 -7 153 -21z m16 -450 c59 -31 82 -117 46 -178 -27 -46 -76 -59 -218 -59
l-125 0 0 123 c0 68 3 127 8 131 4 5 63 6 132 4 92 -3 133 -9 157 -21z"/>
<path d="M7124 5018 l-211 -583 145 -3 c100 -2 148 1 152 9 4 6 22 53 40 105
l32 94 216 -2 215 -3 36 -102 36 -103 149 0 148 0 -6 23 c-3 12 -97 274 -209
582 l-203 560 -165 3 -164 2 -211 -582z m449 40 l65 -198 -139 0 c-76 0 -139
3 -139 7 0 25 134 403 140 396 4 -4 37 -97 73 -205z"/>
<path d="M8220 5016 l0 -586 140 0 140 0 0 220 0 220 34 0 c34 0 34 -1 151
-212 64 -117 120 -216 124 -221 4 -4 78 -6 164 -5 l156 3 -126 215 c-69 118
-127 222 -129 230 -3 10 13 22 49 38 112 48 186 156 195 284 12 175 -78 311
-247 369 -62 21 -85 23 -358 27 l-293 4 0 -586z m535 330 c67 -28 94 -120 60
-202 -23 -55 -75 -74 -207 -74 l-108 0 0 145 0 145 110 0 c74 0 122 -5 145
-14z"/>
<path d="M9300 5016 l0 -586 254 0 c292 0 369 10 484 65 81 38 174 120 221
194 16 25 42 82 57 126 24 69 28 96 28 195 0 128 -14 192 -66 294 -41 81 -144
182 -228 223 -123 60 -158 65 -467 70 l-283 5 0 -586z m547 319 c108 -32 180
-120 203 -245 34 -186 -50 -350 -202 -395 -32 -9 -92 -15 -160 -15 l-108 0 0
335 0 335 108 0 c67 0 128 -6 159 -15z"/>
<path d="M10510 5015 l0 -585 140 0 140 0 0 585 0 585 -140 0 -140 0 0 -585z"/>
<path d="M11000 5015 l0 -585 140 0 140 0 2 357 3 357 235 -356 235 -357 143
-1 142 0 0 585 0 585 -140 0 -140 0 -2 -361 -3 -361 -235 359 -236 358 -142 3
-142 3 0 -586z"/>
<path d="M5640 4050 l0 -120 255 0 c140 0 255 -3 254 -7 0 -5 -94 -222 -208
-483 l-207 -475 139 -3 c77 -1 144 1 148 5 4 4 100 230 213 500 l206 493 0
105 0 105 -400 0 -400 0 0 -120z"/>
<path d="M3348 4124 c-140 -34 -288 -142 -361 -265 -135 -228 -105 -528 71
-719 110 -119 241 -179 412 -187 191 -9 323 40 452 168 128 126 185 279 175
465 -15 263 -187 474 -442 539 -73 19 -229 18 -307 -1z m282 -266 c51 -21 114
-78 137 -123 43 -81 54 -199 28 -298 -40 -155 -155 -235 -320 -225 -193 13
-310 183 -275 403 24 150 113 246 245 265 66 9 130 2 185 -22z"/>
<path d="M2040 3545 l0 -585 145 0 145 0 0 235 0 235 175 0 175 0 0 110 0 110
-175 0 -175 0 0 125 0 125 235 0 235 0 0 115 0 115 -380 0 -380 0 0 -585z"/>
<path d="M4260 3545 l0 -585 140 0 140 0 0 221 0 220 37 -3 36 -3 120 -217
120 -218 158 0 c88 0 159 2 159 4 0 2 -52 93 -116 202 -166 285 -155 248 -87
280 70 33 130 93 163 159 19 39 25 70 28 140 5 122 -19 188 -97 266 -101 101
-185 119 -548 119 l-253 0 0 -585z m534 331 c53 -22 76 -60 76 -126 0 -70 -28
-117 -80 -136 -19 -7 -83 -13 -142 -13 l-108 -1 0 145 0 145 110 0 c71 0 122
-5 144 -14z"/>
<path d="M7550 3545 l0 -585 355 0 355 0 0 115 0 115 -215 0 -215 0 0 125 0
125 190 0 190 0 0 110 0 110 -187 2 -188 3 -3 118 -3 117 216 0 215 0 0 115 0
115 -355 0 -355 0 0 -585z"/>
<path d="M8450 3545 l0 -585 330 0 330 0 0 43 c0 23 -3 72 -7 110 l-6 67 -183
0 -184 0 0 475 0 475 -140 0 -140 0 0 -585z"/>
<path d="M9240 3545 l0 -585 360 0 361 0 -3 113 -3 112 -212 3 -213 2 0 125 0
125 188 2 187 3 3 108 3 107 -191 0 -190 0 0 120 0 120 215 0 216 0 -3 113 -3
112 -357 3 -358 2 0 -585z"/>
<path d="M10060 4118 c0 -7 91 -270 203 -585 l202 -573 180 2 180 3 197 556
c108 305 200 568 204 582 l6 28 -148 -3 -149 -3 -145 -439 -145 -439 -145 439
-145 439 -147 3 c-112 2 -148 0 -148 -10z"/>
<path d="M11357 4123 c-4 -3 -7 -267 -7 -585 l0 -578 360 0 360 0 0 115 0 115
-215 0 -215 0 0 125 0 125 190 0 190 0 0 110 0 110 -190 0 -190 0 0 120 0 120
215 0 215 0 0 115 0 115 -353 0 c-195 0 -357 -3 -360 -7z"/>
<path d="M12257 4123 c-4 -3 -7 -267 -7 -585 l0 -578 145 0 145 0 0 358 0 357
236 -357 236 -358 144 0 144 0 0 585 0 585 -145 0 -145 0 -2 -357 -3 -357
-234 357 -235 357 -136 0 c-75 0 -140 -3 -143 -7z"/>
<path d="M6570 3545 l0 -115 365 0 365 0 0 115 0 115 -365 0 -365 0 0 -115z"/>
</g>
</svg>
