<?xml version="1.0" standalone="no"?>
<!DOCTYPE svg PUBLIC "-//W3C//DTD SVG 20010904//EN"
 "http://www.w3.org/TR/2001/REC-SVG-20010904/DTD/svg10.dtd">
<svg version="1.0" xmlns="http://www.w3.org/2000/svg"
 width="1500.000000pt" height="900.000000pt" viewBox="0 0 1500.000000 900.000000"
 preserveAspectRatio="xMidYMid meet">

<g transform="translate(0.000000,900.000000) scale(0.100000,-0.100000)"
fill="#000000" stroke="none">
<path d="M6605 8008 c-3 -18 -4 -163 -3 -323 l3 -290 35 -3 c19 -2 54 -1 77 3
l43 6 0 248 0 248 47 -7 c50 -8 76 -31 71 -65 -2 -13 -12 -21 -28 -23 -52 -6
-70 -13 -70 -27 0 -13 39 -15 275 -15 l275 0 12 -25 c8 -19 8 -28 -2 -40 -11
-13 -53 -15 -285 -15 l-273 0 -5 -32 c-2 -18 0 -42 6 -53 18 -34 139 -190 155
-199 15 -9 169 -2 179 8 3 3 -14 31 -38 62 -109 141 -129 168 -129 176 0 12
83 -3 92 -16 4 -6 8 -25 8 -42 0 -44 35 -118 69 -147 41 -34 110 -51 185 -45
35 3 69 9 75 12 6 4 11 35 11 72 l0 64 -73 0 c-85 0 -104 13 -109 70 l-3 35
93 3 93 3 -3 72 c-3 65 -5 72 -23 69 -11 -1 -89 0 -172 4 l-153 6 0 38 c0 45
-24 117 -48 143 -42 47 -83 57 -236 57 l-145 0 -6 -32z"/>
<path d="M7174 8021 c-23 -10 -51 -29 -64 -42 -31 -33 -60 -98 -60 -136 l0
-33 75 0 c65 0 75 2 75 18 0 43 26 59 105 64 41 3 78 8 81 11 4 3 3 36 -1 72
l-7 65 -81 0 c-58 0 -94 -6 -123 -19z"/>
<path d="M7406 8024 c-9 -23 -7 -584 2 -584 4 0 36 29 71 64 49 50 65 73 70
103 6 35 9 38 36 35 40 -5 65 -29 65 -62 0 -32 -15 -40 -71 -40 -35 0 -46 -7
-105 -67 -64 -65 -65 -67 -42 -76 37 -14 238 -3 273 15 92 49 131 168 85 258
-11 21 -24 42 -30 45 -6 4 -2 18 12 38 18 25 23 45 23 97 0 85 -26 129 -97
164 -47 23 -63 26 -169 26 -97 0 -118 -3 -123 -16z m211 -149 c23 -16 34 -47
23 -65 -4 -6 -26 -14 -49 -17 l-41 -6 0 52 c0 46 2 51 23 51 12 0 32 -7 44
-15z"/>
<path d="M6782 7723 c3 -17 24 -18 255 -21 242 -2 313 4 298 28 -4 6 -108 10
-281 10 -257 0 -275 -1 -272 -17z"/>
<path d="M11611 5934 c-90 -19 -167 -59 -224 -116 -66 -66 -90 -123 -95 -228
-5 -100 6 -149 49 -213 56 -84 122 -122 387 -218 120 -43 162 -77 162 -129 0
-47 -25 -79 -70 -89 -75 -16 -144 22 -156 86 l-6 33 -188 0 -188 0 5 -42 c15
-116 97 -234 201 -291 157 -85 427 -90 575 -9 144 78 225 238 198 388 -15 78
-35 116 -95 172 -59 56 -129 94 -261 142 -192 70 -245 107 -245 171 0 105 182
104 205 -1 l7 -30 190 0 190 0 -7 48 c-9 69 -56 161 -106 210 -112 110 -333
159 -528 116z"/>
<path d="M12722 5935 c-233 -53 -358 -222 -322 -436 26 -153 116 -228 387
-322 175 -61 213 -89 213 -155 0 -40 -40 -81 -79 -83 -98 -4 -126 15 -155 104
-5 15 -23 17 -192 17 l-186 0 7 -47 c16 -115 96 -228 203 -286 109 -60 307
-85 444 -56 127 26 252 120 301 226 18 40 22 66 22 153 0 96 -2 109 -27 151
-34 57 -102 121 -165 152 -26 14 -104 46 -173 71 -138 52 -204 87 -220 116
-18 34 -12 79 16 107 22 22 32 25 75 21 56 -6 86 -27 97 -72 l8 -31 192 -3
192 -2 -6 42 c-12 76 -44 146 -91 198 -87 97 -194 139 -368 146 -74 2 -131 -1
-173 -11z"/>
<path d="M1850 5300 l0 -630 175 0 175 0 2 348 3 347 233 -347 232 -348 175 0
175 0 0 630 0 630 -175 0 -175 0 -2 -352 -3 -353 -230 352 -230 352 -177 1
-178 0 0 -630z"/>
<path d="M3150 5790 l0 -140 165 0 165 0 0 -490 0 -490 175 0 175 0 0 490 0
490 170 0 170 0 0 140 0 140 -510 0 -510 0 0 -140z"/>
<path d="M4230 5790 l0 -140 165 0 165 0 0 -490 0 -490 175 0 175 0 0 490 0
490 170 0 170 0 0 140 0 140 -510 0 -510 0 0 -140z"/>
<path d="M5720 5300 l0 -630 405 0 405 0 0 140 0 140 -230 0 -231 0 3 113 3
112 203 3 202 2 0 130 0 130 -202 2 -203 3 -3 103 -3 102 231 0 230 0 0 140 0
140 -405 0 -405 0 0 -630z"/>
<path d="M6630 5924 c0 -4 93 -141 206 -306 113 -164 204 -304 201 -311 -2 -7
-88 -143 -190 -304 -102 -160 -191 -301 -197 -312 -11 -21 -10 -21 187 -21
l198 0 93 158 c50 87 98 166 105 176 12 16 25 -1 132 -158 l120 -175 208 -1
208 0 -105 153 c-58 83 -154 224 -214 313 l-110 160 184 290 c102 159 192 301
200 317 l15 27 -198 0 -198 0 -100 -170 c-54 -94 -102 -170 -105 -170 -3 1
-57 77 -120 170 l-115 170 -202 0 c-112 0 -203 -3 -203 -6z"/>
<path d="M8020 5301 l0 -631 175 0 175 0 0 208 0 209 143 7 c156 7 215 19 295
60 141 72 223 225 209 391 -15 176 -107 296 -272 357 -57 21 -79 22 -392 26
l-333 3 0 -630z m559 336 c67 -24 99 -114 68 -189 -23 -55 -62 -70 -177 -72
l-95 -1 -3 124 c-1 69 0 131 2 138 7 17 157 17 205 0z"/>
<path d="M9160 5300 l0 -630 175 0 175 0 0 231 c0 230 0 230 22 227 16 -2 47
-51 139 -222 64 -120 121 -222 126 -227 5 -5 95 -8 200 -7 l191 3 -105 180
c-57 99 -120 208 -139 242 l-35 61 55 25 c73 34 146 103 182 174 27 54 29 66
29 168 0 98 -3 116 -27 167 -35 75 -95 138 -168 177 -100 54 -159 61 -507 61
l-313 0 0 -630z m605 318 c41 -22 60 -61 59 -118 -3 -98 -47 -124 -204 -125
l-105 0 -3 134 -3 133 113 -4 c79 -3 122 -9 143 -20z"/>
<path d="M10340 5300 l0 -630 405 0 405 0 0 140 0 140 -230 0 -230 0 0 115 0
115 200 0 200 0 0 130 0 130 -200 0 -200 0 0 105 0 105 230 0 230 0 0 140 0
140 -405 0 -405 0 0 -630z"/>
</g>
</svg>
