<?xml version="1.0" encoding="UTF-8"?>
<svg version="1.1" xmlns="http://www.w3.org/2000/svg" width="1500" height="900">
<path d="M0 0 C495 0 990 0 1500 0 C1500 297 1500 594 1500 900 C1005 900 510 900 0 900 C0 603 0 306 0 0 Z " fill="#FDFDFD" transform="translate(0,0)"/>
<path d="M0 0 C31 0 31 0 40 7 C40.66 8.65 41.32 10.3 42 12 C42.99 12 43.98 12 45 12 C46.80182723 10.16249303 48.31143831 8.17100789 49.890625 6.140625 C54.96219872 0.99391685 59.51542267 -0.45608964 66.55000305 -0.60708618 C67.95804451 -0.60435196 67.95804451 -0.60435196 69.39453125 -0.6015625 C70.38192795 -0.61013275 71.36932465 -0.618703 72.38664246 -0.62753296 C74.46842392 -0.63897804 76.55028534 -0.64005068 78.63208008 -0.63134766 C81.7932405 -0.62503844 84.95063144 -0.6719433 88.11132812 -0.72265625 C106.35948462 -0.83700326 106.35948462 -0.83700326 113.37133789 4.38598633 C117.22370587 8.20370551 119.16945351 11.79042928 119.5 17.3125 C119.37837305 21.07653419 118.31628191 23.69117997 116.6875 27.0625 C115.49612519 29.52267256 115.49612519 29.52267256 115 32 C115.94818391 34.30273235 117.22201201 35.96337192 118.73046875 37.9375 C121.08410325 41.76125082 120.73269621 45.69284188 120 50 C118.11930763 56.02031692 114.95492813 59.2838039 110 63 C109.2575 63.7425 108.515 64.485 107.75 65.25 C105.04417325 67.95582675 103.33963185 68.1275347 99.62963867 68.14526367 C98.7249736 68.15164352 97.82030853 68.15802338 96.88822937 68.16459656 C95.90804337 68.16570938 94.92785736 68.1668222 93.91796875 68.16796875 C92.91163895 68.17129715 91.90530914 68.17462555 90.8684845 68.17805481 C88.73581398 68.18312451 86.60313552 68.18546312 84.47045898 68.18530273 C81.21129199 68.18748408 77.9524662 68.20562524 74.69335938 68.22460938 C72.62239699 68.22754432 70.551433 68.22952844 68.48046875 68.23046875 C67.50635544 68.23765427 66.53224213 68.24483978 65.52861023 68.25224304 C60.85287343 68.23650606 57.27761712 68.08695401 53 66 C48.84594326 65.71161543 48.84594326 65.71161543 45 67 C42.52443304 67.17682621 40.10250105 67.27730822 37.625 67.3125 C36.61566406 67.35600586 36.61566406 67.35600586 35.5859375 67.40039062 C32.18357381 67.44392481 30.36715194 67.28603698 27.6484375 65.16796875 C25.63911645 62.52537827 23.84121599 59.76182398 22 57 C21.2575 56.278125 20.515 55.55625 19.75 54.8125 C18 53 18 53 18 50 C17.34 50 16.68 50 16 50 C15.97113249 45.85418113 15.95324673 41.70838784 15.9375 37.5625 C15.92912109 36.37849609 15.92074219 35.19449219 15.91210938 33.97460938 C15.90888672 32.84990234 15.90566406 31.72519531 15.90234375 30.56640625 C15.89448853 29.00321655 15.89448853 29.00321655 15.88647461 27.40844727 C16 25 16 25 17 24 C19.33297433 23.95907063 21.66705225 23.95758277 24 24 C24 22.68 24 21.36 24 20 C21.36 19.34 18.72 18.68 16 18 C15.67 33.18 15.34 48.36 15 64 C10.05 64 5.1 64 0 64 C0 42.88 0 21.76 0 0 Z " fill="#C0C1C2" transform="translate(661,96)"/>
<path d="M0 0 C0.79019531 0.25652344 1.58039062 0.51304687 2.39453125 0.77734375 C14.68045199 5.17460878 21.31574292 13.0852208 27.8125 24.0625 C32.11479078 34.70500876 33.02864164 48.12266758 29 59 C22.82537455 72.48062638 14.59859068 80.46865423 0.9375 86.4375 C-9.21570639 89.80247945 -21.79589604 89.53390771 -31.60546875 85.26953125 C-44.40804795 78.48186691 -53.56759668 68.93365761 -58 55 C-60.98842228 43.14592497 -59.56810677 31.17519973 -53.64453125 20.57421875 C-47.05917263 10.06942417 -38.19657205 2.50188421 -26.125 -0.875 C-17.33757761 -2.78383597 -8.55022504 -2.9396648 0 0 Z " fill="#060606" transform="translate(618,323)"/>
<path d="M0 0 C8.3284192 6.01094603 14.71401734 14.57372206 17.24609375 24.62109375 C17.57872994 28.3742831 17.61624658 32.10484364 17.62109375 35.87109375 C17.64558594 36.85722656 17.67007813 37.84335937 17.6953125 38.859375 C17.7445389 51.31365349 12.30506341 61.31920445 3.99609375 70.37109375 C-0.01717513 74.2149135 -4.68794059 76.44647505 -9.75390625 78.62109375 C-10.95660156 79.15283203 -10.95660156 79.15283203 -12.18359375 79.6953125 C-22.19851391 83.30251019 -34.45272453 83.02521341 -44.19921875 78.875 C-56.81449993 72.68309593 -65.00847314 65.14006016 -69.75390625 51.62109375 C-73.17082344 39.85438595 -73.71320517 26.64495265 -67.75390625 15.62109375 C-60.51374586 3.2702319 -50.40069733 -3.73466718 -36.90625 -7.95703125 C-23.63643791 -10.55801075 -11.20726433 -7.19058079 0 0 Z " fill="#050505" transform="translate(800.75390625,548.37890625)"/>
<path d="M0 0 C0.83265381 0.00523682 1.66530762 0.01047363 2.52319336 0.01586914 C3.42231445 0.0190918 4.32143555 0.02231445 5.24780273 0.02563477 C6.66609375 0.03820312 6.66609375 0.03820312 8.11303711 0.05102539 C9.06243164 0.05553711 10.01182617 0.06004883 10.98999023 0.06469727 C13.34356776 0.07652429 15.69702188 0.09300514 18.05053711 0.11352539 C17.57503777 2.73923874 17.09531144 5.36405579 16.61303711 7.98852539 C16.47833008 8.73489258 16.34362305 9.48125977 16.20483398 10.25024414 C15.16381836 15.88696289 15.16381836 15.88696289 14.05053711 18.11352539 C20.98053711 18.11352539 27.91053711 18.11352539 35.05053711 18.11352539 C35.38053711 15.47352539 35.71053711 12.83352539 36.05053711 10.11352539 C36.65427994 6.7642951 37.35629123 3.44590562 38.05053711 0.11352539 C44.65053711 0.11352539 51.25053711 0.11352539 58.05053711 0.11352539 C57.28104773 6.26944042 56.30985443 12.06880224 55.05053711 18.11352539 C60.00053711 18.11352539 64.95053711 18.11352539 70.05053711 18.11352539 C70.05053711 24.38352539 70.05053711 30.65352539 70.05053711 37.11352539 C63.78053711 37.44352539 57.51053711 37.77352539 51.05053711 38.11352539 C49.73053711 43.39352539 48.41053711 48.67352539 47.05053711 54.11352539 C52.00053711 54.11352539 56.95053711 54.11352539 62.05053711 54.11352539 C62.05053711 60.38352539 62.05053711 66.65352539 62.05053711 73.11352539 C55.78053711 73.44352539 49.51053711 73.77352539 43.05053711 74.11352539 C41.73053711 80.05352539 40.41053711 85.99352539 39.05053711 92.11352539 C32.45053711 92.11352539 25.85053711 92.11352539 19.05053711 92.11352539 C19.98853107 85.54756767 21.39525533 79.5187462 23.05053711 73.11352539 C16.12053711 73.11352539 9.19053711 73.11352539 2.05053711 73.11352539 C1.72053711 76.08352539 1.39053711 79.05352539 1.05053711 82.11352539 C0.46485805 85.46942365 -0.24504237 88.77926827 -0.94946289 92.11352539 C-7.54946289 92.11352539 -14.14946289 92.11352539 -20.94946289 92.11352539 C-20.94946289 84.94089049 -19.79634784 79.9623904 -17.94946289 73.11352539 C-23.88946289 73.11352539 -29.82946289 73.11352539 -35.94946289 73.11352539 C-35.94946289 66.84352539 -35.94946289 60.57352539 -35.94946289 54.11352539 C-28.35946289 54.11352539 -20.76946289 54.11352539 -12.94946289 54.11352539 C-12.61946289 50.48352539 -12.28946289 46.85352539 -11.94946289 43.11352539 C-11.28946289 41.13352539 -10.62946289 39.15352539 -9.94946289 37.11352539 C-15.88946289 37.11352539 -21.82946289 37.11352539 -27.94946289 37.11352539 C-27.94946289 30.84352539 -27.94946289 24.57352539 -27.94946289 18.11352539 C-20.68946289 18.11352539 -13.42946289 18.11352539 -5.94946289 18.11352539 C-5.00282261 12.56458358 -5.00282261 12.56458358 -4.06494141 7.01416016 C-2.87719063 0.16755086 -2.87719063 0.16755086 0 0 Z " fill="#040404" transform="translate(1232.949462890625,536.886474609375)"/>
<path d="M0 0 C8.25 0 16.5 0 25 0 C25 29.04 25 58.08 25 88 C17.74 88 10.48 88 3 88 C2.67 72.49 2.34 56.98 2 41 C0.02 46.28 -1.96 51.56 -4 57 C-5.06437564 59.78352742 -6.13312802 62.56539668 -7.2109375 65.34375 C-7.46880035 66.00918823 -7.72666321 66.67462646 -7.99234009 67.36022949 C-8.78574241 69.40713792 -9.58033582 71.45358118 -10.375 73.5 C-10.92586204 74.92054159 -11.47664356 76.34111441 -12.02734375 77.76171875 C-13.35049581 81.17489478 -14.67527254 84.58743348 -16 88 C-21.61 88 -27.22 88 -33 88 C-37.39242737 77.68661412 -41.36711953 67.24071427 -45.3125 56.75 C-47.519375 50.8925 -49.72625 45.035 -52 39 C-52.33 55.17 -52.66 71.34 -53 88 C-59.93 88 -66.86 88 -74 88 C-74 59.29 -74 30.58 -74 1 C-65.75 1 -57.5 1 -49 1 C-45.95908717 7.08182567 -43.08612841 12.92358202 -40.625 19.2109375 C-40.33318848 19.94518951 -40.04137695 20.67944153 -39.74072266 21.4359436 C-38.8229786 23.74733652 -37.91121249 26.06102544 -37 28.375 C-35.79332415 31.42513694 -34.5842854 34.47433438 -33.375 37.5234375 C-33.08633057 38.25254333 -32.79766113 38.98164917 -32.50024414 39.73284912 C-30.07220932 45.85263988 -27.56341193 51.93552259 -25 58 C-22.67235518 55.67235518 -21.97824618 53.79766344 -20.76928711 50.73999023 C-20.33220932 49.64222763 -19.89513153 48.54446503 -19.44480896 47.41343689 C-18.97704544 46.22383865 -18.50928192 45.03424042 -18.02734375 43.80859375 C-17.28938526 41.95177933 -16.55142424 40.09496592 -15.81330967 38.23821354 C-14.77993474 35.63506227 -13.7512586 33.03006478 -12.72259521 30.42504883 C-10.91989517 25.86132931 -9.11220554 21.29959086 -7.30091858 16.73927307 C-6.33653597 14.30984025 -5.3749194 11.87930737 -4.41624451 9.44761658 C-3.98231888 8.35300613 -3.54839325 7.25839569 -3.10131836 6.13061523 C-2.52745644 4.67739113 -2.52745644 4.67739113 -1.94200134 3.19480896 C-1 1 -1 1 0 0 Z " fill="#050505" transform="translate(735,322)"/>
<path d="M0 0 C52.64864865 0 52.64864865 0 66.625 12.3125 C77.10742272 24.17418886 79.72336742 35.20013258 79 51 C77.81354736 61.81366839 72.30127047 71.99580304 64 79 C43.59212363 91.61052738 25.61640779 88 0 88 C0 58.96 0 29.92 0 0 Z " fill="#070707" transform="translate(439,541)"/>
<path d="M0 0 C52.81578947 0 52.81578947 0 65.6875 11.375 C66.8321875 12.674375 66.8321875 12.674375 68 14 C68.49242187 14.48984375 68.98484375 14.9796875 69.4921875 15.484375 C77.91540608 24.28475262 79.29010419 36.06685432 79.14453125 47.765625 C78.68717838 58.0004406 74.86783485 68.07531896 68 75.8125 C49.53026718 92.55839109 22.79252939 88 0 88 C0 58.96 0 29.92 0 0 Z " fill="#070707" transform="translate(826,432)"/>
<path d="M0 0 C7.26 0 14.52 0 22 0 C28.30380561 7.7099722 28.30380561 7.7099722 29.82421875 11.34912109 C31.98921186 16.15103254 34.73761715 20.34634768 37.71875 24.67578125 C38.68138385 26.11279738 39.64232417 27.55094944 40.6015625 28.99023438 C41.56765125 30.43102786 42.53379761 31.87178272 43.5 33.3125 C44.49761694 34.80388858 45.49501356 36.29542456 46.4921875 37.78710938 C48.29748134 40.48698875 50.10393825 43.18607997 51.91210938 45.8840332 C53.27708367 47.92112007 54.63981022 49.95971534 56 52 C56.33 34.84 56.66 17.68 57 0 C63.93 0 70.86 0 78 0 C79.79988399 1.79988399 79.11993004 4.24999876 79.12442017 6.64555359 C79.11902725 7.86043205 79.11902725 7.86043205 79.11352539 9.09985352 C79.11367142 9.94856018 79.11381744 10.79726685 79.1139679 11.67169189 C79.11326848 14.49078891 79.10547478 17.30982071 79.09765625 20.12890625 C79.09579217 22.07803817 79.09436822 24.02717055 79.09336853 25.9763031 C79.08954255 31.11706832 79.07971159 36.25780547 79.06866455 41.39855957 C79.05845215 46.64005148 79.05387128 51.8815479 79.04882812 57.12304688 C79.03808939 67.41537694 79.02101201 77.70768614 79 88 C71.69301271 89.3737516 64.19596358 90.27744468 57 88 C49.89594192 82.84735106 45.76907274 74.43485084 41.4375 67 C40.19015147 64.99159867 38.9356368 62.98762943 37.67382812 60.98828125 C34.89980276 56.56170217 32.19752436 52.10022398 29.55418396 47.59448242 C27.42019417 44.03209912 25.20089915 40.52143865 23 37 C22.67 53.83 22.34 70.66 22 88 C14.74 88 7.48 88 0 88 C0 58.96 0 29.92 0 0 Z " fill="#080808" transform="translate(987,541)"/>
<path d="M0 0 C7.26 0 14.52 0 22 0 C28.30380561 7.7099722 28.30380561 7.7099722 29.82421875 11.34912109 C31.98921186 16.15103254 34.73761715 20.34634768 37.71875 24.67578125 C38.68138385 26.11279738 39.64232417 27.55094944 40.6015625 28.99023438 C41.56765125 30.43102786 42.53379761 31.87178272 43.5 33.3125 C44.49761694 34.80388858 45.49501356 36.29542456 46.4921875 37.78710938 C48.29748134 40.48698875 50.10393825 43.18607997 51.91210938 45.8840332 C53.27708367 47.92112007 54.63981022 49.95971534 56 52 C56.33 34.84 56.66 17.68 57 0 C63.93 0 70.86 0 78 0 C79.79988399 1.79988399 79.11993004 4.24999876 79.12442017 6.64555359 C79.11902725 7.86043205 79.11902725 7.86043205 79.11352539 9.09985352 C79.11367142 9.94856018 79.11381744 10.79726685 79.1139679 11.67169189 C79.11326848 14.49078891 79.10547478 17.30982071 79.09765625 20.12890625 C79.09579217 22.07803817 79.09436822 24.02717055 79.09336853 25.9763031 C79.08954255 31.11706832 79.07971159 36.25780547 79.06866455 41.39855957 C79.05845215 46.64005148 79.05387128 51.8815479 79.04882812 57.12304688 C79.03808939 67.41537694 79.02101201 77.70768614 79 88 C71.69301271 89.3737516 64.19596358 90.27744468 57 88 C49.89594192 82.84735106 45.76907274 74.43485084 41.4375 67 C40.19015147 64.99159867 38.9356368 62.98762943 37.67382812 60.98828125 C34.89980276 56.56170217 32.19752436 52.10022398 29.55418396 47.59448242 C27.42019417 44.03209912 25.20089915 40.52143865 23 37 C22.67 53.83 22.34 70.66 22 88 C14.74 88 7.48 88 0 88 C0 58.96 0 29.92 0 0 Z " fill="#080808" transform="translate(830,541)"/>
<path d="M0 0 C7.26 0 14.52 0 22 0 C28.30380561 7.7099722 28.30380561 7.7099722 29.82421875 11.34912109 C31.98921186 16.15103254 34.73761715 20.34634768 37.71875 24.67578125 C38.68138385 26.11279738 39.64232417 27.55094944 40.6015625 28.99023438 C41.56765125 30.43102786 42.53379761 31.87178272 43.5 33.3125 C44.49761694 34.80388858 45.49501356 36.29542456 46.4921875 37.78710938 C48.29748134 40.48698875 50.10393825 43.18607997 51.91210938 45.8840332 C53.27708367 47.92112007 54.63981022 49.95971534 56 52 C56.33 34.84 56.66 17.68 57 0 C63.93 0 70.86 0 78 0 C79.79988399 1.79988399 79.11993004 4.24999876 79.12442017 6.64555359 C79.11902725 7.86043205 79.11902725 7.86043205 79.11352539 9.09985352 C79.11367142 9.94856018 79.11381744 10.79726685 79.1139679 11.67169189 C79.11326848 14.49078891 79.10547478 17.30982071 79.09765625 20.12890625 C79.09579217 22.07803817 79.09436822 24.02717055 79.09336853 25.9763031 C79.08954255 31.11706832 79.07971159 36.25780547 79.06866455 41.39855957 C79.05845215 46.64005148 79.05387128 51.8815479 79.04882812 57.12304688 C79.03808939 67.41537694 79.02101201 77.70768614 79 88 C71.69301271 89.3737516 64.19596358 90.27744468 57 88 C49.89594192 82.84735106 45.76907274 74.43485084 41.4375 67 C40.19015147 64.99159867 38.9356368 62.98762943 37.67382812 60.98828125 C34.89980276 56.56170217 32.19752436 52.10022398 29.55418396 47.59448242 C27.42019417 44.03209912 25.20089915 40.52143865 23 37 C22.67 53.83 22.34 70.66 22 88 C14.74 88 7.48 88 0 88 C0 58.96 0 29.92 0 0 Z " fill="#080808" transform="translate(977,322)"/>
<path d="M0 0 C11.075625 -0.12375 11.075625 -0.12375 22.375 -0.25 C25.8407251 -0.30462402 25.8407251 -0.30462402 29.37646484 -0.36035156 C31.23794632 -0.37205004 33.09943815 -0.38223911 34.9609375 -0.390625 C36.37403198 -0.4213208 36.37403198 -0.4213208 37.81567383 -0.45263672 C46.84882717 -0.45731832 54.82452683 2.05687163 61.53125 8.2890625 C66.75369774 14.37265853 68.37386744 21.43178044 68.28125 29.26953125 C67.67139122 35.19024355 65.44750334 40.19062082 61.75 44.8125 C52.71428571 52 52.71428571 52 49 52 C51.03938901 55.62628575 53.08193666 59.2507833 55.125 62.875 C55.69476563 63.88820313 56.26453125 64.90140625 56.8515625 65.9453125 C60.10586979 71.71431179 63.43044311 77.41878789 66.92919922 83.04345703 C68 85 68 85 68 87 C60.08 87 52.16 87 44 87 C43.02417969 85.18113281 42.04835938 83.36226562 41.04296875 81.48828125 C40.08984954 79.71422725 39.13672153 77.94017797 38.18334961 76.16625977 C37.52438469 74.93960601 36.86584937 73.71272137 36.20776367 72.4855957 C35.25814806 70.71504063 34.30682466 68.94540184 33.35546875 67.17578125 C32.78465576 66.11270752 32.21384277 65.04963379 31.62573242 63.9543457 C30.56228992 62.02181564 29.45158224 60.11437149 28.2902832 58.23901367 C27 56 27 56 27 54 C25.02 54 23.04 54 21 54 C21 64.89 21 75.78 21 87 C14.07 87 7.14 87 0 87 C0 58.29 0 29.58 0 0 Z " fill="#030303" transform="translate(301,433)"/>
<path d="M0 0 C6.68271087 4.62357689 12.80097965 11.03681866 15.75390625 18.6796875 C15.75390625 19.9996875 15.75390625 21.3196875 15.75390625 22.6796875 C12.06701578 22.85518943 8.38120924 22.9609357 4.69140625 23.0546875 C3.65306641 23.10496094 2.61472656 23.15523438 1.54492188 23.20703125 C-3.66178634 23.30620664 -7.1791983 23.34904872 -11.1796875 19.78125 C-11.71303711 19.23758789 -12.24638672 18.69392578 -12.79589844 18.13378906 C-16.10869976 14.81206437 -20.05243226 14.36989968 -24.55859375 14.3046875 C-31.6740034 14.45791301 -36.05782317 16.49141692 -41.05859375 21.4921875 C-46.37547408 29.2396417 -47.08380417 35.3290279 -46.24609375 44.6796875 C-44.94610721 51.10425864 -42.73721256 56.32839293 -37.15234375 60.08984375 C-30.1020369 64.09468578 -23.63992633 65.1214352 -15.76171875 63.015625 C-8.5326135 60.22586962 -4.64679282 55.48108565 -1.24609375 48.6796875 C-10.15609375 48.6796875 -19.06609375 48.6796875 -28.24609375 48.6796875 C-28.24609375 43.7296875 -28.24609375 38.7796875 -28.24609375 33.6796875 C-13.06609375 33.6796875 2.11390625 33.6796875 17.75390625 33.6796875 C17.75390625 58.26459316 17.75390625 58.26459316 12.75390625 64.6796875 C12.14546875 65.5253125 11.53703125 66.3709375 10.91015625 67.2421875 C4.5265249 75.24554621 -3.62114623 79.47137166 -13.24609375 82.6796875 C-16.76228155 82.93705513 -20.28398102 82.91112469 -23.80859375 82.9296875 C-24.76056641 82.9503125 -25.71253906 82.9709375 -26.69335938 82.9921875 C-38.68956742 83.05751743 -47.23367013 79.61393774 -56.24609375 71.6796875 C-66.23721128 61.0594996 -69.81867402 49.72686829 -69.5546875 35.30078125 C-68.49164784 22.82688545 -63.0851097 11.48556396 -53.55859375 3.3046875 C-38.30724684 -7.7417426 -16.63390136 -9.77784115 0 0 Z " fill="#040404" transform="translate(1136.24609375,327.3203125)"/>
<path d="M0 0 C1.5631897 0.00785522 1.5631897 0.00785522 3.15795898 0.01586914 C4.28266602 0.0190918 5.40737305 0.02231445 6.56616211 0.02563477 C7.75016602 0.03401367 8.93416992 0.04239258 10.15405273 0.05102539 C11.34192383 0.05553711 12.52979492 0.06004883 13.75366211 0.06469727 C16.69967741 0.07652865 19.6455824 0.09385016 22.59155273 0.11352539 C26.28186104 8.72218743 29.59702609 17.42480762 32.75170898 26.24243164 C33.22795701 27.56666059 33.70447962 28.89079081 34.18125916 30.21482849 C35.42351462 33.66680878 36.66222083 37.12005155 37.90008545 40.5736084 C39.15258749 44.06617581 40.40828474 47.55759376 41.66381836 51.04907227 C43.91754733 57.31693207 46.17006552 63.58522197 48.41433716 69.85647583 C49.19496598 72.01627291 49.98772752 74.17172577 50.79293823 76.32247925 C51.16016998 77.30531891 51.52740173 78.28815857 51.90576172 79.30078125 C52.2316478 80.16062119 52.55753387 81.02046112 52.89329529 81.90635681 C53.59155273 84.11352539 53.59155273 84.11352539 53.59155273 87.11352539 C46.33155273 87.11352539 39.07155273 87.11352539 31.59155273 87.11352539 C26.59155273 75.48852539 26.59155273 75.48852539 26.59155273 72.11352539 C10.25655273 72.60852539 10.25655273 72.60852539 -6.40844727 73.11352539 C-7.72844727 77.40352539 -9.04844727 81.69352539 -10.40844727 86.11352539 C-11.40844727 87.11352539 -11.40844727 87.11352539 -13.54150391 87.22705078 C-14.45794678 87.22181396 -15.37438965 87.21657715 -16.31860352 87.21118164 C-17.30795898 87.20795898 -18.29731445 87.20473633 -19.31665039 87.20141602 C-20.35756836 87.19303711 -21.39848633 87.1846582 -22.47094727 87.17602539 C-23.51573242 87.17151367 -24.56051758 87.16700195 -25.63696289 87.16235352 C-28.22751386 87.15052452 -30.81795285 87.13404228 -33.40844727 87.11352539 C-31.89974567 79.25701971 -29.35299014 71.95855782 -26.61157227 64.45336914 C-26.13510185 63.13709271 -25.65909805 61.82064728 -25.18353271 60.50404358 C-23.93480257 57.05117664 -22.67931799 53.6008033 -21.42248535 50.15087891 C-20.16330251 46.69018819 -18.9113595 43.22688064 -17.65844727 39.76391602 C-13.72900308 28.9111234 -9.78901103 18.06161157 -5.76782227 7.24243164 C-5.3240625 6.0481958 -4.88030273 4.85395996 -4.4230957 3.62353516 C-3.01577879 0.14215278 -3.01577879 0.14215278 0 0 Z " fill="#060606" transform="translate(558.408447265625,541.886474609375)"/>
<path d="M0 0 C1.5631897 0.00785522 1.5631897 0.00785522 3.15795898 0.01586914 C4.28266602 0.0190918 5.40737305 0.02231445 6.56616211 0.02563477 C7.75016602 0.03401367 8.93416992 0.04239258 10.15405273 0.05102539 C11.34192383 0.05553711 12.52979492 0.06004883 13.75366211 0.06469727 C16.69967741 0.07652865 19.6455824 0.09385016 22.59155273 0.11352539 C26.28186104 8.72218743 29.59702609 17.42480762 32.75170898 26.24243164 C33.22795701 27.56666059 33.70447962 28.89079081 34.18125916 30.21482849 C35.42351462 33.66680878 36.66222083 37.12005155 37.90008545 40.5736084 C39.15258749 44.06617581 40.40828474 47.55759376 41.66381836 51.04907227 C43.91754733 57.31693207 46.17006552 63.58522197 48.41433716 69.85647583 C49.19496598 72.01627291 49.98772752 74.17172577 50.79293823 76.32247925 C51.16016998 77.30531891 51.52740173 78.28815857 51.90576172 79.30078125 C52.2316478 80.16062119 52.55753387 81.02046112 52.89329529 81.90635681 C53.59155273 84.11352539 53.59155273 84.11352539 53.59155273 87.11352539 C46.33155273 87.11352539 39.07155273 87.11352539 31.59155273 87.11352539 C26.59155273 75.48852539 26.59155273 75.48852539 26.59155273 72.11352539 C10.25655273 72.60852539 10.25655273 72.60852539 -6.40844727 73.11352539 C-7.72844727 77.40352539 -9.04844727 81.69352539 -10.40844727 86.11352539 C-11.40844727 87.11352539 -11.40844727 87.11352539 -13.54150391 87.22705078 C-14.45794678 87.22181396 -15.37438965 87.21657715 -16.31860352 87.21118164 C-17.30795898 87.20795898 -18.29731445 87.20473633 -19.31665039 87.20141602 C-20.35756836 87.19303711 -21.39848633 87.1846582 -22.47094727 87.17602539 C-23.51573242 87.17151367 -24.56051758 87.16700195 -25.63696289 87.16235352 C-28.22751386 87.15052452 -30.81795285 87.13404228 -33.40844727 87.11352539 C-31.89974567 79.25701971 -29.35299014 71.95855782 -26.61157227 64.45336914 C-26.13510185 63.13709271 -25.65909805 61.82064728 -25.18353271 60.50404358 C-23.93480257 57.05117664 -22.67931799 53.6008033 -21.42248535 50.15087891 C-20.16330251 46.69018819 -18.9113595 43.22688064 -17.65844727 39.76391602 C-13.72900308 28.9111234 -9.78901103 18.06161157 -5.76782227 7.24243164 C-5.3240625 6.0481958 -4.88030273 4.85395996 -4.4230957 3.62353516 C-3.01577879 0.14215278 -3.01577879 0.14215278 0 0 Z " fill="#060606" transform="translate(803.408447265625,322.886474609375)"/>
<path d="M0 0 C1.5631897 0.00785522 1.5631897 0.00785522 3.15795898 0.01586914 C4.28266602 0.0190918 5.40737305 0.02231445 6.56616211 0.02563477 C7.75016602 0.03401367 8.93416992 0.04239258 10.15405273 0.05102539 C11.34192383 0.05553711 12.52979492 0.06004883 13.75366211 0.06469727 C16.69967741 0.07652865 19.6455824 0.09385016 22.59155273 0.11352539 C26.28186104 8.72218743 29.59702609 17.42480762 32.75170898 26.24243164 C33.22795701 27.56666059 33.70447962 28.89079081 34.18125916 30.21482849 C35.42351462 33.66680878 36.66222083 37.12005155 37.90008545 40.5736084 C39.15258749 44.06617581 40.40828474 47.55759376 41.66381836 51.04907227 C43.91754733 57.31693207 46.17006552 63.58522197 48.41433716 69.85647583 C49.19496598 72.01627291 49.98772752 74.17172577 50.79293823 76.32247925 C51.16016998 77.30531891 51.52740173 78.28815857 51.90576172 79.30078125 C52.2316478 80.16062119 52.55753387 81.02046112 52.89329529 81.90635681 C53.59155273 84.11352539 53.59155273 84.11352539 53.59155273 87.11352539 C46.33155273 87.11352539 39.07155273 87.11352539 31.59155273 87.11352539 C26.59155273 75.48852539 26.59155273 75.48852539 26.59155273 72.11352539 C10.25655273 72.60852539 10.25655273 72.60852539 -6.40844727 73.11352539 C-7.72844727 77.40352539 -9.04844727 81.69352539 -10.40844727 86.11352539 C-11.40844727 87.11352539 -11.40844727 87.11352539 -13.54150391 87.22705078 C-14.45794678 87.22181396 -15.37438965 87.21657715 -16.31860352 87.21118164 C-17.30795898 87.20795898 -18.29731445 87.20473633 -19.31665039 87.20141602 C-20.35756836 87.19303711 -21.39848633 87.1846582 -22.47094727 87.17602539 C-23.51573242 87.17151367 -24.56051758 87.16700195 -25.63696289 87.16235352 C-28.22751386 87.15052452 -30.81795285 87.13404228 -33.40844727 87.11352539 C-31.89974567 79.25701971 -29.35299014 71.95855782 -26.61157227 64.45336914 C-26.13510185 63.13709271 -25.65909805 61.82064728 -25.18353271 60.50404358 C-23.93480257 57.05117664 -22.67931799 53.6008033 -21.42248535 50.15087891 C-20.16330251 46.69018819 -18.9113595 43.22688064 -17.65844727 39.76391602 C-13.72900308 28.9111234 -9.78901103 18.06161157 -5.76782227 7.24243164 C-5.3240625 6.0481958 -4.88030273 4.85395996 -4.4230957 3.62353516 C-3.01577879 0.14215278 -3.01577879 0.14215278 0 0 Z " fill="#060606" transform="translate(945.408447265625,432.886474609375)"/>
<path d="M0 0 C8.58 0 17.16 0 26 0 C26.65484375 1.82354004 27.3096875 3.64708008 27.984375 5.52587891 C30.18321754 11.64865683 32.38247109 17.77128701 34.58198547 23.89382362 C35.91149135 27.59466187 37.24084783 31.29555361 38.56982422 34.99658203 C39.85504661 38.57571197 41.14060954 42.15471937 42.42651367 45.73360443 C42.93341303 47.14439402 43.44024908 48.55520637 43.94702148 49.96604156 C47.52242417 59.91830487 51.11818799 69.86284472 54.76635742 79.78872681 C57 85.89247583 57 85.89247583 57 87 C49.41 87 41.82 87 34 87 C32.26005826 82.36015536 30.56702124 77.70106371 29 73 C18.11 73 7.22 73 -4 73 C-5.65 77.62 -7.3 82.24 -9 87 C-16.26 87 -23.52 87 -31 87 C-30.33911204 83.69556019 -29.72798823 80.96117635 -28.62402344 77.85693359 C-28.20590645 76.67376305 -28.20590645 76.67376305 -27.77934265 75.46669006 C-27.47575333 74.61916672 -27.172164 73.77164337 -26.859375 72.8984375 C-26.54051834 72.0004393 -26.22166168 71.1024411 -25.8931427 70.17723083 C-24.84926643 67.24177049 -23.7999295 64.30830023 -22.75 61.375 C-22.02855596 59.35246071 -21.30712048 57.32991837 -20.58569336 55.30737305 C-15.98996832 42.44659904 -11.32110841 29.61388957 -6.5625 16.8125 C-6.28410278 16.06321228 -6.00570557 15.31392456 -5.71887207 14.54193115 C-1.20595222 2.41190444 -1.20595222 2.41190444 0 0 Z " fill="#060606" transform="translate(277,542)"/>
<path d="M0 0 C8.58 0 17.16 0 26 0 C26.65484375 1.82354004 27.3096875 3.64708008 27.984375 5.52587891 C30.18321754 11.64865683 32.38247109 17.77128701 34.58198547 23.89382362 C35.91149135 27.59466187 37.24084783 31.29555361 38.56982422 34.99658203 C39.85504661 38.57571197 41.14060954 42.15471937 42.42651367 45.73360443 C42.93341303 47.14439402 43.44024908 48.55520637 43.94702148 49.96604156 C47.52242417 59.91830487 51.11818799 69.86284472 54.76635742 79.78872681 C57 85.89247583 57 85.89247583 57 87 C49.41 87 41.82 87 34 87 C32.26005826 82.36015536 30.56702124 77.70106371 29 73 C18.11 73 7.22 73 -4 73 C-5.65 77.62 -7.3 82.24 -9 87 C-16.26 87 -23.52 87 -31 87 C-30.33911204 83.69556019 -29.72798823 80.96117635 -28.62402344 77.85693359 C-28.20590645 76.67376305 -28.20590645 76.67376305 -27.77934265 75.46669006 C-27.47575333 74.61916672 -27.172164 73.77164337 -26.859375 72.8984375 C-26.54051834 72.0004393 -26.22166168 71.1024411 -25.8931427 70.17723083 C-24.84926643 67.24177049 -23.7999295 64.30830023 -22.75 61.375 C-22.02855596 59.35246071 -21.30712048 57.32991837 -20.58569336 55.30737305 C-15.98996832 42.44659904 -11.32110841 29.61388957 -6.5625 16.8125 C-6.28410278 16.06321228 -6.00570557 15.31392456 -5.71887207 14.54193115 C-1.20595222 2.41190444 -1.20595222 2.41190444 0 0 Z " fill="#060606" transform="translate(335,323)"/>
<path d="M0 0 C8.58 0 17.16 0 26 0 C27.32 3.96 28.64 7.92 30 12 C30.78487074 13.9884114 31.59348128 15.96808965 32.45043945 17.92651367 C35.14510163 24.25976984 37.48924156 30.69164294 39.79296875 37.17578125 C40.22507156 38.38517868 40.65717438 39.59457611 41.10237122 40.84062195 C42.00766889 43.37521693 42.91080858 45.91056633 43.81225586 48.4465332 C44.9616993 51.67980965 46.11597289 54.91133634 47.27176952 58.14234638 C48.3853009 61.25683986 49.49527581 64.37259614 50.60546875 67.48828125 C51.01693649 68.63943924 51.42840424 69.79059723 51.8523407 70.97663879 C52.42852898 72.59949043 52.42852898 72.59949043 53.01635742 74.25512695 C53.35213303 75.1982222 53.68790863 76.14131744 54.03385925 77.11299133 C55.12579974 80.37591308 56.05474403 83.69160409 57 87 C49.41 87 41.82 87 34 87 C30 75.375 30 75.375 30 72 C18.78 72 7.56 72 -4 72 C-4.99 75.63 -5.98 79.26 -7 83 C-7.66 84.32 -8.32 85.64 -9 87 C-16.26 87 -23.52 87 -31 87 C-27.62442943 75.74809811 -27.62442943 75.74809811 -26.05810547 71.38037109 C-25.706987 70.39749115 -25.35586853 69.41461121 -24.99411011 68.40194702 C-24.62222565 67.36953888 -24.25034119 66.33713074 -23.8671875 65.2734375 C-23.47105255 64.16811676 -23.0749176 63.06279602 -22.66677856 61.92398071 C-21.82922834 59.58884724 -20.99040968 57.25416837 -20.15039062 54.91992188 C-18.89649617 51.43474815 -17.64712838 47.94797847 -16.3984375 44.4609375 C-11.06349975 29.58967007 -5.57824517 14.78178851 0 0 Z " fill="#060606" transform="translate(1108,433)"/>
<path d="M0 0 C10.580625 -0.12375 10.580625 -0.12375 21.375 -0.25 C23.58106934 -0.28641602 25.78713867 -0.32283203 28.06005859 -0.36035156 C29.83950838 -0.37205119 31.61896901 -0.38223998 33.3984375 -0.390625 C34.29731689 -0.41108887 35.19619629 -0.43155273 36.12231445 -0.45263672 C45.54450994 -0.45774222 53.50129087 2.54400961 60.3046875 9.11328125 C66.20162455 15.67600152 66.84374163 22.47808916 66.44140625 31.08203125 C65.48587121 39.56346171 61.71447183 45.30738108 55.1171875 50.59765625 C47.41083258 55.70205001 39.12827752 56.14850561 30.1875 56.0625 C27.155625 56.041875 24.12375 56.02125 21 56 C21 66.23 21 76.46 21 87 C14.07 87 7.14 87 0 87 C0 58.29 0 29.58 0 0 Z " fill="#030303" transform="translate(649,433)"/>
<path d="M0 0 C6.93 0 13.86 0 21 0 C21.01458252 1.65974854 21.02916504 3.31949707 21.04418945 5.02954102 C21.10225742 11.20033067 21.17949091 17.37075869 21.26245117 23.54125977 C21.297289 26.20959411 21.32370326 28.8776339 21.34643555 31.54614258 C21.38005415 35.38653143 21.43237641 39.22628502 21.48828125 43.06640625 C21.49467117 44.25520889 21.5010611 45.44401154 21.50764465 46.6688385 C21.63206998 53.71309712 22.03251071 59.12936179 26.4375 64.875 C30.74521343 67.97655367 36.95367863 67.55804502 42 67 C46.47766636 64.96469711 48.5509221 62.82529949 50.38882446 58.27120972 C51.720841 53.32125883 51.48434602 48.15891985 51.51171875 43.06640625 C51.52966995 41.83333237 51.54762115 40.60025848 51.56611633 39.32981873 C51.62011955 35.4074135 51.65408421 31.4851293 51.6875 27.5625 C51.71905677 24.89643863 51.75517204 22.23046315 51.79101562 19.56445312 C51.87584087 13.04305618 51.94270051 6.52169453 52 0 C58.93 0 65.86 0 73 0 C73.09100804 7.33769785 73.16411821 14.6750782 73.20724869 22.0132246 C73.22796765 25.42203727 73.2559899 28.83043799 73.30175781 32.23901367 C73.35424748 36.1736121 73.3730748 40.10805409 73.390625 44.04296875 C73.41127014 45.24455124 73.43191528 46.44613373 73.45318604 47.68412781 C73.45606761 58.74999114 71.75473097 69.31790344 63.71484375 77.42578125 C63.14894531 77.94527344 62.58304687 78.46476562 62 79 C61.21625 79.7425 60.4325 80.485 59.625 81.25 C49.47114525 88.0192365 38.13472344 89.58701762 26.14453125 87.50390625 C16.36288361 84.81964015 9.11215176 79.66089757 3.77734375 71.01953125 C-0.73899062 62.65055322 -0.13659414 53.92753966 -0.09765625 44.62890625 C-0.0962413 43.35144028 -0.09482635 42.0739743 -0.09336853 40.75779724 C-0.08873516 37.38275254 -0.07977023 34.00777703 -0.06866455 30.63275146 C-0.05838426 27.18030389 -0.05385681 23.72784913 -0.04882812 20.27539062 C-0.03782466 13.51690569 -0.02057322 6.7584623 0 0 Z " fill="#030303" transform="translate(401,323)"/>
<path d="M0 0 C1.44185669 0.0153479 1.44185669 0.0153479 2.9128418 0.03100586 C14.7044026 0.38146649 24.72494725 4.04865905 33.1875 12.5625 C37.80792434 18.10700921 40.05881838 23.74518977 42.1875 30.5625 C38.27139516 30.73676756 34.35628503 30.84334155 30.4375 30.9375 C28.77074219 31.01291016 28.77074219 31.01291016 27.0703125 31.08984375 C24.00073556 31.14531803 21.20527988 31.13378824 18.1875 30.5625 C15.640625 27.6875 15.640625 27.6875 14.1875 24.5625 C9.2642232 20.37771472 3.34742694 19.88828541 -2.90625 20.109375 C-8.65807115 21.00616432 -12.21786738 23.92590336 -16.1875 28 C-21.16331986 35.84648516 -20.82386392 45.59324339 -19.8125 54.5625 C-18.34914033 59.78975688 -15.62234771 63.30019448 -11.375 66.625 C-5.61257425 69.76317114 0.84883917 69.48488953 7.1875 68.5625 C11.48901265 66.96330334 14.40209103 65.17563987 16.43798828 60.99414062 C18.1875 58.5625 18.1875 58.5625 20.73120117 57.99487305 C21.72095947 58.02105713 22.71071777 58.04724121 23.73046875 58.07421875 C24.80361328 58.09033203 25.87675781 58.10644531 26.98242188 58.12304688 C28.66174805 58.18588867 28.66174805 58.18588867 30.375 58.25 C31.50615234 58.27255859 32.63730469 58.29511719 33.80273438 58.31835938 C36.59897976 58.37735189 39.39258097 58.4596176 42.1875 58.5625 C38.80314796 69.47304854 33.93733828 78.38594045 23.578125 83.96875 C10.38957264 90.23513399 -2.60379806 91.84498179 -16.70703125 86.94921875 C-28.24284254 81.79800742 -36.18017553 73.22100093 -41.0859375 61.703125 C-44.6914147 51.08053626 -44.84116399 35.21043118 -40.1953125 24.9765625 C-31.22889662 9.323328 -18.4596881 -0.29771067 0 0 Z " fill="#060606" transform="translate(1146.8125,540.4375)"/>
<path d="M0 0 C0.89912109 -0.01611328 1.79824219 -0.03222656 2.72460938 -0.04882812 C13.81088095 -0.05684423 24.15589522 3.88676198 32.375 11.4375 C37.22935323 16.59808579 41.6875 23.12640996 41.6875 30.3125 C37.97998633 30.51677691 34.27392528 30.64044588 30.5625 30.75 C29.51578125 30.80865234 28.4690625 30.86730469 27.390625 30.92773438 C19.71412787 31.09778336 19.71412787 31.09778336 16.69873047 28.79125977 C15.109375 26.90625 15.109375 26.90625 13.83886719 25.01757812 C11.88876601 22.12964204 9.97642784 21.34790321 6.6875 20.3125 C-0.74101634 19.47311962 -7.17012599 19.76149165 -13.3125 24.3125 C-18.96710891 29.96710891 -20.75117037 36.31313879 -20.8125 44.125 C-20.76960146 51.12798449 -19.53720657 56.63338625 -15.3125 62.3125 C-10.53606608 66.97243553 -6.58310526 68.60176362 0.0625 68.625 C5.04162412 68.52486119 8.604452 68.39968264 12.6875 65.3125 C13.06543701 64.74982422 13.44337402 64.18714844 13.83276367 63.60742188 C15.96944588 60.43662319 17.49778744 58.56926854 21.32885742 57.74243164 C24.43308469 57.62400801 27.46107451 57.70121323 30.5625 57.875 C31.63242187 57.90658203 32.70234375 57.93816406 33.8046875 57.97070312 C36.43513365 58.05290457 39.05987854 58.16772309 41.6875 58.3125 C40.37013443 67.99167019 35.2788485 75.26582589 27.6875 81.3125 C24.4614541 83.27704727 21.18756033 84.8971151 17.6875 86.3125 C16.82640625 86.67730469 15.9653125 87.04210937 15.078125 87.41796875 C4.22162964 90.28218239 -10.76791312 90.176697 -20.80859375 84.98828125 C-31.87017672 77.58513134 -40.20215504 67.81964005 -42.8671875 54.55078125 C-44.86227292 40.04266011 -43.20353332 27.48585024 -34.23046875 15.56640625 C-29.1628275 9.61115371 -23.58647579 5.23038763 -16.3125 2.3125 C-15.02666016 1.77496094 -15.02666016 1.77496094 -13.71484375 1.2265625 C-9.10263744 -0.0125377 -4.75464524 -0.01682465 0 0 Z " fill="#050505" transform="translate(489.3125,431.6875)"/>
<path d="M0 0 C7.59 0 15.18 0 23 0 C24.88764745 5.47159178 26.77269251 10.94396162 28.65185547 16.41845703 C29.28847765 18.27082633 29.92644448 20.12273418 30.56591797 21.97412109 C34.02502676 31.99191805 37.38914268 42.02765785 40.4609375 52.171875 C40.71863922 53.01647278 40.97634094 53.86107056 41.24185181 54.73126221 C41.47447723 55.51184998 41.70710266 56.29243774 41.94677734 57.09667969 C42.15120453 57.78042664 42.35563171 58.46417358 42.56625366 59.16864014 C43 61 43 61 43 64 C43.66 64 44.32 64 45 64 C45.24548584 62.77603516 45.49097168 61.55207031 45.74389648 60.29101562 C47.10784967 54.16959789 49.10168291 48.28332941 51.09765625 42.34375 C51.49198349 41.16026978 51.88631073 39.97678955 52.29258728 38.75744629 C53.3327707 35.63981858 54.3771455 32.52363474 55.42315674 29.40795898 C56.27945446 26.85255405 57.13012866 24.29529219 57.98076725 21.73799896 C58.9957669 18.68886904 60.01558604 15.6413541 61.03515625 12.59375 C61.41744888 11.44596069 61.79974152 10.29817139 62.19361877 9.11560059 C62.5474614 8.06360474 62.90130402 7.01160889 63.26586914 5.92773438 C63.57738419 4.99779663 63.88889923 4.06785889 64.20985413 3.10974121 C65 1 65 1 66 0 C67.63472882 -0.08700342 69.27314055 -0.10701063 70.91015625 -0.09765625 C71.89951172 -0.09443359 72.88886719 -0.09121094 73.90820312 -0.08789062 C74.94912109 -0.07951172 75.99003906 -0.07113281 77.0625 -0.0625 C78.62967773 -0.05573242 78.62967773 -0.05573242 80.22851562 -0.04882812 C82.8190666 -0.03699913 85.40950559 -0.02051689 88 0 C86.1797368 7.23056247 83.92801823 14.22045681 81.40820312 21.23046875 C79.2247186 27.31418239 77.17018564 33.43448863 75.18041992 39.58422852 C73.92650492 43.40913632 72.55839125 47.15077474 71.0390625 50.87890625 C68.95451073 56.01425039 67.2052426 61.22854228 65.5 66.5 C64.93020252 68.26142873 64.35728969 70.02185277 63.78125 71.78125 C63.53439453 72.54501953 63.28753906 73.30878906 63.03320312 74.09570312 C61.4856979 78.44568473 59.71472778 82.71318055 58 87 C49.09 87 40.18 87 31 87 C26.60546875 75.28125 26.60546875 75.28125 25.79443359 73.11523438 C25.28983249 71.77169905 24.7826439 70.42913047 24.27197266 69.08789062 C21.68597557 62.27360447 19.3378028 55.3776164 16.9609375 48.48828125 C15.32480634 43.76098625 13.65891899 39.05397325 11.88427734 34.37646484 C9.88698184 29.0088021 7.98953734 23.60406075 6.07397461 18.20678711 C5.30552731 16.04286513 4.53463052 13.8798252 3.76367188 11.71679688 C3.27589236 10.34380304 2.78825678 8.97075805 2.30078125 7.59765625 C1.85903564 6.35508057 1.41729004 5.11250488 0.9621582 3.83227539 C0 1 0 1 0 0 Z " fill="#050505" transform="translate(154,542)"/>
<path d="M0 0 C17.82 0 35.64 0 54 0 C54 5.94 54 11.88 54 18 C43.44 18 32.88 18 22 18 C22 23.61 22 29.22 22 35 C31.24 35 40.48 35 50 35 C50 40.61 50 46.22 50 52 C40.76 52 31.52 52 22 52 C22 58.27 22 64.54 22 71 C32.56 71 43.12 71 54 71 C54 76.61 54 82.22 54 88 C36.18 88 18.36 88 0 88 C0 58.96 0 29.92 0 0 Z " fill="#090909" transform="translate(544,432)"/>
<path d="M0 0 C17.82 0 35.64 0 54 0 C54 5.94 54 11.88 54 18 C43.44 18 32.88 18 22 18 C22 23.61 22 29.22 22 35 C31.24 35 40.48 35 50 35 C50 40.61 50 46.22 50 52 C40.76 52 31.52 52 22 52 C22 58.27 22 64.54 22 71 C32.56 71 43.12 71 54 71 C54 76.61 54 82.22 54 88 C36.18 88 18.36 88 0 88 C0 58.96 0 29.92 0 0 Z " fill="#080808" transform="translate(382,432)"/>
<path d="M0 0 C31 0 31 0 40 7 C42.69379947 12.22433837 43.46494329 16.07197304 43 22 C42.505 23.485 42.505 23.485 42 25 C53.55 25 65.1 25 77 25 C77 29.62 77 34.24 77 39 C71.06 39 65.12 39 59 39 C59.45472251 45.34648701 59.45472251 45.34648701 61.11328125 47.89453125 C65.58289604 50.51337387 72.03524626 49.772259 77 50 C77 54.62 77 59.24 77 64 C57.37492776 64.80284386 57.37492776 64.80284386 52 60 C45.70244844 53.07547981 44.88050479 48.20113123 45 39 C41.04 39 37.08 39 33 39 C33.88042969 40.14597656 34.76085937 41.29195312 35.66796875 42.47265625 C36.8412062 44.00255788 38.01437989 45.5325084 39.1875 47.0625 C39.76564453 47.81466797 40.34378906 48.56683594 40.93945312 49.34179688 C51 62.47166314 51 62.47166314 51 64 C35.91259813 65.92290416 35.91259813 65.92290416 31.26269531 62.85302734 C27.78854228 59.39614147 25.46326902 55.20204715 23 51 C21.35623486 48.95693969 19.6678692 46.96641106 17.9609375 44.9765625 C16.52936966 42.03195548 16.94257904 39.22817827 17 36 C17.68460297 35.98969254 18.36920593 35.97938507 19.07455444 35.96876526 C26.17936045 35.8608532 33.28403569 35.74624306 40.38867188 35.62768555 C43.04261548 35.58428752 45.6965879 35.54261612 48.35058594 35.50268555 C52.15829158 35.44510075 55.96585155 35.3813725 59.7734375 35.31640625 C60.96617279 35.29969376 62.15890808 35.28298126 63.38778687 35.26576233 C64.48877716 35.24581711 65.58976746 35.22587189 66.72412109 35.20532227 C67.69674896 35.18977798 68.66937683 35.1742337 69.67147827 35.15821838 C72.02390474 35.14869349 72.02390474 35.14869349 74 34 C74 32.35 74 30.7 74 29 C55.52 28.67 37.04 28.34 18 28 C18 27.01 18 26.02 18 25 C21.96 24.505 21.96 24.505 26 24 C26.33 21.69 26.66 19.38 27 17 C21.06 16.01 21.06 16.01 15 15 C15 31.17 15 47.34 15 64 C10.05 64 5.1 64 0 64 C0 42.88 0 21.76 0 0 Z " fill="#030303" transform="translate(661,96)"/>
<path d="M0 0 C22.44 0 44.88 0 68 0 C68 5.94 68 11.88 68 18 C60.41 18 52.82 18 45 18 C45 41.1 45 64.2 45 88 C37.74 88 30.48 88 23 88 C23 64.9 23 41.8 23 18 C15.41 18 7.82 18 0 18 C0 12.06 0 6.12 0 0 Z " fill="#0B0B0B" transform="translate(617,541)"/>
<path d="M0 0 C22.44 0 44.88 0 68 0 C68 5.94 68 11.88 68 18 C60.41 18 52.82 18 45 18 C45 41.1 45 64.2 45 88 C37.74 88 30.48 88 23 88 C23 64.9 23 41.8 23 18 C15.41 18 7.82 18 0 18 C0 12.06 0 6.12 0 0 Z " fill="#0B0B0B" transform="translate(1004,432)"/>
<path d="M0 0 C22.44 0 44.88 0 68 0 C68 5.94 68 11.88 68 18 C60.41 18 52.82 18 45 18 C45 41.1 45 64.2 45 88 C37.74 88 30.48 88 23 88 C23 64.9 23 41.8 23 18 C15.41 18 7.82 18 0 18 C0 12.06 0 6.12 0 0 Z " fill="#0B0B0B" transform="translate(862,322)"/>
<path d="M0 0 C22.11 0 44.22 0 67 0 C67 5.28 67 10.56 67 16 C59.41 16 51.82 16 44 16 C44 39.43 44 62.86 44 87 C37.07 87 30.14 87 23 87 C23 63.9 23 40.8 23 17 C15.41 17 7.82 17 0 17 C0 11.39 0 5.78 0 0 Z " fill="#020202" transform="translate(722,433)"/>
<path d="M0 0 C22.11 0 44.22 0 67 0 C67 5.61 67 11.22 67 17 C59.41 17 51.82 17 44 17 C44 40.1 44 63.2 44 87 C37.07 87 30.14 87 23 87 C23 63.57 23 40.14 23 16 C15.41 16 7.82 16 0 16 C0 10.72 0 5.44 0 0 Z " fill="#020202" transform="translate(485,323)"/>
<path d="M0 0 C7.26 0 14.52 0 22 0 C22 23.43 22 46.86 22 71 C30.91 71 39.82 71 49 71 C49 76.61 49 82.22 49 88 C32.83 88 16.66 88 0 88 C0 58.96 0 29.92 0 0 Z " fill="#0A0A0A" transform="translate(343,541)"/>
<path d="M0 0 C27 0 27 0 36 6 C38.96439494 10.04235674 39.48929785 13.68168973 39.390625 18.57421875 C38.93761016 21.38744089 37.92920991 23.50442041 36.6875 26.0625 C35.49612519 28.52267256 35.49612519 28.52267256 35 31 C35.94818391 33.30273235 37.22201201 34.96337192 38.73046875 36.9375 C41.08410325 40.76125082 40.73269621 44.69284188 40 49 C38.15274799 54.91327039 35.05391322 58.52543466 30 62 C26.70731805 63.12595599 23.60172152 63.11531491 20.140625 63.09765625 C19.02558594 63.09443359 17.91054688 63.09121094 16.76171875 63.08789062 C15.60285156 63.07951172 14.44398438 63.07113281 13.25 63.0625 C12.07566406 63.05798828 10.90132812 63.05347656 9.69140625 63.04882812 C6.79421928 63.03705094 3.89713546 63.02060326 1 63 C3.74796023 57.21970206 7.8766088 52.81824548 13 49 C16.75487713 47.97767976 20.1370994 47.93690362 24 48 C25.96822886 46.03177114 25.66248381 42.65191291 26 40 C21.71 39.34 17.42 38.68 13 38 C13.1546875 40.10375 13.1546875 40.10375 13.3125 42.25 C13.30557722 46.69442278 13.30557722 46.69442278 10.875 49.125 C9.451875 50.053125 9.451875 50.053125 8 51 C6.37424583 52.82052667 4.85213079 54.70022624 3.33203125 56.609375 C2.67267578 57.29773438 2.67267578 57.29773438 2 58 C1.34 58 0.68 58 0 58 C0 38.86 0 19.72 0 0 Z " fill="#030303" transform="translate(741,97)"/>
<path d="M0 0 C7.26 0 14.52 0 22 0 C22 29.04 22 58.08 22 88 C14.74 88 7.48 88 0 88 C0 58.96 0 29.92 0 0 Z " fill="#0B0B0B" transform="translate(950,541)"/>
<path d="M0 0 C7.26 0 14.52 0 22 0 C22 29.04 22 58.08 22 88 C14.74 88 7.48 88 0 88 C0 58.96 0 29.92 0 0 Z " fill="#0B0B0B" transform="translate(940,322)"/>
<path d="M0 0 C5.54635447 5.69231116 7.69521122 11.58073242 7.875 19.5 C7.51784648 28.39022673 5.81729094 35.14162476 -0.625 41.4375 C-6.27495247 46.20857098 -12.59033265 46.28570008 -19.7265625 45.953125 C-26.82899813 45.0137247 -30.7036937 41.85144895 -35.0625 36.375 C-39.51922753 27.99635225 -40.30996207 18.57389675 -37.78515625 9.37890625 C-35.13497384 3.51638152 -31.2958669 -0.50722181 -25.625 -3.5625 C-16.5317735 -6.63759527 -7.92757423 -4.71879418 0 0 Z " fill="#F4F4F4" transform="translate(619.625,345.5625)"/>
<path d="M0 0 C7.17943166 4.08724723 10.63946208 8.96303637 12.93359375 16.8671875 C13.8396341 25.16904562 13.15140812 32.5644992 8.93359375 39.8671875 C6.43359375 42.8046875 6.43359375 42.8046875 3.93359375 44.8671875 C3.25296875 45.4446875 2.57234375 46.0221875 1.87109375 46.6171875 C-3.79987693 50.27587826 -11.63053511 49.50789503 -18.06640625 48.8671875 C-24.58282536 46.46587709 -28.56970525 41.84206597 -31.64453125 35.73046875 C-33.36424266 31.62033165 -33.56662473 27.845167 -33.50390625 23.4296875 C-33.49560791 22.67905029 -33.48730957 21.92841309 -33.47875977 21.1550293 C-33.27475129 14.49099451 -32.10508131 9.99046604 -27.3828125 5.13671875 C-19.63717348 -1.87599959 -9.98009695 -3.6869148 0 0 Z " fill="#F4F4F4" transform="translate(784.06640625,561.1328125)"/>
<path d="M0 0 C6.93 0 13.86 0 21 0 C21 28.71 21 57.42 21 87 C14.07 87 7.14 87 0 87 C0 58.29 0 29.58 0 0 Z " fill="#020202" transform="translate(696,542)"/>
<path d="M0 0 C6.93 0 13.86 0 21 0 C21 28.71 21 57.42 21 87 C14.07 87 7.14 87 0 87 C0 58.29 0 29.58 0 0 Z " fill="#020202" transform="translate(403,542)"/>
<path d="M0 0 C6.93 0 13.86 0 21 0 C21 28.71 21 57.42 21 87 C14.07 87 7.14 87 0 87 C0 58.29 0 29.58 0 0 Z " fill="#020202" transform="translate(612,433)"/>
<path d="M0 0 C22.16284404 0 22.16284404 0 28 5 C33.36312212 11.41363058 35.21304753 16.3372939 35.3125 24.625 C35.34150391 25.40746094 35.37050781 26.18992187 35.40039062 26.99609375 C35.47350767 33.7791061 33.68554842 38.82394045 29.2890625 44.0234375 C28.73992187 44.46945312 28.19078125 44.91546875 27.625 45.375 C27.08101563 45.83648438 26.53703125 46.29796875 25.9765625 46.7734375 C17.58666021 51.97981956 10.32254399 50 0 50 C0 33.5 0 17 0 0 Z " fill="#F5F5F5" transform="translate(461,560)"/>
<path d="M0 0 C19.875 0 19.875 0 26 4 C26.928125 4.5775 27.85625 5.155 28.8125 5.75 C33.5197914 10.59178544 35.50080173 16.00727701 35.546875 22.7109375 C35.53140625 23.46632813 35.5159375 24.22171875 35.5 25 C35.51546875 25.75539063 35.5309375 26.51078125 35.546875 27.2890625 C35.50163909 33.87088758 33.54769912 38.98696771 29.2890625 44.0234375 C28.73992188 44.46945312 28.19078125 44.91546875 27.625 45.375 C27.08101562 45.83648437 26.53703125 46.29796875 25.9765625 46.7734375 C17.58666021 51.97981956 10.32254399 50 0 50 C0 33.5 0 17 0 0 Z " fill="#F5F5F5" transform="translate(848,451)"/>
<path d="M0 0 C1.4370809 -0.05422947 2.87475462 -0.09289723 4.3125 -0.125 C5.11300781 -0.14820312 5.91351562 -0.17140625 6.73828125 -0.1953125 C9 0 9 0 12 2 C12.25 5.5625 12.25 5.5625 12 9 C11 10 11 10 9.15234375 10.09765625 C7.1015625 10.06510417 5.05078125 10.03255208 3 10 C3 10.99 3 11.98 3 13 C3.69935165 12.99777939 4.39870331 12.99555878 5.11924744 12.99327087 C11.69704921 12.9732672 18.27484254 12.95802548 24.85266781 12.94818783 C28.23471813 12.94296025 31.6167434 12.93586489 34.9987793 12.92456055 C38.88329777 12.91165733 42.76780597 12.90677076 46.65234375 12.90234375 C47.87211411 12.89718246 49.09188446 12.89202118 50.34861755 12.88670349 C52.03024742 12.88659019 52.03024742 12.88659019 53.74584961 12.88647461 C54.73846298 12.884254 55.73107635 12.88203339 56.75376892 12.87974548 C59 13 59 13 60 14 C60.25 16.4375 60.25 16.4375 60 19 C56.63352075 21.2443195 55.54377354 21.2450516 51.6105957 21.22705078 C50.50968094 21.22689972 49.40876617 21.22674866 48.27449036 21.22659302 C46.49312935 21.21110916 46.49312935 21.21110916 44.67578125 21.1953125 C43.45924362 21.1924826 42.24270599 21.18965271 40.98930359 21.18673706 C37.09693642 21.17552603 33.20479784 21.15041948 29.3125 21.125 C26.67643561 21.11497141 24.04036762 21.10584535 21.40429688 21.09765625 C14.93611968 21.07558366 8.46807617 21.04209688 2 21 C2.64714307 26.78781073 4.05300679 30.13358761 7.75 34.5625 C8.39582031 35.36977539 8.39582031 35.36977539 9.0546875 36.19335938 C10.81513506 38.38337723 12.60435271 40.54291762 14.44335938 42.66748047 C18 46.80226331 18 46.80226331 18 49 C26.415 48.505 26.415 48.505 35 48 C32.73229072 44.8935079 30.46099334 41.78975445 28.1875 38.6875 C27.22360352 37.36588867 27.22360352 37.36588867 26.24023438 36.01757812 C25.61826172 35.17001953 24.99628906 34.32246094 24.35546875 33.44921875 C23.78465576 32.66893311 23.21384277 31.88864746 22.62573242 31.0847168 C21.07301874 28.9937096 21.07301874 28.9937096 19.2902832 27.34692383 C18 26 18 26 18 24 C21.96 24 25.92 24 30 24 C30.07476563 24.845625 30.14953125 25.69125 30.2265625 26.5625 C31.07351359 33.86952898 32.0838113 40.1278446 38 45 C43.36694365 47.84328156 47.91966838 48.50701662 53.9375 48.6875 C54.71673828 48.72166016 55.49597656 48.75582031 56.29882812 48.79101562 C58.19874393 48.8726071 60.09934403 48.93799885 62 49 C58.57807951 51.0853453 55.96236016 51.2234875 51.9921875 51.16015625 C50.84105469 51.14919922 49.68992187 51.13824219 48.50390625 51.12695312 C47.30636719 51.10568359 46.10882812 51.08441406 44.875 51.0625 C42.49745504 51.02817181 40.11984512 50.99800726 37.7421875 50.97265625 C36.6888623 50.95468994 35.63553711 50.93672363 34.55029297 50.91821289 C32.00788418 50.82176019 32.00788418 50.82176019 30 52 C27.52443304 52.17682621 25.10250105 52.27730822 22.625 52.3125 C21.95210937 52.34150391 21.27921875 52.37050781 20.5859375 52.40039062 C17.18357381 52.44392481 15.36715194 52.28603698 12.6484375 50.16796875 C10.63911645 47.52537827 8.84121599 44.76182398 7 42 C6.2575 41.278125 5.515 40.55625 4.75 39.8125 C3 38 3 38 3 35 C2.34 35 1.68 35 1 35 C0.97113249 30.85418113 0.95324673 26.70838784 0.9375 22.5625 C0.92912109 21.37849609 0.92074219 20.19449219 0.91210938 18.97460938 C0.90888672 17.84990234 0.90566406 16.72519531 0.90234375 15.56640625 C0.89710693 14.52427979 0.89187012 13.48215332 0.88647461 12.40844727 C1 10 1 10 2 9 C4.33297433 8.95907063 6.66705225 8.95758277 9 9 C9 7.68 9 6.36 9 5 C6.03 4.01 3.06 3.02 0 2 C0 1.34 0 0.68 0 0 Z " fill="#8A8B8B" transform="translate(676,111)"/>
<path d="M0 0 C4.021875 -0.0928125 4.021875 -0.0928125 8.125 -0.1875 C8.95789551 -0.21481201 9.79079102 -0.24212402 10.64892578 -0.27026367 C15.50273718 -0.3241177 18.81697656 0.27277043 23 3 C25.8199641 7.22994616 25.79231188 11.03220448 25 16 C22.47323961 19.34625024 20.96066458 20.67977847 17 22 C15.66474283 22.07973476 14.32587917 22.10771338 12.98828125 22.09765625 C11.96408081 22.09390991 11.96408081 22.09390991 10.91918945 22.09008789 C10.05898193 22.08098389 9.19877441 22.07187988 8.3125 22.0625 C4.1978125 22.0315625 4.1978125 22.0315625 0 22 C0 14.74 0 7.48 0 0 Z " fill="#E8E8E8" transform="translate(322,450)"/>
<path d="M0 0 C1.94326172 0.01933594 1.94326172 0.01933594 3.92578125 0.0390625 C5.28907324 0.07248134 6.65235449 0.10634109 8.015625 0.140625 C9.39450564 0.16069793 10.77341412 0.17894733 12.15234375 0.1953125 C15.52414244 0.24247052 18.89453187 0.30827962 22.265625 0.390625 C22.265625 0.720625 22.265625 1.050625 22.265625 1.390625 C13.355625 1.390625 4.445625 1.390625 -4.734375 1.390625 C-4.734375 22.510625 -4.734375 43.630625 -4.734375 65.390625 C0.215625 65.390625 5.165625 65.390625 10.265625 65.390625 C6.265625 70.390625 6.265625 70.390625 2.59375 70.87890625 C1.2335134 70.8458908 -0.12629838 70.78656071 -1.484375 70.703125 C-2.18175781 70.68056641 -2.87914062 70.65800781 -3.59765625 70.63476562 C-5.31082435 70.57609548 -7.02288123 70.48641756 -8.734375 70.390625 C-10.80922009 66.96748207 -10.99689337 64.27824644 -11.02490234 60.30859375 C-11.03766205 59.08052002 -11.05042175 57.85244629 -11.06356812 56.5871582 C-11.06662521 55.25081541 -11.06885327 53.9144705 -11.0703125 52.578125 C-11.07674184 51.20336773 -11.08347031 49.82861183 -11.09048462 48.45385742 C-11.10244572 45.57565131 -11.10616651 42.69756514 -11.10498047 39.81933594 C-11.10477699 36.13367046 -11.13211312 32.44877355 -11.16652489 28.76329041 C-11.18877205 25.92537917 -11.19281875 23.08765382 -11.19176102 20.24966431 C-11.19411897 18.89089298 -11.20295365 17.53211668 -11.21842575 16.1734314 C-11.23804358 14.27327419 -11.22973596 12.37289087 -11.22021484 10.47265625 C-11.22306488 9.39218018 -11.22591492 8.3117041 -11.22885132 7.19848633 C-10.08356938 0.69505486 -5.92651064 -0.10397387 0 0 Z " fill="#C4C5C5" transform="translate(665.734375,94.609375)"/>
<path d="M0 0 C0.79921875 0.00644531 1.5984375 0.01289062 2.421875 0.01953125 C3.246875 0.03628906 4.071875 0.05304688 4.921875 0.0703125 C5.76234375 0.07933594 6.6028125 0.08835937 7.46875 0.09765625 C9.53658104 0.12115433 11.60426495 0.15702342 13.671875 0.1953125 C13.671875 4.8153125 13.671875 9.4353125 13.671875 14.1953125 C8.721875 14.5253125 3.771875 14.8553125 -1.328125 15.1953125 C-2.318125 17.5053125 -3.308125 19.8153125 -4.328125 22.1953125 C-8.948125 22.1953125 -13.568125 22.1953125 -18.328125 22.1953125 C-18.64137801 12.95434864 -18.64137801 12.95434864 -16.328125 9.1953125 C-11.58607168 4.41147898 -7.05042512 -0.10072036 0 0 Z " fill="#060706" transform="translate(724.328125,95.8046875)"/>
<path d="M0 0 C2.536875 -0.04125 5.07375 -0.0825 7.6875 -0.125 C8.47729248 -0.14320801 9.26708496 -0.16141602 10.08081055 -0.18017578 C14.17849911 -0.21229826 17.37216675 0.04394812 21 2 C23.37366445 4.86476744 23.96626407 6.73493201 24.4375 10.4375 C23.91284546 14.70968693 22.79623825 16.75031771 20 20 C15.81412714 22.25218159 11.82280098 22.23942687 7.1875 22.125 C4.815625 22.08375 2.44375 22.0425 0 22 C0 14.74 0 7.48 0 0 Z " fill="#EAEAEA" transform="translate(670,450)"/>
<path d="M0 0 C9.24 0 18.48 0 28 0 C28 0.33 28 0.66 28 1 C19.75 1 11.5 1 3 1 C3.33 20.47 3.66 39.94 4 60 C3.34 60 2.68 60 2 60 C1.67 53.73 1.34 47.46 1 41 C-4.94 40.67 -10.88 40.34 -17 40 C-17 41.98 -17 43.96 -17 46 C-17.33 46 -17.66 46 -18 46 C-18 43.69 -18 41.38 -18 39 C-12.06 39 -6.12 39 0 39 C0 34.38 0 29.76 0 25 C-11.55 25 -23.1 25 -35 25 C-35 21.04 -35 17.08 -35 13 C-33.68 12.67 -32.36 12.34 -31 12 C-31.33 15.3 -31.66 18.6 -32 22 C-27.38 22 -22.76 22 -18 22 C-17.67 20.35 -17.34 18.7 -17 17 C-16.34 16.01 -15.68 15.02 -15 14 C-12.37302936 13.77862607 -9.99106036 13.71837975 -7.375 13.8125 C-6.66859375 13.82603516 -5.9621875 13.83957031 -5.234375 13.85351562 C-3.48925872 13.8888896 -1.74453392 13.94269779 0 14 C0 9.38 0 4.76 0 0 Z " fill="#6C6C6C" transform="translate(738,96)"/>
<path d="M0 0 C6.75 1.875 6.75 1.875 9 3 C9 4.32 9 5.64 9 7 C6.69 7.33 4.38 7.66 2 8 C1.67 16.25 1.34 24.5 1 33 C1.66 33 2.32 33 3 33 C3.268125 33.969375 3.53625 34.93875 3.8125 35.9375 C4.204375 36.948125 4.59625 37.95875 5 39 C5.99 39.33 6.98 39.66 8 40 C12 45.37142857 12 45.37142857 12 48 C15.57693822 49.19231274 18.84182553 49.1461202 22.5625 49.125 C23.24763672 49.12886719 23.93277344 49.13273437 24.63867188 49.13671875 C28.44562188 49.18722618 28.44562188 49.18722618 32 48 C35.03336073 47.79777595 37.28185802 47.65115639 40.04858398 48.99511719 C44.47338124 50.5016492 48.76750945 50.28504515 53.41015625 50.265625 C54.41461288 50.26753845 55.41906952 50.2694519 56.45396423 50.27142334 C58.57290905 50.27278179 60.69186228 50.26910913 62.81079102 50.26074219 C66.05438905 50.25002679 69.29743465 50.26065491 72.54101562 50.2734375 C74.60156372 50.27211606 76.66211148 50.269554 78.72265625 50.265625 C80.1774514 50.27169769 80.1774514 50.27169769 81.66163635 50.27789307 C82.56615036 50.27158875 83.47066437 50.26528442 84.40258789 50.25878906 C85.59242027 50.25640228 85.59242027 50.25640228 86.80628967 50.25396729 C90.57011651 49.81822658 92.52112741 48.57155761 94.9375 45.6875 C95.618125 44.800625 96.29875 43.91375 97 43 C98.66666667 41.33333333 100.33333333 39.66666667 102 38 C102.66 37.01 103.32 36.02 104 35 C104.6796875 37.25 104.6796875 37.25 105 40 C103.8828125 42.0625 103.8828125 42.0625 102.125 44 C101.57070313 44.639375 101.01640625 45.27875 100.4453125 45.9375 C93.2574472 52.00010844 87.14258491 53.73778844 77.83203125 53.5234375 C76.79358566 53.51873444 75.75514008 53.51403137 74.68522644 53.50918579 C71.39361973 53.48798606 68.10366985 53.43145728 64.8125 53.375 C62.59181217 53.35847486 60.37110697 53.34413146 58.15039062 53.33203125 C41.98519037 53.19769967 41.98519037 53.19769967 35 52 C34.01 52.495 34.01 52.495 33 53 C30.19648462 53.12479416 27.4286626 53.18517138 24.625 53.1875 C23.85671875 53.19974609 23.0884375 53.21199219 22.296875 53.22460938 C14.89318166 53.24382311 14.89318166 53.24382311 12 51 C10.30704992 49.02676017 8.76825307 47.09687069 7.25 45 C6.63318359 44.18015625 6.63318359 44.18015625 6.00390625 43.34375 C3 39.27200997 3 39.27200997 3 37 C2.34 37 1.68 37 1 37 C-0.21077701 33.36766898 -0.12444164 30.04878013 -0.09765625 26.26953125 C-0.0962413 25.51911057 -0.09482635 24.76868988 -0.09336853 23.99552917 C-0.0877756 21.6011454 -0.07522444 19.20685547 -0.0625 16.8125 C-0.05748408 15.18815239 -0.05292134 13.56380332 -0.04882812 11.93945312 C-0.03780848 7.95959931 -0.02054873 3.97981556 0 0 Z " fill="#E6E6E7" transform="translate(676,113)"/>
<path d="M0 0 C6.93 0 13.86 0 21 0 C19.98086093 5.96924314 18.92338063 11.22985812 17 17 C10.4 17 3.8 17 -3 17 C-2.53910547 10.70110803 -2.01872253 6.0561676 0 0 Z " fill="#DDDDDD" transform="translate(1243,574)"/>
<path d="M0 0 C2.45662438 2.45662438 3.02892848 4.49593326 4.1640625 7.77734375 C4.56367187 8.93041016 4.96328125 10.08347656 5.375 11.27148438 C5.7875 12.48126953 6.2 13.69105469 6.625 14.9375 C7.25535156 16.74637695 7.25535156 16.74637695 7.8984375 18.59179688 C11 27.60948914 11 27.60948914 11 31 C4.07 31 -2.86 31 -10 31 C-7.74746793 20.86360567 -7.74746793 20.86360567 -6.30859375 16.5625 C-5.85129883 15.19158203 -5.85129883 15.19158203 -5.38476562 13.79296875 C-5.07216797 12.87128906 -4.75957031 11.94960938 -4.4375 11 C-3.96280273 9.57107422 -3.96280273 9.57107422 -3.47851562 8.11328125 C-1.13375235 1.13375235 -1.13375235 1.13375235 0 0 Z " fill="#E2E2E2" transform="translate(568,566)"/>
<path d="M0 0 C2.45662438 2.45662438 3.02892848 4.49593326 4.1640625 7.77734375 C4.56367187 8.93041016 4.96328125 10.08347656 5.375 11.27148438 C5.7875 12.48126953 6.2 13.69105469 6.625 14.9375 C7.25535156 16.74637695 7.25535156 16.74637695 7.8984375 18.59179688 C11 27.60948914 11 27.60948914 11 31 C4.07 31 -2.86 31 -10 31 C-7.74746793 20.86360567 -7.74746793 20.86360567 -6.30859375 16.5625 C-5.85129883 15.19158203 -5.85129883 15.19158203 -5.38476562 13.79296875 C-5.07216797 12.87128906 -4.75957031 11.94960938 -4.4375 11 C-3.96280273 9.57107422 -3.96280273 9.57107422 -3.47851562 8.11328125 C-1.13375235 1.13375235 -1.13375235 1.13375235 0 0 Z " fill="#E2E2E2" transform="translate(813,347)"/>
<path d="M0 0 C2 1 2 1 3.05322266 3.54443359 C3.4197998 4.65125488 3.78637695 5.75807617 4.1640625 6.8984375 C4.56367188 8.09984375 4.96328125 9.30125 5.375 10.5390625 C5.57996094 11.16844727 5.78492188 11.79783203 5.99609375 12.44628906 C6.62113758 14.36315483 7.25879235 16.27546364 7.8984375 18.1875 C11 27.59288758 11 27.59288758 11 31 C4.07 31 -2.86 31 -10 31 C-7.35692322 20.42769289 -3.67044771 10.2492395 0 0 Z " fill="#E3E3E3" transform="translate(289,566)"/>
<path d="M0 0 C2 1 2 1 3.05322266 3.54443359 C3.4197998 4.65125488 3.78637695 5.75807617 4.1640625 6.8984375 C4.56367188 8.09984375 4.96328125 9.30125 5.375 10.5390625 C5.57996094 11.16844727 5.78492188 11.79783203 5.99609375 12.44628906 C6.62113758 14.36315483 7.25879235 16.27546364 7.8984375 18.1875 C11 27.59288758 11 27.59288758 11 31 C4.07 31 -2.86 31 -10 31 C-7.35692322 20.42769289 -3.67044771 10.2492395 0 0 Z " fill="#E3E3E3" transform="translate(347,347)"/>
<path d="M0 0 C2.57283186 2.57283186 3.06442875 4.81683891 4.1640625 8.28515625 C4.56367187 9.53748047 4.96328125 10.78980469 5.375 12.08007812 C5.79166784 13.40755172 6.20833449 14.73502568 6.625 16.0625 C7.04894706 17.39404974 7.47342002 18.72543217 7.8984375 20.05664062 C11 29.8295835 11 29.8295835 11 31 C4.07 31 -2.86 31 -10 31 C-7.74746793 20.86360567 -7.74746793 20.86360567 -6.30859375 16.5625 C-5.85129883 15.19158203 -5.85129883 15.19158203 -5.38476562 13.79296875 C-5.07216797 12.87128906 -4.75957031 11.94960938 -4.4375 11 C-3.96280273 9.57107422 -3.96280273 9.57107422 -3.47851562 8.11328125 C-1.13375235 1.13375235 -1.13375235 1.13375235 0 0 Z " fill="#E4E4E4" transform="translate(955,457)"/>
<path d="M0 0 C0.66 0 1.32 0 2 0 C2.26937378 0.81247192 2.26937378 0.81247192 2.54418945 1.64135742 C3.87950414 5.65936627 5.22699133 9.67235787 6.60546875 13.67578125 C7.1328125 15.22135417 7.66015625 16.76692708 8.1875 18.3125 C8.59645508 19.4890918 8.59645508 19.4890918 9.01367188 20.68945312 C9.27083984 21.44806641 9.52800781 22.20667969 9.79296875 22.98828125 C10.0252417 23.66415283 10.25751465 24.34002441 10.49682617 25.03637695 C11 27 11 27 11 31 C4.4 31 -2.2 31 -9 31 C-6.75 20.875 -6.75 20.875 -5.2734375 16.30859375 C-4.9640625 15.34501953 -4.6546875 14.38144531 -4.3359375 13.38867188 C-4.01882813 12.41478516 -3.70171875 11.44089844 -3.375 10.4375 C-2.88773438 8.92446289 -2.88773438 8.92446289 -2.390625 7.38085938 C-1.59735302 4.91938308 -0.80041857 2.4591597 0 0 Z " fill="#E5E5E5" transform="translate(1120,457)"/>
<path d="M0 0 C2.97922593 -0.02683987 5.95821295 -0.04676037 8.9375 -0.0625 C9.78763672 -0.07087891 10.63777344 -0.07925781 11.51367188 -0.08789062 C12.32255859 -0.09111328 13.13144531 -0.09433594 13.96484375 -0.09765625 C14.7137085 -0.10289307 15.46257324 -0.10812988 16.23413086 -0.11352539 C18 0 18 0 19 1 C19.25068786 4.09631103 19.18522508 7.20723686 19.1875 10.3125 C19.19974609 11.18068359 19.21199219 12.04886719 19.22460938 12.94335938 C19.22750977 14.2030957 19.22750977 14.2030957 19.23046875 15.48828125 C19.23457764 16.25696533 19.23868652 17.02564941 19.24291992 17.81762695 C19 20 19 20 17 24 C17 19.38 17 14.76 17 10 C13.6278125 10.0928125 13.6278125 10.0928125 10.1875 10.1875 C3.66592527 10.36699288 3.66592527 10.36699288 1.05078125 8.92578125 C-0.55504162 5.98276759 -0.1856838 3.28041373 0 0 Z " fill="#959595" transform="translate(721,136)"/>
<path d="M0 0 C11.55 0 23.1 0 35 0 C35 4.62 35 9.24 35 14 C29.06 14 23.12 14 17 14 C17 13.34 17 12.68 17 12 C12.71 12 8.42 12 4 12 C4 15.96 4 19.92 4 24 C3.67 24 3.34 24 3 24 C3 20.7 3 17.4 3 14 C-0.96 14 -4.92 14 -9 14 C-9 13.34 -9 12.68 -9 12 C-13.95 12 -18.9 12 -24 12 C-24 13.98 -24 15.96 -24 18 C-24.33 18 -24.66 18 -25 18 C-25 15.69 -25 13.38 -25 11 C-24.31539703 10.98969254 -23.63079407 10.97938507 -22.92544556 10.96876526 C-15.82063955 10.8608532 -8.71596431 10.74624306 -1.61132812 10.62768555 C1.04261548 10.58428752 3.6965879 10.54261612 6.35058594 10.50268555 C10.15829158 10.44510075 13.96585155 10.3813725 17.7734375 10.31640625 C18.96617279 10.29969376 20.15890808 10.28298126 21.38778687 10.26576233 C22.48877716 10.24581711 23.58976746 10.22587189 24.72412109 10.20532227 C25.69674896 10.18977798 26.66937683 10.1742337 27.67147827 10.15821838 C30.02390474 10.14869349 30.02390474 10.14869349 32 9 C32.66 6.36 33.32 3.72 34 1 C22.78 1 11.56 1 0 1 C0 0.67 0 0.34 0 0 Z " fill="#131313" transform="translate(703,121)"/>
<path d="M0 0 C17.82 0 35.64 0 54 0 C54.495 1.485 54.495 1.485 55 3 C36.85 3 18.7 3 0 3 C0 2.01 0 1.02 0 0 Z " fill="#1A1B1A" transform="translate(678,126)"/>
<path d="M0 0 C0.33 0 0.66 0 1 0 C1 21.12 1 42.24 1 64 C4.96 64 8.92 64 13 64 C9.71737969 66.18841354 8.68209102 66.24854665 4.875 66.1875 C3.98554687 66.18105469 3.09609375 66.17460937 2.1796875 66.16796875 C0 66 0 66 -1 65 C-1.09903867 63.1907532 -1.12799196 61.37762876 -1.12939453 59.56567383 C-1.13254669 58.40389114 -1.13569885 57.24210846 -1.13894653 56.04512024 C-1.1369223 54.77855087 -1.13489807 53.51198151 -1.1328125 52.20703125 C-1.13376923 50.91310959 -1.13472595 49.61918793 -1.13571167 48.28605652 C-1.1371892 45.53956923 -1.13503406 42.79311438 -1.13037109 40.04663086 C-1.12470184 36.5373641 -1.12793453 33.02817428 -1.13394356 29.51891041 C-1.13844505 26.16494468 -1.13528329 22.81099916 -1.1328125 19.45703125 C-1.13483673 18.20058304 -1.13686096 16.94413483 -1.13894653 15.64961243 C-1.13579437 14.47206894 -1.13264221 13.29452545 -1.12939453 12.08129883 C-1.12859894 11.04951004 -1.12780334 10.01772125 -1.12698364 8.95466614 C-0.99566465 5.89912472 -0.56390853 3.00336655 0 0 Z " fill="#737475" transform="translate(660,96)"/>
<path d="M0 0 C1.37376679 0.00398964 2.74753489 0.01873698 4.12109375 0.04296875 C4.81912109 0.04361328 5.51714844 0.04425781 6.23632812 0.04492188 C11.41828217 0.09015717 11.41828217 0.09015717 12.55859375 1.23046875 C12.55859375 3.54046875 12.55859375 5.85046875 12.55859375 8.23046875 C5.95859375 8.23046875 -0.64140625 8.23046875 -7.44140625 8.23046875 C-6.78140625 7.90046875 -6.12140625 7.57046875 -5.44140625 7.23046875 C-5.48265625 6.44671875 -5.52390625 5.66296875 -5.56640625 4.85546875 C-5.36519985 0.63013432 -4.08450263 0.2735365 0 0 Z " fill="#F3F3F3" transform="translate(725.44140625,111.76953125)"/>
<path d="M0 0 C9.10714286 -0.26785714 9.10714286 -0.26785714 13 2 C13.125 5.375 13.125 5.375 13 9 C11 11 11 11 8.1796875 11.1953125 C7.08914063 11.17210937 5.99859375 11.14890625 4.875 11.125 C3.77929688 11.10695312 2.68359375 11.08890625 1.5546875 11.0703125 C0.71164062 11.04710937 -0.13140625 11.02390625 -1 11 C-0.67 7.37 -0.34 3.74 0 0 Z " fill="#B2B2B3" transform="translate(754,135)"/>
<path d="M0 0 C3.96 0 7.92 0 12 0 C12.14695312 1.28583984 12.14695312 1.28583984 12.296875 2.59765625 C13.17641379 9.32309509 14.09910991 14.4087242 18 20 C15.8203125 19.9296875 15.8203125 19.9296875 13 19 C11.08815926 16.72787317 9.4851878 14.59198498 7.875 12.125 C7.02070488 10.85510185 6.16400649 9.58681649 5.3046875 8.3203125 C4.93327637 7.75586426 4.56186523 7.19141602 4.17919922 6.60986328 C3.01487729 4.92383144 3.01487729 4.92383144 1.35595703 3.41748047 C0 2 0 2 0 0 Z " fill="#6E6E6E" transform="translate(694,135)"/>
<path d="M0 0 C8.57142857 -0.28571429 8.57142857 -0.28571429 12 2 C12.1875 5.375 12.1875 5.375 12 9 C7.7975546 11.80163026 4.99895065 11.14489712 0 11 C0 7.37 0 3.74 0 0 Z " fill="#A1A1A3" transform="translate(754,110)"/>
<path d="M0 0 C6.75 1.875 6.75 1.875 9 3 C9 4.32 9 5.64 9 7 C6.69 7.33 4.38 7.66 2 8 C1.67 16.25 1.34 24.5 1 33 C1.66 33 2.32 33 3 33 C3.268125 33.969375 3.53625 34.93875 3.8125 35.9375 C4.204375 36.948125 4.59625 37.95875 5 39 C5.99 39.33 6.98 39.66 8 40 C9.60546875 42.28515625 9.60546875 42.28515625 11.1875 45.0625 C11.71730469 45.98160156 12.24710938 46.90070313 12.79296875 47.84765625 C13.19128906 48.55792969 13.58960938 49.26820313 14 50 C13.01 50.495 13.01 50.495 12 51 C10.49412261 49.04594482 8.99521356 47.08718716 7.5 45.125 C7.07074219 44.56941406 6.64148438 44.01382813 6.19921875 43.44140625 C3 39.2265625 3 39.2265625 3 37 C2.34 37 1.68 37 1 37 C-0.21077701 33.36766898 -0.12444164 30.04878013 -0.09765625 26.26953125 C-0.0962413 25.51911057 -0.09482635 24.76868988 -0.09336853 23.99552917 C-0.0877756 21.6011454 -0.07522444 19.20685547 -0.0625 16.8125 C-0.05748408 15.18815239 -0.05292134 13.56380332 -0.04882812 11.93945312 C-0.03780848 7.95959931 -0.02054873 3.97981556 0 0 Z " fill="#DFDEDE" transform="translate(676,113)"/>
<path d="M0 0 C3.12613393 2.96160056 5.04783565 5.09567131 7 9 C15.415 8.505 15.415 8.505 24 8 C23.34 6.35 22.68 4.7 22 3 C23.62542193 3.64477069 25.25032424 4.29085143 26.875 4.9375 C27.77992188 5.29714844 28.68484375 5.65679687 29.6171875 6.02734375 C32 7 32 7 34 8 C36.87910588 8.23274209 39.74146495 8.41972757 42.625 8.5625 C43.42679688 8.60568359 44.22859375 8.64886719 45.0546875 8.69335938 C47.0362511 8.79951457 49.01810271 8.90026855 51 9 C46.99106694 11.74867226 42.72041345 11.25918778 38.0625 11.1875 C36.7616748 11.17783203 36.7616748 11.17783203 35.43457031 11.16796875 C25.61223026 11.05543209 15.80596016 10.55133913 6 10 C5.34 8.68 4.68 7.36 4 6 C3.34 6 2.68 6 2 6 C2 5.34 2 4.68 2 4 C1.34 4 0.68 4 0 4 C0 2.68 0 1.36 0 0 Z " fill="#8F8E8F" transform="translate(687,151)"/>
<path d="M0 0 C1.98 0.99 1.98 0.99 4 2 C4 2.66 4 3.32 4 4 C5.32 4.33 6.64 4.66 8 5 C8 5.66 8 6.32 8 7 C8.66 7 9.32 7 10 7 C10 8.32 10 9.64 10 11 C10.66 11 11.32 11 12 11 C12 11.66 12 12.32 12 13 C12.66 13 13.32 13 14 13 C14.99 14.485 14.99 14.485 16 16 C18.609621 16.38411275 21.0058074 16.60293197 23.625 16.6875 C24.33140625 16.72166016 25.0378125 16.75582031 25.765625 16.79101562 C27.50985688 16.87351308 29.25490395 16.93843335 31 17 C28.16816475 19.83183525 25.41155565 19.36782849 21.625 19.375 C20.95210937 19.39949219 20.27921875 19.42398438 19.5859375 19.44921875 C16.18958967 19.46927592 14.35754198 19.27914407 11.6484375 17.1640625 C9.63732439 14.52388084 7.8407477 11.76112155 6 9 C5.2575 8.278125 4.515 7.55625 3.75 6.8125 C2 5 2 5 2 2 C1.34 2 0.68 2 0 2 C0 1.34 0 0.68 0 0 Z " fill="#A6A6A6" transform="translate(677,144)"/>
<path d="M0 0 C2.31243792 -0.02685412 4.6249627 -0.04632841 6.9375 -0.0625 C8.22527344 -0.07410156 9.51304687 -0.08570313 10.83984375 -0.09765625 C14 0 14 0 15 1 C15.04063832 2.66617115 15.042721 4.33388095 15 6 C12.87527424 6.05386629 10.75016348 6.09273071 8.625 6.125 C6.84996094 6.15980469 6.84996094 6.15980469 5.0390625 6.1953125 C2 6 2 6 0 4 C0 2.68 0 1.36 0 0 Z " fill="#F1F1F1" transform="translate(721,139)"/>
<path d="M0 0 C3.96 0 7.92 0 12 0 C15 3 15 3 15.1875 6.1875 C15.125625 7.115625 15.06375 8.04375 15 9 C14.01 9.495 14.01 9.495 13 10 C13 7.69 13 5.38 13 3 C7.06 2.01 7.06 2.01 1 1 C1 17.17 1 33.34 1 50 C0.67 50 0.34 50 0 50 C0 33.5 0 17 0 0 Z " fill="#343435" transform="translate(675,110)"/>
<path d="M0 0 C2 2 2 2 2.22705078 4.24658203 C2.21657715 5.15778809 2.20610352 6.06899414 2.1953125 7.0078125 C2.18886719 7.99394531 2.18242188 8.98007813 2.17578125 9.99609375 C2.15902344 11.02863281 2.14226563 12.06117187 2.125 13.125 C2.11597656 14.16527344 2.10695313 15.20554687 2.09765625 16.27734375 C2.07403747 18.85179092 2.04110149 21.42578212 2 24 C1.34 24 0.68 24 0 24 C-0.33 21.69 -0.66 19.38 -1 17 C-5.95 16.67 -10.9 16.34 -16 16 C-15.67 15.34 -15.34 14.68 -15 14 C-10.05 14 -5.1 14 0 14 C0 9.38 0 4.76 0 0 Z " fill="#8D8D8E" transform="translate(738,96)"/>
<path d="M0 0 C1.37376679 0.00398964 2.74753489 0.01873698 4.12109375 0.04296875 C4.81912109 0.04361328 5.51714844 0.04425781 6.23632812 0.04492188 C11.41828217 0.09015717 11.41828217 0.09015717 12.55859375 1.23046875 C12.59952312 3.56344308 12.60101098 5.897521 12.55859375 8.23046875 C11.89859375 8.23046875 11.23859375 8.23046875 10.55859375 8.23046875 C10.22859375 6.58046875 9.89859375 4.93046875 9.55859375 3.23046875 C4.93859375 3.23046875 0.31859375 3.23046875 -4.44140625 3.23046875 C-4.77140625 4.55046875 -5.10140625 5.87046875 -5.44140625 7.23046875 C-5.56640625 4.85546875 -5.56640625 4.85546875 -5.44140625 2.23046875 C-3.44140625 0.23046875 -3.44140625 0.23046875 0 0 Z " fill="#C2C3C4" transform="translate(725.44140625,111.76953125)"/>
<path d="M0 0 C11.55 0 23.1 0 35 0 C35 4.29 35 8.58 35 13 C33.35 13 31.7 13 30 13 C30.20496094 12.46890625 30.40992188 11.9378125 30.62109375 11.390625 C30.89050781 10.68421875 31.15992188 9.9778125 31.4375 9.25 C31.70433594 8.55390625 31.97117187 7.8578125 32.24609375 7.140625 C33.13653634 4.71879627 33.13653634 4.71879627 34 1 C22.78 1 11.56 1 0 1 C0 0.67 0 0.34 0 0 Z " fill="#0C0C0C" transform="translate(703,121)"/>
<path d="M0 0 C9.57 0 19.14 0 29 0 C28.67 0.99 28.34 1.98 28 3 C19.09 3 10.18 3 1 3 C0.67 2.01 0.34 1.02 0 0 Z " fill="#8C8C8E" transform="translate(741,159)"/>
<path d="M0 0 C2.64590014 -0.02684679 5.29153096 -0.04676357 7.9375 -0.0625 C8.69224609 -0.07087891 9.44699219 -0.07925781 10.22460938 -0.08789062 C12.14994313 -0.09652441 14.07535581 -0.05224333 16 0 C17 1 17 1 17.125 4.5 C17 8 17 8 16 9 C13.81360547 9.07258946 11.62499611 9.08373783 9.4375 9.0625 C7.64119141 9.04896484 7.64119141 9.04896484 5.80859375 9.03515625 C4.88175781 9.02355469 3.95492187 9.01195312 3 9 C3 8.67 3 8.34 3 8 C6.96 8 10.92 8 15 8 C14.67 6.35 14.34 4.7 14 3 C7.07 2.505 7.07 2.505 0 2 C0 1.34 0 0.68 0 0 Z " fill="#C2C2C3" transform="translate(721,137)"/>
<path d="M0 0 C-1.515625 1.984375 -1.515625 1.984375 -4 4 C-6.73682971 4.2911521 -9.03940039 4.38322418 -11.75 4.25 C-12.44738281 4.23195312 -13.14476562 4.21390625 -13.86328125 4.1953125 C-15.57611539 4.14838554 -17.28823824 4.07664605 -19 4 C-19.33 2.68 -19.66 1.36 -20 0 C-18.53626953 0.01740234 -18.53626953 0.01740234 -17.04296875 0.03515625 C-15.77066406 0.04417969 -14.49835937 0.05320313 -13.1875 0.0625 C-11.29064453 0.07990234 -11.29064453 0.07990234 -9.35546875 0.09765625 C-0.48179872 -0.16059957 -0.48179872 -0.16059957 0 0 Z " fill="#C8C8C9" transform="translate(676,161)"/>
<path d="M0 0 C6.75 1.875 6.75 1.875 9 3 C9 4.32 9 5.64 9 7 C7.88625 7.12375 6.7725 7.2475 5.625 7.375 C1.96896323 7.6465813 1.96896323 7.6465813 0 10 C0 6.7 0 3.4 0 0 Z " fill="#EEEEEE" transform="translate(676,113)"/>
<path d="M0 0 C0.72960937 0.32097656 1.45921875 0.64195312 2.2109375 0.97265625 C5.72396575 2.26667086 9.11191702 2.45502107 12.8125 2.625 C13.85180664 2.68300781 13.85180664 2.68300781 14.91210938 2.7421875 C16.60767015 2.83573568 18.30379712 2.91892364 20 3 C20 3.33 20 3.66 20 4 C4.33941864 4.17293894 4.33941864 4.17293894 -0.4375 3.5 C-7.54633089 2.51033923 -14.83999032 2.92601597 -22 3 C-22 2.67 -22 2.34 -22 2 C-21.01257813 1.93941406 -20.02515625 1.87882813 -19.0078125 1.81640625 C-17.72648438 1.73261719 -16.44515625 1.64882812 -15.125 1.5625 C-13.84882812 1.48128906 -12.57265625 1.40007812 -11.2578125 1.31640625 C-7.16023301 0.9184399 -4.2652922 -0.25089954 0 0 Z " fill="#D9D9DA" transform="translate(714,161)"/>
<path d="M0 0 C1.4370809 -0.05422947 2.87475462 -0.09289723 4.3125 -0.125 C5.11300781 -0.14820312 5.91351562 -0.17140625 6.73828125 -0.1953125 C9 0 9 0 12 2 C12.1875 5.625 12.1875 5.625 12 9 C11.01 9 10.02 9 9 9 C9 7.68 9 6.36 9 5 C6.03 4.01 3.06 3.02 0 2 C0 1.34 0 0.68 0 0 Z " fill="#BBBBBC" transform="translate(676,111)"/>
<path d="M0 0 C1.41623216 -0.05447047 2.83308191 -0.09300508 4.25 -0.125 C5.03890625 -0.14820313 5.8278125 -0.17140625 6.640625 -0.1953125 C9.20731941 0.0171622 10.7916067 0.71345895 13 2 C13 4.31 13 6.62 13 9 C11.02 9.99 11.02 9.99 9 11 C9.04125 9.88625 9.0825 8.7725 9.125 7.625 C9.41121859 3.95633975 9.41121859 3.95633975 7 2 C5.01178687 1.60235737 3.01055661 1.26224651 1 1 C1 3.31 1 5.62 1 8 C0.67 8 0.34 8 0 8 C0 5.36 0 2.72 0 0 Z " fill="#6B6B6C" transform="translate(754,135)"/>
<path d="M0 0 C-0.86625 0.515625 -1.7325 1.03125 -2.625 1.5625 C-6.46201739 4.09310433 -9.16675882 7.42328418 -12 11 C-13.32 10.67 -14.64 10.34 -16 10 C-16.33 8.68 -16.66 7.36 -17 6 C-16.236875 5.896875 -15.47375 5.79375 -14.6875 5.6875 C-11.757381 4.93793468 -11.02209812 4.11401167 -9 2 C-8.01 2 -7.02 2 -6 2 C-6 1.34 -6 0.68 -6 0 C-3 -1 -3 -1 0 0 Z " fill="#C9C9CA" transform="translate(718,98)"/>
<path d="M0 0 C8.57142857 -0.28571429 8.57142857 -0.28571429 12 2 C12 4.31 12 6.62 12 9 C11.01 9.495 11.01 9.495 10 10 C10 7.69 10 5.38 10 3 C7.03 2.67 4.06 2.34 1 2 C1 4.97 1 7.94 1 11 C0.67 11 0.34 11 0 11 C0 7.37 0 3.74 0 0 Z " fill="#636363" transform="translate(754,110)"/>
<path d="M0 0 C0.99 0.33 1.98 0.66 3 1 C-0.50897269 5.18423892 -4.08060535 9.19588166 -8 13 C-8.99 12.67 -9.98 12.34 -11 12 C-10.04882866 10.8274869 -9.08882991 9.66212985 -8.125 8.5 C-7.32449219 7.52546875 -7.32449219 7.52546875 -6.5078125 6.53125 C-6.01023437 6.0259375 -5.51265625 5.520625 -5 5 C-4.34 5 -3.68 5 -3 5 C-2.690625 4.360625 -2.38125 3.72125 -2.0625 3.0625 C-1 1 -1 1 0 0 Z " fill="#8B8987" transform="translate(751,145)"/>
<path d="M0 0 C2.875 -0.1875 2.875 -0.1875 6 0 C8.29013653 3.4352048 8.17842973 4.985331 8 9 C4.20620942 7.50958227 2.31656242 5.30937488 0 2 C0 1.34 0 0.68 0 0 Z " fill="#B5B5B6" transform="translate(696,137)"/>
<path d="M0 0 C1.66611905 -0.042721 3.33382885 -0.04063832 5 0 C6 1 6 1 6.0625 3.5625 C6.041875 4.366875 6.02125 5.17125 6 6 C1.545 6.495 1.545 6.495 -3 7 C-2.34 5.68 -1.68 4.36 -1 3 C-0.67 2.01 -0.34 1.02 0 0 Z " fill="#EBEBEB" transform="translate(756,139)"/>
<path d="M0 0 C0.24492188 0.54140625 0.48984375 1.0828125 0.7421875 1.640625 C2.29353788 4.55061143 4.16714304 7.0974196 6.125 9.75 C6.84945312 10.73484375 7.57390625 11.7196875 8.3203125 12.734375 C8.87460937 13.48203125 9.42890625 14.2296875 10 15 C9.01 15.495 9.01 15.495 8 16 C8 15.34 8 14.68 8 14 C7.13375 13.87625 7.13375 13.87625 6.25 13.75 C3.1135816 12.7045272 1.91043954 11.72919934 0 9 C-0.33429898 5.97041545 -0.2334377 3.03469016 0 0 Z " fill="#797978" transform="translate(677,135)"/>
<path d="M0 0 C3.12613393 2.96160056 5.04783565 5.09567131 7 9 C12.94 9 18.88 9 25 9 C25 9.33 25 9.66 25 10 C18.73 10 12.46 10 6 10 C5.34 8.68 4.68 7.36 4 6 C3.34 6 2.68 6 2 6 C2 5.34 2 4.68 2 4 C1.34 4 0.68 4 0 4 C0 2.68 0 1.36 0 0 Z " fill="#7D7D7E" transform="translate(687,151)"/>
<path d="M0 0 C0.66 0.66 1.32 1.32 2 2 C1.91015625 4.41796875 1.91015625 4.41796875 1 7 C-1.06640625 8.80078125 -1.06640625 8.80078125 -3.5625 10.3125 C-4.38878906 10.82425781 -5.21507812 11.33601562 -6.06640625 11.86328125 C-6.70449219 12.23839844 -7.34257813 12.61351562 -8 13 C-8 12.01 -8 11.02 -8 10 C-7.236875 9.401875 -6.47375 8.80375 -5.6875 8.1875 C-2.66832926 5.73003545 -1.52756977 3.53752999 0 0 Z " fill="#BCBCBC" transform="translate(779,148)"/>
<path d="M0 0 C1.5 1.375 1.5 1.375 3 3 C3 3.66 3 4.32 3 5 C9.6 5.33 16.2 5.66 23 6 C23 6.33 23 6.66 23 7 C19.56265937 7.08703823 16.12560163 7.14040272 12.6875 7.1875 C11.22280273 7.22520508 11.22280273 7.22520508 9.72851562 7.26367188 C8.32182617 7.27817383 8.32182617 7.27817383 6.88671875 7.29296875 C6.02264404 7.3086792 5.15856934 7.32438965 4.26831055 7.34057617 C2 7 2 7 0.17504883 5.6184082 C-1 4 -1 4 -0.6875 1.8125 C-0.460625 1.214375 -0.23375 0.61625 0 0 Z " fill="#B0AFB1" transform="translate(739,156)"/>
<path d="M0 0 C2.97 0.495 2.97 0.495 6 1 C6 2.65 6 4.3 6 6 C4.02 6 2.04 6 0 6 C0 4.02 0 2.04 0 0 Z " fill="#E4E5E6" transform="translate(755,114)"/>
<path d="M0 0 C2.97 0 5.94 0 9 0 C10.35091528 2.70183055 10.33858058 5.11808206 10.5625 8.125 C10.64628906 9.22070312 10.73007812 10.31640625 10.81640625 11.4453125 C10.87699219 12.28835937 10.93757812 13.13140625 11 14 C9.68 12.68 8.36 11.36 7 10 C7.66 10 8.32 10 9 10 C8.34 7.36 7.68 4.72 7 2 C4.69 2 2.38 2 0 2 C0 1.34 0 0.68 0 0 Z " fill="#959595" transform="translate(695,136)"/>
<path d="M0 0 C0 0.66 0 1.32 0 2 C-2.64 2.33 -5.28 2.66 -8 3 C-8 3.66 -8 4.32 -8 5 C-8.99 5 -9.98 5 -11 5 C-11.33 5.99 -11.66 6.98 -12 8 C-14.5625 9.1875 -14.5625 9.1875 -17 10 C-12.85675021 4.11925836 -7.48190749 0 0 0 Z " fill="#EFEFEF" transform="translate(720,95)"/>
<path d="M0 0 C1.77007714 -0.08114106 3.54122098 -0.13925505 5.3125 -0.1875 C6.29863281 -0.22230469 7.28476562 -0.25710937 8.30078125 -0.29296875 C11 0 11 0 12.84375 1.3125 C14.5684867 3.8296833 14.19767151 6.03492731 14 9 C13.01 9.495 13.01 9.495 12 10 C12 7.69 12 5.38 12 3 C6.06 2.01 6.06 2.01 0 1 C0 0.67 0 0.34 0 0 Z " fill="#5E5E5E" transform="translate(676,110)"/>
<path d="M0 0 C-0.33 0.99 -0.66 1.98 -1 3 C-2.95803507 3.05389087 -4.91648909 3.09274217 -6.875 3.125 C-7.96554687 3.14820313 -9.05609375 3.17140625 -10.1796875 3.1953125 C-13 3 -13 3 -15 1 C-12.8750734 0.83240016 -10.75005624 0.66594799 -8.625 0.5 C-7.44164062 0.4071875 -6.25828125 0.314375 -5.0390625 0.21875 C-3.36213157 0.09804546 -1.68126944 0 0 0 Z " fill="#9A9A9A" transform="translate(734,129)"/>
<path d="M0 0 C1.258125 -0.04125 2.51625 -0.0825 3.8125 -0.125 C4.52019531 -0.14820312 5.22789062 -0.17140625 5.95703125 -0.1953125 C8 0 8 0 11 2 C11.1875 5.625 11.1875 5.625 11 9 C10.67 9 10.34 9 10 9 C10 7.35 10 5.7 10 4 C6.7 3.01 3.4 2.02 0 1 C0 0.67 0 0.34 0 0 Z " fill="#8F8F90" transform="translate(677,111)"/>
<path d="M0 0 C-0.33 0.99 -0.66 1.98 -1 3 C-6.61 3 -12.22 3 -18 3 C-18 2.67 -18 2.34 -18 2 C-17.01257813 1.93941406 -16.02515625 1.87882813 -15.0078125 1.81640625 C-13.72648438 1.73261719 -12.44515625 1.64882812 -11.125 1.5625 C-9.84882812 1.48128906 -8.57265625 1.40007812 -7.2578125 1.31640625 C-4.53573738 1.05203205 -2.62506009 0 0 0 Z " fill="#C6C7C8" transform="translate(710,161)"/>
<path d="M0 0 C3.80666984 1.44390925 5.26602582 3.34952803 7 7 C6.67 7.66 6.34 8.32 6 9 C4 7.1875 4 7.1875 2 5 C2 4.01 2 3.02 2 2 C1.34 2 0.68 2 0 2 C0 1.34 0 0.68 0 0 Z " fill="#BFBFBE" transform="translate(677,144)"/>
<path d="M0 0 C2.64752004 2.57784846 4.94432065 4.91648098 7 8 C6.01 8 5.02 8 4 8 C4 7.34 4 6.68 4 6 C3.34 6 2.68 6 2 6 C2 5.34 2 4.68 2 4 C1.34 4 0.68 4 0 4 C0 2.68 0 1.36 0 0 Z " fill="#6A6969" transform="translate(687,151)"/>
<path d="M0 0 C0.66 0.66 1.32 1.32 2 2 C1.625 4.625 1.625 4.625 1 7 C0.01 7.33 -0.98 7.66 -2 8 C-1.47731534 5.23723823 -0.89130413 2.6739124 0 0 Z " fill="#D1D0CE" transform="translate(779,148)"/>
<path d="M0 0 C1.32 0.33 2.64 0.66 4 1 C4.33 2.98 4.66 4.96 5 7 C3.29115995 5.37660195 1.62553283 3.70680947 0 2 C0 1.34 0 0.68 0 0 Z " fill="#D0D0D0" transform="translate(698,139)"/>
<path d="M0 0 C-4.5 3 -4.5 3 -9 6 C-9 4.68 -9 3.36 -9 2 C-8.01 2 -7.02 2 -6 2 C-6 1.34 -6 0.68 -6 0 C-3 -1 -3 -1 0 0 Z " fill="#BFBFC0" transform="translate(718,98)"/>
<path d="M0 0 C1.9451 2.91765 2.45276317 4.62537285 3 8 C2.34 8 1.68 8 1 8 C0.67 8.99 0.34 9.98 0 11 C0 7.37 0 3.74 0 0 Z " fill="#C3C3C3" transform="translate(682,358)"/>
<path d="M0 0 C0.99 0.33 1.98 0.66 3 1 C3 2.65 3 4.3 3 6 C2.01 6.495 2.01 6.495 1 7 C-0.0625 4.625 -0.0625 4.625 -1 2 C-0.67 1.34 -0.34 0.68 0 0 Z " fill="#737373" transform="translate(733,124)"/>
<path d="M0 0 C4.455 1.98 4.455 1.98 9 4 C9 4.33 9 4.66 9 5 C3.5 5.36666667 3.5 5.36666667 1.125 3.625 C0 2 0 2 0 0 Z " fill="#6A6969" transform="translate(712,155)"/>
</svg>
