<?xml version="1.0" encoding="UTF-8"?>
<svg version="1.1" xmlns="http://www.w3.org/2000/svg" width="1500" height="900">
<path d="M0 0 C495 0 990 0 1500 0 C1500 297 1500 594 1500 900 C1005 900 510 900 0 900 C0 603 0 306 0 0 Z " fill="#FDFDFD" transform="translate(0,0)"/>
<path d="M0 0 C11.84291684 8.12540931 19.64621091 19.85520056 23.9375 33.5625 C27.05955726 52.69004066 24.96048267 69.79589109 14.19140625 86.2265625 C5.22947566 98.26275202 -8.20525029 106.97480366 -23.0625 109.5625 C-41.70593131 111.08830048 -57.84302597 108.84171249 -73.08203125 97.26953125 C-79.46096497 91.78068131 -84.02022221 85.91812024 -88.0625 78.5625 C-88.47242188 77.82773437 -88.88234375 77.09296875 -89.3046875 76.3359375 C-96.0738032 63.53885016 -96.50849209 46.01789402 -93.1875 32.06640625 C-92.04577944 28.69757945 -90.75013361 25.69058856 -89.0625 22.5625 C-88.26585937 21.08136719 -88.26585937 21.08136719 -87.453125 19.5703125 C-78.8725585 5.04632608 -65.34434801 -4.2322575 -49.22924805 -8.97729492 C-31.63737992 -12.7137086 -15.09977311 -9.00688221 0 0 Z " fill="#040404" transform="translate(1051.0625,348.4375)"/>
<path d="M0 0 C11.84291684 8.12540931 19.64621091 19.85520056 23.9375 33.5625 C27.05955726 52.69004066 24.96048267 69.79589109 14.19140625 86.2265625 C5.22947566 98.26275202 -8.20525029 106.97480366 -23.0625 109.5625 C-41.70593131 111.08830048 -57.84302597 108.84171249 -73.08203125 97.26953125 C-79.46096497 91.78068131 -84.02022221 85.91812024 -88.0625 78.5625 C-88.47242188 77.82773437 -88.88234375 77.09296875 -89.3046875 76.3359375 C-93.8722063 67.7009932 -94.42687754 60.05737645 -94.4375 50.375 C-94.46199219 49.21935547 -94.48648437 48.06371094 -94.51171875 46.87304688 C-94.56542933 30.92995662 -88.2470821 18.3737682 -77.4765625 6.8828125 C-55.92998971 -13.82700018 -24.87646071 -14.8385906 0 0 Z " fill="#040404" transform="translate(1197.0625,495.4375)"/>
<path d="M0 0 C11.84291684 8.12540931 19.64621091 19.85520056 23.9375 33.5625 C27.05955726 52.69004066 24.96048267 69.79589109 14.19140625 86.2265625 C5.22947566 98.26275202 -8.20525029 106.97480366 -23.0625 109.5625 C-41.70593131 111.08830048 -57.84302597 108.84171249 -73.08203125 97.26953125 C-79.46096497 91.78068131 -84.02022221 85.91812024 -88.0625 78.5625 C-88.47242188 77.82773437 -88.88234375 77.09296875 -89.3046875 76.3359375 C-93.8722063 67.7009932 -94.42687754 60.05737645 -94.4375 50.375 C-94.46199219 49.21935547 -94.48648438 48.06371094 -94.51171875 46.87304688 C-94.56542933 30.92995662 -88.2470821 18.3737682 -77.4765625 6.8828125 C-55.92998971 -13.82700018 -24.87646071 -14.8385906 0 0 Z " fill="#040404" transform="translate(938.0625,495.4375)"/>
<path d="M0 0 C0.9087085 0.00829834 1.81741699 0.01659668 2.75366211 0.02514648 C19.20518143 0.43091116 33.52768084 5.58551512 45.7109375 17.015625 C59.04792688 31.9414976 62.74694865 48.32033867 62.05419922 67.88964844 C61.03845905 82.3314255 52.79429065 94.48309682 42.875 104.4375 C42.32199219 105.01371094 41.76898437 105.58992187 41.19921875 106.18359375 C30.41795829 116.48330908 14.52735845 119.94548058 0.08520508 119.71435547 C-15.58692718 119.21214484 -29.59908758 113.99921642 -40.94921875 102.83984375 C-48.24502183 94.78433407 -52.80214738 86.79243608 -56.125 76.4375 C-56.49109375 75.34050781 -56.8571875 74.24351562 -57.234375 73.11328125 C-60.94434858 57.80150434 -57.75699301 41.48462374 -49.8828125 28.03125 C-38.42851669 11.12980019 -20.6925317 -0.24756962 0 0 Z " fill="#040404" transform="translate(473.125,485.5625)"/>
<path d="M0 0 C11.22 0 22.44 0 34 0 C39.62358277 12.37188209 39.62358277 12.37188209 41.59960938 17.30664062 C42.26555115 18.96391174 42.26555115 18.96391174 42.94494629 20.65466309 C43.40655151 21.81018677 43.86815674 22.96571045 44.34375 24.15625 C45.09509501 26.0263313 45.84644291 27.89641144 46.5979538 29.76642609 C48.16341308 33.66413964 49.72440933 37.56364253 51.28619385 41.46282959 C52.57815803 44.68786565 53.87113533 47.91248711 55.16662598 51.1361084 C56.13174131 53.53825934 57.09468916 55.9412827 58.05505371 58.34533691 C60.85708425 65.31850555 63.82533764 72.18822952 67 79 C67.38614975 78.02503067 67.7722995 77.05006134 68.17015076 76.04554749 C71.80201809 66.87662295 75.43660339 57.70878004 79.0738821 48.54200077 C80.94394406 43.82875712 82.81303189 39.11513195 84.67993164 34.40063477 C86.48018341 29.8545472 88.28294405 25.30946217 90.08748055 20.76507378 C90.77697061 19.02741723 91.46554163 17.28939573 92.15319633 15.55101204 C93.11332199 13.12427499 94.07664886 10.69883295 95.04077148 8.27368164 C95.47018791 7.18503815 95.47018791 7.18503815 95.90827942 6.07440186 C97.88594784 1.11405216 97.88594784 1.11405216 99 0 C110.22 0 121.44 0 133 0 C133 38.61 133 77.22 133 117 C123.43 117 113.86 117 104 117 C103.67 95.22 103.34 73.44 103 51 C97.99143418 64.35459879 97.99143418 64.35459879 93.01953125 77.72265625 C92.32365861 79.59834102 91.6276925 81.47399111 90.93164062 83.34960938 C89.86444309 86.22583386 88.79778294 89.10225236 87.73266602 91.97924805 C86.68407619 94.81098857 85.63324841 97.64189019 84.58203125 100.47265625 C84.26635696 101.32690689 83.95068268 102.18115753 83.6254425 103.06129456 C83.32470322 103.87001511 83.02396393 104.67873566 82.71411133 105.51196289 C82.45463211 106.21204971 82.19515289 106.91213654 81.92781067 107.63343811 C80.69206462 110.78544917 79.33365054 113.88814874 78 117 C70.41 117 62.82 117 55 117 C50.37478138 105.60213982 45.89266199 94.19804076 41.79101562 82.60107422 C40.35903684 78.5850792 38.87960893 74.6585778 37.078125 70.79296875 C34.29083257 64.36438264 32.21575537 57.6472661 30 51 C29.67 72.78 29.34 94.56 29 117 C19.43 117 9.86 117 0 117 C0 78.39 0 39.78 0 0 Z " fill="#060606" transform="translate(160,340)"/>
<path d="M0 0 C72.01828096 0 72.01828096 0 90.36328125 18.12109375 C93.99778896 22.08943772 96.59279124 26.21119108 99 31 C99.556875 31.94875 100.11375 32.8975 100.6875 33.875 C106.31005703 47.26204055 107.66593945 65.2029844 102.23291016 78.93945312 C98.65298472 87.1897745 94.6037165 94.7761433 88 101 C87.09507812 101.91652344 87.09507812 101.91652344 86.171875 102.8515625 C64.2927319 123.75236994 25.06260567 117 0 117 C0 78.39 0 39.78 0 0 Z " fill="#030303" transform="translate(460,340)"/>
<path d="M0 0 C68.74137931 0 68.74137931 0 81.32421875 11.0390625 C89.07578404 19.14883321 91.58544205 27.06720654 91.40283203 38.17041016 C91.01397068 47.42179524 88.12400994 54.97850584 82 62 C79.15640654 64.31041968 76.20139538 66.22468075 73 68 C72.31164063 68.38285156 71.62328125 68.76570313 70.9140625 69.16015625 C69 70 69 70 66 70 C70.07543469 77.51972205 74.22340428 84.99466605 78.4375 92.4375 C79.00299561 93.43797363 79.56849121 94.43844727 80.15112305 95.46923828 C83.68455659 101.71020016 87.25806771 107.92275784 90.92578125 114.0859375 C92 116 92 116 92 117 C81.44 117 70.88 117 60 117 C57.40125 112.483125 57.40125 112.483125 54.75 107.875 C54.16677979 106.8658252 53.58355957 105.85665039 52.98266602 104.81689453 C50.12884299 99.8470022 47.37880824 94.84920996 44.77734375 89.7421875 C44.25881836 88.73945801 43.74029297 87.73672852 43.20605469 86.70361328 C42.20786035 84.76210925 41.22992652 82.8100296 40.27441406 80.84716797 C39.58750488 79.52289795 39.58750488 79.52289795 38.88671875 78.171875 C38.49701904 77.3890918 38.10731934 76.60630859 37.70581055 75.79980469 C35.59843716 73.20307829 35.59843716 73.20307829 29 73 C29 87.52 29 102.04 29 117 C19.43 117 9.86 117 0 117 C0 78.39 0 39.78 0 0 Z " fill="#050505" transform="translate(1285,340)"/>
<path d="M0 0 C68.40803383 0 68.40803383 0 80.95703125 11.84765625 C88.67402283 20.01954417 90.70753258 27.64026638 90.68164062 38.6875 C90.28164319 48.31762684 86.75338802 56.94774684 79.5625 63.625 C75.23925925 66.78691874 70.44711916 70 65 70 C72.26684622 83.12699697 79.56609975 96.20568233 87.44238281 108.97949219 C88.14766113 110.13239746 88.14766113 110.13239746 88.8671875 111.30859375 C89.28081543 111.97689209 89.69444336 112.64519043 90.12060547 113.33374023 C91 115 91 115 91 117 C80.44 117 69.88 117 59 117 C51.5 103.375 51.5 103.375 49.18945312 99.17333984 C48.20404072 97.38532567 47.21788939 95.59768908 46.22106934 93.81600952 C44.39715181 90.55469564 42.62263985 87.28163775 40.9296875 83.95019531 C40.58965698 83.30345856 40.24962646 82.6567218 39.89929199 81.99038696 C38.96230668 80.20818561 38.04779136 78.41422277 37.13476562 76.61962891 C34.81306956 73.16607095 34.81306956 73.16607095 28 73 C28 87.52 28 102.04 28 117 C18.76 117 9.52 117 0 117 C0 78.39 0 39.78 0 0 Z " fill="#030303" transform="translate(551,487)"/>
<path d="M0 0 C31 0 31 0 40 7 C40.66 8.65 41.32 10.3 42 12 C42.99 12 43.98 12 45 12 C46.80182723 10.16249303 48.31143831 8.17100789 49.890625 6.140625 C54.96219872 0.99391685 59.51542267 -0.45608964 66.55000305 -0.60708618 C67.95804451 -0.60435196 67.95804451 -0.60435196 69.39453125 -0.6015625 C70.38192795 -0.61013275 71.36932465 -0.618703 72.38664246 -0.62753296 C74.46842392 -0.63897804 76.55028534 -0.64005068 78.63208008 -0.63134766 C81.7932405 -0.62503844 84.95063144 -0.6719433 88.11132812 -0.72265625 C106.35948462 -0.83700326 106.35948462 -0.83700326 113.37133789 4.38598633 C117.22370587 8.20370551 119.16945351 11.79042928 119.5 17.3125 C119.37837305 21.07653419 118.31628191 23.69117997 116.6875 27.0625 C115.49612519 29.52267256 115.49612519 29.52267256 115 32 C115.94818391 34.30273235 117.22201201 35.96337192 118.73046875 37.9375 C121.08410325 41.76125082 120.73269621 45.69284188 120 50 C118.11930763 56.02031692 114.95492813 59.2838039 110 63 C109.2575 63.7425 108.515 64.485 107.75 65.25 C105.04417325 67.95582675 103.33963185 68.1275347 99.62963867 68.14526367 C98.7249736 68.15164352 97.82030853 68.15802338 96.88822937 68.16459656 C95.90804337 68.16570938 94.92785736 68.1668222 93.91796875 68.16796875 C92.91163895 68.17129715 91.90530914 68.17462555 90.8684845 68.17805481 C88.73581398 68.18312451 86.60313552 68.18546312 84.47045898 68.18530273 C81.21129199 68.18748408 77.9524662 68.20562524 74.69335938 68.22460938 C72.62239699 68.22754432 70.551433 68.22952844 68.48046875 68.23046875 C67.50635544 68.23765427 66.53224213 68.24483978 65.52861023 68.25224304 C60.85287343 68.23650606 57.27761712 68.08695401 53 66 C48.84594326 65.71161543 48.84594326 65.71161543 45 67 C42.52443304 67.17682621 40.10250105 67.27730822 37.625 67.3125 C36.61566406 67.35600586 36.61566406 67.35600586 35.5859375 67.40039062 C32.18357381 67.44392481 30.36715194 67.28603698 27.6484375 65.16796875 C25.63911645 62.52537827 23.84121599 59.76182398 22 57 C21.2575 56.278125 20.515 55.55625 19.75 54.8125 C18 53 18 53 18 50 C17.34 50 16.68 50 16 50 C15.97113249 45.85418113 15.95324673 41.70838784 15.9375 37.5625 C15.92912109 36.37849609 15.92074219 35.19449219 15.91210938 33.97460938 C15.90888672 32.84990234 15.90566406 31.72519531 15.90234375 30.56640625 C15.89448853 29.00321655 15.89448853 29.00321655 15.88647461 27.40844727 C16 25 16 25 17 24 C19.33297433 23.95907063 21.66705225 23.95758277 24 24 C24 22.68 24 21.36 24 20 C21.36 19.34 18.72 18.68 16 18 C15.67 33.18 15.34 48.36 15 64 C10.05 64 5.1 64 0 64 C0 42.88 0 21.76 0 0 Z " fill="#C0C1C2" transform="translate(661,96)"/>
<path d="M0 0 C67.59838235 0 67.59838235 0 79.8125 11.1875 C87.96159047 19.95307012 89.47499562 29.92862117 89.265625 41.40625 C88.86439069 51.06734272 85.30530581 57.8364052 78.63671875 64.76953125 C70.95684466 71.26613585 61.11422146 75.28419665 51.0703125 75.1953125 C49.90773926 75.19031738 48.74516602 75.18532227 47.54736328 75.18017578 C45.35829346 75.15286377 45.35829346 75.15286377 43.125 75.125 C38.46375 75.08375 33.8025 75.0425 29 75 C29 88.86 29 102.72 29 117 C19.43 117 9.86 117 0 117 C0 78.39 0 39.78 0 0 Z " fill="#050505" transform="translate(316,487)"/>
<path d="M0 0 C66.34899329 0 66.34899329 0 79.06640625 10.74609375 C86.90823658 18.89279005 89.76747485 28.63413386 89.58959961 39.70288086 C89.06955457 49.69605741 85.23124363 57.81679538 78.30859375 65.02734375 C70.4609394 71.73303825 61.28621673 75.28698859 50.97265625 75.1953125 C49.81258057 75.19031738 48.65250488 75.18532227 47.45727539 75.18017578 C45.28186157 75.15286377 45.28186157 75.15286377 43.0625 75.125 C38.421875 75.08375 33.78125 75.0425 29 75 C29 88.86 29 102.72 29 117 C19.43 117 9.86 117 0 117 C0 78.39 0 39.78 0 0 Z " fill="#040404" transform="translate(1092,340)"/>
<path d="M0 0 C9.9 0 19.8 0 30 0 C32.59232523 6.48081308 34.90463137 12.65554768 36.8046875 19.3125 C39.93189199 29.98647668 43.49043874 40.48997917 47.125 51 C47.73865337 52.78242401 48.35193538 54.56497592 48.96484375 56.34765625 C49.26364441 57.21656494 49.56244507 58.08547363 49.87030029 58.98071289 C50.99770823 62.26036049 52.12461748 65.54017879 53.25061035 68.8203125 C53.72798432 70.20881055 54.20660933 71.59687957 54.68688965 72.984375 C55.27199111 74.67564686 55.85110452 76.3689871 56.4296875 78.0625 C56.73890137 78.96097656 57.04811523 79.85945313 57.36669922 80.78515625 C58 83 58 83 58 86 C58.66 86 59.32 86 60 86 C60.26119629 84.72817871 60.52239258 83.45635742 60.79150391 82.14599609 C61.96838756 76.86206812 63.60438444 71.78868031 65.3359375 66.6640625 C65.65656158 65.70406342 65.97718567 64.74406433 66.30752563 63.75497437 C66.98285182 61.7356812 67.66032509 59.71710495 68.33984375 57.69921875 C69.36922227 54.64215877 70.39223213 51.58302775 71.4140625 48.5234375 C72.07514879 46.54935454 72.73659544 44.57539221 73.3984375 42.6015625 C73.69962494 41.70225006 74.00081238 40.80293762 74.31112671 39.87637329 C76.16287388 34.38173651 78.10164091 28.92598522 80.11352539 23.48786926 C81.45373904 19.7265925 82.54998346 15.90639138 83.625 12.0625 C84.80901158 7.8322814 86.02233886 3.95532227 88 0 C97.9 0 107.8 0 118 0 C117.01 3.3 116.02 6.6 115 10 C114.525625 11.65 114.05125 13.3 113.5625 15 C112.60207923 18.20140258 111.52370827 21.28557994 110.25 24.375 C105.2422704 36.56939498 101.18579517 49.1988897 97.12939453 61.73632812 C95.89438833 65.50681908 94.54041889 69.19234835 93.04296875 72.8671875 C90.95751946 78.00659457 89.20650578 83.22463738 87.5 88.5 C85.54081571 94.5564738 83.46874739 100.51249313 81.04492188 106.40039062 C79.63451694 109.9092672 78.3278529 113.45905894 77 117 C65.12 117 53.24 117 41 117 C34.51879371 99.71678322 34.51879371 99.71678322 31.859375 91.5859375 C30.92273316 88.76749705 29.89538782 85.99659338 28.8359375 83.22265625 C26.81294435 77.84376325 24.92108819 72.4159492 23 67 C22.77441406 66.36449219 22.54882812 65.72898437 22.31640625 65.07421875 C19.83751273 58.08569974 17.3763712 51.09125466 14.9453125 44.0859375 C14.41514526 42.55827759 14.41514526 42.55827759 13.87426758 40.99975586 C13.18301902 39.00611808 12.49270361 37.01215643 11.8034668 35.01782227 C9.45354894 28.23737317 6.97049473 21.52141335 4.39453125 14.82421875 C3.8671875 13.4453125 3.33984375 12.06640625 2.8125 10.6875 C2.40354492 9.6346582 2.40354492 9.6346582 1.98632812 8.56054688 C0.84758619 5.56671155 0 3.23158202 0 0 Z " fill="#050505" transform="translate(662,340)"/>
<path d="M0 0 C23.76 0 47.52 0 72 0 C72 7.59 72 15.18 72 23 C57.81 23 43.62 23 29 23 C29 30.59 29 38.18 29 46 C41.54 46 54.08 46 67 46 C67 53.59 67 61.18 67 69 C54.46 69 41.92 69 29 69 C29 77.25 29 85.5 29 94 C43.19 94 57.38 94 72 94 C72 101.59 72 109.18 72 117 C48.24 117 24.48 117 0 117 C0 78.39 0 39.78 0 0 Z " fill="#070707" transform="translate(792,340)"/>
<path d="M0 0 C23.43 0 46.86 0 71 0 C71 7.59 71 15.18 71 23 C56.81 23 42.62 23 28 23 C28 30.92 28 38.84 28 47 C40.54 47 53.08 47 66 47 C66 53.93 66 60.86 66 68 C53.46 68 40.92 68 28 68 C28 76.58 28 85.16 28 94 C42.19 94 56.38 94 71 94 C71 101.59 71 109.18 71 117 C47.57 117 24.14 117 0 117 C0 78.39 0 39.78 0 0 Z " fill="#030303" transform="translate(1196,340)"/>
<path d="M0 0 C23.43 0 46.86 0 71 0 C71 7.59 71 15.18 71 23 C56.81 23 42.62 23 28 23 C28 30.92 28 38.84 28 47 C40.54 47 53.08 47 66 47 C66 53.93 66 60.86 66 68 C53.46 68 40.92 68 28 68 C28 76.58 28 85.16 28 94 C42.19 94 56.38 94 71 94 C71 101.59 71 109.18 71 117 C47.57 117 24.14 117 0 117 C0 78.39 0 39.78 0 0 Z " fill="#030303" transform="translate(581,340)"/>
<path d="M0 0 C10.56 0 21.12 0 32 0 C38.06622766 11.88980621 43.7434959 23.93659458 49.33837891 36.05322266 C49.63858444 36.70135422 49.93878998 37.34948578 50.24809265 38.01725769 C51.07656386 39.8061896 51.90249028 41.59629938 52.72827148 43.38647461 C53.76059461 45.86940704 53.76059461 45.86940704 55 47 C57.16943306 42.39622088 59.33818209 37.79212033 61.50634766 33.18774414 C62.24119417 31.62743822 62.9762148 30.06721429 63.71142578 28.50708008 C64.77945101 26.24062272 65.84681045 23.97385277 66.9140625 21.70703125 C67.23307526 21.03041946 67.55208801 20.35380768 67.88076782 19.6566925 C70.95668643 13.12054703 73.97250525 6.55957197 77 0 C87.56 0 98.12 0 109 0 C107.60801819 3.47995454 106.19718757 6.73405332 104.53125 10.0703125 C104.04809326 11.03864014 103.56493652 12.00696777 103.06713867 13.00463867 C102.54998291 14.03435791 102.03282715 15.06407715 101.5 16.125 C100.96028564 17.20177002 100.42057129 18.27854004 99.86450195 19.38793945 C97.06866385 24.94708198 94.25234725 30.49342222 91.34350586 35.99438477 C90.56002648 37.4807618 89.78637807 38.97235491 89.02172852 40.46850586 C86.57920749 45.20505899 83.93409065 49.71794454 81.078125 54.21875 C68.56121215 74.82668967 68.05071592 93.21983307 69 117 C59.43 117 49.86 117 40 117 C40.05542969 114.36773437 40.11085938 111.73546875 40.16796875 109.0234375 C40.38234551 89.78104404 40.36017512 73.83771778 29.46240234 57.26953125 C27.16912805 53.71055331 25.29811732 49.95494541 23.375 46.1875 C22.573642 44.6695009 21.77012338 43.15264112 20.96484375 41.63671875 C17.30601014 34.70398448 13.7073479 27.74006902 10.11187744 20.77432251 C9.33172567 19.26346521 8.55076606 17.75302476 7.76898193 16.24301147 C6.66543185 14.11103698 5.56475425 11.977604 4.46484375 9.84375 C3.96241905 8.87469475 3.96241905 8.87469475 3.44984436 7.88606262 C2.1087218 5.27733277 0.92950863 2.78852588 0 0 Z " fill="#050505" transform="translate(304,340)"/>
<path d="M0 0 C25.41 0 50.82 0 77 0 C77 7.59 77 15.18 77 23 C61.16 23 45.32 23 29 23 C29 30.92 29 38.84 29 47 C40.88 47 52.76 47 65 47 C65 54.59 65 62.18 65 70 C53.12 70 41.24 70 29 70 C29 85.51 29 101.02 29 117 C19.43 117 9.86 117 0 117 C0 78.39 0 39.78 0 0 Z " fill="#080808" transform="translate(757,487)"/>
<path d="M0 0 C29.7 0 59.4 0 90 0 C90 7.59 90 15.18 90 23 C79.77 23 69.54 23 59 23 C59 54.02 59 85.04 59 117 C49.76 117 40.52 117 31 117 C31 85.98 31 54.96 31 23 C20.77 23 10.54 23 0 23 C0 15.41 0 7.82 0 0 Z " fill="#030303" transform="translate(653,487)"/>
<path d="M0 0 C9.57 0 19.14 0 29 0 C29 31.35 29 62.7 29 95 C41.21 95 53.42 95 66 95 C66 102.26 66 109.52 66 117 C44.22 117 22.44 117 0 117 C0 78.39 0 39.78 0 0 Z " fill="#060606" transform="translate(979,487)"/>
<path d="M0 0 C9.57 0 19.14 0 29 0 C29 31.35 29 62.7 29 95 C41.21 95 53.42 95 66 95 C66 102.26 66 109.52 66 117 C44.22 117 22.44 117 0 117 C0 78.39 0 39.78 0 0 Z " fill="#060606" transform="translate(882,340)"/>
<path d="M0 0 C9.57 0 19.14 0 29 0 C29 38.61 29 77.22 29 117 C19.43 117 9.86 117 0 117 C0 78.39 0 39.78 0 0 Z " fill="#070707" transform="translate(1058,487)"/>
<path d="M0 0 C8.02908635 5.24348497 12.84087933 12.02308445 15.10546875 21.375 C16.16357409 30.07956969 16.14387585 39.42793382 12.10546875 47.375 C11.75355469 48.06851563 11.40164063 48.76203125 11.0390625 49.4765625 C7.06102912 56.487354 1.68796978 61.68081317 -6.1875 63.89453125 C-15.97476322 65.63166455 -24.568323 65.27012249 -33.296875 60.27734375 C-39.81226706 55.5059213 -43.87160384 49.19466365 -45.89453125 41.375 C-46.32385706 37.718581 -46.35972625 34.11589957 -46.33203125 30.4375 C-46.36200195 29.03081055 -46.36200195 29.03081055 -46.39257812 27.59570312 C-46.38602388 18.16414661 -43.35647183 10.98843156 -36.83984375 4.171875 C-27.26879624 -4.66885162 -11.74685606 -5.82288218 0 0 Z " fill="#F5F5F5" transform="translate(490.89453125,514.625)"/>
<path d="M0 0 C6.55463911 5.49416393 11.36118944 12.44056258 12.56982422 21.03857422 C12.7064304 23.25279531 12.7377621 25.43420063 12.70703125 27.65234375 C12.69800781 28.43730225 12.68898438 29.22226074 12.6796875 30.03100586 C12.37344909 40.4101486 9.75632176 48.49915055 2.4296875 56.05859375 C-5.55800638 62.87629992 -14.6946838 63.68512601 -24.75683594 63.13330078 C-31.62572733 62.32949434 -37.4585437 58.15070881 -41.73046875 52.90234375 C-49.09760213 42.90716863 -49.86606138 31.94950033 -48.73046875 19.90234375 C-47.04377865 11.45879329 -42.89278147 4.61748094 -35.86328125 -0.44140625 C-25.65707486 -6.57389077 -9.9390847 -6.48864976 0 0 Z " fill="#F5F5F5" transform="translate(1034.73046875,369.09765625)"/>
<path d="M0 0 C6.55463911 5.49416393 11.36118944 12.44056258 12.56982422 21.03857422 C12.7064304 23.25279531 12.7377621 25.43420063 12.70703125 27.65234375 C12.69800781 28.43730225 12.68898438 29.22226074 12.6796875 30.03100586 C12.37350871 40.40812805 9.75947575 48.505983 2.42578125 56.05859375 C-5.09742465 62.49147996 -13.24159897 63.44953006 -22.88671875 63.25 C-29.70404693 62.63339207 -34.34457816 59.86407601 -39.54296875 55.58984375 C-48.3947033 44.71485559 -50.02075896 33.59063988 -48.73046875 19.90234375 C-47.04377865 11.45879329 -42.89278147 4.61748094 -35.86328125 -0.44140625 C-25.65707486 -6.57389077 -9.9390847 -6.48864976 0 0 Z " fill="#F6F6F6" transform="translate(1180.73046875,516.09765625)"/>
<path d="M0 0 C6.55463911 5.49416393 11.36118944 12.44056258 12.56982422 21.03857422 C12.7064304 23.25279531 12.7377621 25.43420063 12.70703125 27.65234375 C12.69800781 28.43730225 12.68898438 29.22226074 12.6796875 30.03100586 C12.37350871 40.40812805 9.75947575 48.505983 2.42578125 56.05859375 C-5.09742465 62.49147996 -13.24159897 63.44953006 -22.88671875 63.25 C-29.70404693 62.63339207 -34.34457816 59.86407601 -39.54296875 55.58984375 C-48.3947033 44.71485559 -50.02075896 33.59063988 -48.73046875 19.90234375 C-47.04377865 11.45879329 -42.89278147 4.61748094 -35.86328125 -0.44140625 C-25.65707486 -6.57389077 -9.9390847 -6.48864976 0 0 Z " fill="#F6F6F6" transform="translate(921.73046875,516.09765625)"/>
<path d="M0 0 C28.86117137 0 28.86117137 0 39.09375 8.80078125 C47.39022126 18.37232494 48.7113865 28.84056038 48 41 C46.53196851 49.99480314 42.27620284 57.93136168 34.875 63.375 C23.76204587 70.00959948 13.06507877 69 0 69 C0 46.23 0 23.46 0 0 Z " fill="#F1F1F1" transform="translate(488,364)"/>
<path d="M0 0 C31 0 31 0 40 7 C42.69379947 12.22433837 43.46494329 16.07197304 43 22 C42.505 23.485 42.505 23.485 42 25 C53.55 25 65.1 25 77 25 C77 29.62 77 34.24 77 39 C71.06 39 65.12 39 59 39 C59.45472251 45.34648701 59.45472251 45.34648701 61.11328125 47.89453125 C65.58289604 50.51337387 72.03524626 49.772259 77 50 C77 54.62 77 59.24 77 64 C57.37492776 64.80284386 57.37492776 64.80284386 52 60 C45.70244844 53.07547981 44.88050479 48.20113123 45 39 C41.04 39 37.08 39 33 39 C33.88042969 40.14597656 34.76085937 41.29195312 35.66796875 42.47265625 C36.8412062 44.00255788 38.01437989 45.5325084 39.1875 47.0625 C39.76564453 47.81466797 40.34378906 48.56683594 40.93945312 49.34179688 C51 62.47166314 51 62.47166314 51 64 C35.91259813 65.92290416 35.91259813 65.92290416 31.26269531 62.85302734 C27.78854228 59.39614147 25.46326902 55.20204715 23 51 C21.35623486 48.95693969 19.6678692 46.96641106 17.9609375 44.9765625 C16.52936966 42.03195548 16.94257904 39.22817827 17 36 C17.68460297 35.98969254 18.36920593 35.97938507 19.07455444 35.96876526 C26.17936045 35.8608532 33.28403569 35.74624306 40.38867188 35.62768555 C43.04261548 35.58428752 45.6965879 35.54261612 48.35058594 35.50268555 C52.15829158 35.44510075 55.96585155 35.3813725 59.7734375 35.31640625 C60.96617279 35.29969376 62.15890808 35.28298126 63.38778687 35.26576233 C64.48877716 35.24581711 65.58976746 35.22587189 66.72412109 35.20532227 C67.69674896 35.18977798 68.66937683 35.1742337 69.67147827 35.15821838 C72.02390474 35.14869349 72.02390474 35.14869349 74 34 C74 32.35 74 30.7 74 29 C55.52 28.67 37.04 28.34 18 28 C18 27.01 18 26.02 18 25 C21.96 24.505 21.96 24.505 26 24 C26.33 21.69 26.66 19.38 27 17 C21.06 16.01 21.06 16.01 15 15 C15 31.17 15 47.34 15 64 C10.05 64 5.1 64 0 64 C0 42.88 0 21.76 0 0 Z " fill="#030303" transform="translate(661,96)"/>
<path d="M0 0 C27 0 27 0 36 6 C38.96439494 10.04235674 39.48929785 13.68168973 39.390625 18.57421875 C38.93761016 21.38744089 37.92920991 23.50442041 36.6875 26.0625 C35.49612519 28.52267256 35.49612519 28.52267256 35 31 C35.94818391 33.30273235 37.22201201 34.96337192 38.73046875 36.9375 C41.08410325 40.76125082 40.73269621 44.69284188 40 49 C38.15274799 54.91327039 35.05391322 58.52543466 30 62 C26.70731805 63.12595599 23.60172152 63.11531491 20.140625 63.09765625 C19.02558594 63.09443359 17.91054688 63.09121094 16.76171875 63.08789062 C15.60285156 63.07951172 14.44398438 63.07113281 13.25 63.0625 C12.07566406 63.05798828 10.90132812 63.05347656 9.69140625 63.04882812 C6.79421928 63.03705094 3.89713546 63.02060326 1 63 C3.74796023 57.21970206 7.8766088 52.81824548 13 49 C16.75487713 47.97767976 20.1370994 47.93690362 24 48 C25.96822886 46.03177114 25.66248381 42.65191291 26 40 C21.71 39.34 17.42 38.68 13 38 C13.1546875 40.10375 13.1546875 40.10375 13.3125 42.25 C13.30557722 46.69442278 13.30557722 46.69442278 10.875 49.125 C9.451875 50.053125 9.451875 50.053125 8 51 C6.37424583 52.82052667 4.85213079 54.70022624 3.33203125 56.609375 C2.67267578 57.29773438 2.67267578 57.29773438 2 58 C1.34 58 0.68 58 0 58 C0 38.86 0 19.72 0 0 Z " fill="#030303" transform="translate(741,97)"/>
<path d="M0 0 C1.4370809 -0.05422947 2.87475462 -0.09289723 4.3125 -0.125 C5.11300781 -0.14820312 5.91351562 -0.17140625 6.73828125 -0.1953125 C9 0 9 0 12 2 C12.25 5.5625 12.25 5.5625 12 9 C11 10 11 10 9.15234375 10.09765625 C7.1015625 10.06510417 5.05078125 10.03255208 3 10 C3 10.99 3 11.98 3 13 C3.69935165 12.99777939 4.39870331 12.99555878 5.11924744 12.99327087 C11.69704921 12.9732672 18.27484254 12.95802548 24.85266781 12.94818783 C28.23471813 12.94296025 31.6167434 12.93586489 34.9987793 12.92456055 C38.88329777 12.91165733 42.76780597 12.90677076 46.65234375 12.90234375 C47.87211411 12.89718246 49.09188446 12.89202118 50.34861755 12.88670349 C52.03024742 12.88659019 52.03024742 12.88659019 53.74584961 12.88647461 C54.73846298 12.884254 55.73107635 12.88203339 56.75376892 12.87974548 C59 13 59 13 60 14 C60.25 16.4375 60.25 16.4375 60 19 C56.63352075 21.2443195 55.54377354 21.2450516 51.6105957 21.22705078 C50.50968094 21.22689972 49.40876617 21.22674866 48.27449036 21.22659302 C46.49312935 21.21110916 46.49312935 21.21110916 44.67578125 21.1953125 C43.45924362 21.1924826 42.24270599 21.18965271 40.98930359 21.18673706 C37.09693642 21.17552603 33.20479784 21.15041948 29.3125 21.125 C26.67643561 21.11497141 24.04036762 21.10584535 21.40429688 21.09765625 C14.93611968 21.07558366 8.46807617 21.04209688 2 21 C2.64714307 26.78781073 4.05300679 30.13358761 7.75 34.5625 C8.39582031 35.36977539 8.39582031 35.36977539 9.0546875 36.19335938 C10.81513506 38.38337723 12.60435271 40.54291762 14.44335938 42.66748047 C18 46.80226331 18 46.80226331 18 49 C26.415 48.505 26.415 48.505 35 48 C32.73229072 44.8935079 30.46099334 41.78975445 28.1875 38.6875 C27.22360352 37.36588867 27.22360352 37.36588867 26.24023438 36.01757812 C25.61826172 35.17001953 24.99628906 34.32246094 24.35546875 33.44921875 C23.78465576 32.66893311 23.21384277 31.88864746 22.62573242 31.0847168 C21.07301874 28.9937096 21.07301874 28.9937096 19.2902832 27.34692383 C18 26 18 26 18 24 C21.96 24 25.92 24 30 24 C30.07476563 24.845625 30.14953125 25.69125 30.2265625 26.5625 C31.07351359 33.86952898 32.0838113 40.1278446 38 45 C43.36694365 47.84328156 47.91966838 48.50701662 53.9375 48.6875 C54.71673828 48.72166016 55.49597656 48.75582031 56.29882812 48.79101562 C58.19874393 48.8726071 60.09934403 48.93799885 62 49 C58.57807951 51.0853453 55.96236016 51.2234875 51.9921875 51.16015625 C50.84105469 51.14919922 49.68992187 51.13824219 48.50390625 51.12695312 C47.30636719 51.10568359 46.10882812 51.08441406 44.875 51.0625 C42.49745504 51.02817181 40.11984512 50.99800726 37.7421875 50.97265625 C36.6888623 50.95468994 35.63553711 50.93672363 34.55029297 50.91821289 C32.00788418 50.82176019 32.00788418 50.82176019 30 52 C27.52443304 52.17682621 25.10250105 52.27730822 22.625 52.3125 C21.95210937 52.34150391 21.27921875 52.37050781 20.5859375 52.40039062 C17.18357381 52.44392481 15.36715194 52.28603698 12.6484375 50.16796875 C10.63911645 47.52537827 8.84121599 44.76182398 7 42 C6.2575 41.278125 5.515 40.55625 4.75 39.8125 C3 38 3 38 3 35 C2.34 35 1.68 35 1 35 C0.97113249 30.85418113 0.95324673 26.70838784 0.9375 22.5625 C0.92912109 21.37849609 0.92074219 20.19449219 0.91210938 18.97460938 C0.90888672 17.84990234 0.90566406 16.72519531 0.90234375 15.56640625 C0.89710693 14.52427979 0.89187012 13.48215332 0.88647461 12.40844727 C1 10 1 10 2 9 C4.33297433 8.95907063 6.66705225 8.95758277 9 9 C9 7.68 9 6.36 9 5 C6.03 4.01 3.06 3.02 0 2 C0 1.34 0 0.68 0 0 Z " fill="#8A8B8B" transform="translate(676,111)"/>
<path d="M0 0 C5.754375 -0.12375 5.754375 -0.12375 11.625 -0.25 C12.82334473 -0.28641602 14.02168945 -0.32283203 15.25634766 -0.36035156 C21.32436469 -0.42352823 25.3307947 -0.32165928 30 4 C33.09333444 7.15219281 33.43194692 9.51027554 33.4375 13.875 C33.28648271 19.04104974 32.78246464 22.21753536 29 26 C22.87492708 29.42091839 17.46458467 29.36126953 10.5625 29.1875 C5.3340625 29.0946875 5.3340625 29.0946875 0 29 C0 19.43 0 9.86 0 0 Z " fill="#EBEBEB" transform="translate(579,511)"/>
<path d="M0 0 C3.485625 -0.061875 6.97125 -0.12375 10.5625 -0.1875 C12.18973999 -0.22846802 12.18973999 -0.22846802 13.84985352 -0.27026367 C19.70360923 -0.3203418 23.85382468 0.13947455 29 3 C33.06254611 7.33338252 33.35666065 11.78307926 33.2734375 17.4921875 C32.85949324 21.28864775 31.61281041 23.25319931 29 26 C22.88422978 29.43198807 17.45929581 29.36113637 10.5625 29.1875 C5.3340625 29.0946875 5.3340625 29.0946875 0 29 C0 19.43 0 9.86 0 0 Z " fill="#ECECEC" transform="translate(1314,364)"/>
<path d="M0 0 C3.155625 -0.061875 6.31125 -0.12375 9.5625 -0.1875 C10.5429126 -0.21481201 11.5233252 -0.24212402 12.53344727 -0.27026367 C19.6914692 -0.33775795 24.35323255 0.74743195 29.9375 5.5 C32.69983612 9.15872333 32.63947937 12.92619955 32.421875 17.375 C31.63315521 22.28258983 29.43866908 24.95696492 25.5 27.8125 C21.75136945 29.59309951 18.58837397 30.12559712 14.453125 30.09765625 C13.69161133 30.09515869 12.93009766 30.09266113 12.14550781 30.09008789 C10.71223145 30.07643188 10.71223145 30.07643188 9.25 30.0625 C4.67125 30.0315625 4.67125 30.0315625 0 30 C0 20.1 0 10.2 0 0 Z " fill="#E5E5E5" transform="translate(1120,363)"/>
<path d="M0 0 C3.135 -0.0825 6.27 -0.165 9.5 -0.25 C10.47130859 -0.28641602 11.44261719 -0.32283203 12.44335938 -0.36035156 C18.44204638 -0.43600628 23.10055095 0.37391709 28 4 C31.62173702 8.39216617 31.61443305 12.53512742 31.4921875 18.04296875 C30.74412524 22.53727933 28.60425671 25.29023035 25 28 C21.99984088 29.00005304 20.02576244 29.11575585 16.89453125 29.09765625 C15.56578979 29.09390991 15.56578979 29.09390991 14.21020508 29.09008789 C13.0889624 29.08098389 11.96771973 29.07187988 10.8125 29.0625 C7.244375 29.041875 3.67625 29.02125 0 29 C0 19.43 0 9.86 0 0 Z " fill="#EDEDED" transform="translate(345,510)"/>
<path d="M0 0 C1.94326172 0.01933594 1.94326172 0.01933594 3.92578125 0.0390625 C5.28907324 0.07248134 6.65235449 0.10634109 8.015625 0.140625 C9.39450564 0.16069793 10.77341412 0.17894733 12.15234375 0.1953125 C15.52414244 0.24247052 18.89453187 0.30827962 22.265625 0.390625 C22.265625 0.720625 22.265625 1.050625 22.265625 1.390625 C13.355625 1.390625 4.445625 1.390625 -4.734375 1.390625 C-4.734375 22.510625 -4.734375 43.630625 -4.734375 65.390625 C0.215625 65.390625 5.165625 65.390625 10.265625 65.390625 C6.265625 70.390625 6.265625 70.390625 2.59375 70.87890625 C1.2335134 70.8458908 -0.12629838 70.78656071 -1.484375 70.703125 C-2.18175781 70.68056641 -2.87914062 70.65800781 -3.59765625 70.63476562 C-5.31082435 70.57609548 -7.02288123 70.48641756 -8.734375 70.390625 C-10.80922009 66.96748207 -10.99689337 64.27824644 -11.02490234 60.30859375 C-11.03766205 59.08052002 -11.05042175 57.85244629 -11.06356812 56.5871582 C-11.06662521 55.25081541 -11.06885327 53.9144705 -11.0703125 52.578125 C-11.07674184 51.20336773 -11.08347031 49.82861183 -11.09048462 48.45385742 C-11.10244572 45.57565131 -11.10616651 42.69756514 -11.10498047 39.81933594 C-11.10477699 36.13367046 -11.13211312 32.44877355 -11.16652489 28.76329041 C-11.18877205 25.92537917 -11.19281875 23.08765382 -11.19176102 20.24966431 C-11.19411897 18.89089298 -11.20295365 17.53211668 -11.21842575 16.1734314 C-11.23804358 14.27327419 -11.22973596 12.37289087 -11.22021484 10.47265625 C-11.22306488 9.39218018 -11.22591492 8.3117041 -11.22885132 7.19848633 C-10.08356938 0.69505486 -5.92651064 -0.10397387 0 0 Z " fill="#C4C5C5" transform="translate(665.734375,94.609375)"/>
<path d="M0 0 C0.79921875 0.00644531 1.5984375 0.01289062 2.421875 0.01953125 C3.246875 0.03628906 4.071875 0.05304688 4.921875 0.0703125 C5.76234375 0.07933594 6.6028125 0.08835937 7.46875 0.09765625 C9.53658104 0.12115433 11.60426495 0.15702342 13.671875 0.1953125 C13.671875 4.8153125 13.671875 9.4353125 13.671875 14.1953125 C8.721875 14.5253125 3.771875 14.8553125 -1.328125 15.1953125 C-2.318125 17.5053125 -3.308125 19.8153125 -4.328125 22.1953125 C-8.948125 22.1953125 -13.568125 22.1953125 -18.328125 22.1953125 C-18.64137801 12.95434864 -18.64137801 12.95434864 -16.328125 9.1953125 C-11.58607168 4.41147898 -7.05042512 -0.10072036 0 0 Z " fill="#060706" transform="translate(724.328125,95.8046875)"/>
<path d="M0 0 C9.24 0 18.48 0 28 0 C28 0.33 28 0.66 28 1 C19.75 1 11.5 1 3 1 C3.33 20.47 3.66 39.94 4 60 C3.34 60 2.68 60 2 60 C1.67 53.73 1.34 47.46 1 41 C-4.94 40.67 -10.88 40.34 -17 40 C-17 41.98 -17 43.96 -17 46 C-17.33 46 -17.66 46 -18 46 C-18 43.69 -18 41.38 -18 39 C-12.06 39 -6.12 39 0 39 C0 34.38 0 29.76 0 25 C-11.55 25 -23.1 25 -35 25 C-35 21.04 -35 17.08 -35 13 C-33.68 12.67 -32.36 12.34 -31 12 C-31.33 15.3 -31.66 18.6 -32 22 C-27.38 22 -22.76 22 -18 22 C-17.67 20.35 -17.34 18.7 -17 17 C-16.34 16.01 -15.68 15.02 -15 14 C-12.37302936 13.77862607 -9.99106036 13.71837975 -7.375 13.8125 C-6.66859375 13.82603516 -5.9621875 13.83957031 -5.234375 13.85351562 C-3.48925872 13.8888896 -1.74453392 13.94269779 0 14 C0 9.38 0 4.76 0 0 Z " fill="#6C6C6C" transform="translate(738,96)"/>
<path d="M0 0 C6.75 1.875 6.75 1.875 9 3 C9 4.32 9 5.64 9 7 C6.69 7.33 4.38 7.66 2 8 C1.67 16.25 1.34 24.5 1 33 C1.66 33 2.32 33 3 33 C3.268125 33.969375 3.53625 34.93875 3.8125 35.9375 C4.204375 36.948125 4.59625 37.95875 5 39 C5.99 39.33 6.98 39.66 8 40 C12 45.37142857 12 45.37142857 12 48 C15.57693822 49.19231274 18.84182553 49.1461202 22.5625 49.125 C23.24763672 49.12886719 23.93277344 49.13273437 24.63867188 49.13671875 C28.44562188 49.18722618 28.44562188 49.18722618 32 48 C35.03336073 47.79777595 37.28185802 47.65115639 40.04858398 48.99511719 C44.47338124 50.5016492 48.76750945 50.28504515 53.41015625 50.265625 C54.41461288 50.26753845 55.41906952 50.2694519 56.45396423 50.27142334 C58.57290905 50.27278179 60.69186228 50.26910913 62.81079102 50.26074219 C66.05438905 50.25002679 69.29743465 50.26065491 72.54101562 50.2734375 C74.60156372 50.27211606 76.66211148 50.269554 78.72265625 50.265625 C80.1774514 50.27169769 80.1774514 50.27169769 81.66163635 50.27789307 C82.56615036 50.27158875 83.47066437 50.26528442 84.40258789 50.25878906 C85.59242027 50.25640228 85.59242027 50.25640228 86.80628967 50.25396729 C90.57011651 49.81822658 92.52112741 48.57155761 94.9375 45.6875 C95.618125 44.800625 96.29875 43.91375 97 43 C98.66666667 41.33333333 100.33333333 39.66666667 102 38 C102.66 37.01 103.32 36.02 104 35 C104.6796875 37.25 104.6796875 37.25 105 40 C103.8828125 42.0625 103.8828125 42.0625 102.125 44 C101.57070313 44.639375 101.01640625 45.27875 100.4453125 45.9375 C93.2574472 52.00010844 87.14258491 53.73778844 77.83203125 53.5234375 C76.79358566 53.51873444 75.75514008 53.51403137 74.68522644 53.50918579 C71.39361973 53.48798606 68.10366985 53.43145728 64.8125 53.375 C62.59181217 53.35847486 60.37110697 53.34413146 58.15039062 53.33203125 C41.98519037 53.19769967 41.98519037 53.19769967 35 52 C34.01 52.495 34.01 52.495 33 53 C30.19648462 53.12479416 27.4286626 53.18517138 24.625 53.1875 C23.85671875 53.19974609 23.0884375 53.21199219 22.296875 53.22460938 C14.89318166 53.24382311 14.89318166 53.24382311 12 51 C10.30704992 49.02676017 8.76825307 47.09687069 7.25 45 C6.63318359 44.18015625 6.63318359 44.18015625 6.00390625 43.34375 C3 39.27200997 3 39.27200997 3 37 C2.34 37 1.68 37 1 37 C-0.21077701 33.36766898 -0.12444164 30.04878013 -0.09765625 26.26953125 C-0.0962413 25.51911057 -0.09482635 24.76868988 -0.09336853 23.99552917 C-0.0877756 21.6011454 -0.07522444 19.20685547 -0.0625 16.8125 C-0.05748408 15.18815239 -0.05292134 13.56380332 -0.04882812 11.93945312 C-0.03780848 7.95959931 -0.02054873 3.97981556 0 0 Z " fill="#E6E6E7" transform="translate(676,113)"/>
<path d="M0 0 C2.97922593 -0.02683987 5.95821295 -0.04676037 8.9375 -0.0625 C9.78763672 -0.07087891 10.63777344 -0.07925781 11.51367188 -0.08789062 C12.32255859 -0.09111328 13.13144531 -0.09433594 13.96484375 -0.09765625 C14.7137085 -0.10289307 15.46257324 -0.10812988 16.23413086 -0.11352539 C18 0 18 0 19 1 C19.25068786 4.09631103 19.18522508 7.20723686 19.1875 10.3125 C19.19974609 11.18068359 19.21199219 12.04886719 19.22460938 12.94335938 C19.22750977 14.2030957 19.22750977 14.2030957 19.23046875 15.48828125 C19.23457764 16.25696533 19.23868652 17.02564941 19.24291992 17.81762695 C19 20 19 20 17 24 C17 19.38 17 14.76 17 10 C13.6278125 10.0928125 13.6278125 10.0928125 10.1875 10.1875 C3.66592527 10.36699288 3.66592527 10.36699288 1.05078125 8.92578125 C-0.55504162 5.98276759 -0.1856838 3.28041373 0 0 Z " fill="#959595" transform="translate(721,136)"/>
<path d="M0 0 C11.55 0 23.1 0 35 0 C35 4.62 35 9.24 35 14 C29.06 14 23.12 14 17 14 C17 13.34 17 12.68 17 12 C12.71 12 8.42 12 4 12 C4 15.96 4 19.92 4 24 C3.67 24 3.34 24 3 24 C3 20.7 3 17.4 3 14 C-0.96 14 -4.92 14 -9 14 C-9 13.34 -9 12.68 -9 12 C-13.95 12 -18.9 12 -24 12 C-24 13.98 -24 15.96 -24 18 C-24.33 18 -24.66 18 -25 18 C-25 15.69 -25 13.38 -25 11 C-24.31539703 10.98969254 -23.63079407 10.97938507 -22.92544556 10.96876526 C-15.82063955 10.8608532 -8.71596431 10.74624306 -1.61132812 10.62768555 C1.04261548 10.58428752 3.6965879 10.54261612 6.35058594 10.50268555 C10.15829158 10.44510075 13.96585155 10.3813725 17.7734375 10.31640625 C18.96617279 10.29969376 20.15890808 10.28298126 21.38778687 10.26576233 C22.48877716 10.24581711 23.58976746 10.22587189 24.72412109 10.20532227 C25.69674896 10.18977798 26.66937683 10.1742337 27.67147827 10.15821838 C30.02390474 10.14869349 30.02390474 10.14869349 32 9 C32.66 6.36 33.32 3.72 34 1 C22.78 1 11.56 1 0 1 C0 0.67 0 0.34 0 0 Z " fill="#131313" transform="translate(703,121)"/>
<path d="M0 0 C17.82 0 35.64 0 54 0 C54.495 1.485 54.495 1.485 55 3 C36.85 3 18.7 3 0 3 C0 2.01 0 1.02 0 0 Z " fill="#1A1B1A" transform="translate(678,126)"/>
<path d="M0 0 C0.33 0 0.66 0 1 0 C1 21.12 1 42.24 1 64 C4.96 64 8.92 64 13 64 C9.71737969 66.18841354 8.68209102 66.24854665 4.875 66.1875 C3.98554687 66.18105469 3.09609375 66.17460937 2.1796875 66.16796875 C0 66 0 66 -1 65 C-1.09903867 63.1907532 -1.12799196 61.37762876 -1.12939453 59.56567383 C-1.13254669 58.40389114 -1.13569885 57.24210846 -1.13894653 56.04512024 C-1.1369223 54.77855087 -1.13489807 53.51198151 -1.1328125 52.20703125 C-1.13376923 50.91310959 -1.13472595 49.61918793 -1.13571167 48.28605652 C-1.1371892 45.53956923 -1.13503406 42.79311438 -1.13037109 40.04663086 C-1.12470184 36.5373641 -1.12793453 33.02817428 -1.13394356 29.51891041 C-1.13844505 26.16494468 -1.13528329 22.81099916 -1.1328125 19.45703125 C-1.13483673 18.20058304 -1.13686096 16.94413483 -1.13894653 15.64961243 C-1.13579437 14.47206894 -1.13264221 13.29452545 -1.12939453 12.08129883 C-1.12859894 11.04951004 -1.12780334 10.01772125 -1.12698364 8.95466614 C-0.99566465 5.89912472 -0.56390853 3.00336655 0 0 Z " fill="#737475" transform="translate(660,96)"/>
<path d="M0 0 C1.37376679 0.00398964 2.74753489 0.01873698 4.12109375 0.04296875 C4.81912109 0.04361328 5.51714844 0.04425781 6.23632812 0.04492188 C11.41828217 0.09015717 11.41828217 0.09015717 12.55859375 1.23046875 C12.55859375 3.54046875 12.55859375 5.85046875 12.55859375 8.23046875 C5.95859375 8.23046875 -0.64140625 8.23046875 -7.44140625 8.23046875 C-6.78140625 7.90046875 -6.12140625 7.57046875 -5.44140625 7.23046875 C-5.48265625 6.44671875 -5.52390625 5.66296875 -5.56640625 4.85546875 C-5.36519985 0.63013432 -4.08450263 0.2735365 0 0 Z " fill="#F3F3F3" transform="translate(725.44140625,111.76953125)"/>
<path d="M0 0 C9.10714286 -0.26785714 9.10714286 -0.26785714 13 2 C13.125 5.375 13.125 5.375 13 9 C11 11 11 11 8.1796875 11.1953125 C7.08914063 11.17210937 5.99859375 11.14890625 4.875 11.125 C3.77929688 11.10695312 2.68359375 11.08890625 1.5546875 11.0703125 C0.71164062 11.04710937 -0.13140625 11.02390625 -1 11 C-0.67 7.37 -0.34 3.74 0 0 Z " fill="#B2B2B3" transform="translate(754,135)"/>
<path d="M0 0 C3.96 0 7.92 0 12 0 C12.14695312 1.28583984 12.14695312 1.28583984 12.296875 2.59765625 C13.17641379 9.32309509 14.09910991 14.4087242 18 20 C15.8203125 19.9296875 15.8203125 19.9296875 13 19 C11.08815926 16.72787317 9.4851878 14.59198498 7.875 12.125 C7.02070488 10.85510185 6.16400649 9.58681649 5.3046875 8.3203125 C4.93327637 7.75586426 4.56186523 7.19141602 4.17919922 6.60986328 C3.01487729 4.92383144 3.01487729 4.92383144 1.35595703 3.41748047 C0 2 0 2 0 0 Z " fill="#6E6E6E" transform="translate(694,135)"/>
<path d="M0 0 C8.57142857 -0.28571429 8.57142857 -0.28571429 12 2 C12.1875 5.375 12.1875 5.375 12 9 C7.7975546 11.80163026 4.99895065 11.14489712 0 11 C0 7.37 0 3.74 0 0 Z " fill="#A1A1A3" transform="translate(754,110)"/>
<path d="M0 0 C6.75 1.875 6.75 1.875 9 3 C9 4.32 9 5.64 9 7 C6.69 7.33 4.38 7.66 2 8 C1.67 16.25 1.34 24.5 1 33 C1.66 33 2.32 33 3 33 C3.268125 33.969375 3.53625 34.93875 3.8125 35.9375 C4.204375 36.948125 4.59625 37.95875 5 39 C5.99 39.33 6.98 39.66 8 40 C9.60546875 42.28515625 9.60546875 42.28515625 11.1875 45.0625 C11.71730469 45.98160156 12.24710938 46.90070313 12.79296875 47.84765625 C13.19128906 48.55792969 13.58960938 49.26820313 14 50 C13.01 50.495 13.01 50.495 12 51 C10.49412261 49.04594482 8.99521356 47.08718716 7.5 45.125 C7.07074219 44.56941406 6.64148438 44.01382813 6.19921875 43.44140625 C3 39.2265625 3 39.2265625 3 37 C2.34 37 1.68 37 1 37 C-0.21077701 33.36766898 -0.12444164 30.04878013 -0.09765625 26.26953125 C-0.0962413 25.51911057 -0.09482635 24.76868988 -0.09336853 23.99552917 C-0.0877756 21.6011454 -0.07522444 19.20685547 -0.0625 16.8125 C-0.05748408 15.18815239 -0.05292134 13.56380332 -0.04882812 11.93945312 C-0.03780848 7.95959931 -0.02054873 3.97981556 0 0 Z " fill="#DFDEDE" transform="translate(676,113)"/>
<path d="M0 0 C3.12613393 2.96160056 5.04783565 5.09567131 7 9 C15.415 8.505 15.415 8.505 24 8 C23.34 6.35 22.68 4.7 22 3 C23.62542193 3.64477069 25.25032424 4.29085143 26.875 4.9375 C27.77992188 5.29714844 28.68484375 5.65679687 29.6171875 6.02734375 C32 7 32 7 34 8 C36.87910588 8.23274209 39.74146495 8.41972757 42.625 8.5625 C43.42679688 8.60568359 44.22859375 8.64886719 45.0546875 8.69335938 C47.0362511 8.79951457 49.01810271 8.90026855 51 9 C46.99106694 11.74867226 42.72041345 11.25918778 38.0625 11.1875 C36.7616748 11.17783203 36.7616748 11.17783203 35.43457031 11.16796875 C25.61223026 11.05543209 15.80596016 10.55133913 6 10 C5.34 8.68 4.68 7.36 4 6 C3.34 6 2.68 6 2 6 C2 5.34 2 4.68 2 4 C1.34 4 0.68 4 0 4 C0 2.68 0 1.36 0 0 Z " fill="#8F8E8F" transform="translate(687,151)"/>
<path d="M0 0 C1.98 0.99 1.98 0.99 4 2 C4 2.66 4 3.32 4 4 C5.32 4.33 6.64 4.66 8 5 C8 5.66 8 6.32 8 7 C8.66 7 9.32 7 10 7 C10 8.32 10 9.64 10 11 C10.66 11 11.32 11 12 11 C12 11.66 12 12.32 12 13 C12.66 13 13.32 13 14 13 C14.99 14.485 14.99 14.485 16 16 C18.609621 16.38411275 21.0058074 16.60293197 23.625 16.6875 C24.33140625 16.72166016 25.0378125 16.75582031 25.765625 16.79101562 C27.50985688 16.87351308 29.25490395 16.93843335 31 17 C28.16816475 19.83183525 25.41155565 19.36782849 21.625 19.375 C20.95210937 19.39949219 20.27921875 19.42398438 19.5859375 19.44921875 C16.18958967 19.46927592 14.35754198 19.27914407 11.6484375 17.1640625 C9.63732439 14.52388084 7.8407477 11.76112155 6 9 C5.2575 8.278125 4.515 7.55625 3.75 6.8125 C2 5 2 5 2 2 C1.34 2 0.68 2 0 2 C0 1.34 0 0.68 0 0 Z " fill="#A6A6A6" transform="translate(677,144)"/>
<path d="M0 0 C2.31243792 -0.02685412 4.6249627 -0.04632841 6.9375 -0.0625 C8.22527344 -0.07410156 9.51304687 -0.08570313 10.83984375 -0.09765625 C14 0 14 0 15 1 C15.04063832 2.66617115 15.042721 4.33388095 15 6 C12.87527424 6.05386629 10.75016348 6.09273071 8.625 6.125 C6.84996094 6.15980469 6.84996094 6.15980469 5.0390625 6.1953125 C2 6 2 6 0 4 C0 2.68 0 1.36 0 0 Z " fill="#F1F1F1" transform="translate(721,139)"/>
<path d="M0 0 C3.96 0 7.92 0 12 0 C15 3 15 3 15.1875 6.1875 C15.125625 7.115625 15.06375 8.04375 15 9 C14.01 9.495 14.01 9.495 13 10 C13 7.69 13 5.38 13 3 C7.06 2.01 7.06 2.01 1 1 C1 17.17 1 33.34 1 50 C0.67 50 0.34 50 0 50 C0 33.5 0 17 0 0 Z " fill="#343435" transform="translate(675,110)"/>
<path d="M0 0 C2 2 2 2 2.22705078 4.24658203 C2.21657715 5.15778809 2.20610352 6.06899414 2.1953125 7.0078125 C2.18886719 7.99394531 2.18242188 8.98007813 2.17578125 9.99609375 C2.15902344 11.02863281 2.14226563 12.06117187 2.125 13.125 C2.11597656 14.16527344 2.10695313 15.20554687 2.09765625 16.27734375 C2.07403747 18.85179092 2.04110149 21.42578212 2 24 C1.34 24 0.68 24 0 24 C-0.33 21.69 -0.66 19.38 -1 17 C-5.95 16.67 -10.9 16.34 -16 16 C-15.67 15.34 -15.34 14.68 -15 14 C-10.05 14 -5.1 14 0 14 C0 9.38 0 4.76 0 0 Z " fill="#8D8D8E" transform="translate(738,96)"/>
<path d="M0 0 C1.37376679 0.00398964 2.74753489 0.01873698 4.12109375 0.04296875 C4.81912109 0.04361328 5.51714844 0.04425781 6.23632812 0.04492188 C11.41828217 0.09015717 11.41828217 0.09015717 12.55859375 1.23046875 C12.59952312 3.56344308 12.60101098 5.897521 12.55859375 8.23046875 C11.89859375 8.23046875 11.23859375 8.23046875 10.55859375 8.23046875 C10.22859375 6.58046875 9.89859375 4.93046875 9.55859375 3.23046875 C4.93859375 3.23046875 0.31859375 3.23046875 -4.44140625 3.23046875 C-4.77140625 4.55046875 -5.10140625 5.87046875 -5.44140625 7.23046875 C-5.56640625 4.85546875 -5.56640625 4.85546875 -5.44140625 2.23046875 C-3.44140625 0.23046875 -3.44140625 0.23046875 0 0 Z " fill="#C2C3C4" transform="translate(725.44140625,111.76953125)"/>
<path d="M0 0 C11.55 0 23.1 0 35 0 C35 4.29 35 8.58 35 13 C33.35 13 31.7 13 30 13 C30.20496094 12.46890625 30.40992188 11.9378125 30.62109375 11.390625 C30.89050781 10.68421875 31.15992188 9.9778125 31.4375 9.25 C31.70433594 8.55390625 31.97117187 7.8578125 32.24609375 7.140625 C33.13653634 4.71879627 33.13653634 4.71879627 34 1 C22.78 1 11.56 1 0 1 C0 0.67 0 0.34 0 0 Z " fill="#0C0C0C" transform="translate(703,121)"/>
<path d="M0 0 C9.57 0 19.14 0 29 0 C28.67 0.99 28.34 1.98 28 3 C19.09 3 10.18 3 1 3 C0.67 2.01 0.34 1.02 0 0 Z " fill="#8C8C8E" transform="translate(741,159)"/>
<path d="M0 0 C2.64590014 -0.02684679 5.29153096 -0.04676357 7.9375 -0.0625 C8.69224609 -0.07087891 9.44699219 -0.07925781 10.22460938 -0.08789062 C12.14994313 -0.09652441 14.07535581 -0.05224333 16 0 C17 1 17 1 17.125 4.5 C17 8 17 8 16 9 C13.81360547 9.07258946 11.62499611 9.08373783 9.4375 9.0625 C7.64119141 9.04896484 7.64119141 9.04896484 5.80859375 9.03515625 C4.88175781 9.02355469 3.95492187 9.01195312 3 9 C3 8.67 3 8.34 3 8 C6.96 8 10.92 8 15 8 C14.67 6.35 14.34 4.7 14 3 C7.07 2.505 7.07 2.505 0 2 C0 1.34 0 0.68 0 0 Z " fill="#C2C2C3" transform="translate(721,137)"/>
<path d="M0 0 C-1.515625 1.984375 -1.515625 1.984375 -4 4 C-6.73682971 4.2911521 -9.03940039 4.38322418 -11.75 4.25 C-12.44738281 4.23195312 -13.14476562 4.21390625 -13.86328125 4.1953125 C-15.57611539 4.14838554 -17.28823824 4.07664605 -19 4 C-19.33 2.68 -19.66 1.36 -20 0 C-18.53626953 0.01740234 -18.53626953 0.01740234 -17.04296875 0.03515625 C-15.77066406 0.04417969 -14.49835937 0.05320313 -13.1875 0.0625 C-11.29064453 0.07990234 -11.29064453 0.07990234 -9.35546875 0.09765625 C-0.48179872 -0.16059957 -0.48179872 -0.16059957 0 0 Z " fill="#C8C8C9" transform="translate(676,161)"/>
<path d="M0 0 C6.75 1.875 6.75 1.875 9 3 C9 4.32 9 5.64 9 7 C7.88625 7.12375 6.7725 7.2475 5.625 7.375 C1.96896323 7.6465813 1.96896323 7.6465813 0 10 C0 6.7 0 3.4 0 0 Z " fill="#EEEEEE" transform="translate(676,113)"/>
<path d="M0 0 C0.72960937 0.32097656 1.45921875 0.64195312 2.2109375 0.97265625 C5.72396575 2.26667086 9.11191702 2.45502107 12.8125 2.625 C13.85180664 2.68300781 13.85180664 2.68300781 14.91210938 2.7421875 C16.60767015 2.83573568 18.30379712 2.91892364 20 3 C20 3.33 20 3.66 20 4 C4.33941864 4.17293894 4.33941864 4.17293894 -0.4375 3.5 C-7.54633089 2.51033923 -14.83999032 2.92601597 -22 3 C-22 2.67 -22 2.34 -22 2 C-21.01257813 1.93941406 -20.02515625 1.87882813 -19.0078125 1.81640625 C-17.72648438 1.73261719 -16.44515625 1.64882812 -15.125 1.5625 C-13.84882812 1.48128906 -12.57265625 1.40007812 -11.2578125 1.31640625 C-7.16023301 0.9184399 -4.2652922 -0.25089954 0 0 Z " fill="#D9D9DA" transform="translate(714,161)"/>
<path d="M0 0 C1.4370809 -0.05422947 2.87475462 -0.09289723 4.3125 -0.125 C5.11300781 -0.14820312 5.91351562 -0.17140625 6.73828125 -0.1953125 C9 0 9 0 12 2 C12.1875 5.625 12.1875 5.625 12 9 C11.01 9 10.02 9 9 9 C9 7.68 9 6.36 9 5 C6.03 4.01 3.06 3.02 0 2 C0 1.34 0 0.68 0 0 Z " fill="#BBBBBC" transform="translate(676,111)"/>
<path d="M0 0 C1.41623216 -0.05447047 2.83308191 -0.09300508 4.25 -0.125 C5.03890625 -0.14820313 5.8278125 -0.17140625 6.640625 -0.1953125 C9.20731941 0.0171622 10.7916067 0.71345895 13 2 C13 4.31 13 6.62 13 9 C11.02 9.99 11.02 9.99 9 11 C9.04125 9.88625 9.0825 8.7725 9.125 7.625 C9.41121859 3.95633975 9.41121859 3.95633975 7 2 C5.01178687 1.60235737 3.01055661 1.26224651 1 1 C1 3.31 1 5.62 1 8 C0.67 8 0.34 8 0 8 C0 5.36 0 2.72 0 0 Z " fill="#6B6B6C" transform="translate(754,135)"/>
<path d="M0 0 C-0.86625 0.515625 -1.7325 1.03125 -2.625 1.5625 C-6.46201739 4.09310433 -9.16675882 7.42328418 -12 11 C-13.32 10.67 -14.64 10.34 -16 10 C-16.33 8.68 -16.66 7.36 -17 6 C-16.236875 5.896875 -15.47375 5.79375 -14.6875 5.6875 C-11.757381 4.93793468 -11.02209812 4.11401167 -9 2 C-8.01 2 -7.02 2 -6 2 C-6 1.34 -6 0.68 -6 0 C-3 -1 -3 -1 0 0 Z " fill="#C9C9CA" transform="translate(718,98)"/>
<path d="M0 0 C8.57142857 -0.28571429 8.57142857 -0.28571429 12 2 C12 4.31 12 6.62 12 9 C11.01 9.495 11.01 9.495 10 10 C10 7.69 10 5.38 10 3 C7.03 2.67 4.06 2.34 1 2 C1 4.97 1 7.94 1 11 C0.67 11 0.34 11 0 11 C0 7.37 0 3.74 0 0 Z " fill="#636363" transform="translate(754,110)"/>
<path d="M0 0 C0.99 0.33 1.98 0.66 3 1 C-0.50897269 5.18423892 -4.08060535 9.19588166 -8 13 C-8.99 12.67 -9.98 12.34 -11 12 C-10.04882866 10.8274869 -9.08882991 9.66212985 -8.125 8.5 C-7.32449219 7.52546875 -7.32449219 7.52546875 -6.5078125 6.53125 C-6.01023437 6.0259375 -5.51265625 5.520625 -5 5 C-4.34 5 -3.68 5 -3 5 C-2.690625 4.360625 -2.38125 3.72125 -2.0625 3.0625 C-1 1 -1 1 0 0 Z " fill="#8B8987" transform="translate(751,145)"/>
<path d="M0 0 C2.875 -0.1875 2.875 -0.1875 6 0 C8.29013653 3.4352048 8.17842973 4.985331 8 9 C4.20620942 7.50958227 2.31656242 5.30937488 0 2 C0 1.34 0 0.68 0 0 Z " fill="#B5B5B6" transform="translate(696,137)"/>
<path d="M0 0 C1.66611905 -0.042721 3.33382885 -0.04063832 5 0 C6 1 6 1 6.0625 3.5625 C6.041875 4.366875 6.02125 5.17125 6 6 C1.545 6.495 1.545 6.495 -3 7 C-2.34 5.68 -1.68 4.36 -1 3 C-0.67 2.01 -0.34 1.02 0 0 Z " fill="#EBEBEB" transform="translate(756,139)"/>
<path d="M0 0 C0.24492188 0.54140625 0.48984375 1.0828125 0.7421875 1.640625 C2.29353788 4.55061143 4.16714304 7.0974196 6.125 9.75 C6.84945312 10.73484375 7.57390625 11.7196875 8.3203125 12.734375 C8.87460937 13.48203125 9.42890625 14.2296875 10 15 C9.01 15.495 9.01 15.495 8 16 C8 15.34 8 14.68 8 14 C7.13375 13.87625 7.13375 13.87625 6.25 13.75 C3.1135816 12.7045272 1.91043954 11.72919934 0 9 C-0.33429898 5.97041545 -0.2334377 3.03469016 0 0 Z " fill="#797978" transform="translate(677,135)"/>
<path d="M0 0 C3.12613393 2.96160056 5.04783565 5.09567131 7 9 C12.94 9 18.88 9 25 9 C25 9.33 25 9.66 25 10 C18.73 10 12.46 10 6 10 C5.34 8.68 4.68 7.36 4 6 C3.34 6 2.68 6 2 6 C2 5.34 2 4.68 2 4 C1.34 4 0.68 4 0 4 C0 2.68 0 1.36 0 0 Z " fill="#7D7D7E" transform="translate(687,151)"/>
<path d="M0 0 C0.66 0.66 1.32 1.32 2 2 C1.91015625 4.41796875 1.91015625 4.41796875 1 7 C-1.06640625 8.80078125 -1.06640625 8.80078125 -3.5625 10.3125 C-4.38878906 10.82425781 -5.21507812 11.33601562 -6.06640625 11.86328125 C-6.70449219 12.23839844 -7.34257813 12.61351562 -8 13 C-8 12.01 -8 11.02 -8 10 C-7.236875 9.401875 -6.47375 8.80375 -5.6875 8.1875 C-2.66832926 5.73003545 -1.52756977 3.53752999 0 0 Z " fill="#BCBCBC" transform="translate(779,148)"/>
<path d="M0 0 C1.5 1.375 1.5 1.375 3 3 C3 3.66 3 4.32 3 5 C9.6 5.33 16.2 5.66 23 6 C23 6.33 23 6.66 23 7 C19.56265937 7.08703823 16.12560163 7.14040272 12.6875 7.1875 C11.22280273 7.22520508 11.22280273 7.22520508 9.72851562 7.26367188 C8.32182617 7.27817383 8.32182617 7.27817383 6.88671875 7.29296875 C6.02264404 7.3086792 5.15856934 7.32438965 4.26831055 7.34057617 C2 7 2 7 0.17504883 5.6184082 C-1 4 -1 4 -0.6875 1.8125 C-0.460625 1.214375 -0.23375 0.61625 0 0 Z " fill="#B0AFB1" transform="translate(739,156)"/>
<path d="M0 0 C2.97 0.495 2.97 0.495 6 1 C6 2.65 6 4.3 6 6 C4.02 6 2.04 6 0 6 C0 4.02 0 2.04 0 0 Z " fill="#E4E5E6" transform="translate(755,114)"/>
<path d="M0 0 C2.97 0 5.94 0 9 0 C10.35091528 2.70183055 10.33858058 5.11808206 10.5625 8.125 C10.64628906 9.22070312 10.73007812 10.31640625 10.81640625 11.4453125 C10.87699219 12.28835937 10.93757812 13.13140625 11 14 C9.68 12.68 8.36 11.36 7 10 C7.66 10 8.32 10 9 10 C8.34 7.36 7.68 4.72 7 2 C4.69 2 2.38 2 0 2 C0 1.34 0 0.68 0 0 Z " fill="#959595" transform="translate(695,136)"/>
<path d="M0 0 C0 0.66 0 1.32 0 2 C-2.64 2.33 -5.28 2.66 -8 3 C-8 3.66 -8 4.32 -8 5 C-8.99 5 -9.98 5 -11 5 C-11.33 5.99 -11.66 6.98 -12 8 C-14.5625 9.1875 -14.5625 9.1875 -17 10 C-12.85675021 4.11925836 -7.48190749 0 0 0 Z " fill="#EFEFEF" transform="translate(720,95)"/>
<path d="M0 0 C1.77007714 -0.08114106 3.54122098 -0.13925505 5.3125 -0.1875 C6.29863281 -0.22230469 7.28476562 -0.25710937 8.30078125 -0.29296875 C11 0 11 0 12.84375 1.3125 C14.5684867 3.8296833 14.19767151 6.03492731 14 9 C13.01 9.495 13.01 9.495 12 10 C12 7.69 12 5.38 12 3 C6.06 2.01 6.06 2.01 0 1 C0 0.67 0 0.34 0 0 Z " fill="#5E5E5E" transform="translate(676,110)"/>
<path d="M0 0 C-0.33 0.99 -0.66 1.98 -1 3 C-2.95803507 3.05389087 -4.91648909 3.09274217 -6.875 3.125 C-7.96554687 3.14820313 -9.05609375 3.17140625 -10.1796875 3.1953125 C-13 3 -13 3 -15 1 C-12.8750734 0.83240016 -10.75005624 0.66594799 -8.625 0.5 C-7.44164062 0.4071875 -6.25828125 0.314375 -5.0390625 0.21875 C-3.36213157 0.09804546 -1.68126944 0 0 0 Z " fill="#9A9A9A" transform="translate(734,129)"/>
<path d="M0 0 C1.258125 -0.04125 2.51625 -0.0825 3.8125 -0.125 C4.52019531 -0.14820312 5.22789062 -0.17140625 5.95703125 -0.1953125 C8 0 8 0 11 2 C11.1875 5.625 11.1875 5.625 11 9 C10.67 9 10.34 9 10 9 C10 7.35 10 5.7 10 4 C6.7 3.01 3.4 2.02 0 1 C0 0.67 0 0.34 0 0 Z " fill="#8F8F90" transform="translate(677,111)"/>
<path d="M0 0 C-0.33 0.99 -0.66 1.98 -1 3 C-6.61 3 -12.22 3 -18 3 C-18 2.67 -18 2.34 -18 2 C-17.01257813 1.93941406 -16.02515625 1.87882813 -15.0078125 1.81640625 C-13.72648438 1.73261719 -12.44515625 1.64882812 -11.125 1.5625 C-9.84882812 1.48128906 -8.57265625 1.40007812 -7.2578125 1.31640625 C-4.53573738 1.05203205 -2.62506009 0 0 0 Z " fill="#C6C7C8" transform="translate(710,161)"/>
<path d="M0 0 C3.80666984 1.44390925 5.26602582 3.34952803 7 7 C6.67 7.66 6.34 8.32 6 9 C4 7.1875 4 7.1875 2 5 C2 4.01 2 3.02 2 2 C1.34 2 0.68 2 0 2 C0 1.34 0 0.68 0 0 Z " fill="#BFBFBE" transform="translate(677,144)"/>
<path d="M0 0 C2.64752004 2.57784846 4.94432065 4.91648098 7 8 C6.01 8 5.02 8 4 8 C4 7.34 4 6.68 4 6 C3.34 6 2.68 6 2 6 C2 5.34 2 4.68 2 4 C1.34 4 0.68 4 0 4 C0 2.68 0 1.36 0 0 Z " fill="#6A6969" transform="translate(687,151)"/>
<path d="M0 0 C0.66 0.66 1.32 1.32 2 2 C1.625 4.625 1.625 4.625 1 7 C0.01 7.33 -0.98 7.66 -2 8 C-1.47731534 5.23723823 -0.89130413 2.6739124 0 0 Z " fill="#D1D0CE" transform="translate(779,148)"/>
<path d="M0 0 C1.32 0.33 2.64 0.66 4 1 C4.33 2.98 4.66 4.96 5 7 C3.29115995 5.37660195 1.62553283 3.70680947 0 2 C0 1.34 0 0.68 0 0 Z " fill="#D0D0D0" transform="translate(698,139)"/>
<path d="M0 0 C-4.5 3 -4.5 3 -9 6 C-9 4.68 -9 3.36 -9 2 C-8.01 2 -7.02 2 -6 2 C-6 1.34 -6 0.68 -6 0 C-3 -1 -3 -1 0 0 Z " fill="#BFBFC0" transform="translate(718,98)"/>
<path d="M0 0 C0.99 0.33 1.98 0.66 3 1 C3 2.65 3 4.3 3 6 C2.01 6.495 2.01 6.495 1 7 C-0.0625 4.625 -0.0625 4.625 -1 2 C-0.67 1.34 -0.34 0.68 0 0 Z " fill="#737373" transform="translate(733,124)"/>
<path d="M0 0 C4.455 1.98 4.455 1.98 9 4 C9 4.33 9 4.66 9 5 C3.5 5.36666667 3.5 5.36666667 1.125 3.625 C0 2 0 2 0 0 Z " fill="#6A6969" transform="translate(712,155)"/>
</svg>
