<?xml version="1.0" encoding="UTF-8"?>
<svg version="1.1" xmlns="http://www.w3.org/2000/svg" width="1500" height="900">
<path d="M0 0 C495 0 990 0 1500 0 C1500 297 1500 594 1500 900 C1005 900 510 900 0 900 C0 603 0 306 0 0 Z " fill="#FDFDFD" transform="translate(0,0)"/>
<path d="M0 0 C0.81210937 -0.01224609 1.62421875 -0.02449219 2.4609375 -0.03710938 C17.89483716 -0.0742101 31.20057614 6.87072755 42.5859375 16.91796875 C46.66543717 21.09899443 49.29545435 25.96862448 51.9375 31.125 C52.27547607 31.78113281 52.61345215 32.43726563 52.96166992 33.11328125 C59.11848491 45.73560946 59.87407665 61.89307677 55.9375 75.3125 C55.21098792 77.28770472 54.44265853 79.24825066 53.625 81.1875 C53.274375 82.06535156 52.92375 82.94320312 52.5625 83.84765625 C49.49738353 90.73352554 44.90967815 95.8843762 39.625 101.1875 C39.08230469 101.75339844 38.53960938 102.31929687 37.98046875 102.90234375 C28.13381588 112.30028839 14.65056033 116.59941879 1.3125 116.4375 C0.47291748 116.42783203 -0.36666504 116.41816406 -1.23168945 116.40820312 C-17.24876855 116.09860461 -31.53833041 111.0698317 -43.1953125 99.66796875 C-54.5403296 86.75742061 -58.54592527 74.381578 -58.6875 57.5625 C-58.71650391 56.43714844 -58.74550781 55.31179688 -58.77539062 54.15234375 C-58.88280164 39.85841575 -53.02674017 26.87798216 -43.25 16.4375 C-35.34831191 9.03387402 -26.04108811 3.3638856 -15.375 1.1875 C-14.48425781 1.00445313 -13.59351563 0.82140625 -12.67578125 0.6328125 C-8.43377542 0.06051822 -4.27551892 0.00336126 0 0 Z " fill="#040404" transform="translate(541.375,523.8125)"/>
<path d="M0 0 C10.89 0 21.78 0 33 0 C37.49965654 8.99931308 37.49965654 8.99931308 39.17895508 13.22827148 C39.55647415 14.17383408 39.93399323 15.11939667 40.32295227 16.09361267 C40.71782333 17.09268143 41.1126944 18.09175018 41.51953125 19.12109375 C42.15202034 20.70834007 42.15202034 20.70834007 42.79728699 22.32765198 C44.13898276 25.69630285 45.47596361 29.06679919 46.8125 32.4375 C48.56751574 36.85346001 50.32468832 41.26855946 52.08203125 45.68359375 C52.50404816 46.7459726 52.92606506 47.80835144 53.36087036 48.90292358 C56.18170449 55.99130931 59.0543892 63.05608139 62.02973938 70.0811615 C64 74.7857183 64 74.7857183 64 77 C64.66 77 65.32 77 66 77 C66.16820755 76.40057587 66.3364151 75.80115173 66.50971985 75.18356323 C68.36529134 68.766212 70.6328151 62.62203701 73.16796875 56.4453125 C73.56647537 55.46368134 73.96498199 54.48205017 74.37556458 53.47067261 C75.6419563 50.35369762 76.91450937 47.23928497 78.1875 44.125 C79.02191504 42.07569613 79.85590254 40.02621813 80.68945312 37.9765625 C81.92314277 34.94298881 83.1570855 31.90952289 84.39279175 28.87677002 C88.30580826 19.26856131 92.15696241 9.63640568 96 0 C106.89 0 117.78 0 129 0 C129 37.62 129 75.24 129 114 C119.76 114 110.52 114 101 114 C100.67 93.21 100.34 72.42 100 51 C96.535 60.2503125 96.535 60.2503125 93 69.6875 C84.15188357 93.28979807 84.15188357 93.28979807 80.125 103.875 C79.65320313 105.11769653 79.65320313 105.11769653 79.171875 106.38549805 C77.12458502 111.75082997 77.12458502 111.75082997 76 114 C68.41 114 60.82 114 53 114 C51.96359375 111.14472656 50.9271875 108.28945313 49.859375 105.34765625 C48.84402653 102.5572565 47.82758271 99.76725804 46.81103516 96.97729492 C46.1096954 95.0506278 45.40948003 93.12355097 44.71044922 91.19604492 C43.70060862 88.41214057 42.68662058 85.6297759 41.671875 82.84765625 C41.36441345 81.99728287 41.0569519 81.14690948 40.74017334 80.27076721 C39.31734791 76.3810185 37.83228853 72.57696948 36.08300781 68.82202148 C33.30054593 62.38081138 31.21881233 55.656437 29 49 C28.67 70.45 28.34 91.9 28 114 C18.76 114 9.52 114 0 114 C0 76.38 0 38.76 0 0 Z " fill="#050505" transform="translate(763,525)"/>
<path d="M0 0 C58.95109161 0 58.95109161 0 70.125 5.0625 C70.80095215 5.36414063 71.4769043 5.66578125 72.17333984 5.9765625 C78.45892997 8.94154844 83.24755659 12.93801047 88 18 C88.56976562 18.55171875 89.13953125 19.1034375 89.7265625 19.671875 C99.9236106 30.23497098 102.40077604 44.78633044 102.29321289 58.83081055 C102.01576686 72.49469568 97.36456725 87.37309799 87.703125 97.4921875 C62.36453454 119.9249763 34.07909508 114 0 114 C0 76.38 0 38.76 0 0 Z " fill="#040404" transform="translate(651,237)"/>
<path d="M0 0 C10.56 0 21.12 0 32 0 C37.6250336 11.2500672 37.6250336 11.2500672 39.40014648 15.6706543 C39.80083847 16.66256271 40.20153046 17.65447113 40.61436462 18.67643738 C41.23644554 20.23458916 41.23644554 20.23458916 41.87109375 21.82421875 C42.538312 23.48092339 42.538312 23.48092339 43.2190094 25.1710968 C44.62909318 28.67500364 46.03338345 32.18119828 47.4375 35.6875 C48.37527032 38.02033537 49.31341829 40.35301897 50.25195312 42.68554688 C52.84019144 49.12147647 55.42166358 55.56009793 58 62 C58.3442804 62.85982483 58.68856079 63.71964966 59.04327393 64.60552979 C60.69700813 68.73642422 62.34944557 72.86783377 64 77 C66.17226655 71.83567239 68.33827925 66.66875085 70.5 61.5 C70.99454681 60.31765274 70.99454681 60.31765274 71.49908447 59.11141968 C77.82499416 43.96890914 83.94412893 28.74753597 89.98242188 13.48828125 C90.311586 12.65902634 90.64075012 11.82977142 90.97988892 10.97538757 C91.59901889 9.41526877 92.21596835 7.85428233 92.83041382 6.29231262 C94.88758645 1.11241355 94.88758645 1.11241355 96 0 C106.56 0 117.12 0 128 0 C128 37.62 128 75.24 128 114 C119.09 114 110.18 114 101 114 C100.67 92.55 100.34 71.1 100 49 C97.710625 55.105 95.42125 61.21 93.0625 67.5 C90.81030274 73.50219726 90.81030274 73.50219726 89.85865784 76.03831482 C87.24265164 83.01080738 84.6304727 89.98462095 82.03515625 96.96484375 C81.61935303 98.08117187 81.2035498 99.1975 80.77514648 100.34765625 C80.02371748 102.36635407 79.27443686 104.38585324 78.52758789 106.40625 C78.20137451 107.28152344 77.87516113 108.15679688 77.5390625 109.05859375 C77.26271973 109.80423584 76.98637695 110.54987793 76.70166016 111.31811523 C76 113 76 113 75 114 C73.36527118 114.08700342 71.72685945 114.10701063 70.08984375 114.09765625 C69.10048828 114.09443359 68.11113281 114.09121094 67.09179688 114.08789062 C66.05087891 114.07951172 65.00996094 114.07113281 63.9375 114.0625 C62.89271484 114.05798828 61.84792969 114.05347656 60.77148438 114.04882812 C58.1809334 114.03699913 55.59049441 114.02051689 53 114 C48.46214883 103.46730726 44.52209381 92.73950123 40.58129883 81.97338867 C36.95338667 71.89918607 36.95338667 71.89918607 32.78515625 62.04296875 C31 58 31 58 28 48 C27.67 69.78 27.34 91.56 27 114 C18.09 114 9.18 114 0 114 C0 76.38 0 38.76 0 0 Z " fill="#030303" transform="translate(615,525)"/>
<path d="M0 0 C69.7212877 0 69.7212877 0 80.875 10.25 C86.76954467 16.72981861 88.70150445 23.29537526 88.390625 32 C87.52247569 38.6673867 84.93830798 45.32862758 80 50 C77.07517514 51.8248474 74.07998435 53.45342666 71 55 C72.65704707 56.10469805 74.32876418 57.19099633 76.05078125 58.19140625 C82.85843732 62.31832729 87.45340034 67.36020102 90 75 C90.79639024 86.6194642 90.30658948 95.34407721 82.46069336 104.55957031 C80.01007898 106.9761882 77.20113023 108.32155285 74.125 109.8125 C72.95195312 110.39644531 71.77890625 110.98039062 70.5703125 111.58203125 C62.69766937 114.70869368 54.54647528 114.13158845 46.19140625 114.09765625 C45.01896362 114.09664917 43.846521 114.09564209 42.6385498 114.09460449 C38.27985652 114.08939226 33.92117722 114.07543104 29.5625 114.0625 C19.806875 114.041875 10.05125 114.02125 0 114 C0 76.38 0 38.76 0 0 Z " fill="#030303" transform="translate(305,237)"/>
<path d="M0 0 C9.24 0 18.48 0 28 0 C37.02844836 12.4141165 37.02844836 12.4141165 40.625 18.375 C45.0417457 25.56281423 49.67378221 32.59107223 54.38720703 39.58740234 C60.7065031 48.98789871 66.82307069 58.49703183 73 68 C73.33 45.56 73.66 23.12 74 0 C83.24 0 92.48 0 102 0 C102 37.62 102 75.24 102 114 C92.76 114 83.52 114 74 114 C65.04930487 103.52282973 65.04930487 103.52282973 62.36328125 98.0546875 C57.47788755 88.56869205 51.42937718 79.8412771 45.49710083 70.98922729 C42.48556253 66.48225367 39.51338774 61.94954864 36.5390625 57.41796875 C35.51016568 55.85295269 34.48105106 54.28807979 33.45166016 52.72338867 C33.02470856 52.07407883 32.59775696 51.42476898 32.15786743 50.75578308 C31.11026269 49.16720167 30.05554457 47.58331686 29 46 C28.67 68.44 28.34 90.88 28 114 C18.76 114 9.52 114 0 114 C0 76.38 0 38.76 0 0 Z " fill="#040404" transform="translate(816,237)"/>
<path d="M0 0 C62.74683544 0 62.74683544 0 75 8 C75.886875 8.556875 76.77375 9.11375 77.6875 9.6875 C83.91012726 15.91012726 88.19864666 24.21295099 88.37988281 33.02807617 C88.37827148 33.76131104 88.37666016 34.4945459 88.375 35.25 C88.37338867 36.00708252 88.37177734 36.76416504 88.37011719 37.54418945 C88.24061355 43.45247542 87.19586144 47.95739509 84 53 C83.401875 54.051875 82.80375 55.10375 82.1875 56.1875 C77.1504226 62.66374237 71.55780443 66.0059921 64 69 C68.92956357 78.15557494 74.08102489 87.17746467 79.26733398 96.1887207 C80.31895698 98.01693419 81.3685496 99.84630209 82.41796875 101.67578125 C83.03438232 102.74739502 83.6507959 103.81900879 84.28588867 104.9230957 C85.94926285 107.90892462 87.49645192 110.93105903 89 114 C84.67693146 114.1983934 80.35629654 114.34319621 76.0300293 114.43945312 C74.56015873 114.47958611 73.09060567 114.53411158 71.62182617 114.60351562 C59.55592931 115.15920881 59.55592931 115.15920881 56.12231445 112.60107422 C54.75827494 110.46723023 53.90563648 108.36493516 53 106 C51.97920816 104.09614623 50.93730767 102.20351763 49.87890625 100.3203125 C48.77081782 98.25661281 47.66539621 96.19147921 46.5625 94.125 C44.92424425 91.05688853 43.28012486 87.99320215 41.60986328 84.94238281 C40.54116736 82.98910359 39.49238156 81.02479154 38.46435547 79.04980469 C37.9695166 78.14391602 37.47467773 77.23802734 36.96484375 76.3046875 C36.53679443 75.49757324 36.10874512 74.69045898 35.66772461 73.85888672 C33.73355338 71.31381652 33.73355338 71.31381652 28 71 C28 85.19 28 99.38 28 114 C18.76 114 9.52 114 0 114 C0 76.38 0 38.76 0 0 Z " fill="#040404" transform="translate(1000,525)"/>
<path d="M0 0 C5.96248614 5.46083466 10.65145593 12.60722332 13.25 20.25 C13.25 21.57 13.25 22.89 13.25 24.25 C8.9268192 24.39879892 4.60500997 24.50741862 0.2800293 24.57958984 C-1.18963596 24.60968538 -2.65912271 24.65057406 -4.12817383 24.70263672 C-6.24605341 24.7757907 -8.36155245 24.80952214 -10.48046875 24.8359375 C-11.75301514 24.8673584 -13.02556152 24.8987793 -14.33666992 24.93115234 C-19.08533767 23.98352463 -19.99785336 22.13874746 -22.75 18.25 C-29.45172963 12.98435529 -38.7260234 13.31143691 -46.82666016 13.97949219 C-53.6621026 14.94086185 -58.41113946 19.22187753 -62.53515625 24.48828125 C-68.82944169 33.61600708 -69.09445972 45.2857852 -67.2890625 55.98046875 C-66.61777664 58.21150706 -65.80111495 60.17193366 -64.75 62.25 C-64.38261719 63.01828125 -64.01523437 63.7865625 -63.63671875 64.578125 C-59.73602758 71.52802903 -54.35372193 75.0657775 -46.75 77.25 C-37.82884207 78.60095297 -28.53241086 78.55104318 -20.66015625 73.73046875 C-15.07988531 69.40547348 -13.00893579 64.76787159 -9.75 58.25 C-21.3 58.25 -32.85 58.25 -44.75 58.25 C-44.75 51.65 -44.75 45.05 -44.75 38.25 C-24.95 38.25 -5.15 38.25 15.25 38.25 C15.25 70.9793666 15.25 70.9793666 8.25 80.25 C7.67121094 81.07757813 7.09242187 81.90515625 6.49609375 82.7578125 C-1.91389162 93.4746405 -15.96882061 100.96852642 -29.2578125 102.890625 C-46.76744262 104.69251087 -62.49115483 102.49864453 -76.75 91.25 C-83.19901443 85.75298294 -88.00029962 79.84693631 -91.75 72.25 C-92.23726562 71.31542969 -92.72453125 70.38085938 -93.2265625 69.41796875 C-96.78391237 61.35927952 -97.23960623 53.85248517 -97.3125 45.125 C-97.32716309 44.04089844 -97.34182617 42.95679688 -97.35693359 41.83984375 C-97.18456809 28.13367105 -91.93974559 14.11669638 -82.5625 3.93359375 C-59.87280033 -17.14239883 -24.64467883 -19.34416032 0 0 Z " fill="#040404" transform="translate(1030.75,248.75)"/>
<path d="M0 0 C10.89 0 21.78 0 33 0 C34.84464844 5.135625 34.84464844 5.135625 36.7265625 10.375 C37.93772492 13.74456091 39.14926503 17.11398579 40.36083984 20.48339844 C41.19326472 22.79901218 42.02530591 25.1147639 42.85693359 27.43066406 C48.37288117 42.83117249 48.37288117 42.83117249 54.0625 58.16796875 C57.58412424 67.49409147 60.94167654 76.87827634 64.28857422 86.26831055 C65.38990319 89.35425908 66.49771955 92.43783557 67.60546875 95.52148438 C68.30769153 97.4894407 69.00952924 99.45753448 69.7109375 101.42578125 C70.04209564 102.34442459 70.37325378 103.26306793 70.71444702 104.20954895 C71.0154129 105.05861313 71.31637878 105.90767731 71.62646484 106.7824707 C71.8926059 107.52696976 72.15874695 108.27146881 72.43295288 109.03852844 C73 111 73 111 73 114 C63.43 114 53.86 114 44 114 C40 104 40 104 38 94 C23.81 94.33 9.62 94.66 -5 95 C-6.65 100.28 -8.3 105.56 -10 111 C-10.66 111.99 -11.32 112.98 -12 114 C-14.88916016 114.34057617 -14.88916016 114.34057617 -18.5390625 114.29296875 C-19.84101562 114.28330078 -21.14296875 114.27363281 -22.484375 114.26367188 C-23.86458923 114.23860388 -25.24479756 114.21320902 -26.625 114.1875 C-28.01300663 114.17245517 -29.40102867 114.15876641 -30.7890625 114.14648438 C-34.19309509 114.1110257 -37.59635622 114.06160298 -41 114 C-38.78835723 106.25400397 -36.16843028 98.69188844 -33.421875 91.12109375 C-32.9778685 89.89071381 -32.533862 88.66033386 -32.07640076 87.39266968 C-30.88350666 84.08760684 -29.68717487 80.78379881 -28.48998642 77.48028946 C-27.49916878 74.74506112 -26.51026156 72.00914368 -25.52131557 69.27323818 C-19.43731458 52.44309701 -13.3298184 35.62144926 -7.1875 18.8125 C-6.87171997 17.94760956 -6.55593994 17.08271912 -6.23059082 16.19161987 C-5.35698744 13.80039437 -4.4816311 11.40982013 -3.60546875 9.01953125 C-3.35236435 8.32669037 -3.09925995 7.63384949 -2.83848572 6.92001343 C-1.11588018 2.23176035 -1.11588018 2.23176035 0 0 Z " fill="#040404" transform="translate(939,381)"/>
<path d="M0 0 C1.34888732 0.00015905 2.69778075 0.00584927 4.04663086 0.01586914 C5.10991859 0.01799156 5.10991859 0.01799156 6.19468689 0.02015686 C8.46699173 0.02577096 10.73919936 0.03832576 13.01147461 0.05102539 C14.54858257 0.05603858 16.08569206 0.0606018 17.62280273 0.06469727 C21.39823103 0.07574497 25.17358632 0.09301898 28.94897461 0.11352539 C32.38619045 8.17041639 35.54809034 16.2866615 38.50366211 24.53149414 C38.92264267 25.69227478 39.34162323 26.85305542 39.77330017 28.04901123 C40.89516697 31.1582984 42.01456985 34.26845775 43.13275528 37.37907028 C45.00023473 42.57165029 46.87367697 47.76208512 48.74656868 52.95271492 C49.21768264 54.25850148 49.68867429 55.56433217 50.15954399 56.87020683 C53.29749002 65.57185838 56.46239894 74.26311063 59.66381836 82.94165039 C60.01885437 83.90529007 60.37389038 84.86892975 60.73968506 85.86177063 C62.38088699 90.31467602 64.02713979 94.76561417 65.6809082 99.21386719 C66.2561392 100.77279463 66.83118407 102.33179077 67.40600586 103.89086914 C67.66743881 104.58807068 67.92887177 105.28527222 68.19822693 106.00360107 C69.24719478 108.86112559 69.94897461 111.0412863 69.94897461 114.11352539 C60.37897461 114.11352539 50.80897461 114.11352539 40.94897461 114.11352539 C39.79397461 111.18477539 38.63897461 108.25602539 37.44897461 105.23852539 C37.08352539 104.31700684 36.71807617 103.39548828 36.34155273 102.44604492 C35.91519531 101.35718994 35.91519531 101.35718994 35.48022461 100.24633789 C35.04033203 99.130896 35.04033203 99.130896 34.59155273 97.99291992 C33.94897461 96.11352539 33.94897461 96.11352539 33.94897461 94.11352539 C19.75897461 94.11352539 5.56897461 94.11352539 -9.05102539 94.11352539 C-9.71102539 97.08352539 -10.37102539 100.05352539 -11.05102539 103.11352539 C-12.37102539 106.74352539 -13.69102539 110.37352539 -15.05102539 114.11352539 C-24.62102539 114.11352539 -34.19102539 114.11352539 -44.05102539 114.11352539 C-40.6762191 101.73923566 -40.6762191 101.73923566 -39.14428711 97.56176758 C-38.62542686 96.13642197 -38.62542686 96.13642197 -38.09608459 94.68228149 C-37.72801193 93.68506073 -37.35993927 92.68783997 -36.98071289 91.66040039 C-36.58665756 90.58124359 -36.19260223 89.50208679 -35.78660583 88.39022827 C-34.50385323 84.8798089 -33.21499802 81.37166507 -31.92602539 77.86352539 C-30.58050969 74.18742672 -29.23645011 70.51079776 -27.89247131 66.83413696 C-26.97692868 64.32985407 -26.06094058 61.82573927 -25.14427185 59.3218689 C-22.06742387 50.91452918 -19.01690772 42.4979731 -15.98461914 34.07446289 C-15.58982361 32.97847778 -15.19502808 31.88249268 -14.78826904 30.7532959 C-13.27399044 26.54862763 -11.76007597 22.34383754 -10.25091553 18.1373291 C-9.22446904 15.2769533 -8.19471465 12.41778849 -7.16430664 9.55883789 C-6.86108994 8.71050385 -6.55787323 7.8621698 -6.24546814 6.98812866 C-3.7721235 0.14035668 -3.7721235 0.14035668 0 0 Z " fill="#040404" transform="translate(1133.051025390625,236.886474609375)"/>
<path d="M0 0 C31 0 31 0 40 7 C40.66 8.65 41.32 10.3 42 12 C42.99 12 43.98 12 45 12 C46.80182723 10.16249303 48.31143831 8.17100789 49.890625 6.140625 C54.96219872 0.99391685 59.51542267 -0.45608964 66.55000305 -0.60708618 C67.95804451 -0.60435196 67.95804451 -0.60435196 69.39453125 -0.6015625 C70.38192795 -0.61013275 71.36932465 -0.618703 72.38664246 -0.62753296 C74.46842392 -0.63897804 76.55028534 -0.64005068 78.63208008 -0.63134766 C81.7932405 -0.62503844 84.95063144 -0.6719433 88.11132812 -0.72265625 C106.35948462 -0.83700326 106.35948462 -0.83700326 113.37133789 4.38598633 C117.22370587 8.20370551 119.16945351 11.79042928 119.5 17.3125 C119.37837305 21.07653419 118.31628191 23.69117997 116.6875 27.0625 C115.49612519 29.52267256 115.49612519 29.52267256 115 32 C115.94818391 34.30273235 117.22201201 35.96337192 118.73046875 37.9375 C121.08410325 41.76125082 120.73269621 45.69284188 120 50 C118.11930763 56.02031692 114.95492813 59.2838039 110 63 C109.2575 63.7425 108.515 64.485 107.75 65.25 C105.04417325 67.95582675 103.33963185 68.1275347 99.62963867 68.14526367 C98.7249736 68.15164352 97.82030853 68.15802338 96.88822937 68.16459656 C95.90804337 68.16570938 94.92785736 68.1668222 93.91796875 68.16796875 C92.91163895 68.17129715 91.90530914 68.17462555 90.8684845 68.17805481 C88.73581398 68.18312451 86.60313552 68.18546312 84.47045898 68.18530273 C81.21129199 68.18748408 77.9524662 68.20562524 74.69335938 68.22460938 C72.62239699 68.22754432 70.551433 68.22952844 68.48046875 68.23046875 C67.50635544 68.23765427 66.53224213 68.24483978 65.52861023 68.25224304 C60.85287343 68.23650606 57.27761712 68.08695401 53 66 C48.84594326 65.71161543 48.84594326 65.71161543 45 67 C42.52443304 67.17682621 40.10250105 67.27730822 37.625 67.3125 C36.61566406 67.35600586 36.61566406 67.35600586 35.5859375 67.40039062 C32.18357381 67.44392481 30.36715194 67.28603698 27.6484375 65.16796875 C25.63911645 62.52537827 23.84121599 59.76182398 22 57 C21.2575 56.278125 20.515 55.55625 19.75 54.8125 C18 53 18 53 18 50 C17.34 50 16.68 50 16 50 C15.97113249 45.85418113 15.95324673 41.70838784 15.9375 37.5625 C15.92912109 36.37849609 15.92074219 35.19449219 15.91210938 33.97460938 C15.90888672 32.84990234 15.90566406 31.72519531 15.90234375 30.56640625 C15.89448853 29.00321655 15.89448853 29.00321655 15.88647461 27.40844727 C16 25 16 25 17 24 C19.33297433 23.95907063 21.66705225 23.95758277 24 24 C24 22.68 24 21.36 24 20 C21.36 19.34 18.72 18.68 16 18 C15.67 33.18 15.34 48.36 15 64 C10.05 64 5.1 64 0 64 C0 42.88 0 21.76 0 0 Z " fill="#C0C1C2" transform="translate(661,96)"/>
<path d="M0 0 C9.24 0 18.48 0 28 0 C28.00410889 2.29066406 28.00821777 4.58132812 28.01245117 6.94140625 C28.02968657 14.5291722 28.07425137 22.116603 28.13209057 29.7041626 C28.16630958 34.30235249 28.1914626 38.90021193 28.19555664 43.49853516 C28.19985056 47.94033847 28.22840323 52.38139698 28.27343178 56.82296753 C28.28637198 58.51329197 28.29072682 60.2037057 28.28615379 61.89407349 C28.11032166 74.34508383 28.11032166 74.34508383 34 85 C38.85508193 89.06603047 44.28047825 88.5527274 50.3203125 88.33984375 C55.13155217 87.89549359 58.29594845 87.09004147 62 84 C67.43338787 76.31350532 66.60480373 67.61943018 66.609375 58.59375 C66.62437153 56.90122913 66.64110175 55.20872282 66.65948486 53.51623535 C66.70300563 49.08413994 66.72312338 44.6522419 66.73822021 40.2199707 C66.75784665 35.68819584 66.7998103 31.1566324 66.83984375 26.625 C66.91498046 17.75002966 66.96330465 8.87521262 67 0 C76.24 0 85.48 0 95 0 C95.06797748 9.99722185 95.12293202 19.99428832 95.15543652 29.99168968 C95.17104287 34.63468438 95.19218844 39.27751174 95.22631836 43.92041016 C95.25909226 48.40730035 95.27689079 52.89403031 95.28463173 57.38103104 C95.29014305 59.0865188 95.30090474 60.79199854 95.31719017 62.49741745 C95.46325322 78.43793923 93.02389086 91.17547568 81.859375 103.22265625 C78.81964431 106.12828118 75.77556941 108.1555415 72 110 C70.57300781 110.69996094 70.57300781 110.69996094 69.1171875 111.4140625 C56.0686124 116.93579995 40.17450948 117.27483341 26.85546875 112.3125 C14.27239556 106.52876184 6.68554881 98.47362471 1.69140625 85.484375 C0.10931572 79.79957512 -0.14429611 74.09562498 -0.11352539 68.22875977 C-0.11367142 67.48646622 -0.11381744 66.74417267 -0.1139679 65.97938538 C-0.11327674 63.55002824 -0.10552203 61.12074983 -0.09765625 58.69140625 C-0.09578923 56.99747255 -0.09436667 55.30353831 -0.09336853 53.60960388 C-0.08956568 49.16926562 -0.07975462 44.7289605 -0.06866455 40.28863525 C-0.05840227 35.75037077 -0.05386062 31.21210089 -0.04882812 26.67382812 C-0.0381302 17.78253524 -0.02055165 8.89127557 0 0 Z " fill="#050505" transform="translate(411,237)"/>
<path d="M0 0 C8.91 0 17.82 0 27 0 C27.33 16.17 27.66 32.34 28 49 C32.62 42.73 37.24 36.46 42 30 C44.4218994 26.83750079 46.84372484 23.68670219 49.3125 20.5625 C50.39308984 19.18971656 51.47249302 17.81599829 52.55078125 16.44140625 C53.10660889 15.75739746 53.66243652 15.07338867 54.23510742 14.36865234 C56.11904177 11.93568908 56.11904177 11.93568908 57.8371582 8.82275391 C62.96433337 0.5240608 62.96433337 0.5240608 68.71655273 -0.95678711 C73.01937102 -1.32420616 77.26402057 -1.05178087 81.5625 -0.75 C83.06293615 -0.68970377 84.56360663 -0.63496875 86.06445312 -0.5859375 C89.71456413 -0.45469316 93.35576142 -0.24831887 97 0 C95.25354012 3.64404637 93.11068074 6.61490099 90.625 9.8125 C89.96842407 10.65856812 89.96842407 10.65856812 89.29858398 11.52172852 C85.4267215 16.49380725 81.49006441 21.41407532 77.54467773 26.32788086 C69.93291273 35.80868783 62.44855532 45.39060099 55 55 C56.64271218 58.71164158 58.94892687 61.68166296 61.4375 64.875 C61.87779541 65.44162354 62.31809082 66.00824707 62.77172852 66.59204102 C64.17710716 68.39789433 65.58786284 70.19942814 67 72 C67.67675781 72.86455811 67.67675781 72.86455811 68.3671875 73.74658203 C71.5702828 77.83724023 74.78384706 81.91960442 78 86 C83.5854008 93.08630626 89.16264277 100.17882653 94.6875 107.3125 C95.12199463 107.8701001 95.55648926 108.4277002 96.00415039 109.00219727 C99 112.8842553 99 112.8842553 99 114 C70.24183891 116.83367429 70.24183891 116.83367429 62.20898438 112.49121094 C57.80839019 108.54975734 55.05244223 103.65533252 52.34619141 98.45849609 C50.23311754 94.59947292 47.52971085 91.25888862 44.8125 87.8125 C39.12075979 80.27496381 33.58422622 72.61485394 28 65 C27.67 81.17 27.34 97.34 27 114 C18.09 114 9.18 114 0 114 C0 76.38 0 38.76 0 0 Z " fill="#030303" transform="translate(1149,381)"/>
<path d="M0 0 C8.91 0 17.82 0 27 0 C27.01458252 2.20502197 27.02916504 4.41004395 27.04418945 6.68188477 C27.09461557 13.98223646 27.16122471 21.28237666 27.23571491 28.58252048 C27.28036716 33.00689928 27.3196345 37.43118709 27.34643555 41.85571289 C27.37252004 46.12879522 27.4129585 50.40152645 27.46318626 54.67439079 C27.47982027 56.30134641 27.49135609 57.9283627 27.49761391 59.55539131 C27.50729307 61.8414163 27.53539598 64.12655007 27.56762695 66.41235352 C27.57873001 67.71141129 27.58983307 69.01046906 27.60127258 70.34889221 C28.27821728 76.54760829 30.68831824 81.42700419 35 86 C38.64088939 88.43862849 42.07668555 88.2996308 46.375 88.3125 C47.66148437 88.32925781 48.94796875 88.34601563 50.2734375 88.36328125 C55.3876622 87.86472475 58.6736768 86.36316551 62.25 82.6875 C65.65125962 77.46413701 66.255816 72.68197043 66.31884766 66.52587891 C66.32889328 65.80323853 66.3389389 65.08059814 66.34928894 64.33605957 C66.37998518 61.96623472 66.3971179 59.59652214 66.4140625 57.2265625 C66.4327851 55.5760299 66.45235932 53.92550676 66.4727478 52.2749939 C66.52395978 47.94486075 66.56364382 43.61469661 66.60089111 39.28442383 C66.64099952 34.86011151 66.6920606 30.4359269 66.7421875 26.01171875 C66.83881731 17.34122686 66.92225021 8.67068176 67 0 C76.24 0 85.48 0 95 0 C95.04527481 9.77100002 95.08192997 19.54192978 95.10362434 29.31301117 C95.11403917 33.850641 95.12815617 38.38819503 95.15087891 42.92578125 C95.17268956 47.30891154 95.18458592 51.69196914 95.18975449 56.07514954 C95.19343552 57.74320112 95.20062353 59.41124896 95.21146011 61.07926941 C95.22608453 63.42467695 95.22797341 65.76978821 95.22705078 68.11523438 C95.23424133 68.7971283 95.24143188 69.47902222 95.24884033 70.18157959 C95.19746914 82.33566465 90.44816871 94.28363546 82 103 C69.43527518 113.63169023 54.91739537 115.62421158 39 115 C26.83422768 113.91515406 17.34418445 108.88944798 9 100 C4.92779608 94.86150827 2.74532264 89.27372733 1 83 C0.82541763 82.45607605 0.65083527 81.9121521 0.47096252 81.35174561 C-0.1992135 78.00522984 -0.1303909 74.69177901 -0.11352539 71.29394531 C-0.11374443 70.13727104 -0.11374443 70.13727104 -0.1139679 68.95722961 C-0.11327249 66.4141659 -0.10549749 63.87117588 -0.09765625 61.328125 C-0.09579075 59.56264282 -0.09436747 57.79716013 -0.09336853 56.03167725 C-0.08955375 51.38908454 -0.07973232 46.7465232 -0.06866455 42.10394287 C-0.0584281 37.36487248 -0.05386612 32.62579701 -0.04882812 27.88671875 C-0.03810913 18.59112984 -0.02052072 9.29557244 0 0 Z " fill="#040404" transform="translate(347,381)"/>
<path d="M0 0 C9.09679186 7.64130517 15.59778432 16.93843229 17.08203125 28.87890625 C12.93807484 29.10285216 8.79739025 29.26532692 4.64916992 29.37329102 C3.24131904 29.41832029 1.83388375 29.47957335 0.42749023 29.55786133 C-11.33639429 30.19588839 -11.33639429 30.19588839 -15.24267578 26.94311523 C-17.0234375 24.53515625 -17.0234375 24.53515625 -18.54467773 22.05883789 C-21.47662252 17.40473389 -26.84105385 16.20055619 -31.91796875 14.87890625 C-41.07085317 13.49919823 -47.47034307 16.08823916 -55.10546875 20.87890625 C-60.81467761 26.23628712 -63.86797125 33.03359969 -64.3984375 40.79296875 C-64.44830667 42.55028646 -64.47559304 44.30838785 -64.48046875 46.06640625 C-64.48288574 46.8972876 -64.48530273 47.72816895 -64.48779297 48.58422852 C-64.23674686 57.96312526 -61.55725456 66.10712915 -54.91796875 72.87890625 C-48.57085894 78.57609414 -41.16292592 78.77313971 -33.02734375 78.35546875 C-27.64059798 77.8659882 -23.05782968 76.44647042 -18.91796875 72.87890625 C-18.39348145 71.91114258 -18.39348145 71.91114258 -17.85839844 70.92382812 C-16.40879794 68.36917643 -15.22747781 66.71832431 -12.91796875 64.87890625 C-7.77268844 63.86504287 -2.74468793 64.12310378 2.45703125 64.37890625 C3.87489976 64.41907433 5.29287737 64.45556937 6.7109375 64.48828125 C10.17025075 64.57604832 13.625444 64.71385342 17.08203125 64.87890625 C14.8546965 76.50702041 9.16568233 86.62260067 -0.4921875 93.7890625 C-15.1938083 103.44661257 -31.37662703 107.59775068 -48.890625 104.19140625 C-63.77174219 100.55817316 -76.19517224 93.39298056 -84.79296875 80.44140625 C-93.91418296 65.01045797 -96.54726288 47.49128594 -92.29296875 30.06640625 C-87.74626845 14.98466866 -78.78660624 2.68782375 -64.91796875 -5.12109375 C-61.32093268 -6.76501138 -57.71581537 -8.02577277 -53.91796875 -9.12109375 C-53.15226562 -9.34667969 -52.3865625 -9.57226562 -51.59765625 -9.8046875 C-33.74700431 -14.19171213 -14.84828356 -10.79333062 0 0 Z " fill="#050505" transform="translate(1113.91796875,391.12109375)"/>
<path d="M0 0 C7.71206703 7.06586361 12.2952185 15.08342157 16.15625 24.73046875 C16.15625 25.72046875 16.15625 26.71046875 16.15625 27.73046875 C11.81475945 27.87904556 7.47462268 27.98778311 3.13134766 28.06005859 C1.65484844 28.09019123 0.17852768 28.13110754 -1.29736328 28.18310547 C-3.42264779 28.25609504 -5.54556393 28.28995366 -7.671875 28.31640625 C-8.9496582 28.34782715 -10.22744141 28.37924805 -11.54394531 28.41162109 C-14.84375 27.73046875 -14.84375 27.73046875 -17.19433594 24.79443359 C-17.73864258 23.7833252 -18.28294922 22.7722168 -18.84375 21.73046875 C-23.90583866 16.51651743 -28.43706308 14.45252316 -35.55859375 14.31054688 C-36.39519531 14.30474609 -37.23179688 14.29894531 -38.09375 14.29296875 C-38.91488281 14.26009766 -39.73601562 14.22722656 -40.58203125 14.19335938 C-47.76568483 14.13074433 -52.40064696 16.51037946 -57.60400391 21.37670898 C-64.7985209 28.82000394 -66.44663424 37.3955322 -66.31420898 47.3996582 C-65.91872742 56.89437966 -63.2046817 64.22784846 -56.5703125 71.14453125 C-50.72686868 76.51203847 -44.20719323 78.18264938 -36.42578125 77.97265625 C-28.24371132 77.20520037 -22.32425995 73.84182877 -16.84375 67.73046875 C-15.85375 65.75046875 -15.85375 65.75046875 -14.84375 63.73046875 C-4.61375 63.73046875 5.61625 63.73046875 16.15625 63.73046875 C11.78333827 78.30684117 4.66122323 89.81338634 -8.9140625 97.34375 C-24.6730091 104.80298472 -41.95620077 106.67762442 -58.671875 101.046875 C-73.53817053 94.87699619 -84.79026713 84.78733142 -91.05859375 69.83203125 C-96.94474682 54.20544695 -96.91411727 35.29262868 -90.625 19.7109375 C-87.12804313 12.76559261 -82.30585555 7.21190919 -76.84375 1.73046875 C-76.29074219 1.15425781 -75.73773437 0.57804688 -75.16796875 -0.015625 C-55.61500269 -18.69525759 -19.97956708 -15.94523142 0 0 Z " fill="#040404" transform="translate(1195.84375,536.26953125)"/>
<path d="M0 0 C7.71206703 7.06586361 12.2952185 15.08342157 16.15625 24.73046875 C16.15625 25.72046875 16.15625 26.71046875 16.15625 27.73046875 C11.81475945 27.87904556 7.47462268 27.98778311 3.13134766 28.06005859 C1.65484844 28.09019123 0.17852768 28.13110754 -1.29736328 28.18310547 C-3.42264779 28.25609504 -5.54556393 28.28995366 -7.671875 28.31640625 C-8.9496582 28.34782715 -10.22744141 28.37924805 -11.54394531 28.41162109 C-14.84375 27.73046875 -14.84375 27.73046875 -17.19433594 24.79443359 C-17.73864258 23.7833252 -18.28294922 22.7722168 -18.84375 21.73046875 C-23.90583866 16.51651743 -28.43706308 14.45252316 -35.55859375 14.31054688 C-36.39519531 14.30474609 -37.23179687 14.29894531 -38.09375 14.29296875 C-38.91488281 14.26009766 -39.73601562 14.22722656 -40.58203125 14.19335938 C-47.76568483 14.13074433 -52.40064696 16.51037946 -57.60400391 21.37670898 C-64.7985209 28.82000394 -66.44663424 37.3955322 -66.31420898 47.3996582 C-65.91872742 56.89437966 -63.2046817 64.22784846 -56.5703125 71.14453125 C-50.72686868 76.51203847 -44.20719323 78.18264938 -36.42578125 77.97265625 C-28.24371132 77.20520037 -22.32425995 73.84182877 -16.84375 67.73046875 C-15.85375 65.75046875 -15.85375 65.75046875 -14.84375 63.73046875 C-4.61375 63.73046875 5.61625 63.73046875 16.15625 63.73046875 C11.78333827 78.30684117 4.66122323 89.81338634 -8.9140625 97.34375 C-24.6730091 104.80298472 -41.95620077 106.67762442 -58.671875 101.046875 C-73.53817053 94.87699619 -84.79026713 84.78733142 -91.05859375 69.83203125 C-96.94474682 54.20544695 -96.91411727 35.29262868 -90.625 19.7109375 C-87.12804313 12.76559261 -82.30585555 7.21190919 -76.84375 1.73046875 C-76.29074219 1.15425781 -75.73773438 0.57804688 -75.16796875 -0.015625 C-55.61500269 -18.69525759 -19.97956708 -15.94523142 0 0 Z " fill="#040404" transform="translate(453.84375,536.26953125)"/>
<path d="M0 0 C0.93328125 -0.00322266 1.8665625 -0.00644531 2.828125 -0.00976562 C14.40037438 0.07912735 25.42784135 2.6273156 34.40234375 10.390625 C41.53890289 17.99232301 44 23.85397576 44 34.3125 C34.1 34.3125 24.2 34.3125 14 34.3125 C13.34 32.3325 12.68 30.3525 12 28.3125 C9.50153208 25.42364646 7.6755585 23.49340101 3.79296875 23.07421875 C-0.36165115 22.95587126 -3.30544571 22.99300503 -7.125 24.75 C-9.50664485 28.00491463 -9.73397442 30.1646817 -9.4609375 34.13671875 C-8.6563802 37.93450193 -7.18030142 39.11075287 -4 41.3125 C1.53206637 44.06899514 7.37177759 46.08599499 13.171875 48.1953125 C14.0896875 48.53393311 15.0075 48.87255371 15.953125 49.22143555 C17.77656989 49.89201632 19.60457625 50.55035933 21.4375 51.19458008 C30.82561204 54.6404599 39.03290005 60.27651141 44.03515625 69.1484375 C47.41436437 76.84988856 46.95259838 85.44168893 43.96875 93.19140625 C38.72654216 104.66930486 30.7359065 110.90242333 19 115.3125 C5.26196069 119.2848812 -11.92940438 116.61688433 -24.26953125 110.0078125 C-31.39214755 105.58547276 -35.59964355 99.91329677 -39 92.3125 C-39.33 88.6825 -39.66 85.0525 -40 81.3125 C-30.1 81.3125 -20.2 81.3125 -10 81.3125 C-9.01 83.9525 -8.02 86.5925 -7 89.3125 C-2.91831415 93.26663316 1.33032295 93.59225254 6.7734375 93.5390625 C9.78836382 93.23228052 11.66502681 92.20966572 14 90.3125 C15.20996679 87.89256642 15.27083271 86.1378367 15.375 83.4375 C15.42398438 82.57382812 15.47296875 81.71015625 15.5234375 80.8203125 C15.19522717 78.13427667 15.19522717 78.13427667 12.93359375 76.171875 C9.64874212 74.08986518 6.33783197 72.7091796 2.6875 71.4375 C1.99253418 71.18411865 1.29756836 70.9307373 0.58154297 70.66967773 C-3.01854962 69.35860286 -6.63335435 68.09307947 -10.25390625 66.83984375 C-22.19445681 62.64261884 -31.98034969 58.01503697 -38 46.3125 C-41.32148284 38.46172238 -41.28328533 28.83718577 -38.3125 20.875 C-33.73691157 11.09270748 -25.86598447 5.40037034 -15.828125 1.625 C-10.54633467 -0.04389137 -5.49938016 -0.09494786 0 0 Z " fill="#050505" transform="translate(747,379.6875)"/>
<path d="M0 0 C23.1 0 46.2 0 70 0 C70 7.59 70 15.18 70 23 C56.14 23 42.28 23 28 23 C28 30.26 28 37.52 28 45 C40.21 45 52.42 45 65 45 C65 52.26 65 59.52 65 67 C52.79 67 40.58 67 28 67 C28 75.25 28 83.5 28 92 C41.86 92 55.72 92 70 92 C70 99.26 70 106.52 70 114 C46.9 114 23.8 114 0 114 C0 76.38 0 38.76 0 0 Z " fill="#050505" transform="translate(1229,525)"/>
<path d="M0 0 C23.1 0 46.2 0 70 0 C70 7.59 70 15.18 70 23 C56.14 23 42.28 23 28 23 C28 30.26 28 37.52 28 45 C40.21 45 52.42 45 65 45 C65 52.26 65 59.52 65 67 C52.79 67 40.58 67 28 67 C28 75.25 28 83.5 28 92 C41.86 92 55.72 92 70 92 C70 99.26 70 106.52 70 114 C46.9 114 23.8 114 0 114 C0 76.38 0 38.76 0 0 Z " fill="#050505" transform="translate(912,525)"/>
<path d="M0 0 C23.1 0 46.2 0 70 0 C70 7.59 70 15.18 70 23 C56.14 23 42.28 23 28 23 C28 30.26 28 37.52 28 45 C40.21 45 52.42 45 65 45 C65 52.26 65 59.52 65 67 C52.46 67 39.92 67 27 67 C27 75.25 27 83.5 27 92 C41.19 92 55.38 92 70 92 C70 99.26 70 106.52 70 114 C46.9 114 23.8 114 0 114 C0 76.38 0 38.76 0 0 Z " fill="#060606" transform="translate(182,525)"/>
<path d="M0 0 C24.42 0 48.84 0 74 0 C74 7.26 74 14.52 74 22 C58.49 22 42.98 22 27 22 C27 30.25 27 38.5 27 47 C38.55 47 50.1 47 62 47 C62 53.93 62 60.86 62 68 C50.45 68 38.9 68 27 68 C27 83.18 27 98.36 27 114 C18.09 114 9.18 114 0 114 C0 76.38 0 38.76 0 0 Z " fill="#030303" transform="translate(259,381)"/>
<path d="M0 0 C29.04 0 58.08 0 88 0 C88 7.59 88 15.18 88 23 C78.1 23 68.2 23 58 23 C58 53.03 58 83.06 58 114 C48.76 114 39.52 114 30 114 C30 83.64 30 53.28 30 22 C20.1 22 10.2 22 0 22 C0 14.74 0 7.48 0 0 Z " fill="#060606" transform="translate(804,381)"/>
<path d="M0 0 C9.24 0 18.48 0 28 0 C28 30.36 28 60.72 28 92 C39.88 92 51.76 92 64 92 C64 99.26 64 106.52 64 114 C42.88 114 21.76 114 0 114 C0 76.38 0 38.76 0 0 Z " fill="#060606" transform="translate(539,381)"/>
<path d="M0 0 C9.24 0 18.48 0 28 0 C28 30.69 28 61.38 28 93 C39.88 93 51.76 93 64 93 C64 99.93 64 106.86 64 114 C42.88 114 21.76 114 0 114 C0 76.38 0 38.76 0 0 Z " fill="#040404" transform="translate(573,237)"/>
<path d="M0 0 C8.91 0 17.82 0 27 0 C27 30.69 27 61.38 27 93 C38.88 93 50.76 93 63 93 C63 99.93 63 106.86 63 114 C42.21 114 21.42 114 0 114 C0 76.38 0 38.76 0 0 Z " fill="#020202" transform="translate(462,381)"/>
<path d="M0 0 C7.88191544 5.01448025 11.98296691 11.45517474 14.7578125 20.2109375 C16.96074359 31.5723506 14.84965296 41.78078092 9.3046875 51.76171875 C3.90986241 58.42591445 -2.54622887 62.77603538 -11.16015625 63.7734375 C-21.1221117 64.08711471 -28.7585504 62.54814855 -36.1953125 55.69921875 C-44.2229561 47.00665921 -45.31225816 36.85059581 -45.09375 25.47265625 C-44.70435996 17.14125162 -41.67734732 10.08596912 -35.83984375 4.11328125 C-26.02636269 -4.2765807 -11.69395094 -5.61073404 0 0 Z " fill="#F5F5F5" transform="translate(555.8203125,551.61328125)"/>
<path d="M0 0 C8.91 0 17.82 0 27 0 C27 37.62 27 75.24 27 114 C18.09 114 9.18 114 0 114 C0 76.38 0 38.76 0 0 Z " fill="#020202" transform="translate(769,237)"/>
<path d="M0 0 C8.91 0 17.82 0 27 0 C27 37.62 27 75.24 27 114 C18.09 114 9.18 114 0 114 C0 76.38 0 38.76 0 0 Z " fill="#020202" transform="translate(526,237)"/>
<path d="M0 0 C31 0 31 0 40 7 C42.69379947 12.22433837 43.46494329 16.07197304 43 22 C42.505 23.485 42.505 23.485 42 25 C53.55 25 65.1 25 77 25 C77 29.62 77 34.24 77 39 C71.06 39 65.12 39 59 39 C59.45472251 45.34648701 59.45472251 45.34648701 61.11328125 47.89453125 C65.58289604 50.51337387 72.03524626 49.772259 77 50 C77 54.62 77 59.24 77 64 C57.37492776 64.80284386 57.37492776 64.80284386 52 60 C45.70244844 53.07547981 44.88050479 48.20113123 45 39 C41.04 39 37.08 39 33 39 C33.88042969 40.14597656 34.76085937 41.29195312 35.66796875 42.47265625 C36.8412062 44.00255788 38.01437989 45.5325084 39.1875 47.0625 C39.76564453 47.81466797 40.34378906 48.56683594 40.93945312 49.34179688 C51 62.47166314 51 62.47166314 51 64 C35.91259813 65.92290416 35.91259813 65.92290416 31.26269531 62.85302734 C27.78854228 59.39614147 25.46326902 55.20204715 23 51 C21.35623486 48.95693969 19.6678692 46.96641106 17.9609375 44.9765625 C16.52936966 42.03195548 16.94257904 39.22817827 17 36 C17.68460297 35.98969254 18.36920593 35.97938507 19.07455444 35.96876526 C26.17936045 35.8608532 33.28403569 35.74624306 40.38867188 35.62768555 C43.04261548 35.58428752 45.6965879 35.54261612 48.35058594 35.50268555 C52.15829158 35.44510075 55.96585155 35.3813725 59.7734375 35.31640625 C60.96617279 35.29969376 62.15890808 35.28298126 63.38778687 35.26576233 C64.48877716 35.24581711 65.58976746 35.22587189 66.72412109 35.20532227 C67.69674896 35.18977798 68.66937683 35.1742337 69.67147827 35.15821838 C72.02390474 35.14869349 72.02390474 35.14869349 74 34 C74 32.35 74 30.7 74 29 C55.52 28.67 37.04 28.34 18 28 C18 27.01 18 26.02 18 25 C21.96 24.505 21.96 24.505 26 24 C26.33 21.69 26.66 19.38 27 17 C21.06 16.01 21.06 16.01 15 15 C15 31.17 15 47.34 15 64 C10.05 64 5.1 64 0 64 C0 42.88 0 21.76 0 0 Z " fill="#030303" transform="translate(661,96)"/>
<path d="M0 0 C28.88066955 0 28.88066955 0 38.27734375 8.93359375 C46.11675221 18.33732862 47.0301361 29.26277886 46 41 C44.44723116 48.698366 40.97625947 54.87229664 35 60 C23.81483269 67.24764226 13.96030843 66 0 66 C0 44.22 0 22.44 0 0 Z " fill="#F4F4F4" transform="translate(679,261)"/>
<path d="M0 0 C27 0 27 0 36 6 C38.96439494 10.04235674 39.48929785 13.68168973 39.390625 18.57421875 C38.93761016 21.38744089 37.92920991 23.50442041 36.6875 26.0625 C35.49612519 28.52267256 35.49612519 28.52267256 35 31 C35.94818391 33.30273235 37.22201201 34.96337192 38.73046875 36.9375 C41.08410325 40.76125082 40.73269621 44.69284188 40 49 C38.15274799 54.91327039 35.05391322 58.52543466 30 62 C26.70731805 63.12595599 23.60172152 63.11531491 20.140625 63.09765625 C19.02558594 63.09443359 17.91054688 63.09121094 16.76171875 63.08789062 C15.60285156 63.07951172 14.44398438 63.07113281 13.25 63.0625 C12.07566406 63.05798828 10.90132812 63.05347656 9.69140625 63.04882812 C6.79421928 63.03705094 3.89713546 63.02060326 1 63 C3.74796023 57.21970206 7.8766088 52.81824548 13 49 C16.75487713 47.97767976 20.1370994 47.93690362 24 48 C25.96822886 46.03177114 25.66248381 42.65191291 26 40 C21.71 39.34 17.42 38.68 13 38 C13.1546875 40.10375 13.1546875 40.10375 13.3125 42.25 C13.30557722 46.69442278 13.30557722 46.69442278 10.875 49.125 C9.451875 50.053125 9.451875 50.053125 8 51 C6.37424583 52.82052667 4.85213079 54.70022624 3.33203125 56.609375 C2.67267578 57.29773438 2.67267578 57.29773438 2 58 C1.34 58 0.68 58 0 58 C0 38.86 0 19.72 0 0 Z " fill="#030303" transform="translate(741,97)"/>
<path d="M0 0 C23.76 0 47.52 0 72 0 C72 7.92 72 15.84 72 24 C48.24 24 24.48 24 0 24 C0 16.08 0 8.16 0 0 Z " fill="#0D0D0D" transform="translate(614,426)"/>
<path d="M0 0 C23.43 0 46.86 0 71 0 C71 7.59 71 15.18 71 23 C47.57 23 24.14 23 0 23 C0 15.41 0 7.82 0 0 Z " fill="#050505" transform="translate(268,571)"/>
<path d="M0 0 C1.4370809 -0.05422947 2.87475462 -0.09289723 4.3125 -0.125 C5.11300781 -0.14820312 5.91351562 -0.17140625 6.73828125 -0.1953125 C9 0 9 0 12 2 C12.25 5.5625 12.25 5.5625 12 9 C11 10 11 10 9.15234375 10.09765625 C7.1015625 10.06510417 5.05078125 10.03255208 3 10 C3 10.99 3 11.98 3 13 C3.69935165 12.99777939 4.39870331 12.99555878 5.11924744 12.99327087 C11.69704921 12.9732672 18.27484254 12.95802548 24.85266781 12.94818783 C28.23471813 12.94296025 31.6167434 12.93586489 34.9987793 12.92456055 C38.88329777 12.91165733 42.76780597 12.90677076 46.65234375 12.90234375 C47.87211411 12.89718246 49.09188446 12.89202118 50.34861755 12.88670349 C52.03024742 12.88659019 52.03024742 12.88659019 53.74584961 12.88647461 C54.73846298 12.884254 55.73107635 12.88203339 56.75376892 12.87974548 C59 13 59 13 60 14 C60.25 16.4375 60.25 16.4375 60 19 C56.63352075 21.2443195 55.54377354 21.2450516 51.6105957 21.22705078 C50.50968094 21.22689972 49.40876617 21.22674866 48.27449036 21.22659302 C46.49312935 21.21110916 46.49312935 21.21110916 44.67578125 21.1953125 C43.45924362 21.1924826 42.24270599 21.18965271 40.98930359 21.18673706 C37.09693642 21.17552603 33.20479784 21.15041948 29.3125 21.125 C26.67643561 21.11497141 24.04036762 21.10584535 21.40429688 21.09765625 C14.93611968 21.07558366 8.46807617 21.04209688 2 21 C2.64714307 26.78781073 4.05300679 30.13358761 7.75 34.5625 C8.39582031 35.36977539 8.39582031 35.36977539 9.0546875 36.19335938 C10.81513506 38.38337723 12.60435271 40.54291762 14.44335938 42.66748047 C18 46.80226331 18 46.80226331 18 49 C26.415 48.505 26.415 48.505 35 48 C32.73229072 44.8935079 30.46099334 41.78975445 28.1875 38.6875 C27.22360352 37.36588867 27.22360352 37.36588867 26.24023438 36.01757812 C25.61826172 35.17001953 24.99628906 34.32246094 24.35546875 33.44921875 C23.78465576 32.66893311 23.21384277 31.88864746 22.62573242 31.0847168 C21.07301874 28.9937096 21.07301874 28.9937096 19.2902832 27.34692383 C18 26 18 26 18 24 C21.96 24 25.92 24 30 24 C30.07476563 24.845625 30.14953125 25.69125 30.2265625 26.5625 C31.07351359 33.86952898 32.0838113 40.1278446 38 45 C43.36694365 47.84328156 47.91966838 48.50701662 53.9375 48.6875 C54.71673828 48.72166016 55.49597656 48.75582031 56.29882812 48.79101562 C58.19874393 48.8726071 60.09934403 48.93799885 62 49 C58.57807951 51.0853453 55.96236016 51.2234875 51.9921875 51.16015625 C50.84105469 51.14919922 49.68992187 51.13824219 48.50390625 51.12695312 C47.30636719 51.10568359 46.10882812 51.08441406 44.875 51.0625 C42.49745504 51.02817181 40.11984512 50.99800726 37.7421875 50.97265625 C36.6888623 50.95468994 35.63553711 50.93672363 34.55029297 50.91821289 C32.00788418 50.82176019 32.00788418 50.82176019 30 52 C27.52443304 52.17682621 25.10250105 52.27730822 22.625 52.3125 C21.95210937 52.34150391 21.27921875 52.37050781 20.5859375 52.40039062 C17.18357381 52.44392481 15.36715194 52.28603698 12.6484375 50.16796875 C10.63911645 47.52537827 8.84121599 44.76182398 7 42 C6.2575 41.278125 5.515 40.55625 4.75 39.8125 C3 38 3 38 3 35 C2.34 35 1.68 35 1 35 C0.97113249 30.85418113 0.95324673 26.70838784 0.9375 22.5625 C0.92912109 21.37849609 0.92074219 20.19449219 0.91210938 18.97460938 C0.90888672 17.84990234 0.90566406 16.72519531 0.90234375 15.56640625 C0.89710693 14.52427979 0.89187012 13.48215332 0.88647461 12.40844727 C1 10 1 10 2 9 C4.33297433 8.95907063 6.66705225 8.95758277 9 9 C9 7.68 9 6.36 9 5 C6.03 4.01 3.06 3.02 0 2 C0 1.34 0 0.68 0 0 Z " fill="#8A8B8B" transform="translate(676,111)"/>
<path d="M0 0 C3.465 -0.0825 6.93 -0.165 10.5 -0.25 C12.11358398 -0.30462402 12.11358398 -0.30462402 13.75976562 -0.36035156 C20.04581957 -0.43225845 24.78250585 0.34395174 30 4 C33.28777929 7.59600859 33.46439391 11.09771154 33.28515625 15.7890625 C32.70837897 20.26106168 30.97318022 23.06912274 27.7590332 26.14355469 C24.5206057 28.32256564 22.90303055 28.46980575 19.04296875 28.390625 C18.04031982 28.38063477 17.0376709 28.37064453 16.00463867 28.36035156 C14.11515503 28.30572754 14.11515503 28.30572754 12.1875 28.25 C8.165625 28.1675 4.14375 28.085 0 28 C0 18.76 0 9.52 0 0 Z " fill="#E8E8E8" transform="translate(1027,548)"/>
<path d="M0 0 C5.6925 -0.12375 5.6925 -0.12375 11.5 -0.25 C12.68013672 -0.28641602 13.86027344 -0.32283203 15.07617188 -0.36035156 C22.75500256 -0.44071745 27.98270361 0.61040617 34 5.6875 C35.61189844 9.41501514 35.5282466 13.0095966 35 17 C33.37522535 20.73698169 31.44378693 22.84763317 28 25 C24.82212459 26.0592918 22.57411057 26.11458939 19.23828125 26.09765625 C17.72681519 26.09390991 17.72681519 26.09390991 16.18481445 26.09008789 C14.2680188 26.07643188 14.2680188 26.07643188 12.3125 26.0625 C6.2178125 26.0315625 6.2178125 26.0315625 0 26 C0 17.42 0 8.84 0 0 Z " fill="#E5E5E5" transform="translate(332,303)"/>
<path d="M0 0 C3.465 -0.0825 6.93 -0.165 10.5 -0.25 C12.11358398 -0.30462402 12.11358398 -0.30462402 13.75976562 -0.36035156 C19.94116044 -0.43106124 24.9482298 0.19996753 30 4 C32.96266844 8.44400266 32.76945894 12.78901077 32 18 C29.7984026 20.89683868 28.21405538 22.39297231 25 24 C23.1136088 24.084915 21.22421485 24.107193 19.3359375 24.09765625 C18.21445312 24.09443359 17.09296875 24.09121094 15.9375 24.08789062 C14.761875 24.07951172 13.58625 24.07113281 12.375 24.0625 C11.19164062 24.05798828 10.00828125 24.05347656 8.7890625 24.04882812 C5.85935361 24.03701478 2.92967059 24.0190789 0 24 C0 16.08 0 8.16 0 0 Z " fill="#E7E7E7" transform="translate(332,259)"/>
<path d="M0 0 C2.336003 3.5040045 3.51029572 7.10090126 4.8203125 11.0625 C5.08383514 11.85019775 5.34735779 12.63789551 5.61886597 13.44946289 C6.17406884 15.1130322 6.72700455 16.77735964 7.27783203 18.44238281 C8.12252394 20.99252472 8.97676673 23.5393247 9.83203125 26.0859375 C10.37036899 27.70293291 10.9081484 29.32011433 11.4453125 30.9375 C11.70152374 31.70006104 11.95773499 32.46262207 12.22171021 33.24829102 C13.21855031 36.27913149 14 38.78740049 14 42 C4.76 42 -4.48 42 -14 42 C-12.28021577 35.69412449 -10.60795249 29.56990349 -8.5546875 23.3984375 C-8.2316716 22.42651962 -8.2316716 22.42651962 -7.90213013 21.43496704 C-7.45494117 20.09205914 -7.00628522 18.74963884 -6.55615234 17.40771484 C-5.86491765 15.34491196 -5.18026454 13.27999894 -4.49609375 11.21484375 C-4.05767726 9.90091294 -3.6188895 8.58710595 -3.1796875 7.2734375 C-2.78507324 6.09185059 -2.39045898 4.91026367 -1.98388672 3.69287109 C-1 1 -1 1 0 0 Z " fill="#DEDEDE" transform="translate(955,412)"/>
<path d="M0 0 C0.66 0 1.32 0 2 0 C3.69240252 5.19556536 5.38302974 10.39170375 7.07202148 15.58837891 C7.64672997 17.35578989 8.22192145 19.12304389 8.79760742 20.89013672 C9.62546076 23.43155361 10.45156994 25.97353177 11.27734375 28.515625 C11.66332985 29.69865204 11.66332985 29.69865204 12.05711365 30.90557861 C12.29728714 31.64604431 12.53746063 32.38651001 12.78491211 33.14941406 C12.99587021 33.79783264 13.20682831 34.44625122 13.42417908 35.11431885 C14.01733472 37.05676723 14.50741144 39.02964575 15 41 C5.76 41 -3.48 41 -13 41 C-11.72305325 35.25373962 -10.48605329 30.06860988 -8.625 24.5625 C-8.40803467 23.91925781 -8.19106934 23.27601563 -7.9675293 22.61328125 C-6.41397733 18.06241501 -4.68280529 13.60705492 -2.84765625 9.1640625 C-1.66957972 6.15643855 -0.81490533 3.12380375 0 0 Z " fill="#E0E0E0" transform="translate(1145,269)"/>
<path d="M0 0 C1.29550781 0.00644531 2.59101562 0.01289062 3.92578125 0.01953125 C5.28906519 0.03624057 6.65234644 0.05317044 8.015625 0.0703125 C9.39452485 0.0803491 10.77343165 0.08947377 12.15234375 0.09765625 C15.52361382 0.12123157 18.89453136 0.1541398 22.265625 0.1953125 C22.265625 0.5253125 22.265625 0.8553125 22.265625 1.1953125 C13.355625 1.1953125 4.445625 1.1953125 -4.734375 1.1953125 C-4.734375 22.3153125 -4.734375 43.4353125 -4.734375 65.1953125 C0.215625 65.1953125 5.165625 65.1953125 10.265625 65.1953125 C6.265625 70.1953125 6.265625 70.1953125 2.59375 70.68359375 C1.2335134 70.6505783 -0.12629838 70.59124821 -1.484375 70.5078125 C-2.18175781 70.48525391 -2.87914062 70.46269531 -3.59765625 70.43945312 C-5.31082435 70.38078298 -7.02288123 70.29110506 -8.734375 70.1953125 C-10.88212244 66.69979587 -10.97741634 63.92781206 -10.96142578 59.86621094 C-10.96127472 58.58518494 -10.96112366 57.30415894 -10.96096802 55.98431396 C-10.95075551 54.59110356 -10.94032353 53.19789474 -10.9296875 51.8046875 C-10.92595564 50.37551064 -10.92310948 48.94633122 -10.92111206 47.51715088 C-10.91348919 43.76225679 -10.89385239 40.00751831 -10.8717041 36.25268555 C-10.85121659 32.41847844 -10.84210414 28.58424611 -10.83203125 24.75 C-10.81060512 17.23170002 -10.77648556 9.7135281 -10.734375 2.1953125 C-6.97499619 0.14237925 -4.31073552 -0.03781347 0 0 Z " fill="#BBBCBD" transform="translate(665.734375,94.8046875)"/>
<path d="M0 0 C0.79921875 0.00644531 1.5984375 0.01289062 2.421875 0.01953125 C3.246875 0.03628906 4.071875 0.05304688 4.921875 0.0703125 C5.76234375 0.07933594 6.6028125 0.08835937 7.46875 0.09765625 C9.53658104 0.12115433 11.60426495 0.15702342 13.671875 0.1953125 C13.671875 4.8153125 13.671875 9.4353125 13.671875 14.1953125 C8.721875 14.5253125 3.771875 14.8553125 -1.328125 15.1953125 C-2.318125 17.5053125 -3.308125 19.8153125 -4.328125 22.1953125 C-8.948125 22.1953125 -13.568125 22.1953125 -18.328125 22.1953125 C-18.64137801 12.95434864 -18.64137801 12.95434864 -16.328125 9.1953125 C-11.58607168 4.41147898 -7.05042512 -0.10072036 0 0 Z " fill="#060706" transform="translate(724.328125,95.8046875)"/>
<path d="M0 0 C9.24 0 18.48 0 28 0 C28 0.33 28 0.66 28 1 C19.75 1 11.5 1 3 1 C3.33 20.47 3.66 39.94 4 60 C3.34 60 2.68 60 2 60 C1.67 53.73 1.34 47.46 1 41 C-4.94 40.67 -10.88 40.34 -17 40 C-17 41.98 -17 43.96 -17 46 C-17.33 46 -17.66 46 -18 46 C-18 43.69 -18 41.38 -18 39 C-12.06 39 -6.12 39 0 39 C0 34.38 0 29.76 0 25 C-11.55 25 -23.1 25 -35 25 C-35 21.04 -35 17.08 -35 13 C-33.68 12.67 -32.36 12.34 -31 12 C-31.33 15.3 -31.66 18.6 -32 22 C-27.38 22 -22.76 22 -18 22 C-17.67 20.35 -17.34 18.7 -17 17 C-16.34 16.01 -15.68 15.02 -15 14 C-12.37302936 13.77862607 -9.99106036 13.71837975 -7.375 13.8125 C-6.66859375 13.82603516 -5.9621875 13.83957031 -5.234375 13.85351562 C-3.48925872 13.8888896 -1.74453392 13.94269779 0 14 C0 9.38 0 4.76 0 0 Z " fill="#6C6C6C" transform="translate(738,96)"/>
<path d="M0 0 C6.75 1.875 6.75 1.875 9 3 C9 4.32 9 5.64 9 7 C6.69 7.33 4.38 7.66 2 8 C1.67 16.25 1.34 24.5 1 33 C1.66 33 2.32 33 3 33 C3.268125 33.969375 3.53625 34.93875 3.8125 35.9375 C4.204375 36.948125 4.59625 37.95875 5 39 C5.99 39.33 6.98 39.66 8 40 C12 45.37142857 12 45.37142857 12 48 C15.57693822 49.19231274 18.84182553 49.1461202 22.5625 49.125 C23.24763672 49.12886719 23.93277344 49.13273437 24.63867188 49.13671875 C28.44562188 49.18722618 28.44562188 49.18722618 32 48 C35.03336073 47.79777595 37.28185802 47.65115639 40.04858398 48.99511719 C44.47338124 50.5016492 48.76750945 50.28504515 53.41015625 50.265625 C54.41461288 50.26753845 55.41906952 50.2694519 56.45396423 50.27142334 C58.57290905 50.27278179 60.69186228 50.26910913 62.81079102 50.26074219 C66.05438905 50.25002679 69.29743465 50.26065491 72.54101562 50.2734375 C74.60156372 50.27211606 76.66211148 50.269554 78.72265625 50.265625 C80.1774514 50.27169769 80.1774514 50.27169769 81.66163635 50.27789307 C82.56615036 50.27158875 83.47066437 50.26528442 84.40258789 50.25878906 C85.59242027 50.25640228 85.59242027 50.25640228 86.80628967 50.25396729 C90.57011651 49.81822658 92.52112741 48.57155761 94.9375 45.6875 C95.618125 44.800625 96.29875 43.91375 97 43 C98.66666667 41.33333333 100.33333333 39.66666667 102 38 C102.66 37.01 103.32 36.02 104 35 C104.6796875 37.25 104.6796875 37.25 105 40 C103.8828125 42.0625 103.8828125 42.0625 102.125 44 C101.57070313 44.639375 101.01640625 45.27875 100.4453125 45.9375 C93.2574472 52.00010844 87.14258491 53.73778844 77.83203125 53.5234375 C76.79358566 53.51873444 75.75514008 53.51403137 74.68522644 53.50918579 C71.39361973 53.48798606 68.10366985 53.43145728 64.8125 53.375 C62.59181217 53.35847486 60.37110697 53.34413146 58.15039062 53.33203125 C41.98519037 53.19769967 41.98519037 53.19769967 35 52 C34.01 52.495 34.01 52.495 33 53 C30.19648462 53.12479416 27.4286626 53.18517138 24.625 53.1875 C23.85671875 53.19974609 23.0884375 53.21199219 22.296875 53.22460938 C14.80818874 53.24404368 14.80818874 53.24404368 12 51 C10.3507851 48.83575724 8.84587905 46.71491106 7.375 44.4375 C4.81443531 40.07373973 4.81443531 40.07373973 1 37 C-0.21077701 33.36766898 -0.12444164 30.04878013 -0.09765625 26.26953125 C-0.0962413 25.51911057 -0.09482635 24.76868988 -0.09336853 23.99552917 C-0.0877756 21.6011454 -0.07522444 19.20685547 -0.0625 16.8125 C-0.05748408 15.18815239 -0.05292134 13.56380332 -0.04882812 11.93945312 C-0.03780848 7.95959931 -0.02054873 3.97981556 0 0 Z " fill="#E6E6E7" transform="translate(676,113)"/>
<path d="M0 0 C2.97922593 -0.02683987 5.95821295 -0.04676037 8.9375 -0.0625 C9.78763672 -0.07087891 10.63777344 -0.07925781 11.51367188 -0.08789062 C12.32255859 -0.09111328 13.13144531 -0.09433594 13.96484375 -0.09765625 C14.7137085 -0.10289307 15.46257324 -0.10812988 16.23413086 -0.11352539 C18 0 18 0 19 1 C19.25068786 4.09631103 19.18522508 7.20723686 19.1875 10.3125 C19.19974609 11.18068359 19.21199219 12.04886719 19.22460938 12.94335938 C19.22750977 14.2030957 19.22750977 14.2030957 19.23046875 15.48828125 C19.23457764 16.25696533 19.23868652 17.02564941 19.24291992 17.81762695 C19 20 19 20 17 24 C17 19.38 17 14.76 17 10 C13.6278125 10.0928125 13.6278125 10.0928125 10.1875 10.1875 C3.66592527 10.36699288 3.66592527 10.36699288 1.05078125 8.92578125 C-0.55504162 5.98276759 -0.1856838 3.28041373 0 0 Z " fill="#959595" transform="translate(721,136)"/>
<path d="M0 0 C11.55 0 23.1 0 35 0 C35 4.62 35 9.24 35 14 C29.06 14 23.12 14 17 14 C17 13.34 17 12.68 17 12 C12.71 12 8.42 12 4 12 C4 15.96 4 19.92 4 24 C3.67 24 3.34 24 3 24 C3 20.7 3 17.4 3 14 C-0.96 14 -4.92 14 -9 14 C-9 13.34 -9 12.68 -9 12 C-13.95 12 -18.9 12 -24 12 C-24 13.98 -24 15.96 -24 18 C-24.33 18 -24.66 18 -25 18 C-25 15.69 -25 13.38 -25 11 C-24.31539703 10.98969254 -23.63079407 10.97938507 -22.92544556 10.96876526 C-15.82063955 10.8608532 -8.71596431 10.74624306 -1.61132812 10.62768555 C1.04261548 10.58428752 3.6965879 10.54261612 6.35058594 10.50268555 C10.15829158 10.44510075 13.96585155 10.3813725 17.7734375 10.31640625 C18.96617279 10.29969376 20.15890808 10.28298126 21.38778687 10.26576233 C22.48877716 10.24581711 23.58976746 10.22587189 24.72412109 10.20532227 C25.69674896 10.18977798 26.66937683 10.1742337 27.67147827 10.15821838 C30.02390474 10.14869349 30.02390474 10.14869349 32 9 C32.66 6.36 33.32 3.72 34 1 C22.78 1 11.56 1 0 1 C0 0.67 0 0.34 0 0 Z " fill="#131313" transform="translate(703,121)"/>
<path d="M0 0 C17.82 0 35.64 0 54 0 C54.495 1.485 54.495 1.485 55 3 C36.85 3 18.7 3 0 3 C0 2.01 0 1.02 0 0 Z " fill="#1A1B1A" transform="translate(678,126)"/>
<path d="M0 0 C0.33 0 0.66 0 1 0 C1 21.12 1 42.24 1 64 C4.96 64 8.92 64 13 64 C9.71737969 66.18841354 8.68209102 66.24854665 4.875 66.1875 C3.98554687 66.18105469 3.09609375 66.17460937 2.1796875 66.16796875 C0 66 0 66 -1 65 C-1.09903867 63.1907532 -1.12799196 61.37762876 -1.12939453 59.56567383 C-1.13254669 58.40389114 -1.13569885 57.24210846 -1.13894653 56.04512024 C-1.1369223 54.77855087 -1.13489807 53.51198151 -1.1328125 52.20703125 C-1.13376923 50.91310959 -1.13472595 49.61918793 -1.13571167 48.28605652 C-1.1371892 45.53956923 -1.13503406 42.79311438 -1.13037109 40.04663086 C-1.12470184 36.5373641 -1.12793453 33.02817428 -1.13394356 29.51891041 C-1.13844505 26.16494468 -1.13528329 22.81099916 -1.1328125 19.45703125 C-1.13483673 18.20058304 -1.13686096 16.94413483 -1.13894653 15.64961243 C-1.13579437 14.47206894 -1.13264221 13.29452545 -1.12939453 12.08129883 C-1.12859894 11.04951004 -1.12780334 10.01772125 -1.12698364 8.95466614 C-0.99566465 5.89912472 -0.56390853 3.00336655 0 0 Z " fill="#737475" transform="translate(660,96)"/>
<path d="M0 0 C1.37376679 0.00398964 2.74753489 0.01873698 4.12109375 0.04296875 C4.81912109 0.04361328 5.51714844 0.04425781 6.23632812 0.04492188 C11.41828217 0.09015717 11.41828217 0.09015717 12.55859375 1.23046875 C12.55859375 3.54046875 12.55859375 5.85046875 12.55859375 8.23046875 C5.95859375 8.23046875 -0.64140625 8.23046875 -7.44140625 8.23046875 C-6.78140625 7.90046875 -6.12140625 7.57046875 -5.44140625 7.23046875 C-5.48265625 6.44671875 -5.52390625 5.66296875 -5.56640625 4.85546875 C-5.36519985 0.63013432 -4.08450263 0.2735365 0 0 Z " fill="#F3F3F3" transform="translate(725.44140625,111.76953125)"/>
<path d="M0 0 C9.10714286 -0.26785714 9.10714286 -0.26785714 13 2 C13.125 5.375 13.125 5.375 13 9 C11 11 11 11 8.1796875 11.1953125 C7.08914063 11.17210937 5.99859375 11.14890625 4.875 11.125 C3.77929688 11.10695312 2.68359375 11.08890625 1.5546875 11.0703125 C0.71164062 11.04710937 -0.13140625 11.02390625 -1 11 C-0.67 7.37 -0.34 3.74 0 0 Z " fill="#B2B2B3" transform="translate(754,135)"/>
<path d="M0 0 C3.96 0 7.92 0 12 0 C12.14695312 1.28583984 12.14695312 1.28583984 12.296875 2.59765625 C13.17641379 9.32309509 14.09910991 14.4087242 18 20 C15.8203125 19.9296875 15.8203125 19.9296875 13 19 C11.08815926 16.72787317 9.4851878 14.59198498 7.875 12.125 C7.02070488 10.85510185 6.16400649 9.58681649 5.3046875 8.3203125 C4.93327637 7.75586426 4.56186523 7.19141602 4.17919922 6.60986328 C3.01487729 4.92383144 3.01487729 4.92383144 1.35595703 3.41748047 C0 2 0 2 0 0 Z " fill="#6E6E6E" transform="translate(694,135)"/>
<path d="M0 0 C8.57142857 -0.28571429 8.57142857 -0.28571429 12 2 C12.1875 5.375 12.1875 5.375 12 9 C7.7975546 11.80163026 4.99895065 11.14489712 0 11 C0 7.37 0 3.74 0 0 Z " fill="#A1A1A3" transform="translate(754,110)"/>
<path d="M0 0 C6.75 1.875 6.75 1.875 9 3 C9 4.32 9 5.64 9 7 C6.69 7.33 4.38 7.66 2 8 C1.67 16.25 1.34 24.5 1 33 C1.66 33 2.32 33 3 33 C3.268125 33.969375 3.53625 34.93875 3.8125 35.9375 C4.204375 36.948125 4.59625 37.95875 5 39 C5.99 39.33 6.98 39.66 8 40 C9.60546875 42.28515625 9.60546875 42.28515625 11.1875 45.0625 C11.71730469 45.98160156 12.24710938 46.90070313 12.79296875 47.84765625 C13.19128906 48.55792969 13.58960938 49.26820313 14 50 C13.01 50.495 13.01 50.495 12 51 C11.37351562 50.07316406 10.74703125 49.14632812 10.1015625 48.19140625 C9.27627585 46.98161105 8.45074218 45.77198433 7.625 44.5625 C7.2125 43.95083984 6.8 43.33917969 6.375 42.70898438 C4.18904598 39.32135329 4.18904598 39.32135329 1 37 C-0.21077701 33.36766898 -0.12444164 30.04878013 -0.09765625 26.26953125 C-0.0962413 25.51911057 -0.09482635 24.76868988 -0.09336853 23.99552917 C-0.0877756 21.6011454 -0.07522444 19.20685547 -0.0625 16.8125 C-0.05748408 15.18815239 -0.05292134 13.56380332 -0.04882812 11.93945312 C-0.03780848 7.95959931 -0.02054873 3.97981556 0 0 Z " fill="#DEDEDD" transform="translate(676,113)"/>
<path d="M0 0 C3.12613393 2.96160056 5.04783565 5.09567131 7 9 C15.415 8.505 15.415 8.505 24 8 C23.34 6.35 22.68 4.7 22 3 C23.62542193 3.64477069 25.25032424 4.29085143 26.875 4.9375 C27.77992188 5.29714844 28.68484375 5.65679687 29.6171875 6.02734375 C32 7 32 7 34 8 C36.87910588 8.23274209 39.74146495 8.41972757 42.625 8.5625 C43.42679688 8.60568359 44.22859375 8.64886719 45.0546875 8.69335938 C47.0362511 8.79951457 49.01810271 8.90026855 51 9 C46.99106694 11.74867226 42.72041345 11.25918778 38.0625 11.1875 C36.7616748 11.17783203 36.7616748 11.17783203 35.43457031 11.16796875 C25.61223026 11.05543209 15.80596016 10.55133913 6 10 C5.34 8.68 4.68 7.36 4 6 C3.34 6 2.68 6 2 6 C2 5.34 2 4.68 2 4 C1.34 4 0.68 4 0 4 C0 2.68 0 1.36 0 0 Z " fill="#8F8E8F" transform="translate(687,151)"/>
<path d="M0 0 C1.29550781 0.00644531 2.59101562 0.01289062 3.92578125 0.01953125 C5.28906519 0.03624057 6.65234644 0.05317044 8.015625 0.0703125 C9.39452485 0.0803491 10.77343165 0.08947377 12.15234375 0.09765625 C15.52361382 0.12123157 18.89453136 0.1541398 22.265625 0.1953125 C22.265625 0.5253125 22.265625 0.8553125 22.265625 1.1953125 C13.025625 1.1953125 3.785625 1.1953125 -5.734375 1.1953125 C-5.734375 1.8553125 -5.734375 2.5153125 -5.734375 3.1953125 C-6.724375 3.8553125 -7.714375 4.5153125 -8.734375 5.1953125 C-9.21267242 7.85901372 -9.21267242 7.85901372 -9.16674805 11.02197266 C-9.18654221 12.24308746 -9.20633636 13.46420227 -9.22673035 14.72232056 C-9.23350061 16.05967048 -9.23994742 17.39702207 -9.24609375 18.734375 C-9.26293393 20.09916817 -9.28108328 21.46394577 -9.30049133 22.82870483 C-9.34807004 26.42239516 -9.37782797 30.01602238 -9.40393066 33.60992432 C-9.43369688 37.27653473 -9.48024057 40.94292746 -9.52539062 44.609375 C-9.61151302 51.80457968 -9.67881801 58.99980004 -9.734375 66.1953125 C-10.064375 66.1953125 -10.394375 66.1953125 -10.734375 66.1953125 C-10.734375 45.0753125 -10.734375 23.9553125 -10.734375 2.1953125 C-6.50475176 0.08050088 -4.62442569 -0.04056514 0 0 Z " fill="#D6D7D7" transform="translate(665.734375,94.8046875)"/>
<path d="M0 0 C1.98 0.99 1.98 0.99 4 2 C4 2.66 4 3.32 4 4 C5.32 4.33 6.64 4.66 8 5 C8 5.66 8 6.32 8 7 C8.66 7 9.32 7 10 7 C10 8.32 10 9.64 10 11 C10.66 11 11.32 11 12 11 C12 11.66 12 12.32 12 13 C12.66 13 13.32 13 14 13 C14.99 14.485 14.99 14.485 16 16 C18.609621 16.38411275 21.0058074 16.60293197 23.625 16.6875 C24.33140625 16.72166016 25.0378125 16.75582031 25.765625 16.79101562 C27.50985688 16.87351308 29.25490395 16.93843335 31 17 C28.16816475 19.83183525 25.41155565 19.36782849 21.625 19.375 C20.95210937 19.39949219 20.27921875 19.42398438 19.5859375 19.44921875 C16.18958967 19.46927592 14.35754198 19.27914407 11.6484375 17.1640625 C9.63732439 14.52388084 7.8407477 11.76112155 6 9 C5.2575 8.278125 4.515 7.55625 3.75 6.8125 C2 5 2 5 2 2 C1.34 2 0.68 2 0 2 C0 1.34 0 0.68 0 0 Z " fill="#A6A6A6" transform="translate(677,144)"/>
<path d="M0 0 C2.31243792 -0.02685412 4.6249627 -0.04632841 6.9375 -0.0625 C8.22527344 -0.07410156 9.51304687 -0.08570313 10.83984375 -0.09765625 C14 0 14 0 15 1 C15.04063832 2.66617115 15.042721 4.33388095 15 6 C12.87527424 6.05386629 10.75016348 6.09273071 8.625 6.125 C6.84996094 6.15980469 6.84996094 6.15980469 5.0390625 6.1953125 C2 6 2 6 0 4 C0 2.68 0 1.36 0 0 Z " fill="#F1F1F1" transform="translate(721,139)"/>
<path d="M0 0 C3.96 0 7.92 0 12 0 C15 3 15 3 15.1875 6.1875 C15.125625 7.115625 15.06375 8.04375 15 9 C14.01 9.495 14.01 9.495 13 10 C13 7.69 13 5.38 13 3 C7.06 2.01 7.06 2.01 1 1 C1 17.17 1 33.34 1 50 C0.67 50 0.34 50 0 50 C0 33.5 0 17 0 0 Z " fill="#343435" transform="translate(675,110)"/>
<path d="M0 0 C2 2 2 2 2.22705078 4.24658203 C2.21657715 5.15778809 2.20610352 6.06899414 2.1953125 7.0078125 C2.18886719 7.99394531 2.18242188 8.98007813 2.17578125 9.99609375 C2.15902344 11.02863281 2.14226563 12.06117187 2.125 13.125 C2.11597656 14.16527344 2.10695313 15.20554687 2.09765625 16.27734375 C2.07403747 18.85179092 2.04110149 21.42578212 2 24 C1.34 24 0.68 24 0 24 C-0.33 21.69 -0.66 19.38 -1 17 C-5.95 16.67 -10.9 16.34 -16 16 C-15.67 15.34 -15.34 14.68 -15 14 C-10.05 14 -5.1 14 0 14 C0 9.38 0 4.76 0 0 Z " fill="#8D8D8E" transform="translate(738,96)"/>
<path d="M0 0 C2.35953094 2.35953094 2.49141413 3.77895617 3 7 C2.34 7 1.68 7 1 7 C1 27.13 1 47.26 1 68 C0.67 68 0.34 68 0 68 C0 45.56 0 23.12 0 0 Z " fill="#A9A9A9" transform="translate(642,571)"/>
<path d="M0 0 C0.33 0 0.66 0 1 0 C1 22.11 1 44.22 1 67 C0.67 67 0.34 67 0 67 C-0.01030746 66.25497726 -0.02061493 65.50995453 -0.03123474 64.74235535 C-0.12918408 57.72361117 -0.23169492 50.70495195 -0.33933926 43.68635082 C-0.39452 40.0779594 -0.4479322 36.46955979 -0.49731445 32.86108398 C-0.54502961 29.37916857 -0.59737492 25.89735081 -0.65294075 22.41555214 C-0.68326037 20.43969447 -0.70877575 18.46376498 -0.73423767 16.48783875 C-0.75418289 15.28682022 -0.77412811 14.0858017 -0.79467773 12.84838867 C-0.81022202 11.78915695 -0.8257663 10.72992523 -0.84178162 9.63859558 C-0.89223068 6.89184665 -0.89223068 6.89184665 -2 4 C-1.0625 1.8125 -1.0625 1.8125 0 0 Z " fill="#A7A7A7" transform="translate(715,572)"/>
<path d="M0 0 C1.37376679 0.00398964 2.74753489 0.01873698 4.12109375 0.04296875 C4.81912109 0.04361328 5.51714844 0.04425781 6.23632812 0.04492188 C11.41828217 0.09015717 11.41828217 0.09015717 12.55859375 1.23046875 C12.59952312 3.56344308 12.60101098 5.897521 12.55859375 8.23046875 C11.89859375 8.23046875 11.23859375 8.23046875 10.55859375 8.23046875 C10.22859375 6.58046875 9.89859375 4.93046875 9.55859375 3.23046875 C4.93859375 3.23046875 0.31859375 3.23046875 -4.44140625 3.23046875 C-4.77140625 4.55046875 -5.10140625 5.87046875 -5.44140625 7.23046875 C-5.56640625 4.85546875 -5.56640625 4.85546875 -5.44140625 2.23046875 C-3.44140625 0.23046875 -3.44140625 0.23046875 0 0 Z " fill="#C2C3C4" transform="translate(725.44140625,111.76953125)"/>
<path d="M0 0 C11.55 0 23.1 0 35 0 C35 4.29 35 8.58 35 13 C33.35 13 31.7 13 30 13 C30.20496094 12.46890625 30.40992188 11.9378125 30.62109375 11.390625 C30.89050781 10.68421875 31.15992188 9.9778125 31.4375 9.25 C31.70433594 8.55390625 31.97117187 7.8578125 32.24609375 7.140625 C33.13653634 4.71879627 33.13653634 4.71879627 34 1 C22.78 1 11.56 1 0 1 C0 0.67 0 0.34 0 0 Z " fill="#0C0C0C" transform="translate(703,121)"/>
<path d="M0 0 C9.57 0 19.14 0 29 0 C28.67 0.99 28.34 1.98 28 3 C19.09 3 10.18 3 1 3 C0.67 2.01 0.34 1.02 0 0 Z " fill="#8C8C8E" transform="translate(741,159)"/>
<path d="M0 0 C2.64590014 -0.02684679 5.29153096 -0.04676357 7.9375 -0.0625 C8.69224609 -0.07087891 9.44699219 -0.07925781 10.22460938 -0.08789062 C12.14994313 -0.09652441 14.07535581 -0.05224333 16 0 C17 1 17 1 17.125 4.5 C17 8 17 8 16 9 C13.81360547 9.07258946 11.62499611 9.08373783 9.4375 9.0625 C7.64119141 9.04896484 7.64119141 9.04896484 5.80859375 9.03515625 C4.88175781 9.02355469 3.95492187 9.01195312 3 9 C3 8.67 3 8.34 3 8 C6.96 8 10.92 8 15 8 C14.67 6.35 14.34 4.7 14 3 C7.07 2.505 7.07 2.505 0 2 C0 1.34 0 0.68 0 0 Z " fill="#C2C2C3" transform="translate(721,137)"/>
<path d="M0 0 C-1.515625 1.984375 -1.515625 1.984375 -4 4 C-6.73682971 4.2911521 -9.03940039 4.38322418 -11.75 4.25 C-12.44738281 4.23195312 -13.14476562 4.21390625 -13.86328125 4.1953125 C-15.57611539 4.14838554 -17.28823824 4.07664605 -19 4 C-19.33 2.68 -19.66 1.36 -20 0 C-18.53626953 0.01740234 -18.53626953 0.01740234 -17.04296875 0.03515625 C-15.77066406 0.04417969 -14.49835937 0.05320313 -13.1875 0.0625 C-11.29064453 0.07990234 -11.29064453 0.07990234 -9.35546875 0.09765625 C-0.48179872 -0.16059957 -0.48179872 -0.16059957 0 0 Z " fill="#C8C8C9" transform="translate(676,161)"/>
<path d="M0 0 C6.75 1.875 6.75 1.875 9 3 C9 4.32 9 5.64 9 7 C7.88625 7.12375 6.7725 7.2475 5.625 7.375 C1.96896323 7.6465813 1.96896323 7.6465813 0 10 C0 6.7 0 3.4 0 0 Z " fill="#EEEEEE" transform="translate(676,113)"/>
<path d="M0 0 C0.72960937 0.32097656 1.45921875 0.64195312 2.2109375 0.97265625 C5.72396575 2.26667086 9.11191702 2.45502107 12.8125 2.625 C13.85180664 2.68300781 13.85180664 2.68300781 14.91210938 2.7421875 C16.60767015 2.83573568 18.30379712 2.91892364 20 3 C20 3.33 20 3.66 20 4 C4.33941864 4.17293894 4.33941864 4.17293894 -0.4375 3.5 C-7.54633089 2.51033923 -14.83999032 2.92601597 -22 3 C-22 2.67 -22 2.34 -22 2 C-21.01257813 1.93941406 -20.02515625 1.87882813 -19.0078125 1.81640625 C-17.72648438 1.73261719 -16.44515625 1.64882812 -15.125 1.5625 C-13.84882812 1.48128906 -12.57265625 1.40007812 -11.2578125 1.31640625 C-7.16023301 0.9184399 -4.2652922 -0.25089954 0 0 Z " fill="#D9D9DA" transform="translate(714,161)"/>
<path d="M0 0 C1.4370809 -0.05422947 2.87475462 -0.09289723 4.3125 -0.125 C5.11300781 -0.14820312 5.91351562 -0.17140625 6.73828125 -0.1953125 C9 0 9 0 12 2 C12.1875 5.625 12.1875 5.625 12 9 C11.01 9 10.02 9 9 9 C9 7.68 9 6.36 9 5 C6.03 4.01 3.06 3.02 0 2 C0 1.34 0 0.68 0 0 Z " fill="#BBBBBC" transform="translate(676,111)"/>
<path d="M0 0 C1.41623216 -0.05447047 2.83308191 -0.09300508 4.25 -0.125 C5.03890625 -0.14820313 5.8278125 -0.17140625 6.640625 -0.1953125 C9.20731941 0.0171622 10.7916067 0.71345895 13 2 C13 4.31 13 6.62 13 9 C11.02 9.99 11.02 9.99 9 11 C9.04125 9.88625 9.0825 8.7725 9.125 7.625 C9.41121859 3.95633975 9.41121859 3.95633975 7 2 C5.01178687 1.60235737 3.01055661 1.26224651 1 1 C1 3.31 1 5.62 1 8 C0.67 8 0.34 8 0 8 C0 5.36 0 2.72 0 0 Z " fill="#6B6B6C" transform="translate(754,135)"/>
<path d="M0 0 C-0.86625 0.515625 -1.7325 1.03125 -2.625 1.5625 C-6.46201739 4.09310433 -9.16675882 7.42328418 -12 11 C-13.32 10.67 -14.64 10.34 -16 10 C-16.33 8.68 -16.66 7.36 -17 6 C-16.236875 5.896875 -15.47375 5.79375 -14.6875 5.6875 C-11.757381 4.93793468 -11.02209812 4.11401167 -9 2 C-8.01 2 -7.02 2 -6 2 C-6 1.34 -6 0.68 -6 0 C-3 -1 -3 -1 0 0 Z " fill="#C9C9CA" transform="translate(718,98)"/>
<path d="M0 0 C8.57142857 -0.28571429 8.57142857 -0.28571429 12 2 C12 4.31 12 6.62 12 9 C11.01 9.495 11.01 9.495 10 10 C10 7.69 10 5.38 10 3 C7.03 2.67 4.06 2.34 1 2 C1 4.97 1 7.94 1 11 C0.67 11 0.34 11 0 11 C0 7.37 0 3.74 0 0 Z " fill="#636363" transform="translate(754,110)"/>
<path d="M0 0 C0.99 0.33 1.98 0.66 3 1 C-0.50897269 5.18423892 -4.08060535 9.19588166 -8 13 C-8.99 12.67 -9.98 12.34 -11 12 C-10.04882866 10.8274869 -9.08882991 9.66212985 -8.125 8.5 C-7.32449219 7.52546875 -7.32449219 7.52546875 -6.5078125 6.53125 C-6.01023437 6.0259375 -5.51265625 5.520625 -5 5 C-4.34 5 -3.68 5 -3 5 C-2.690625 4.360625 -2.38125 3.72125 -2.0625 3.0625 C-1 1 -1 1 0 0 Z " fill="#8B8987" transform="translate(751,145)"/>
<path d="M0 0 C2.875 -0.1875 2.875 -0.1875 6 0 C8.29013653 3.4352048 8.17842973 4.985331 8 9 C4.20620942 7.50958227 2.31656242 5.30937488 0 2 C0 1.34 0 0.68 0 0 Z " fill="#B5B5B6" transform="translate(696,137)"/>
<path d="M0 0 C1.66611905 -0.042721 3.33382885 -0.04063832 5 0 C6 1 6 1 6.0625 3.5625 C6.041875 4.366875 6.02125 5.17125 6 6 C1.545 6.495 1.545 6.495 -3 7 C-2.34 5.68 -1.68 4.36 -1 3 C-0.67 2.01 -0.34 1.02 0 0 Z " fill="#EBEBEB" transform="translate(756,139)"/>
<path d="M0 0 C0.24492188 0.54140625 0.48984375 1.0828125 0.7421875 1.640625 C2.29353788 4.55061143 4.16714304 7.0974196 6.125 9.75 C6.84945312 10.73484375 7.57390625 11.7196875 8.3203125 12.734375 C8.87460937 13.48203125 9.42890625 14.2296875 10 15 C9.01 15.495 9.01 15.495 8 16 C8 15.34 8 14.68 8 14 C7.13375 13.87625 7.13375 13.87625 6.25 13.75 C3.1135816 12.7045272 1.91043954 11.72919934 0 9 C-0.33429898 5.97041545 -0.2334377 3.03469016 0 0 Z " fill="#797978" transform="translate(677,135)"/>
<path d="M0 0 C3.12613393 2.96160056 5.04783565 5.09567131 7 9 C12.94 9 18.88 9 25 9 C25 9.33 25 9.66 25 10 C18.73 10 12.46 10 6 10 C5.34 8.68 4.68 7.36 4 6 C3.34 6 2.68 6 2 6 C2 5.34 2 4.68 2 4 C1.34 4 0.68 4 0 4 C0 2.68 0 1.36 0 0 Z " fill="#7D7D7E" transform="translate(687,151)"/>
<path d="M0 0 C0.66 0.66 1.32 1.32 2 2 C1.91015625 4.41796875 1.91015625 4.41796875 1 7 C-1.06640625 8.80078125 -1.06640625 8.80078125 -3.5625 10.3125 C-4.38878906 10.82425781 -5.21507812 11.33601562 -6.06640625 11.86328125 C-6.70449219 12.23839844 -7.34257813 12.61351562 -8 13 C-8 12.01 -8 11.02 -8 10 C-7.236875 9.401875 -6.47375 8.80375 -5.6875 8.1875 C-2.66832926 5.73003545 -1.52756977 3.53752999 0 0 Z " fill="#BCBCBC" transform="translate(779,148)"/>
<path d="M0 0 C1.5 1.375 1.5 1.375 3 3 C3 3.66 3 4.32 3 5 C9.6 5.33 16.2 5.66 23 6 C23 6.33 23 6.66 23 7 C19.56265937 7.08703823 16.12560163 7.14040272 12.6875 7.1875 C11.22280273 7.22520508 11.22280273 7.22520508 9.72851562 7.26367188 C8.32182617 7.27817383 8.32182617 7.27817383 6.88671875 7.29296875 C6.02264404 7.3086792 5.15856934 7.32438965 4.26831055 7.34057617 C2 7 2 7 0.17504883 5.6184082 C-1 4 -1 4 -0.6875 1.8125 C-0.460625 1.214375 -0.23375 0.61625 0 0 Z " fill="#B0AFB1" transform="translate(739,156)"/>
<path d="M0 0 C2.97 0.495 2.97 0.495 6 1 C6 2.65 6 4.3 6 6 C4.02 6 2.04 6 0 6 C0 4.02 0 2.04 0 0 Z " fill="#E4E5E6" transform="translate(755,114)"/>
<path d="M0 0 C2.97 0 5.94 0 9 0 C10.35091528 2.70183055 10.33858058 5.11808206 10.5625 8.125 C10.64628906 9.22070312 10.73007812 10.31640625 10.81640625 11.4453125 C10.87699219 12.28835937 10.93757812 13.13140625 11 14 C9.68 12.68 8.36 11.36 7 10 C7.66 10 8.32 10 9 10 C8.34 7.36 7.68 4.72 7 2 C4.69 2 2.38 2 0 2 C0 1.34 0 0.68 0 0 Z " fill="#959595" transform="translate(695,136)"/>
<path d="M0 0 C0 0.66 0 1.32 0 2 C-2.64 2.33 -5.28 2.66 -8 3 C-8 3.66 -8 4.32 -8 5 C-8.99 5 -9.98 5 -11 5 C-11.33 5.99 -11.66 6.98 -12 8 C-14.5625 9.1875 -14.5625 9.1875 -17 10 C-12.85675021 4.11925836 -7.48190749 0 0 0 Z " fill="#EFEFEF" transform="translate(720,95)"/>
<path d="M0 0 C1.77007714 -0.08114106 3.54122098 -0.13925505 5.3125 -0.1875 C6.29863281 -0.22230469 7.28476562 -0.25710937 8.30078125 -0.29296875 C11 0 11 0 12.84375 1.3125 C14.5684867 3.8296833 14.19767151 6.03492731 14 9 C13.01 9.495 13.01 9.495 12 10 C12 7.69 12 5.38 12 3 C6.06 2.01 6.06 2.01 0 1 C0 0.67 0 0.34 0 0 Z " fill="#5E5E5E" transform="translate(676,110)"/>
<path d="M0 0 C-0.33 0.99 -0.66 1.98 -1 3 C-2.95803507 3.05389087 -4.91648909 3.09274217 -6.875 3.125 C-7.96554687 3.14820313 -9.05609375 3.17140625 -10.1796875 3.1953125 C-13 3 -13 3 -15 1 C-12.8750734 0.83240016 -10.75005624 0.66594799 -8.625 0.5 C-7.44164062 0.4071875 -6.25828125 0.314375 -5.0390625 0.21875 C-3.36213157 0.09804546 -1.68126944 0 0 0 Z " fill="#9A9A9A" transform="translate(734,129)"/>
<path d="M0 0 C2.35953094 2.35953094 2.49141413 3.77895617 3 7 C2.34 7 1.68 7 1 7 C1 10.96 1 14.92 1 19 C0.67 19 0.34 19 0 19 C0 12.73 0 6.46 0 0 Z " fill="#9E9E9E" transform="translate(642,571)"/>
<path d="M0 0 C1.258125 -0.04125 2.51625 -0.0825 3.8125 -0.125 C4.52019531 -0.14820312 5.22789062 -0.17140625 5.95703125 -0.1953125 C8 0 8 0 11 2 C11.1875 5.625 11.1875 5.625 11 9 C10.67 9 10.34 9 10 9 C10 7.35 10 5.7 10 4 C6.7 3.01 3.4 2.02 0 1 C0 0.67 0 0.34 0 0 Z " fill="#8F8F90" transform="translate(677,111)"/>
<path d="M0 0 C-0.33 0.99 -0.66 1.98 -1 3 C-6.61 3 -12.22 3 -18 3 C-18 2.67 -18 2.34 -18 2 C-17.01257813 1.93941406 -16.02515625 1.87882813 -15.0078125 1.81640625 C-13.72648438 1.73261719 -12.44515625 1.64882812 -11.125 1.5625 C-9.84882812 1.48128906 -8.57265625 1.40007812 -7.2578125 1.31640625 C-4.53573738 1.05203205 -2.62506009 0 0 0 Z " fill="#C6C7C8" transform="translate(710,161)"/>
<path d="M0 0 C3.80666984 1.44390925 5.26602582 3.34952803 7 7 C6.67 7.66 6.34 8.32 6 9 C4 7.1875 4 7.1875 2 5 C2 4.01 2 3.02 2 2 C1.34 2 0.68 2 0 2 C0 1.34 0 0.68 0 0 Z " fill="#BFBFBE" transform="translate(677,144)"/>
<path d="M0 0 C2.64752004 2.57784846 4.94432065 4.91648098 7 8 C6.01 8 5.02 8 4 8 C4 7.34 4 6.68 4 6 C3.34 6 2.68 6 2 6 C2 5.34 2 4.68 2 4 C1.34 4 0.68 4 0 4 C0 2.68 0 1.36 0 0 Z " fill="#6A6969" transform="translate(687,151)"/>
<path d="M0 0 C0.66 0.66 1.32 1.32 2 2 C1.625 4.625 1.625 4.625 1 7 C0.01 7.33 -0.98 7.66 -2 8 C-1.47731534 5.23723823 -0.89130413 2.6739124 0 0 Z " fill="#D1D0CE" transform="translate(779,148)"/>
<path d="M0 0 C1.32 0.33 2.64 0.66 4 1 C4.33 2.98 4.66 4.96 5 7 C3.29115995 5.37660195 1.62553283 3.70680947 0 2 C0 1.34 0 0.68 0 0 Z " fill="#D0D0D0" transform="translate(698,139)"/>
<path d="M0 0 C-4.5 3 -4.5 3 -9 6 C-9 4.68 -9 3.36 -9 2 C-8.01 2 -7.02 2 -6 2 C-6 1.34 -6 0.68 -6 0 C-3 -1 -3 -1 0 0 Z " fill="#BFBFC0" transform="translate(718,98)"/>
<path d="M0 0 C0.99 0.33 1.98 0.66 3 1 C3 2.65 3 4.3 3 6 C2.01 6.495 2.01 6.495 1 7 C-0.0625 4.625 -0.0625 4.625 -1 2 C-0.67 1.34 -0.34 0.68 0 0 Z " fill="#737373" transform="translate(733,124)"/>
<path d="M0 0 C4.455 1.98 4.455 1.98 9 4 C9 4.33 9 4.66 9 5 C3.5 5.36666667 3.5 5.36666667 1.125 3.625 C0 2 0 2 0 0 Z " fill="#6A6969" transform="translate(712,155)"/>
</svg>
