<?xml version="1.0" standalone="no"?>
<!DOCTYPE svg PUBLIC "-//W3C//DTD SVG 20010904//EN"
 "http://www.w3.org/TR/2001/REC-SVG-20010904/DTD/svg10.dtd">
<svg version="1.0" xmlns="http://www.w3.org/2000/svg"
 width="1500.000000pt" height="900.000000pt" viewBox="0 0 1500.000000 900.000000"
 preserveAspectRatio="xMidYMid meet">

<g transform="translate(0.000000,900.000000) scale(0.100000,-0.100000)"
fill="#000000" stroke="none">
<path d="M6605 8008 c-3 -18 -4 -163 -3 -323 l3 -290 35 -3 c19 -2 54 -1 77 3
l43 6 0 248 0 248 47 -7 c50 -8 76 -31 71 -65 -2 -13 -12 -21 -28 -23 -52 -6
-70 -13 -70 -27 0 -13 39 -15 275 -15 l275 0 12 -25 c8 -19 8 -28 -2 -40 -11
-13 -53 -15 -285 -15 l-273 0 -5 -32 c-2 -18 0 -42 6 -53 18 -34 139 -190 155
-199 15 -9 169 -2 179 8 3 3 -14 31 -38 62 -109 141 -129 168 -129 176 0 12
83 -3 92 -16 4 -6 8 -25 8 -42 0 -44 35 -118 69 -147 41 -34 110 -51 185 -45
35 3 69 9 75 12 6 4 11 35 11 72 l0 64 -73 0 c-85 0 -104 13 -109 70 l-3 35
93 3 93 3 -3 72 c-3 65 -5 72 -23 69 -11 -1 -89 0 -172 4 l-153 6 0 38 c0 45
-24 117 -48 143 -42 47 -83 57 -236 57 l-145 0 -6 -32z"/>
<path d="M7174 8021 c-23 -10 -51 -29 -64 -42 -31 -33 -60 -98 -60 -136 l0
-33 75 0 c65 0 75 2 75 18 0 43 26 59 105 64 41 3 78 8 81 11 4 3 3 36 -1 72
l-7 65 -81 0 c-58 0 -94 -6 -123 -19z"/>
<path d="M7406 8024 c-9 -23 -7 -584 2 -584 4 0 36 29 71 64 49 50 65 73 70
103 6 35 9 38 36 35 40 -5 65 -29 65 -62 0 -32 -15 -40 -71 -40 -35 0 -46 -7
-105 -67 -64 -65 -65 -67 -42 -76 37 -14 238 -3 273 15 92 49 131 168 85 258
-11 21 -24 42 -30 45 -6 4 -2 18 12 38 18 25 23 45 23 97 0 85 -26 129 -97
164 -47 23 -63 26 -169 26 -97 0 -118 -3 -123 -16z m211 -149 c23 -16 34 -47
23 -65 -4 -6 -26 -14 -49 -17 l-41 -6 0 52 c0 46 2 51 23 51 12 0 32 -7 44
-15z"/>
<path d="M6782 7723 c3 -17 24 -18 255 -21 242 -2 313 4 298 28 -4 6 -108 10
-281 10 -257 0 -275 -1 -272 -17z"/>
<path d="M4355 5869 c-186 -27 -320 -178 -332 -372 -12 -187 65 -335 211 -407
202 -100 448 -33 544 148 49 92 49 92 -69 92 l-101 0 -42 -44 c-96 -98 -255
-74 -318 47 -32 62 -32 184 1 251 34 69 95 106 175 106 68 0 132 -31 156 -74
13 -26 15 -26 122 -26 122 0 123 1 87 73 -80 157 -243 234 -434 206z"/>
<path d="M7615 5869 c-186 -27 -320 -178 -332 -372 -12 -187 65 -335 211 -407
202 -100 448 -33 544 148 49 92 49 92 -69 92 l-101 0 -42 -44 c-96 -98 -255
-74 -318 47 -32 62 -32 184 1 251 34 69 95 106 175 106 68 0 132 -31 156 -74
13 -26 15 -26 122 -26 122 0 123 1 87 73 -80 157 -243 234 -434 206z"/>
<path d="M2470 5460 l0 -410 100 0 100 0 0 144 0 143 108 5 c163 8 239 48 288
153 43 90 29 202 -34 275 -68 81 -146 100 -399 100 l-163 0 0 -410z m379 222
c35 -25 48 -80 31 -122 -17 -42 -61 -60 -145 -60 l-65 0 0 106 0 107 77 -6
c53 -4 85 -12 102 -25z"/>
<path d="M3435 5858 c-3 -7 -68 -188 -145 -401 -77 -213 -140 -392 -140 -398
0 -6 39 -9 102 -7 l101 3 22 65 22 65 154 3 155 2 24 -70 24 -70 103 0 c57 0
103 3 103 7 0 3 -61 175 -136 382 -75 207 -141 388 -146 404 l-10 27 -114 0
c-83 0 -116 -3 -119 -12z m211 -490 c5 -16 -4 -18 -90 -18 -53 0 -96 3 -96 7
0 5 21 71 47 148 l46 140 44 -130 c24 -72 46 -138 49 -147z"/>
<path d="M4940 5460 l0 -410 100 0 100 0 2 176 3 175 134 -175 133 -176 120 0
c93 0 118 3 112 13 -5 6 -73 95 -153 197 -79 102 -148 190 -153 196 -6 8 46
80 147 208 85 108 155 198 155 201 0 3 -51 5 -113 5 l-114 0 -134 -177 -134
-176 -3 176 -2 177 -100 0 -100 0 0 -410z"/>
<path d="M5750 5460 l0 -410 250 0 250 0 0 80 0 80 -150 0 -150 0 0 90 0 90
130 0 130 0 0 75 0 75 -130 0 -130 0 0 85 0 85 150 0 150 0 0 80 0 80 -250 0
-250 0 0 -410z"/>
<path d="M6337 5863 c-4 -3 -7 -39 -7 -80 l0 -73 110 0 110 0 0 -330 0 -330
100 0 100 0 0 330 0 330 105 0 105 0 0 80 0 80 -308 0 c-170 0 -312 -3 -315
-7z"/>
<path d="M8435 5858 c-3 -7 -68 -188 -145 -401 -77 -213 -140 -392 -140 -398
0 -6 39 -9 102 -7 l101 3 22 65 22 65 154 3 155 2 24 -70 24 -70 103 0 c57 0
103 3 103 7 0 3 -61 175 -136 382 -75 207 -141 388 -146 404 l-10 27 -114 0
c-83 0 -116 -3 -119 -12z m211 -490 c5 -16 -4 -18 -90 -18 -53 0 -96 3 -96 7
0 5 21 71 47 148 l46 140 44 -130 c24 -72 46 -138 49 -147z"/>
<path d="M9058 5864 c-5 -4 -8 -189 -8 -411 l0 -403 100 0 100 0 0 145 0 145
83 0 c221 0 341 94 341 265 -1 120 -58 201 -172 244 -41 15 -432 29 -444 15z
m332 -163 c56 -11 80 -40 80 -97 0 -31 -7 -51 -24 -71 -23 -26 -31 -28 -110
-32 l-86 -3 0 99 c0 55 3 103 7 106 9 9 78 8 133 -2z"/>
<path d="M9740 5790 l0 -80 105 0 105 0 0 -330 0 -330 100 0 100 0 0 330 0
330 110 0 111 0 -3 78 -3 77 -312 3 -313 2 0 -80z"/>
<path d="M10467 5863 c-13 -12 -7 -505 6 -569 24 -111 78 -179 183 -226 68
-30 206 -32 283 -3 72 26 143 92 178 163 l28 57 0 290 0 290 -97 3 -98 3 -1
-263 c0 -294 -4 -319 -59 -356 -47 -32 -146 -28 -184 7 -39 37 -46 91 -46 360
l0 251 -93 0 c-52 0 -97 -3 -100 -7z"/>
<path d="M11290 5460 l0 -410 100 0 100 0 0 156 0 155 23 -3 c17 -2 40 -36
106 -155 l84 -153 109 0 c97 0 109 2 104 16 -3 9 -44 81 -90 160 l-85 144 47
24 c58 29 85 58 111 116 40 87 20 203 -47 273 -65 69 -148 87 -394 87 l-168 0
0 -410z m374 230 c35 -13 60 -68 52 -113 -11 -58 -36 -72 -137 -75 l-89 -4 0
101 0 101 74 0 c41 0 86 -4 100 -10z"/>
<path d="M12047 5863 c-4 -3 -7 -188 -7 -410 l0 -403 250 0 250 0 0 80 0 80
-150 0 -151 0 3 88 3 87 133 3 132 3 0 74 0 74 -132 3 -133 3 0 80 0 80 148 3
147 3 0 79 0 80 -243 0 c-134 0 -247 -3 -250 -7z"/>
<path d="M11753 4840 c-147 -31 -233 -152 -203 -286 22 -96 76 -139 245 -194
131 -43 172 -83 149 -145 -9 -21 -56 -45 -92 -45 -34 0 -80 33 -92 66 -9 23
-13 24 -115 24 -58 0 -105 -4 -105 -8 0 -5 7 -31 15 -59 17 -57 66 -113 125
-143 104 -53 272 -48 364 11 118 75 149 237 64 335 -36 41 -78 64 -201 109
-48 18 -99 41 -113 50 -75 49 -25 150 65 130 31 -7 71 -47 71 -71 0 -11 23
-14 104 -14 58 0 107 4 110 9 3 5 -1 32 -10 61 -20 67 -82 131 -150 154 -59
20 -174 28 -231 16z"/>
<path d="M2867 4833 c-4 -3 -7 -188 -7 -410 l0 -403 100 0 100 0 0 165 0 165
125 0 125 0 0 75 0 75 -94 0 c-51 0 -108 3 -125 6 l-32 7 3 81 3 81 168 3 168
2 -3 78 -3 77 -261 3 c-143 1 -263 -1 -267 -5z"/>
<path d="M3500 4557 c0 -313 4 -345 59 -419 36 -49 97 -93 150 -108 158 -45
329 2 408 113 57 78 63 121 63 424 l0 273 -100 0 -100 0 0 -265 c0 -289 -4
-313 -55 -353 -34 -27 -120 -30 -165 -7 -57 29 -60 48 -60 334 0 143 -3 266
-6 275 -5 13 -24 16 -100 16 l-94 0 0 -283z"/>
<path d="M4320 4430 l0 -410 100 0 100 0 2 247 3 247 162 -247 163 -247 100 0
100 0 0 410 0 410 -100 0 -100 0 0 -252 0 -253 -167 253 -167 252 -98 0 -98 0
0 -410z"/>
<path d="M5198 4834 c-5 -4 -8 -189 -8 -411 l0 -403 185 0 c101 0 208 5 237
11 127 27 246 124 287 234 71 191 9 404 -147 503 -84 54 -137 64 -352 69 -107
3 -198 2 -202 -3z m399 -189 c85 -36 125 -106 125 -220 0 -158 -100 -243 -274
-233 l-53 3 -3 225 c-1 123 0 231 3 239 7 18 147 9 202 -14z"/>
<path d="M6136 4436 c-80 -222 -146 -407 -146 -410 0 -3 46 -6 103 -6 l103 0
23 70 22 70 154 0 154 0 22 -70 23 -70 107 0 106 0 -147 408 -148 407 -115 3
-114 3 -147 -405z m309 33 c25 -73 45 -137 45 -141 0 -4 -43 -8 -96 -8 -73 0
-95 3 -91 13 2 6 24 71 48 144 24 73 45 131 46 129 2 -2 24 -63 48 -137z"/>
<path d="M6900 4430 l0 -410 100 0 100 0 2 232 3 232 86 -229 86 -230 82 0 83
0 89 235 88 235 1 -237 0 -238 100 0 100 0 0 410 0 411 -116 -3 -117 -3 -113
-280 c-102 -253 -113 -277 -123 -255 -7 14 -58 140 -115 280 l-103 255 -117 3
-116 3 0 -411z"/>
<path d="M7967 4833 c-4 -3 -7 -188 -7 -410 l0 -403 250 0 250 0 0 80 0 80
-150 0 -150 0 0 90 0 90 135 0 135 0 0 75 0 75 -135 0 -135 0 0 85 0 85 150 0
150 0 0 80 0 80 -243 0 c-134 0 -247 -3 -250 -7z"/>
<path d="M8597 4833 c-4 -3 -7 -188 -7 -410 l0 -403 100 0 100 0 2 248 3 247
164 -247 163 -248 99 0 99 0 0 410 0 411 -97 -3 -98 -3 -3 -249 -2 -249 -166
251 -166 252 -92 0 c-51 0 -96 -3 -99 -7z"/>
<path d="M9427 4833 c-4 -3 -7 -39 -7 -80 l0 -73 110 0 110 0 0 -330 0 -330
100 0 100 0 0 330 0 330 105 0 105 0 0 80 0 80 -308 0 c-170 0 -312 -3 -315
-7z"/>
<path d="M10389 4813 c-9 -23 -231 -634 -275 -755 l-13 -38 103 0 104 0 25 68
25 67 154 3 154 2 23 -70 22 -70 105 0 c57 0 104 2 104 3 0 8 -282 782 -291
799 -9 16 -23 18 -120 18 l-109 0 -11 -27z m171 -345 c25 -72 47 -135 48 -140
2 -4 -41 -8 -96 -8 l-100 0 46 140 c26 77 49 140 52 140 3 0 25 -59 50 -132z"/>
<path d="M11010 4430 l0 -410 230 0 230 0 0 75 0 75 -130 0 -130 0 0 335 0
335 -100 0 -100 0 0 -410z"/>
<path d="M7453 3810 c-147 -31 -233 -152 -203 -286 22 -96 76 -139 245 -194
66 -22 109 -43 127 -61 42 -41 37 -89 -13 -114 -57 -30 -119 -12 -144 41 l-16
34 -104 0 c-58 0 -105 -4 -105 -8 0 -5 7 -31 15 -59 38 -127 201 -205 371
-176 160 28 261 164 224 302 -22 83 -77 125 -243 186 -48 18 -99 41 -113 50
-75 49 -25 150 65 130 31 -7 71 -47 71 -71 0 -11 23 -14 104 -14 58 0 107 4
110 9 3 5 -1 32 -10 61 -20 67 -82 131 -150 154 -59 20 -174 28 -231 16z"/>
<path d="M8285 3809 c-128 -19 -247 -108 -303 -227 -25 -52 -27 -67 -27 -182
0 -115 2 -130 27 -183 135 -288 564 -315 721 -45 14 23 29 55 32 71 l7 27
-109 0 -109 0 -17 -30 c-36 -61 -143 -89 -229 -61 -45 15 -100 76 -116 130
-27 88 -6 207 46 264 47 52 154 73 225 43 18 -7 47 -29 64 -50 l32 -36 106 0
c58 0 105 4 105 9 0 5 -9 30 -20 55 -42 99 -170 198 -272 211 -87 12 -104 12
-163 4z"/>
<path d="M3878 3805 c-3 -3 41 -187 97 -408 l102 -402 121 -3 121 -3 10 38 c6
21 36 142 68 268 l57 230 65 -267 65 -268 121 0 120 0 103 393 c56 216 102
401 102 410 0 16 -11 17 -102 15 l-103 -3 -60 -295 -59 -295 -38 160 c-21 88
-53 221 -71 295 l-32 135 -109 0 -109 0 -73 -290 c-39 -159 -72 -288 -73 -285
-1 3 -28 133 -59 290 l-58 285 -100 3 c-55 1 -103 0 -106 -3z"/>
<path d="M5140 3400 l0 -410 100 0 100 0 0 410 0 410 -100 0 -100 0 0 -410z"/>
<path d="M5440 3730 l0 -80 105 0 105 0 0 -330 0 -330 100 0 100 0 2 328 3
327 108 3 107 3 0 79 0 80 -315 0 -315 0 0 -80z"/>
<path d="M6170 3400 l0 -410 100 0 100 0 0 170 0 171 153 -3 152 -3 3 -167 2
-168 100 0 100 0 -2 408 -3 407 -97 3 -98 3 0 -161 0 -160 -155 0 -155 0 0
160 0 160 -100 0 -100 0 0 -410z"/>
<path d="M9105 3798 c-3 -7 -68 -188 -145 -402 -77 -213 -140 -392 -140 -397
0 -6 44 -8 102 -7 l101 3 22 65 22 65 154 3 154 2 24 -70 24 -70 104 0 c56 0
103 3 103 6 0 4 -61 176 -136 383 -75 207 -141 388 -146 404 l-10 27 -114 0
c-83 0 -116 -3 -119 -12z m211 -490 c5 -16 -4 -18 -90 -18 -53 0 -96 3 -96 7
0 5 21 71 47 148 l46 140 44 -130 c24 -72 46 -138 49 -147z"/>
<path d="M9727 3803 c-4 -3 -7 -188 -7 -410 l0 -403 100 0 100 0 0 144 0 143
108 5 c121 5 183 26 241 81 50 48 71 100 71 182 0 145 -77 230 -231 255 -71
11 -372 14 -382 3z m372 -175 c46 -29 55 -111 17 -155 -23 -26 -31 -28 -110
-32 l-86 -3 0 99 c0 55 3 103 8 107 10 12 148 -1 171 -16z"/>
<path d="M10390 3803 c0 -4 63 -129 140 -278 l140 -270 0 -132 0 -133 100 0
100 0 0 136 0 137 135 263 c74 144 135 267 135 273 0 7 -36 11 -106 11 l-105
0 -40 -85 c-21 -47 -57 -124 -79 -172 l-41 -87 -79 169 -78 170 -111 3 c-61 1
-111 -1 -111 -5z"/>
</g>
</svg>
